<svg width="275" height="42" viewBox="0 0 275 42" fill="none" xmlns="http://www.w3.org/2000/svg">
<path d="M14.8918 32.8016C13.0212 32.8016 11.2425 32.4796 9.55585 31.8356C7.86918 31.1916 6.36652 30.2409 5.04785 28.9836C3.75985 27.6956 2.73252 26.1009 1.96585 24.1996C1.22985 22.2676 0.861849 20.0289 0.861849 17.4836C0.861849 14.1409 1.50585 11.3042 2.79385 8.97357C4.11252 6.61224 5.86052 4.81824 8.03785 3.59157C10.2152 2.3649 12.6532 1.75157 15.3518 1.75157C17.2532 1.75157 18.9858 2.15024 20.5498 2.94757C22.1138 3.71424 23.4018 4.60357 24.4138 5.61557L20.3658 10.1236C19.6912 9.47957 18.9398 8.9889 18.1118 8.65157C17.3145 8.28357 16.3945 8.09957 15.3518 8.09957C14.0332 8.09957 12.8372 8.46757 11.7638 9.20357C10.7212 9.9089 9.89318 10.9516 9.27985 12.3316C8.69718 13.6809 8.40585 15.3062 8.40585 17.2076C8.40585 19.1702 8.69718 20.8416 9.27985 22.2216C9.89318 23.6016 10.7518 24.6596 11.8558 25.3956C12.9598 26.1009 14.2325 26.4536 15.6738 26.4536C16.6858 26.4536 17.6212 26.2236 18.4799 25.7636C19.3385 25.2729 20.1052 24.6749 20.7798 23.9696L24.8278 28.3856C23.6012 29.8576 22.1445 30.9616 20.4578 31.6976C18.7712 32.4336 16.9158 32.8016 14.8918 32.8016ZM29.5399 32.2496V0.141572H36.8999V7.77757L36.4399 12.0096H36.6239C37.4212 11.2122 38.4332 10.4762 39.6599 9.80157C40.8865 9.1269 42.3432 8.78957 44.0299 8.78957C46.6059 8.78957 48.4765 9.6329 49.6419 11.3196C50.8072 12.9756 51.3899 15.2449 51.3899 18.1276V32.2496H44.0299V19.0476C44.0299 17.6676 43.8152 16.6556 43.3859 16.0116C42.9565 15.3676 42.1745 15.0456 41.0399 15.0456C40.2119 15.0456 39.4912 15.2296 38.8779 15.5976C38.2645 15.9349 37.6052 16.4256 36.8999 17.0696V32.2496H29.5399ZM64.4739 32.8016C62.9099 32.8016 61.5759 32.4796 60.4719 31.8356C59.3679 31.1916 58.5092 30.3482 57.8959 29.3056C57.3132 28.2629 57.0219 27.0976 57.0219 25.8096C57.0219 23.2642 58.1412 21.3169 60.3799 19.9676C62.6492 18.5876 66.4519 17.7442 71.7879 17.4376C71.6959 16.8242 71.4659 16.3182 71.0979 15.9196C70.7299 15.4902 70.2086 15.1682 69.5339 14.9536C68.8899 14.7082 68.0926 14.5856 67.1419 14.5856C66.4672 14.5856 65.7619 14.6776 65.0259 14.8616C64.3206 15.0149 63.5846 15.2449 62.8179 15.5516C62.0819 15.8582 61.2692 16.2262 60.3799 16.6556L57.7579 11.8256C58.8926 11.2122 60.0426 10.6756 61.2079 10.2156C62.3732 9.75557 63.5692 9.40291 64.7959 9.15757C66.0226 8.91224 67.2799 8.78957 68.5679 8.78957C70.7452 8.78957 72.6159 9.1729 74.1799 9.93957C75.7439 10.6756 76.9552 11.8256 77.8139 13.3896C78.6726 14.9229 79.1019 16.9009 79.1019 19.3236V32.2496H73.1219L72.6159 29.7656H72.4319C71.2972 30.6242 70.0552 31.3449 68.7059 31.9276C67.3566 32.5102 65.9459 32.8016 64.4739 32.8016ZM66.8199 27.1436C67.8012 27.1436 68.6906 26.9596 69.4879 26.5916C70.3159 26.1929 71.0826 25.7176 71.7879 25.1656V21.8536C69.7332 21.9149 68.1386 22.1142 67.0039 22.4516C65.8692 22.7582 65.0872 23.1569 64.6579 23.6476C64.2286 24.1076 64.0139 24.6289 64.0139 25.2116C64.0139 25.6409 64.1212 26.0089 64.3359 26.3156C64.5812 26.5916 64.9032 26.8062 65.3019 26.9596C65.7312 27.0822 66.2372 27.1436 66.8199 27.1436ZM100.374 32.8016C97.3993 32.8016 95.1606 31.9122 93.6579 30.1336C92.1553 28.3242 91.4039 25.9629 91.4039 23.0496V5.84557H84.4119V0.141572H98.7179V23.3256C98.7179 24.6749 99.1013 25.6102 99.8679 26.1316C100.635 26.6529 101.447 26.9136 102.306 26.9136C102.827 26.9136 103.349 26.8522 103.87 26.7296C104.422 26.6069 105.051 26.4229 105.756 26.1776L107.366 31.6056C106.17 31.9736 105.066 32.2649 104.054 32.4796C103.073 32.6942 101.846 32.8016 100.374 32.8016ZM128.316 32.8016C125.341 32.8016 123.103 31.9122 121.6 30.1336C120.097 28.3242 119.346 25.9629 119.346 23.0496V5.84557H112.354V0.141572H126.66V23.3256C126.66 24.6749 127.043 25.6102 127.81 26.1316C128.577 26.6529 129.389 26.9136 130.248 26.9136C130.769 26.9136 131.291 26.8522 131.812 26.7296C132.364 26.6069 132.993 26.4229 133.698 26.1776L135.308 31.6056C134.112 31.9736 133.008 32.2649 131.996 32.4796C131.015 32.6942 129.788 32.8016 128.316 32.8016ZM153.36 32.8016C150.968 32.8016 148.806 32.3262 146.874 31.3756C144.942 30.4249 143.409 29.0602 142.274 27.2816C141.17 25.5029 140.618 23.3409 140.618 20.7956C140.618 18.2809 141.185 16.1342 142.32 14.3556C143.455 12.5769 144.927 11.2122 146.736 10.2616C148.576 9.28024 150.523 8.78957 152.578 8.78957C154.939 8.78957 156.917 9.28024 158.512 10.2616C160.137 11.2429 161.349 12.5769 162.146 14.2636C162.974 15.9196 163.388 17.7749 163.388 19.8296C163.388 20.4736 163.357 21.1022 163.296 21.7156C163.235 22.2982 163.173 22.7276 163.112 23.0036H146.092V18.1736H158.052L156.994 19.5076C156.994 17.8209 156.641 16.5482 155.936 15.6896C155.231 14.8002 154.188 14.3556 152.808 14.3556C151.735 14.3556 150.815 14.5856 150.048 15.0456C149.312 15.5056 148.729 16.2262 148.3 17.2076C147.901 18.1582 147.702 19.3542 147.702 20.7956C147.702 22.2982 147.947 23.5249 148.438 24.4756C148.959 25.4262 149.711 26.1316 150.692 26.5916C151.704 27.0209 152.931 27.2356 154.372 27.2356C155.353 27.2356 156.289 27.1129 157.178 26.8676C158.098 26.6222 159.064 26.2542 160.076 25.7636L162.468 30.1336C161.149 30.9616 159.677 31.6209 158.052 32.1116C156.427 32.5716 154.863 32.8016 153.36 32.8016ZM169.25 32.2496V9.34157H175.23L175.736 12.2396H175.92C176.871 11.3196 177.975 10.5222 179.232 9.84757C180.52 9.14224 182.023 8.78957 183.74 8.78957C186.285 8.78957 188.141 9.6329 189.306 11.3196C190.502 12.9756 191.1 15.2449 191.1 18.1276V32.2496H183.74V19.0476C183.74 17.6676 183.525 16.6556 183.096 16.0116C182.667 15.3676 181.885 15.0456 180.75 15.0456C179.922 15.0456 179.201 15.2296 178.588 15.5976C177.975 15.9349 177.315 16.4256 176.61 17.0696V32.2496H169.25ZM206.622 41.8636C204.69 41.8636 202.942 41.6642 201.378 41.2656C199.814 40.8669 198.572 40.2382 197.652 39.3796C196.732 38.5516 196.272 37.4476 196.272 36.0676C196.272 35.1169 196.563 34.2736 197.146 33.5376C197.759 32.8016 198.633 32.1422 199.768 31.5596V31.3756C199.155 30.9769 198.618 30.4709 198.158 29.8576C197.698 29.2136 197.468 28.4162 197.468 27.4656C197.468 26.6989 197.729 25.9322 198.25 25.1656C198.771 24.3989 199.431 23.7396 200.228 23.1876V23.0036C199.4 22.4209 198.679 21.6236 198.066 20.6116C197.453 19.5996 197.146 18.4342 197.146 17.1156C197.146 15.2449 197.606 13.6962 198.526 12.4696C199.477 11.2429 200.703 10.3229 202.206 9.70957C203.739 9.09624 205.38 8.78957 207.128 8.78957C208.569 8.78957 209.842 8.97357 210.946 9.34157H220.238V14.6776H215.868C216.083 14.9842 216.267 15.3829 216.42 15.8736C216.604 16.3336 216.696 16.8242 216.696 17.3456C216.696 19.1242 216.267 20.5809 215.408 21.7156C214.58 22.8502 213.445 23.6936 212.004 24.2456C210.563 24.7669 208.937 25.0276 207.128 25.0276C206.699 25.0276 206.223 24.9969 205.702 24.9356C205.211 24.8742 204.675 24.7669 204.092 24.6136C203.785 24.8589 203.555 25.0889 203.402 25.3036C203.279 25.4876 203.218 25.7636 203.218 26.1316C203.218 26.6529 203.509 27.0362 204.092 27.2816C204.705 27.5269 205.671 27.6496 206.99 27.6496H211.038C214.043 27.6496 216.359 28.1096 217.984 29.0296C219.64 29.9496 220.468 31.4522 220.468 33.5376C220.468 35.1629 219.901 36.5889 218.766 37.8156C217.631 39.0729 216.021 40.0542 213.936 40.7596C211.881 41.4956 209.443 41.8636 206.622 41.8636ZM207.128 20.6116C207.711 20.6116 208.232 20.4889 208.692 20.2436C209.152 19.9676 209.52 19.5689 209.796 19.0476C210.103 18.5262 210.256 17.8822 210.256 17.1156C210.256 16.3489 210.103 15.7202 209.796 15.2296C209.52 14.7082 209.152 14.3249 208.692 14.0796C208.232 13.8036 207.711 13.6656 207.128 13.6656C206.576 13.6656 206.055 13.8036 205.564 14.0796C205.104 14.3249 204.736 14.7082 204.46 15.2296C204.184 15.7202 204.046 16.3489 204.046 17.1156C204.046 17.8822 204.184 18.5262 204.46 19.0476C204.736 19.5689 205.104 19.9676 205.564 20.2436C206.055 20.4889 206.576 20.6116 207.128 20.6116ZM207.726 37.2636C208.861 37.2636 209.857 37.1562 210.716 36.9416C211.575 36.7576 212.249 36.4662 212.74 36.0676C213.231 35.6996 213.476 35.2856 213.476 34.8256C213.476 34.1509 213.154 33.7216 212.51 33.5376C211.866 33.3536 210.931 33.2616 209.704 33.2616H207.082C206.223 33.2616 205.533 33.2309 205.012 33.1696C204.491 33.1389 204.031 33.0622 203.632 32.9396C203.141 33.2769 202.773 33.5836 202.528 33.8596C202.313 34.1662 202.206 34.5189 202.206 34.9176C202.206 35.7149 202.712 36.2976 203.724 36.6656C204.736 37.0642 206.07 37.2636 207.726 37.2636ZM237.186 32.8016C234.794 32.8016 232.632 32.3262 230.7 31.3756C228.768 30.4249 227.235 29.0602 226.1 27.2816C224.996 25.5029 224.444 23.3409 224.444 20.7956C224.444 18.2809 225.011 16.1342 226.146 14.3556C227.281 12.5769 228.753 11.2122 230.562 10.2616C232.402 9.28024 234.349 8.78957 236.404 8.78957C238.765 8.78957 240.743 9.28024 242.338 10.2616C243.963 11.2429 245.175 12.5769 245.972 14.2636C246.8 15.9196 247.214 17.7749 247.214 19.8296C247.214 20.4736 247.183 21.1022 247.122 21.7156C247.061 22.2982 246.999 22.7276 246.938 23.0036H229.918V18.1736H241.878L240.82 19.5076C240.82 17.8209 240.467 16.5482 239.762 15.6896C239.057 14.8002 238.014 14.3556 236.634 14.3556C235.561 14.3556 234.641 14.5856 233.874 15.0456C233.138 15.5056 232.555 16.2262 232.126 17.2076C231.727 18.1582 231.528 19.3542 231.528 20.7956C231.528 22.2982 231.773 23.5249 232.264 24.4756C232.785 25.4262 233.537 26.1316 234.518 26.5916C235.53 27.0209 236.757 27.2356 238.198 27.2356C239.179 27.2356 240.115 27.1129 241.004 26.8676C241.924 26.6222 242.89 26.2542 243.902 25.7636L246.294 30.1336C244.975 30.9616 243.503 31.6209 241.878 32.1116C240.253 32.5716 238.689 32.8016 237.186 32.8016ZM263.426 32.8016C261.433 32.8016 259.424 32.4642 257.4 31.7896C255.407 31.0842 253.689 30.2562 252.248 29.3056L255.33 24.7516C256.741 25.6102 258.213 26.2696 259.746 26.7296C261.31 27.1896 262.874 27.4196 264.438 27.4196C265.573 27.4196 266.385 27.2662 266.876 26.9596C267.397 26.6222 267.658 26.2082 267.658 25.7176C267.658 25.4416 267.566 25.1962 267.382 24.9816C267.229 24.7669 266.953 24.5829 266.554 24.4296C266.186 24.2456 265.649 24.0769 264.944 23.9236C264.269 23.7702 263.411 23.5709 262.368 23.3256C259.24 22.6509 257.001 21.7156 255.652 20.5196C254.333 19.3236 253.674 17.8516 253.674 16.1036C253.674 13.8956 254.625 12.1322 256.526 10.8136C258.458 9.46424 261.08 8.78957 264.392 8.78957C266.508 8.78957 268.409 9.1269 270.096 9.80157C271.783 10.4762 273.239 11.1969 274.466 11.9636L271.2 16.3336C270.004 15.6282 268.762 15.0916 267.474 14.7236C266.186 14.3556 264.929 14.1716 263.702 14.1716C263.119 14.1716 262.613 14.2329 262.184 14.3556C261.785 14.4782 261.479 14.6622 261.264 14.9076C261.049 15.1529 260.942 15.4289 260.942 15.7356C260.942 16.2876 261.31 16.6862 262.046 16.9316C262.813 17.1462 264.116 17.4836 265.956 17.9436C268.287 18.4649 270.096 19.0629 271.384 19.7376C272.703 20.3816 273.623 21.1636 274.144 22.0836C274.665 22.9729 274.926 24.0462 274.926 25.3036C274.926 26.7142 274.481 27.9869 273.592 29.1216C272.733 30.2562 271.445 31.1609 269.728 31.8356C268.041 32.4796 265.941 32.8016 263.426 32.8016Z" fill="white"/>
</svg>
