<svg width="69" height="27" viewBox="0 0 69 27" fill="none" xmlns="http://www.w3.org/2000/svg">
<g clip-path="url(#clip0_332_811)">
<path d="M0 1.552V4.28602C0.899244 4.28602 1.76166 4.63731 2.39752 5.26261C3.03339 5.8879 3.39061 6.73599 3.39061 7.62029C3.39061 8.50461 3.03339 9.35271 2.39752 9.97798C1.76166 10.6033 0.899244 10.9546 0 10.9546V13.4588C0 22.1251 6.31865 26.8756 10.9063 26.8756V1.552H0Z" fill="#006CF0"/>
<path d="M16.0041 13.4587H13.4575V26.8756H16.0041V13.4587Z" fill="#F9F9F9"/>
<path d="M24.359 10.9546C23.4597 10.9546 22.5973 10.6033 21.9615 9.97798C21.3256 9.35271 20.9684 8.50461 20.9684 7.62029C20.9684 6.73599 21.3256 5.88791 21.9615 5.26261C22.5973 4.63731 23.4597 4.28602 24.359 4.28602V1.552H13.4575V13.4588H24.3638V10.9546H24.359Z" fill="#EE4757"/>
<path d="M66.2194 21.206C66.2239 20.4477 66.4954 19.7143 66.9874 19.1304C67.4794 18.5466 68.1617 18.1482 68.9188 18.003V15.269H41.2931V26.9179H68.9188V24.409C68.1617 24.2638 67.4794 23.8655 66.9874 23.2816C66.4954 22.6977 66.2239 21.9644 66.2194 21.206Z" fill="#EE4757"/>
<path fill-rule="evenodd" clip-rule="evenodd" d="M46.7675 25.1031C46.1302 25.1085 45.5047 24.9343 44.9649 24.6013C44.4099 24.255 43.9589 23.7693 43.6582 23.1944C43.3225 22.5412 43.1585 21.8157 43.1814 21.0841C43.1578 20.342 43.3217 19.6056 43.6582 18.9409C43.9554 18.3724 44.4079 17.8966 44.9649 17.5669C45.5121 17.2502 46.1375 17.0879 46.7723 17.098C47.3243 17.0824 47.8712 17.2067 48.3603 17.4591C48.796 17.6898 49.1652 18.0254 49.4333 18.4345C49.7109 18.8627 49.8989 19.341 49.9864 19.8414C50.0772 20.3723 50.0772 20.9143 49.9864 21.4452H45.0315C45.0264 21.8274 45.0927 22.2073 45.2272 22.566C45.3329 22.8705 45.5248 23.139 45.7804 23.3398C46.063 23.5216 46.3923 23.6208 46.73 23.6258C47.0677 23.6307 47.3998 23.5413 47.6879 23.3679C47.8139 23.2812 47.921 23.1705 48.0029 23.0425C48.0848 22.9144 48.1398 22.7716 48.1648 22.6223H50.0723C50.0038 23.0926 49.8115 23.5372 49.5143 23.9119C49.2127 24.29 48.8214 24.5895 48.3746 24.7842C47.8696 25.0064 47.3206 25.1153 46.7675 25.1031ZM45.2367 19.6116C45.1261 19.8815 45.0593 20.1664 45.0384 20.4557H48.319C48.318 20.2863 48.3047 20.117 48.2792 19.9492C48.2422 19.7086 48.1648 19.4757 48.0503 19.2599C47.9404 19.0533 47.7756 18.8799 47.5734 18.7581C47.3383 18.6225 47.0686 18.5558 46.7961 18.5658C46.456 18.5579 46.122 18.6565 45.8424 18.8472C45.5709 19.0404 45.3609 19.3055 45.2367 19.6116ZM50.5492 17.2715H53.2865C54.0158 17.2578 54.7376 17.4187 55.3895 17.7404C55.9845 18.0365 56.4809 18.4937 56.8201 19.0582C57.1764 19.6781 57.3544 20.3817 57.3352 21.0935C57.3534 21.7992 57.1753 22.4965 56.8201 23.11C56.482 23.6742 55.9852 24.1302 55.3895 24.4231C54.7376 24.7448 54.0158 24.9058 53.2865 24.892H50.5492V17.2715ZM52.3947 18.9409V23.2273H53.2865C53.6688 23.2372 54.046 23.1396 54.3738 22.9458C54.673 22.7609 54.914 22.4979 55.07 22.1861C55.2412 21.847 55.3263 21.4721 55.318 21.0935C55.3273 20.7073 55.2422 20.3245 55.07 19.9774C54.9121 19.6627 54.6676 19.3978 54.3643 19.213C54.0347 19.0245 53.6581 18.9302 53.277 18.9409H52.3947ZM59.6337 17.2715H57.7881L57.7977 21.8907C57.784 22.471 57.9149 23.0458 58.1792 23.5649C58.4338 24.0391 58.8299 24.4253 59.3142 24.6716C59.8836 24.9312 60.5036 25.0656 61.1311 25.0656C61.7586 25.0656 62.3786 24.9312 62.948 24.6716C63.4241 24.4222 63.8116 24.0362 64.0591 23.5649C64.3271 23.047 64.4599 22.4716 64.4454 21.8907V17.2715H62.6047V21.8907C62.6248 22.104 62.5973 22.3191 62.524 22.5208C62.4507 22.7225 62.3333 22.906 62.1802 23.0584C61.8798 23.3006 61.5002 23.4273 61.112 23.4148C60.7268 23.4267 60.3504 23.3 60.0533 23.0584C59.9011 22.9056 59.7846 22.7219 59.7121 22.5202C59.6397 22.3185 59.6129 22.1037 59.6337 21.8907V17.2715Z" fill="#F9F9F9"/>
<path fill-rule="evenodd" clip-rule="evenodd" d="M41.274 2.73853V13.4354L42.4948 13.4401L42.9436 12.1419C43.1437 12.595 43.4646 12.987 43.873 13.276C44.2662 13.5342 44.7308 13.6668 45.2034 13.6558C45.8422 13.6582 46.4674 13.4755 47.0013 13.1306C47.5463 12.7824 47.9861 12.2965 48.2746 11.7237C48.6038 11.0616 48.7673 10.3316 48.7515 9.59464C48.7624 8.87026 48.5989 8.15361 48.2746 7.5031C48.002 6.94335 47.5801 6.46682 47.0537 6.12439C46.5461 5.80554 45.9535 5.64231 45.3513 5.65543C44.8293 5.64171 44.3148 5.78042 43.873 6.05405C43.579 6.25411 43.3313 6.5101 43.1433 6.80506V2.73853H41.274ZM43.1433 9.17731V10.3328C43.17 10.5883 43.2499 10.8366 43.3789 11.0619C43.5467 11.3548 43.7915 11.5979 44.0876 11.766C44.3464 11.9206 44.6431 12.0032 44.9459 12.0051C45.2872 12.0057 45.6203 11.9025 45.8997 11.7096C46.1972 11.4999 46.4312 11.2146 46.5769 10.8843C46.7529 10.4901 46.8391 10.0627 46.8296 9.63218C46.839 9.2158 46.7543 8.80259 46.5816 8.4223C46.4382 8.09571 46.2034 7.81599 45.9045 7.61566C45.7044 7.48484 45.4795 7.39523 45.2433 7.35217C45.0071 7.30918 44.7645 7.31368 44.5301 7.36537C44.2957 7.41711 44.0744 7.51496 43.8794 7.65308C43.6845 7.79119 43.5201 7.96673 43.3961 8.16902C43.2222 8.4769 43.1365 8.82536 43.1481 9.17731H43.1433ZM30.3438 13.6558C29.7102 13.6609 29.0883 13.4884 28.5507 13.1587C27.9843 12.8159 27.5216 12.3301 27.2107 11.7519C26.8607 11.1045 26.6865 10.3792 26.7052 9.64626C26.681 8.8877 26.8585 8.13604 27.2202 7.46562C27.5305 6.9016 27.9945 6.43387 28.5603 6.11502C29.1059 5.80693 29.7242 5.64521 30.3533 5.64606C30.8087 5.63723 31.2611 5.71857 31.6838 5.88523C32.0417 6.03332 32.366 6.25014 32.6376 6.52301C32.9018 6.78002 33.1167 7.08188 33.2719 7.414C33.4204 7.7274 33.5201 8.06096 33.5675 8.40353L31.66 8.45045C31.5821 8.13706 31.417 7.85125 31.1831 7.62505C30.9418 7.40373 30.6211 7.28565 30.2913 7.29681C29.99 7.29751 29.6952 7.38382 29.4425 7.54534C29.158 7.73241 28.9345 7.99621 28.7987 8.30504C28.6155 8.72516 28.5292 9.18004 28.5459 9.63688C28.5437 10.0822 28.6363 10.5232 28.8178 10.9312C28.948 11.2443 29.1664 11.5144 29.4473 11.7096C29.7078 11.8824 30.0152 11.9739 30.3295 11.9723C30.517 11.9888 30.706 11.9674 30.8848 11.9093C31.0637 11.8513 31.2284 11.7578 31.3691 11.6346C31.5927 11.384 31.7089 11.0579 31.6934 10.7249H33.6009C33.6063 11.2373 33.4783 11.7427 33.2289 12.1927C32.9712 12.6522 32.5836 13.0285 32.113 13.276C31.5659 13.549 30.9568 13.6798 30.3438 13.6558ZM33.3816 5.87116H35.5085L37.3748 11.3087L38.9802 5.87116H40.8877L37.9358 14.8095C37.7307 15.5365 37.3476 16.2031 36.8199 16.7509C36.3821 17.149 35.8042 17.3643 35.208 17.3512C34.8484 17.3514 34.4899 17.3105 34.1398 17.2293C33.7741 17.1426 33.4191 17.0168 33.0812 16.8541V15.2315C33.3458 15.3938 33.6292 15.5245 33.9253 15.6207C34.1906 15.7028 34.4674 15.744 34.7455 15.7427C34.9791 15.7474 35.2081 15.6785 35.3989 15.5457C35.5964 15.3971 35.759 15.2084 35.8757 14.9924C36.0279 14.7326 36.151 14.4575 36.2429 14.1717L36.4813 13.4354L33.3816 5.87116ZM52.6094 13.6558C51.9738 13.6603 51.35 13.4862 50.8116 13.154C50.2553 12.8091 49.8039 12.3231 49.5049 11.7472C49.1693 11.0939 49.0054 10.3684 49.028 9.63688C49.0044 8.89474 49.1683 8.15836 49.5049 7.49372C49.7943 6.92959 50.2394 6.45703 50.7893 6.13023C51.3393 5.80344 51.9717 5.63563 52.6142 5.64605C53.1675 5.63276 53.7153 5.75695 54.2069 6.00715C54.6433 6.24299 55.0135 6.58131 55.2847 6.99196C55.5623 7.41965 55.7489 7.89824 55.8331 8.39883C55.9215 8.93145 55.9215 9.47473 55.8331 10.0073H50.8781C50.8716 10.3877 50.9364 10.766 51.0691 11.1234C51.183 11.4312 51.3851 11.6999 51.6509 11.8972C51.9291 12.0907 52.264 12.1895 52.6046 12.1786C52.93 12.1893 53.2509 12.1027 53.525 11.9301C53.6514 11.8426 53.7586 11.7311 53.8405 11.6023C53.9224 11.4734 53.9773 11.3297 54.0019 11.1798H55.9094C55.8264 11.6505 55.6229 12.0927 55.3181 12.4647C55.017 12.8433 54.6255 13.1429 54.1783 13.3369C53.6847 13.5528 53.1496 13.6616 52.6094 13.6558ZM51.0834 8.16433C50.9733 8.43447 50.9066 8.7192 50.8854 9.0085H54.1641C54.162 8.83893 54.1476 8.66968 54.1211 8.50201C54.0848 8.26179 54.0091 8.02894 53.897 7.81263C53.7841 7.60812 53.62 7.43537 53.4201 7.31083C53.1835 7.17436 52.912 7.10762 52.638 7.11857C52.2979 7.11135 51.9641 7.20982 51.6842 7.39993C51.4155 7.5948 51.2074 7.85949 51.0834 8.16433ZM56.8775 5.84302V13.4354H58.7468V10.1019L58.7707 10.1011C58.7583 9.62381 58.8293 9.14795 58.9805 8.69428C59.096 8.35026 59.3157 8.04923 59.61 7.8314C59.9142 7.62758 60.2771 7.52568 60.6449 7.54064C60.7883 7.54191 60.9316 7.5513 61.074 7.5688C61.2314 7.5922 61.3792 7.61566 61.5176 7.64851L61.5413 5.82895C61.5154 5.82227 61.489 5.8148 61.4626 5.80729C61.3776 5.78316 61.2912 5.75861 61.2076 5.75861C61.0874 5.74333 60.9663 5.73549 60.8452 5.73516C60.3741 5.73482 59.9188 5.9013 59.5623 6.20412C59.2048 6.52879 58.9267 6.92712 58.7468 7.36911V5.84302H56.8775Z" fill="#F9F9F9"/>
</g>
<defs>
<clipPath id="clip0_332_811">
<rect width="69" height="26" fill="white" transform="translate(0 0.932861)"/>
</clipPath>
</defs>
</svg>
