<svg width="64" height="64" viewBox="0 0 64 64" fill="none" xmlns="http://www.w3.org/2000/svg">
<g filter="url(#filter0_bddd_35_1844)">
<path d="M10.5 8C10.5 3.85786 13.8579 0.5 18 0.5H46C50.1421 0.5 53.5 3.85786 53.5 8V36C53.5 40.1421 50.1421 43.5 46 43.5H18C13.8579 43.5 10.5 40.1421 10.5 36V8Z" stroke="white" shape-rendering="crispEdges"/>
<g clip-path="url(#clip0_35_1844)">
<path d="M38.1167 30.3332H25.8833C24.6583 30.3332 23.6667 29.3415 23.6667 28.1165V15.8832C23.6667 14.6582 24.6583 13.6665 25.8833 13.6665H38.1083C39.3417 13.6665 40.3333 14.6582 40.3333 15.8832V28.1082C40.3333 29.3415 39.3417 30.3332 38.1167 30.3332Z" stroke="white" stroke-width="1.5" stroke-miterlimit="10" stroke-linecap="round" stroke-linejoin="round"/>
<path d="M32 27V18.9583C32 17.25 33.3667 16.7166 34.7333 17.1333" stroke="white" stroke-width="1.5" stroke-miterlimit="10" stroke-linecap="round" stroke-linejoin="round"/>
<path d="M29.9167 21.1665H34.0833" stroke="white" stroke-width="1.5" stroke-miterlimit="10" stroke-linecap="round" stroke-linejoin="round"/>
</g>
</g>
<defs>
<filter id="filter0_bddd_35_1844" x="-10" y="-20" width="84" height="84" filterUnits="userSpaceOnUse" color-interpolation-filters="sRGB">
<feFlood flood-opacity="0" result="BackgroundImageFix"/>
<feGaussianBlur in="BackgroundImageFix" stdDeviation="10"/>
<feComposite in2="SourceAlpha" operator="in" result="effect1_backgroundBlur_35_1844"/>
<feColorMatrix in="SourceAlpha" type="matrix" values="0 0 0 0 0 0 0 0 0 0 0 0 0 0 0 0 0 0 127 0" result="hardAlpha"/>
<feOffset dy="10"/>
<feGaussianBlur stdDeviation="5"/>
<feComposite in2="hardAlpha" operator="out"/>
<feColorMatrix type="matrix" values="0 0 0 0 0 0 0 0 0 0 0 0 0 0 0 0 0 0 0.1 0"/>
<feBlend mode="normal" in2="effect1_backgroundBlur_35_1844" result="effect2_dropShadow_35_1844"/>
<feColorMatrix in="SourceAlpha" type="matrix" values="0 0 0 0 0 0 0 0 0 0 0 0 0 0 0 0 0 0 127 0" result="hardAlpha"/>
<feOffset dy="4"/>
<feGaussianBlur stdDeviation="2"/>
<feComposite in2="hardAlpha" operator="out"/>
<feColorMatrix type="matrix" values="0 0 0 0 0 0 0 0 0 0 0 0 0 0 0 0 0 0 0.05 0"/>
<feBlend mode="normal" in2="effect2_dropShadow_35_1844" result="effect3_dropShadow_35_1844"/>
<feColorMatrix in="SourceAlpha" type="matrix" values="0 0 0 0 0 0 0 0 0 0 0 0 0 0 0 0 0 0 127 0" result="hardAlpha"/>
<feOffset dy="1"/>
<feComposite in2="hardAlpha" operator="out"/>
<feColorMatrix type="matrix" values="0 0 0 0 0 0 0 0 0 0 0 0 0 0 0 0 0 0 0.05 0"/>
<feBlend mode="normal" in2="effect3_dropShadow_35_1844" result="effect4_dropShadow_35_1844"/>
<feBlend mode="normal" in="SourceGraphic" in2="effect4_dropShadow_35_1844" result="shape"/>
</filter>
<clipPath id="clip0_35_1844">
<rect width="20" height="20" fill="white" transform="translate(22 12)"/>
</clipPath>
</defs>
</svg>
