<svg width="275" height="64" viewBox="0 0 275 64" fill="none" xmlns="http://www.w3.org/2000/svg">
<g clip-path="url(#clip0_35_1872)">
<path d="M63.3685 25.6733C64.1958 29.7295 64.2203 33.9473 63.4076 38.1308C61.7823 46.5075 56.9895 53.7491 49.9105 58.5246C42.8315 63.3002 34.3229 65.0323 25.9368 63.4078C23.9933 63.0311 22.1134 62.483 20.3069 61.7785L26.5634 57.5558C26.6907 57.5852 26.818 57.6097 26.9453 57.6341C33.5397 58.9454 40.6334 57.7271 46.6354 53.6806C54.904 48.1026 58.9575 38.5907 57.9931 29.3038C57.7777 27.239 57.3175 25.1889 56.593 23.1925L61.5718 19.8311C62.36 21.7246 62.9621 23.6818 63.3636 25.6782L63.3685 25.6733Z" fill="#FFC947"/>
<path d="M59.9954 16.5812L57.4693 18.2839L37.9604 31.446L37.8723 31.5047C38.1415 33.7849 37.1624 36.1335 35.1405 37.5133C33.104 38.854 30.5729 38.8784 28.5657 37.7824C27.6992 37.3127 26.9306 36.6277 26.3383 35.7567C25.7459 34.8809 25.4032 33.917 25.2906 32.9335C25.0409 30.7904 25.8879 28.5885 27.665 27.1842L27.758 27.1206L28.2377 26.7977L28.3699 26.7096C30.3379 25.5842 32.7025 25.6185 34.5971 26.6558L34.6852 26.5971L51.7561 15.079L51.8443 15.0203C51.0805 14.1249 50.263 13.2882 49.4063 12.52C47.8299 11.106 46.0968 9.90718 44.2659 8.93348C36.007 4.54449 25.6431 4.74021 17.3646 10.3231C17.3353 10.3427 17.3108 10.3622 17.2814 10.3769C17.2471 10.4014 17.208 10.4258 17.1737 10.4503C17.0807 10.5139 16.9877 10.5775 16.8996 10.6411L16.8751 10.6558C16.7772 10.7243 16.6793 10.7928 16.5862 10.8613C16.5422 10.8907 16.4981 10.9249 16.459 10.9543C16.3513 11.0326 16.2485 11.1109 16.1407 11.1891C16.0281 11.2723 15.9155 11.3604 15.803 11.4485C15.7785 11.4631 15.7589 11.4827 15.7344 11.5023C15.6267 11.5855 15.519 11.6735 15.4113 11.7616C15.3281 11.8301 15.2449 11.8986 15.1567 11.9671C15.1323 11.9867 15.1078 12.0063 15.0833 12.0258C15.0294 12.0699 14.9805 12.1139 14.9266 12.1579C14.8581 12.2167 14.7945 12.2705 14.7308 12.3292C14.7161 12.3439 14.7014 12.3537 14.6868 12.3683C14.5888 12.4515 14.4909 12.5396 14.3979 12.6277C14.3832 12.6375 14.3685 12.6521 14.3539 12.6668C14.2462 12.7647 14.1385 12.8625 14.0307 12.9653C13.9377 13.0485 13.8496 13.1365 13.7566 13.2246C13.7174 13.2638 13.6783 13.298 13.6391 13.3372C13.5853 13.391 13.5314 13.4399 13.4775 13.4986C13.4335 13.5427 13.3845 13.5916 13.3405 13.6356C13.2524 13.7237 13.1642 13.8118 13.081 13.8998C12.9929 13.9928 12.9097 14.0809 12.8215 14.169C12.7873 14.2081 12.753 14.2472 12.7138 14.2864C12.6257 14.3842 12.5376 14.4772 12.4495 14.5751C12.4446 14.58 12.4397 14.5898 12.4348 14.5946C12.3418 14.7023 12.2488 14.805 12.1557 14.9127C11.862 15.2503 11.5781 15.5928 11.3039 15.9451C11.2158 16.0576 11.1326 16.1653 11.0493 16.2778C11.0395 16.2876 11.0298 16.3023 11.0249 16.3121C10.9416 16.4197 10.8584 16.5323 10.7801 16.6399C10.7801 16.6399 10.7801 16.6497 10.7703 16.6497C10.6822 16.7671 10.5989 16.8894 10.5157 17.0118C10.4325 17.1341 10.3493 17.2515 10.266 17.3787C10.0213 17.7408 9.78628 18.1029 9.56108 18.4797C9.46806 18.6313 9.37994 18.783 9.29182 18.9347C9.23308 19.0424 9.16943 19.1451 9.11069 19.2527C9.03725 19.38 8.96871 19.5072 8.90018 19.6344C8.83164 19.7616 8.7631 19.8937 8.69456 20.0209C8.63092 20.1482 8.56238 20.2803 8.49874 20.4124C8.37145 20.6717 8.24417 20.9359 8.12667 21.2001C8.06793 21.3323 8.00918 21.4644 7.95043 21.6014C7.83783 21.8607 7.73013 22.12 7.62732 22.3842C7.31401 23.1769 7.03985 23.9842 6.80486 24.8014C6.78528 24.8552 6.7706 24.9139 6.75591 24.9726C6.73633 25.0362 6.72164 25.0998 6.70695 25.1635C6.68737 25.232 6.66779 25.2956 6.6531 25.3641C6.61394 25.5157 6.57477 25.6723 6.53561 25.8289C6.51603 25.9121 6.49644 25.9904 6.47686 26.0735C6.45728 26.1469 6.44259 26.2154 6.4279 26.2888C6.37895 26.4992 6.33489 26.7096 6.29083 26.9298C6.27125 27.0326 6.25166 27.1402 6.23208 27.243C6.2125 27.3506 6.19292 27.4534 6.17333 27.561L0 31.72C0.0195823 29.7775 0.215406 27.8203 0.592366 25.8729C2.2226 17.4962 7.01048 10.2546 14.0895 5.47905C21.1685 0.703514 29.6819 -1.03349 38.0632 0.590975C42.2636 1.4081 46.1752 3.01299 49.6412 5.3078C51.34 6.43318 52.9262 7.72003 54.39 9.15856C55.2124 9.9659 55.9908 10.8271 56.7252 11.7274C57.3371 12.4809 57.9197 13.2638 58.468 14.076C59.0163 14.8931 59.5303 15.7249 59.9954 16.5714V16.5812Z" fill="#FFC947"/>
<path d="M19.9691 43.5818L9.57086 50.5983L7.13286 52.2424C6.52091 51.4889 5.93834 50.706 5.39003 49.8938C4.84173 49.0815 4.33259 48.2448 3.86261 47.3983L6.30061 45.7543L16.6988 38.7378C17.0856 39.6234 17.5556 40.4797 18.1137 41.3115C18.6718 42.1384 19.2935 42.8968 19.9691 43.5867V43.5818Z" fill="#749CE9"/>
<path d="M45.4555 15.1826L40.3005 18.6566C38.2297 17.3258 35.8945 16.4939 33.4858 16.2004C29.7456 15.7404 25.8291 16.5771 22.4708 18.8426C19.1075 21.1129 16.8702 24.4303 15.9009 28.0658C15.2743 30.4095 15.1714 32.8854 15.6316 35.3025L4.83197 42.5881L2.3499 44.2615C1.56171 42.368 0.959556 40.4157 0.553223 38.4193L5.92368 34.7936L9.50236 32.3765C9.50236 32.2835 9.50236 32.1955 9.50236 32.1025C9.50236 32.0144 9.50236 31.9264 9.50236 31.8383C9.50236 31.7698 9.50236 31.7013 9.50236 31.6328C9.50236 31.5202 9.51215 31.4077 9.51704 31.3001C9.52683 31.1043 9.53662 30.9135 9.55131 30.7178C9.55621 30.6395 9.5611 30.5612 9.57089 30.4829C9.58068 30.3704 9.59048 30.2579 9.60027 30.1404C9.60027 30.1062 9.60516 30.0719 9.61006 30.0426C9.61495 29.9692 9.62475 29.8909 9.63454 29.8175C9.63943 29.7686 9.64433 29.7147 9.65412 29.6658C9.66881 29.5582 9.6786 29.4505 9.69818 29.338C9.72266 29.1569 9.74714 28.971 9.77651 28.79C9.79119 28.697 9.80588 28.6089 9.82057 28.516C9.83526 28.4377 9.84994 28.3594 9.85973 28.2811C9.86952 28.2175 9.88421 28.1588 9.894 28.0952C9.90379 28.0365 9.91848 27.9728 9.93317 27.9092C9.95765 27.7918 9.98212 27.6695 10.0066 27.5521C10.0262 27.4689 10.0409 27.3857 10.0605 27.3025C10.0751 27.2438 10.0849 27.19 10.0996 27.1361C10.1388 26.9649 10.1828 26.7985 10.2269 26.6322C10.2465 26.5539 10.271 26.4707 10.2905 26.3924C10.3199 26.2848 10.3493 26.1771 10.3787 26.0744C10.4129 25.9569 10.4472 25.8444 10.4815 25.727C10.5011 25.6683 10.5157 25.6144 10.5353 25.5557C10.5745 25.4383 10.6088 25.316 10.6528 25.1985C10.6675 25.1545 10.6822 25.1105 10.6969 25.0664C10.7263 24.9735 10.7605 24.8756 10.7948 24.7826C10.8535 24.6212 10.9123 24.4597 10.9759 24.2982C10.9759 24.2884 10.9857 24.2787 10.9906 24.2689C10.9906 24.264 10.9955 24.2542 11.0004 24.2493C11.0102 24.2248 11.02 24.2004 11.0298 24.1808C11.064 24.0927 11.0983 24.0095 11.1326 23.9215C11.1718 23.8236 11.2109 23.7306 11.255 23.6328C11.2892 23.5545 11.3186 23.4762 11.3529 23.4028C11.3578 23.3881 11.3627 23.3735 11.3725 23.3588C11.3872 23.3245 11.4018 23.2952 11.4165 23.2609C11.4459 23.1973 11.4704 23.1337 11.5047 23.0701C11.534 23.0114 11.5585 22.9527 11.5879 22.8939C11.6172 22.8352 11.6417 22.7765 11.6711 22.7178C11.7152 22.6248 11.7641 22.5319 11.8082 22.434C11.8963 22.2579 11.9844 22.0866 12.0725 21.9202C12.097 21.8713 12.1215 21.8273 12.1509 21.7783C12.2488 21.5973 12.3467 21.4163 12.4495 21.2352C12.5131 21.1227 12.5768 21.0102 12.6453 20.9025C12.6796 20.8487 12.7139 20.79 12.7481 20.7361C12.7824 20.6823 12.8167 20.6236 12.8509 20.5698C13.0614 20.2322 13.2817 19.8995 13.5118 19.5716C13.551 19.5178 13.5853 19.464 13.6244 19.415C13.6342 19.4004 13.644 19.3857 13.6538 19.371C13.6979 19.3074 13.7419 19.2438 13.7909 19.1802C13.7958 19.1704 13.8056 19.1606 13.8105 19.1508C13.835 19.1166 13.8594 19.0872 13.8839 19.053C13.9427 18.9747 14.0014 18.8915 14.065 18.8132C14.1091 18.7545 14.1532 18.7007 14.1972 18.642C14.3196 18.4854 14.442 18.3337 14.5644 18.182C14.6231 18.1135 14.6819 18.0401 14.7406 17.9716C14.77 17.9374 14.7994 17.9031 14.8288 17.8689C14.8581 17.8346 14.8875 17.8004 14.9169 17.7661C14.9805 17.6927 15.0442 17.6242 15.1078 17.5508C15.1519 17.497 15.2008 17.4481 15.2498 17.3943C15.3232 17.3111 15.3966 17.2328 15.4701 17.1545C15.5239 17.1007 15.5729 17.042 15.6267 16.9881C15.6414 16.9686 15.661 16.9539 15.6757 16.9343C15.71 16.8952 15.7491 16.856 15.7883 16.8218C15.896 16.7092 16.0086 16.6016 16.1163 16.4939C16.1506 16.4597 16.1848 16.4254 16.2191 16.3961C16.2681 16.3472 16.3219 16.2982 16.3758 16.2493C16.4296 16.2004 16.4786 16.1514 16.5324 16.1025C16.5863 16.0536 16.6401 16.0047 16.694 15.9557C16.7478 15.9068 16.8017 15.8579 16.8555 15.8089C16.8898 15.7796 16.929 15.7453 16.9632 15.716L16.973 15.7062C17.0416 15.6475 17.1101 15.5839 17.1835 15.5251C17.2227 15.4909 17.2619 15.4566 17.301 15.4273C17.3843 15.3588 17.4675 15.2903 17.5507 15.2218C17.5997 15.1826 17.6437 15.1435 17.6927 15.1043C17.7269 15.075 17.7612 15.0456 17.8004 15.0212C17.8836 14.9576 17.9668 14.8891 18.05 14.8254C18.1382 14.7569 18.2263 14.6933 18.3144 14.6248C18.4221 14.5465 18.5298 14.4634 18.6375 14.3851C18.7256 14.3215 18.8138 14.2579 18.897 14.1991C18.897 14.1991 18.9068 14.1943 18.9117 14.1894C19.0096 14.1209 19.1026 14.0572 19.2005 13.9936C25.5305 9.72208 33.2998 9.18875 39.8893 11.8799C41.8769 12.6921 43.7568 13.793 45.4555 15.1777V15.1826Z" fill="#749CE9"/>
<path d="M52.5884 25.7662C53.2346 27.8652 53.5528 30.0182 53.5577 32.1662C53.5773 39.2659 50.1749 46.2481 43.8547 50.5099C43.7617 50.5735 43.6735 50.6322 43.5805 50.6909L43.512 50.735C43.4239 50.7937 43.3357 50.8475 43.2427 50.9062C43.1448 50.9698 43.0469 51.0285 42.949 51.0873C42.9196 51.1019 42.8951 51.1215 42.8658 51.1362C42.8021 51.1753 42.7336 51.2145 42.6699 51.2536C42.6357 51.2732 42.6014 51.2928 42.5671 51.3123C42.4937 51.3564 42.4203 51.3955 42.3468 51.4396C42.3175 51.4542 42.2881 51.4738 42.2587 51.4885C42.1755 51.5374 42.0874 51.5815 42.0041 51.6304C41.9944 51.6353 41.9895 51.6402 41.9797 51.6451C41.7741 51.7576 41.5684 51.8604 41.3677 51.9631C41.2649 52.012 41.1621 52.0659 41.0593 52.1148C40.9369 52.1735 40.8194 52.2273 40.697 52.286C40.5208 52.3643 40.3445 52.4426 40.1683 52.5209C40.1096 52.5454 40.0508 52.5698 39.9921 52.5943C39.9284 52.6237 39.8697 52.6481 39.806 52.6726C39.7913 52.6775 39.7767 52.6824 39.7669 52.6873C39.762 52.6873 39.7522 52.6922 39.7473 52.697C39.7375 52.697 39.7326 52.7019 39.7228 52.7068C39.6249 52.746 39.527 52.7851 39.4291 52.8243C39.1598 52.927 38.8954 53.0249 38.6262 53.113L38.5919 53.1227C38.5625 53.1325 38.5332 53.1423 38.5087 53.1521C38.4793 53.1619 38.4499 53.1717 38.4206 53.1815C38.2982 53.2206 38.1758 53.2597 38.0485 53.2989C37.8282 53.3674 37.6128 53.431 37.3925 53.4897C37.3338 53.5044 37.275 53.5191 37.2212 53.5386C37.0939 53.5729 36.9617 53.6071 36.8344 53.6365C36.8197 53.6365 36.805 53.6414 36.7903 53.6463C36.7218 53.661 36.6582 53.6805 36.5896 53.6952C36.5798 53.6952 36.57 53.7001 36.5602 53.705C36.4134 53.7393 36.2714 53.7686 36.1245 53.8029C36.1001 53.8029 36.0756 53.8126 36.056 53.8175C35.9875 53.8322 35.9238 53.842 35.8602 53.8567C35.6986 53.8909 35.5322 53.9203 35.3657 53.9496C35.2874 53.9643 35.214 53.9741 35.1356 53.9888C34.9545 54.0181 34.7685 54.0475 34.5873 54.072C34.4405 54.0915 34.2985 54.1111 34.1516 54.1258C34.1271 54.1258 34.1027 54.1307 34.0831 54.1356C33.9558 54.1503 33.8285 54.1649 33.7012 54.1747C33.5984 54.1845 33.4956 54.1943 33.3879 54.2041C33.3536 54.2041 33.3243 54.209 33.29 54.2139C33.2802 54.2139 33.2655 54.2139 33.2557 54.2139C33.197 54.2188 33.1333 54.2237 33.0746 54.2285C32.9522 54.2383 32.8298 54.2432 32.7074 54.2481C32.6487 54.2481 32.5899 54.253 32.5312 54.2579C32.5165 54.2579 32.5018 54.2579 32.492 54.2579C32.4626 54.2579 32.4333 54.2579 32.4039 54.2579C32.3256 54.2579 32.2521 54.2628 32.1738 54.2628C32.1395 54.2628 32.1053 54.2628 32.0759 54.2628C32.0122 54.2628 31.9486 54.2628 31.885 54.2628C31.8066 54.2628 31.7332 54.2628 31.6598 54.2628C31.6255 54.2628 31.5912 54.2628 31.5521 54.2628C31.3709 54.2628 31.1898 54.2628 31.0135 54.2579C31.0087 54.2579 30.9989 54.2579 30.994 54.2579C30.9107 54.2579 30.8275 54.253 30.7443 54.2481C30.6366 54.2481 30.5289 54.2383 30.4212 54.2334C30.338 54.2334 30.2547 54.2237 30.1764 54.2188C30.0589 54.209 29.9463 54.2041 29.8288 54.1943C29.6673 54.1845 29.5106 54.1698 29.3491 54.1503C29.3099 54.1503 29.2707 54.1405 29.2267 54.1356C29.1826 54.1356 29.1385 54.1258 29.0945 54.1209C28.9623 54.1062 28.8301 54.0915 28.6979 54.072C28.6294 54.0622 28.5609 54.0524 28.4972 54.0426C28.4042 54.0279 28.3063 54.0133 28.2084 53.9986C28.086 53.979 27.9587 53.9594 27.8363 53.9399C27.7482 53.9252 27.6552 53.9105 27.5671 53.8909C27.474 53.8763 27.3859 53.8567 27.2978 53.842C27.2048 53.8224 27.1167 53.8078 27.0285 53.7882C26.9404 53.7686 26.8474 53.749 26.7593 53.7295C26.7054 53.7197 26.6516 53.705 26.6026 53.6952C26.539 53.6805 26.4753 53.6659 26.4166 53.6512C26.3725 53.6414 26.3236 53.6316 26.2795 53.6169C26.118 53.5778 25.9613 53.5386 25.7998 53.4946C25.5011 53.4163 25.1976 53.3282 24.9039 53.2304C24.8059 53.201 24.7129 53.1717 24.6199 53.1374C24.4633 53.0885 24.3066 53.0347 24.1548 52.9759C24.052 52.9368 23.9443 52.9026 23.8415 52.8634C23.7338 52.8243 23.6261 52.7851 23.5233 52.7411C23.4254 52.7019 23.3275 52.6628 23.2296 52.6237L19.646 55.0408L14.2706 58.6665C12.5719 57.546 10.9808 56.2542 9.51703 54.8157L11.9991 53.1374L22.8085 45.8469C24.8843 47.1729 27.2293 48.0047 29.6428 48.2885C29.7015 48.2934 29.7554 48.3032 29.8141 48.3081C29.8729 48.313 29.9267 48.3227 29.9855 48.3227C30.1079 48.3374 30.2254 48.3472 30.3478 48.357C30.3624 48.357 30.3722 48.357 30.382 48.357C30.4163 48.357 30.4506 48.357 30.4848 48.3619C30.6855 48.3766 30.8912 48.3863 31.0919 48.3912C31.1506 48.3912 31.2094 48.3912 31.2681 48.3912C31.2828 48.3912 31.2926 48.3912 31.3073 48.3912C31.3269 48.3912 31.3465 48.3912 31.3709 48.3912C31.3905 48.3912 31.415 48.3912 31.4346 48.3912C31.508 48.3912 31.5863 48.3912 31.6647 48.3912C31.7479 48.3912 31.8262 48.3912 31.9094 48.3912C31.9339 48.3912 31.9584 48.3912 31.9829 48.3912C32.0661 48.3912 32.1493 48.3912 32.2277 48.3815C32.2277 48.3815 32.2277 48.3815 32.2325 48.3815C32.6046 48.3668 32.9816 48.3374 33.3536 48.2983C33.3732 48.2983 33.3879 48.2983 33.4075 48.2934C33.4809 48.2836 33.5544 48.2787 33.6278 48.2689C33.6768 48.264 33.7257 48.2542 33.7747 48.2493C34.0243 48.2151 34.2691 48.176 34.5188 48.1319C34.886 48.0634 35.2531 47.9851 35.6154 47.8873C35.6937 47.8677 35.7721 47.8481 35.8455 47.8237C35.9238 47.8041 36.007 47.7796 36.0805 47.7552C36.1343 47.7405 36.1833 47.7258 36.2322 47.7111C36.3351 47.6818 36.4379 47.6475 36.5407 47.6133C36.6092 47.5937 36.6728 47.5692 36.7414 47.5448C36.8246 47.5154 36.9078 47.486 36.9911 47.4567C37.0792 47.4273 37.1722 47.3931 37.2603 47.3588C37.3191 47.3393 37.3729 47.3148 37.4317 47.2903C37.4953 47.2659 37.5638 47.2414 37.6275 47.212C37.6569 47.1974 37.6862 47.1876 37.7156 47.1778C37.7254 47.1729 37.7401 47.168 37.7499 47.1631C37.7548 47.1631 37.7597 47.1631 37.7695 47.1582C37.838 47.1289 37.9114 47.0995 37.98 47.0701C38.0485 47.0408 38.117 47.0114 38.1807 46.9821C38.2296 46.9625 38.2737 46.938 38.3227 46.9185C38.3961 46.8842 38.4646 46.85 38.5381 46.8157C38.6164 46.7766 38.6947 46.7423 38.7731 46.7032C38.7731 46.7032 38.778 46.7032 38.7828 46.7032C38.7975 46.6934 38.8171 46.6885 38.8318 46.6787C38.8759 46.6542 38.9248 46.6298 38.9689 46.6053C39.0276 46.5759 39.0913 46.5417 39.15 46.5123C39.1941 46.4879 39.2381 46.4634 39.2822 46.4389C39.3458 46.4047 39.4095 46.3704 39.478 46.3313C39.5123 46.3117 39.5515 46.2922 39.5857 46.2726C39.6004 46.2628 39.6151 46.253 39.6347 46.2432C39.6347 46.2432 39.6396 46.2432 39.6445 46.2383C39.6885 46.2139 39.7326 46.1845 39.7767 46.16C39.7815 46.16 39.7864 46.1552 39.7962 46.1503C39.8109 46.1405 39.8305 46.1307 39.8452 46.1209C39.8599 46.1111 39.8795 46.1013 39.8941 46.0915C39.9529 46.0573 40.0067 46.023 40.0655 45.9888C40.0851 45.9741 40.1096 45.9643 40.1291 45.9497C40.1389 45.9448 40.1487 45.9399 40.1536 45.935C40.2221 45.8909 40.2858 45.8518 40.3494 45.8078C40.3592 45.8029 40.369 45.798 40.3788 45.7882C40.4522 45.7393 40.5257 45.6903 40.604 45.6414C43.9477 43.3857 46.1801 40.0879 47.1592 36.472C47.7956 34.1234 47.9033 31.6426 47.448 29.2206L52.608 25.7417L52.5884 25.7662Z" fill="#749CE9"/>
</g>
<path d="M111 31.6827C111 32.3276 110.627 32.8838 109.89 33.3675L96.6966 42.1944C94.2534 43.8308 95.4377 47.547 98.3945 47.5551C100.25 47.5551 102.113 47.0633 103.985 46.0799C105.857 45.0964 106.958 44.6047 107.29 44.6047C108.813 44.6047 109.575 45.2254 109.575 46.4668C109.575 47.1842 109.12 47.9339 108.217 48.6917C105.368 51.1503 101.625 52.2386 96.9782 51.9564C94.5681 51.8113 92.2242 51.0213 90.2696 49.6429C86.0871 46.6845 84 42.8554 84 38.1719C84 34.367 85.5653 31.1748 88.696 28.6114C91.661 26.2092 95.1396 25 99.1399 25C103.794 25 107.48 26.6606 110.197 29.9898C110.735 30.675 111 31.2313 111 31.6746V31.6827ZM100.697 34.1171C102.842 32.6823 101.807 29.4094 99.1979 29.4014H99.1316C96.4564 29.4014 94.1043 30.2075 92.0917 31.8036C89.9135 33.5287 88.8202 35.6488 88.8202 38.18C88.8202 39.8244 90.7169 40.7918 92.1166 39.8647L100.697 34.1171Z" fill="white"/>
<path d="M119 49.8028C119 51.2676 118.167 52 116.5 52C114.833 52 114 51.2676 114 49.8028V10.1972C114 8.7324 114.833 8 116.5 8C118.167 8 119 8.7324 119 10.1972V49.8028Z" fill="white"/>
<path d="M146.992 31.6827C146.992 32.3276 146.647 32.8838 145.965 33.3675L133.695 42.2347C131.456 43.855 132.537 47.547 135.259 47.5551H135.328C137.046 47.5551 138.771 47.0633 140.505 46.0799C142.238 45.0964 143.258 44.6047 143.564 44.6047C144.975 44.6047 145.681 45.2254 145.681 46.4668C145.681 47.1842 145.259 47.9339 144.423 48.6917C141.785 51.1503 138.319 52.2386 134.017 51.9564C131.785 51.8113 129.615 51.0213 127.805 49.6429C123.933 46.6845 122 42.8554 122 38.1719C122 34.367 123.449 31.1748 126.348 28.6114C129.094 26.2092 132.314 25 136.018 25C140.328 25 143.741 26.6606 146.256 29.9898C146.755 30.675 147 31.2313 147 31.6746L146.992 31.6827ZM137.406 34.1494C139.408 32.6984 138.442 29.4014 136.011 29.3933C133.534 29.3933 131.356 30.1994 129.492 31.8036C127.475 33.5287 126.463 35.6488 126.463 38.18C126.463 39.8244 128.219 40.7918 129.515 39.8647L137.414 34.1575L137.406 34.1494Z" fill="white"/>
<path d="M173.984 29.6827C173.984 30.3275 173.77 30.9158 173.334 31.4558C172.899 31.9958 172.368 32.2698 171.742 32.2698C171.346 32.2698 170.419 31.7863 168.961 30.8272C167.503 29.8681 166.006 29.3845 164.468 29.3845C161.909 29.3845 159.659 30.1904 157.734 31.7863C155.642 33.511 154.604 35.6307 154.604 38.1615C154.604 40.6922 155.499 42.9328 157.29 44.7785C159.081 46.6242 161.244 47.543 163.763 47.543C165.38 47.543 167.036 47.1158 168.731 46.2534C170.427 45.391 171.37 44.9639 171.568 44.9639C172.194 44.9639 172.756 45.1654 173.255 45.5684C173.746 45.9713 173.992 46.471 173.992 47.0675C173.992 48.5907 172.613 49.8561 169.856 50.8555C167.646 51.6131 165.617 52 163.771 52C160.293 52 157.274 50.8636 154.715 48.5988C151.807 46.0197 150.04 42.2478 150.001 38.3227C149.961 34.446 151.459 31.214 154.493 28.6107C157.33 26.209 160.657 25 164.484 25C167.836 25 170.847 26.1848 173.525 28.5463C173.842 28.8284 174 29.2072 174 29.6907L173.984 29.6827Z" fill="white"/>
<path d="M190.051 52C187.54 52 185.531 51.104 184.007 49.312C182.566 47.64 181.85 45.576 181.85 43.104V32.776C181.85 30.944 180.565 29.344 178.729 28.904H178.721C177.576 28.664 177 27.968 177 26.816C177 25.664 177.576 24.968 178.721 24.728C179.05 24.648 180.096 24.608 181.85 24.608V17.208C181.85 15.736 182.649 15 184.246 15C185.844 15 186.642 15.744 186.642 17.224V24.672H192.604C194.201 24.672 195 25.4 195 26.848C195 28.296 194.201 29.024 192.604 29.024H186.642V43.104C186.642 44.376 187.005 45.424 187.729 46.24C188.454 47.056 189.45 47.464 190.726 47.464C190.973 47.464 191.344 47.424 191.838 47.344C192.332 47.264 192.686 47.224 192.892 47.224C193.51 47.224 194.012 47.44 194.407 47.88C194.802 48.32 195 48.832 195 49.432C195 51.144 193.353 52 190.059 52H190.051Z" fill="white"/>
<path d="M217 28.3879C217 28.983 216.735 29.5145 216.196 29.9827C215.656 30.4587 215.084 30.6888 214.462 30.6888C214.255 30.6888 213.666 30.4587 212.696 30.0065C211.725 29.5542 210.763 29.3241 209.818 29.3241C207.711 29.3241 206.02 29.9985 204.742 31.3394C203.465 32.6803 202.827 34.3623 202.827 36.3697V49.8657C202.827 51.2859 202.022 52 200.413 52C198.804 52 198 51.2859 198 49.8657V27.0232C198.672 25.9204 199.617 25.357 200.845 25.357C201.176 25.357 201.467 25.3888 201.707 25.4602C202.868 25.7855 204.087 25.968 205.24 25.5871C206.393 25.2063 207.852 25 209.569 25C211.012 25 212.497 25.2539 214.023 25.7696C216.005 26.444 216.992 27.3088 216.992 28.372L217 28.3879Z" fill="white"/>
<path d="M248.999 38.667C249.04 42.5454 247.503 45.7868 244.388 48.3911C241.672 50.6327 238.517 51.8341 234.922 51.9873C230.995 52.1486 227.083 50.7698 224.253 48.0686C221.423 45.3675 220 42.0697 220 38.1752C220 34.2807 221.537 31.1764 224.611 28.6123C227.522 26.2095 230.938 25 234.866 25C238.436 25 241.526 26.1369 244.152 28.4026C247.145 30.9828 248.95 34.7483 248.999 38.6751V38.667ZM244.274 38.8283C244.274 36.2642 243.356 34.0468 241.518 32.1843C239.68 30.3217 237.46 29.3863 234.874 29.3863C232.288 29.3863 229.937 30.1927 227.961 31.7892C225.814 33.5147 224.749 35.6353 224.749 38.1671C224.749 40.6989 225.668 42.9405 227.506 44.7869C229.344 46.6334 231.556 47.5526 234.15 47.5526C236.744 47.5526 239.086 46.7543 241.062 45.1498C243.209 43.4646 244.274 41.3601 244.274 38.8363V38.8283Z" fill="white"/>
<path d="M275 49.8077C275 51.2665 274.223 52 272.67 52C271.117 52 270.341 51.2747 270.341 49.8077V35.2197C270.341 34.7308 270.141 34.1032 269.74 33.3372C268.548 30.9085 266.514 29.629 263.648 29.5068H262.928C260.182 29.3845 258.252 31.0226 257.14 34.4292C256.819 35.399 256.659 36.0266 256.659 36.3118V49.5632C256.659 51.022 255.883 51.7474 254.33 51.7474C252.777 51.7474 252 51.022 252 49.5632V27.7383C252 27.0456 252.256 26.4751 252.777 26.0024C253.297 25.5379 253.889 25.3015 254.57 25.3015C254.922 25.3015 255.226 25.3423 255.482 25.4238C256.891 25.872 258.348 26.0513 259.749 25.5868C259.789 25.5705 259.837 25.5542 259.877 25.546C261.19 25.1793 262.447 25 263.64 25C266.386 25 268.932 25.9698 271.285 27.9176C273.751 30.0284 274.992 32.457 274.992 35.2116V49.7996L275 49.8077Z" fill="white"/>
<defs>
<clipPath id="clip0_35_1872">
<rect width="64" height="64" fill="white"/>
</clipPath>
</defs>
</svg>
