<svg width="393" height="634" viewBox="0 0 393 634" fill="none" xmlns="http://www.w3.org/2000/svg">
<g filter="url(#filter0_d_123_1344)">
<rect x="66" y="246" width="260" height="134" rx="6" fill="white" shape-rendering="crispEdges"/>
<rect x="129.5" y="266" width="26" height="26" rx="4" fill="#091931"/>
<path d="M142.5 279.328C142.631 279.328 142.763 279.284 142.85 279.175L143.353 278.672H143.725C143.987 278.672 144.228 278.453 144.228 278.169V277.797L144.731 277.294C144.819 277.206 144.884 277.075 144.884 276.944C144.884 276.813 144.841 276.681 144.731 276.594L144.228 276.091V275.719C144.228 275.456 144.009 275.216 143.725 275.216H143.353L142.85 274.713C142.675 274.538 142.347 274.538 142.15 274.713L141.647 275.216H141.275C141.013 275.216 140.772 275.434 140.772 275.719V276.091L140.269 276.594C140.072 276.791 140.072 277.097 140.269 277.294L140.772 277.797V278.169C140.772 278.431 140.991 278.672 141.275 278.672H141.647L142.15 279.175C142.238 279.263 142.369 279.328 142.5 279.328ZM141.756 277.688V277.6C141.756 277.469 141.713 277.338 141.603 277.25L141.297 276.944L141.603 276.638C141.691 276.55 141.756 276.419 141.756 276.288V276.2H141.844C141.975 276.2 142.106 276.156 142.194 276.047L142.5 275.741L142.806 276.047C142.894 276.134 143.025 276.2 143.156 276.2H143.244V276.288C143.244 276.419 143.288 276.55 143.397 276.638L143.703 276.944L143.375 277.25C143.288 277.338 143.222 277.469 143.222 277.6V277.688H143.156C143.025 277.688 142.894 277.731 142.806 277.841L142.5 278.125L142.194 277.819C142.106 277.731 141.975 277.666 141.844 277.666H141.756V277.688Z" fill="#FFC947"/>
<path d="M147.991 284.359L146.875 282.566C146.722 282.325 146.459 282.172 146.175 282.172H144.031C145.344 280.816 147.094 278.716 147.094 276.944C147.094 274.428 145.037 272.372 142.522 272.372C140.006 272.372 137.95 274.428 137.95 276.944C137.95 278.694 139.678 280.816 141.012 282.172H138.847C138.562 282.172 138.3 282.325 138.147 282.566L137.031 284.359C136.878 284.622 136.856 284.928 137.009 285.191C137.162 285.453 137.425 285.606 137.731 285.606H147.312C147.619 285.606 147.881 285.453 148.034 285.191C148.166 284.928 148.144 284.622 147.991 284.359ZM142.5 273.378C144.491 273.378 146.087 274.997 146.087 276.966C146.087 278.475 144.228 280.706 142.5 282.303C140.772 280.706 138.912 278.453 138.912 276.966C138.912 274.975 140.509 273.378 142.5 273.378ZM137.994 284.644L138.912 283.178H141.997C142.062 283.244 142.106 283.287 142.172 283.331C142.259 283.419 142.391 283.462 142.5 283.462C142.609 283.462 142.741 283.419 142.828 283.331C142.872 283.287 142.937 283.244 143.003 283.178H146.087L147.006 284.644H137.994Z" fill="#FFC947"/>
<path d="M169.722 286.5V272.178H173.242V283.552H179.468V286.5H169.722ZM187.651 286.764C186.683 286.764 185.767 286.537 184.901 286.082C184.051 285.627 183.354 284.975 182.811 284.124C182.283 283.273 182.019 282.239 182.019 281.022C182.019 279.805 182.283 278.771 182.811 277.92C183.354 277.069 184.051 276.417 184.901 275.962C185.767 275.507 186.683 275.28 187.651 275.28C188.619 275.28 189.529 275.507 190.379 275.962C191.245 276.417 191.941 277.069 192.469 277.92C193.012 278.771 193.283 279.805 193.283 281.022C193.283 282.239 193.012 283.273 192.469 284.124C191.941 284.975 191.245 285.627 190.379 286.082C189.529 286.537 188.619 286.764 187.651 286.764ZM187.651 283.948C188.106 283.948 188.48 283.831 188.773 283.596C189.081 283.347 189.309 283.009 189.455 282.584C189.602 282.144 189.675 281.623 189.675 281.022C189.675 280.435 189.602 279.922 189.455 279.482C189.309 279.042 189.081 278.705 188.773 278.47C188.48 278.221 188.106 278.096 187.651 278.096C187.197 278.096 186.815 278.221 186.507 278.47C186.214 278.705 185.994 279.042 185.847 279.482C185.701 279.922 185.627 280.435 185.627 281.022C185.627 281.623 185.701 282.144 185.847 282.584C185.994 283.009 186.214 283.347 186.507 283.596C186.815 283.831 187.197 283.948 187.651 283.948ZM202.149 286.764C200.99 286.764 199.949 286.537 199.025 286.082C198.101 285.627 197.367 284.975 196.825 284.124C196.282 283.273 196.011 282.239 196.011 281.022C196.011 279.805 196.304 278.771 196.891 277.92C197.492 277.069 198.277 276.417 199.245 275.962C200.227 275.507 201.276 275.28 202.391 275.28C203.271 275.28 204.063 275.419 204.767 275.698C205.485 275.962 206.072 276.314 206.527 276.754L204.921 278.91C204.51 278.617 204.114 278.411 203.733 278.294C203.366 278.162 202.992 278.096 202.611 278.096C202.024 278.096 201.503 278.221 201.049 278.47C200.594 278.705 200.242 279.042 199.993 279.482C199.743 279.922 199.619 280.435 199.619 281.022C199.619 281.623 199.736 282.144 199.971 282.584C200.22 283.009 200.557 283.347 200.983 283.596C201.423 283.831 201.921 283.948 202.479 283.948C203.036 283.948 203.542 283.845 203.997 283.64C204.466 283.435 204.891 283.207 205.273 282.958L206.659 285.158C205.999 285.715 205.265 286.126 204.459 286.39C203.652 286.639 202.882 286.764 202.149 286.764ZM212.994 286.764C212.246 286.764 211.608 286.61 211.08 286.302C210.552 285.994 210.142 285.591 209.848 285.092C209.57 284.593 209.43 284.036 209.43 283.42C209.43 282.203 209.966 281.271 211.036 280.626C212.122 279.966 213.94 279.563 216.492 279.416C216.448 279.123 216.338 278.881 216.162 278.69C215.986 278.485 215.737 278.331 215.414 278.228C215.106 278.111 214.725 278.052 214.27 278.052C213.948 278.052 213.61 278.096 213.258 278.184C212.921 278.257 212.569 278.367 212.202 278.514C211.85 278.661 211.462 278.837 211.036 279.042L209.782 276.732C210.325 276.439 210.875 276.182 211.432 275.962C211.99 275.742 212.562 275.573 213.148 275.456C213.735 275.339 214.336 275.28 214.952 275.28C215.994 275.28 216.888 275.463 217.636 275.83C218.384 276.182 218.964 276.732 219.374 277.48C219.785 278.213 219.99 279.159 219.99 280.318V286.5H217.13L216.888 285.312H216.8C216.258 285.723 215.664 286.067 215.018 286.346C214.373 286.625 213.698 286.764 212.994 286.764ZM214.116 284.058C214.586 284.058 215.011 283.97 215.392 283.794C215.788 283.603 216.155 283.376 216.492 283.112V281.528C215.51 281.557 214.747 281.653 214.204 281.814C213.662 281.961 213.288 282.151 213.082 282.386C212.877 282.606 212.774 282.855 212.774 283.134C212.774 283.339 212.826 283.515 212.928 283.662C213.046 283.794 213.2 283.897 213.39 283.97C213.596 284.029 213.838 284.058 214.116 284.058ZM230.22 286.764C229.046 286.764 228.108 286.566 227.404 286.17C226.7 285.759 226.186 285.187 225.864 284.454C225.556 283.721 225.402 282.87 225.402 281.902V278.294H222.718V275.676L225.556 275.544L226.018 272.222H228.922V275.544H233.388V278.294H228.922V281.858C228.922 282.386 229.002 282.811 229.164 283.134C229.325 283.457 229.567 283.684 229.89 283.816C230.212 283.948 230.623 284.014 231.122 284.014C231.518 284.014 231.884 283.985 232.222 283.926C232.574 283.853 232.904 283.757 233.212 283.64L233.828 286.192C233.344 286.324 232.801 286.449 232.2 286.566C231.613 286.698 230.953 286.764 230.22 286.764ZM227.448 291.824L227.206 290.438C228.042 290.394 228.621 290.306 228.944 290.174C229.266 290.042 229.428 289.851 229.428 289.602C229.428 289.411 229.318 289.25 229.098 289.118C228.892 289.001 228.548 288.92 228.064 288.876L228.724 287.622C229.941 287.71 230.777 287.901 231.232 288.194C231.701 288.502 231.936 288.935 231.936 289.492C231.936 290.255 231.54 290.819 230.748 291.186C229.956 291.553 228.856 291.765 227.448 291.824ZM241.219 286.5V278.294H236.929V275.544H244.739V286.5H241.219ZM242.847 273.938C242.187 273.938 241.637 273.747 241.197 273.366C240.772 272.985 240.559 272.479 240.559 271.848C240.559 271.217 240.772 270.711 241.197 270.33C241.637 269.934 242.187 269.736 242.847 269.736C243.507 269.736 244.05 269.934 244.475 270.33C244.915 270.711 245.135 271.217 245.135 271.848C245.135 272.479 244.915 272.985 244.475 273.366C244.05 273.747 243.507 273.938 242.847 273.938ZM256.068 286.764C254.924 286.764 253.89 286.537 252.966 286.082C252.042 285.627 251.309 284.975 250.766 284.124C250.238 283.273 249.974 282.239 249.974 281.022C249.974 279.819 250.246 278.793 250.788 277.942C251.331 277.091 252.035 276.439 252.9 275.984C253.78 275.515 254.712 275.28 255.694 275.28C256.824 275.28 257.77 275.515 258.532 275.984C259.31 276.453 259.889 277.091 260.27 277.898C260.666 278.69 260.864 279.577 260.864 280.56C260.864 280.868 260.85 281.169 260.82 281.462C260.791 281.741 260.762 281.946 260.732 282.078H252.592V279.768H258.312L257.806 280.406C257.806 279.599 257.638 278.991 257.3 278.58C256.963 278.155 256.464 277.942 255.804 277.942C255.291 277.942 254.851 278.052 254.484 278.272C254.132 278.492 253.854 278.837 253.648 279.306C253.458 279.761 253.362 280.333 253.362 281.022C253.362 281.741 253.48 282.327 253.714 282.782C253.964 283.237 254.323 283.574 254.792 283.794C255.276 283.999 255.863 284.102 256.552 284.102C257.022 284.102 257.469 284.043 257.894 283.926C258.334 283.809 258.796 283.633 259.28 283.398L260.424 285.488C259.794 285.884 259.09 286.199 258.312 286.434C257.535 286.654 256.787 286.764 256.068 286.764Z" fill="#091931"/>
<path d="M99.2089 316V308.152H104.225V309.328H100.601V311.548H103.685V312.724H100.601V316H99.2089ZM108.156 316.144C107.772 316.144 107.432 316.072 107.136 315.928C106.84 315.776 106.608 315.572 106.44 315.316C106.272 315.06 106.188 314.76 106.188 314.416C106.188 313.76 106.5 313.26 107.124 312.916C107.756 312.564 108.8 312.336 110.256 312.232C110.24 312.016 110.18 311.82 110.076 311.644C109.98 311.468 109.832 311.332 109.632 311.236C109.432 311.132 109.172 311.08 108.852 311.08C108.628 311.08 108.408 311.108 108.192 311.164C107.976 311.22 107.76 311.296 107.544 311.392C107.336 311.488 107.128 311.592 106.92 311.704L106.416 310.78C106.656 310.636 106.92 310.504 107.208 310.384C107.496 310.256 107.8 310.156 108.12 310.084C108.44 310.004 108.768 309.964 109.104 309.964C109.656 309.964 110.116 310.064 110.484 310.264C110.86 310.456 111.144 310.744 111.336 311.128C111.536 311.504 111.636 311.964 111.636 312.508V316H110.508L110.4 315.268H110.364C110.052 315.508 109.704 315.716 109.32 315.892C108.944 316.06 108.556 316.144 108.156 316.144ZM108.576 315.064C108.872 315.064 109.156 315 109.428 314.872C109.708 314.736 109.984 314.56 110.256 314.344V313.096C109.552 313.144 109 313.224 108.6 313.336C108.2 313.44 107.92 313.576 107.76 313.744C107.6 313.912 107.52 314.1 107.52 314.308C107.52 314.484 107.568 314.628 107.664 314.74C107.76 314.852 107.884 314.936 108.036 314.992C108.196 315.04 108.376 315.064 108.576 315.064ZM117.02 316.144C116.404 316.144 115.848 316.024 115.352 315.784C114.864 315.536 114.476 315.184 114.188 314.728C113.908 314.264 113.768 313.708 113.768 313.06C113.768 312.404 113.92 311.848 114.224 311.392C114.536 310.928 114.948 310.576 115.46 310.336C115.972 310.088 116.524 309.964 117.116 309.964C117.596 309.964 118.02 310.044 118.388 310.204C118.756 310.356 119.06 310.552 119.3 310.792L118.64 311.656C118.408 311.472 118.172 311.332 117.932 311.236C117.7 311.14 117.452 311.092 117.188 311.092C116.796 311.092 116.448 311.176 116.144 311.344C115.848 311.504 115.616 311.732 115.448 312.028C115.28 312.324 115.196 312.668 115.196 313.06C115.196 313.452 115.276 313.796 115.436 314.092C115.604 314.388 115.832 314.616 116.12 314.776C116.416 314.936 116.76 315.016 117.152 315.016C117.488 315.016 117.796 314.952 118.076 314.824C118.356 314.696 118.608 314.544 118.832 314.368L119.408 315.256C119.072 315.544 118.696 315.764 118.28 315.916C117.864 316.068 117.444 316.144 117.02 316.144ZM123.255 316.144C122.567 316.144 122.067 315.936 121.755 315.52C121.443 315.104 121.287 314.516 121.287 313.756V310.108H122.667V313.576C122.667 314.048 122.747 314.396 122.907 314.62C123.075 314.844 123.363 314.956 123.771 314.956C124.043 314.956 124.291 314.892 124.515 314.764C124.747 314.628 124.991 314.4 125.247 314.08V310.108H126.627V316H125.499L125.391 315.064H125.343C125.063 315.384 124.755 315.644 124.419 315.844C124.083 316.044 123.695 316.144 123.255 316.144ZM132.802 316.144C132.122 316.144 131.602 315.944 131.242 315.544C130.89 315.136 130.714 314.572 130.714 313.852V308.62H128.794V307.528H132.094V313.924C132.094 314.324 132.194 314.608 132.394 314.776C132.602 314.936 132.854 315.016 133.15 315.016C133.302 315.016 133.458 315 133.618 314.968C133.778 314.928 133.958 314.868 134.158 314.788L134.482 315.808C134.202 315.904 133.938 315.984 133.69 316.048C133.45 316.112 133.154 316.144 132.802 316.144ZM140.249 316.144C139.649 316.144 139.173 316.04 138.821 315.832C138.469 315.616 138.217 315.32 138.065 314.944C137.913 314.568 137.837 314.132 137.837 313.636V311.2H136.265V310.168L137.897 310.108L138.077 308.26H139.217V310.108H141.905V311.2H139.217V313.624C139.217 313.944 139.261 314.212 139.349 314.428C139.437 314.636 139.581 314.792 139.781 314.896C139.981 314.992 140.245 315.04 140.573 315.04C140.829 315.04 141.061 315.02 141.269 314.98C141.477 314.94 141.677 314.884 141.869 314.812L142.133 315.808C141.869 315.896 141.585 315.972 141.281 316.036C140.977 316.108 140.633 316.144 140.249 316.144ZM145.933 316.144C145.549 316.144 145.209 316.072 144.913 315.928C144.617 315.776 144.385 315.572 144.217 315.316C144.049 315.06 143.965 314.76 143.965 314.416C143.965 313.76 144.277 313.26 144.901 312.916C145.533 312.564 146.577 312.336 148.033 312.232C148.017 312.016 147.957 311.82 147.853 311.644C147.757 311.468 147.609 311.332 147.409 311.236C147.209 311.132 146.949 311.08 146.629 311.08C146.405 311.08 146.185 311.108 145.969 311.164C145.753 311.22 145.537 311.296 145.321 311.392C145.113 311.488 144.905 311.592 144.697 311.704L144.193 310.78C144.433 310.636 144.697 310.504 144.985 310.384C145.273 310.256 145.577 310.156 145.897 310.084C146.217 310.004 146.545 309.964 146.881 309.964C147.433 309.964 147.893 310.064 148.261 310.264C148.637 310.456 148.921 310.744 149.113 311.128C149.313 311.504 149.413 311.964 149.413 312.508V316H148.285L148.177 315.268H148.141C147.829 315.508 147.481 315.716 147.097 315.892C146.721 316.06 146.333 316.144 145.933 316.144ZM146.353 315.064C146.649 315.064 146.933 315 147.205 314.872C147.485 314.736 147.761 314.56 148.033 314.344V313.096C147.329 313.144 146.777 313.224 146.377 313.336C145.977 313.44 145.697 313.576 145.537 313.744C145.377 313.912 145.297 314.1 145.297 314.308C145.297 314.484 145.345 314.628 145.441 314.74C145.537 314.852 145.661 314.936 145.813 314.992C145.973 315.04 146.153 315.064 146.353 315.064ZM155.36 316.144C154.76 316.144 154.284 316.04 153.932 315.832C153.58 315.616 153.328 315.32 153.176 314.944C153.024 314.568 152.948 314.132 152.948 313.636V311.2H151.376V310.168L153.008 310.108L153.188 308.26H154.328V310.108H157.016V311.2H154.328V313.624C154.328 313.944 154.372 314.212 154.46 314.428C154.548 314.636 154.692 314.792 154.892 314.896C155.092 314.992 155.356 315.04 155.684 315.04C155.94 315.04 156.172 315.02 156.38 314.98C156.588 314.94 156.788 314.884 156.98 314.812L157.244 315.808C156.98 315.896 156.696 315.972 156.392 316.036C156.088 316.108 155.744 316.144 155.36 316.144ZM162.183 316.144C161.583 316.144 161.039 316.024 160.551 315.784C160.063 315.536 159.675 315.184 159.387 314.728C159.099 314.264 158.955 313.704 158.955 313.048C158.955 312.408 159.099 311.86 159.387 311.404C159.675 310.94 160.051 310.584 160.515 310.336C160.979 310.088 161.475 309.964 162.003 309.964C162.587 309.964 163.079 310.084 163.479 310.324C163.887 310.564 164.195 310.896 164.403 311.32C164.619 311.736 164.727 312.216 164.727 312.76C164.727 312.896 164.719 313.028 164.703 313.156C164.695 313.276 164.683 313.376 164.667 313.456H159.951V312.472H163.779L163.515 312.784C163.515 312.2 163.383 311.764 163.119 311.476C162.863 311.18 162.503 311.032 162.039 311.032C161.711 311.032 161.415 311.108 161.151 311.26C160.895 311.412 160.691 311.64 160.539 311.944C160.387 312.24 160.311 312.608 160.311 313.048C160.311 313.504 160.395 313.88 160.563 314.176C160.739 314.472 160.979 314.696 161.283 314.848C161.595 315 161.955 315.076 162.363 315.076C162.675 315.076 162.963 315.032 163.227 314.944C163.491 314.856 163.755 314.736 164.019 314.584L164.487 315.448C164.175 315.648 163.823 315.816 163.431 315.952C163.039 316.08 162.623 316.144 162.183 316.144ZM168.599 316.144C168.215 316.144 167.875 316.072 167.579 315.928C167.283 315.776 167.051 315.572 166.883 315.316C166.715 315.06 166.631 314.76 166.631 314.416C166.631 313.76 166.943 313.26 167.567 312.916C168.199 312.564 169.243 312.336 170.699 312.232C170.683 312.016 170.623 311.82 170.519 311.644C170.423 311.468 170.275 311.332 170.075 311.236C169.875 311.132 169.615 311.08 169.295 311.08C169.071 311.08 168.851 311.108 168.635 311.164C168.419 311.22 168.203 311.296 167.987 311.392C167.779 311.488 167.571 311.592 167.363 311.704L166.859 310.78C167.099 310.636 167.363 310.504 167.651 310.384C167.939 310.256 168.243 310.156 168.563 310.084C168.883 310.004 169.211 309.964 169.547 309.964C170.099 309.964 170.559 310.064 170.927 310.264C171.303 310.456 171.587 310.744 171.779 311.128C171.979 311.504 172.079 311.964 172.079 312.508V316H170.951L170.843 315.268H170.807C170.495 315.508 170.147 315.716 169.763 315.892C169.387 316.06 168.999 316.144 168.599 316.144ZM169.019 315.064C169.315 315.064 169.599 315 169.871 314.872C170.151 314.736 170.427 314.56 170.699 314.344V313.096C169.995 313.144 169.443 313.224 169.043 313.336C168.643 313.44 168.363 313.576 168.203 313.744C168.043 313.912 167.963 314.1 167.963 314.308C167.963 314.484 168.011 314.628 168.107 314.74C168.203 314.852 168.327 314.936 168.479 314.992C168.639 315.04 168.819 315.064 169.019 315.064ZM184.045 316.144C183.293 316.144 182.685 315.872 182.221 315.328C181.757 314.784 181.525 314.028 181.525 313.06C181.525 312.42 181.649 311.868 181.897 311.404C182.145 310.94 182.469 310.584 182.869 310.336C183.269 310.088 183.689 309.964 184.129 309.964C184.465 309.964 184.761 310.024 185.017 310.144C185.281 310.264 185.525 310.436 185.749 310.66H185.785L185.713 309.664V307.528H187.105V316H185.965L185.857 315.316H185.821C185.597 315.54 185.329 315.736 185.017 315.904C184.705 316.064 184.381 316.144 184.045 316.144ZM184.381 315.004C184.621 315.004 184.853 314.948 185.077 314.836C185.301 314.716 185.513 314.536 185.713 314.296V311.644C185.505 311.444 185.297 311.304 185.089 311.224C184.881 311.144 184.669 311.104 184.453 311.104C184.181 311.104 183.929 311.18 183.697 311.332C183.473 311.484 183.293 311.704 183.157 311.992C183.021 312.28 182.953 312.632 182.953 313.048C182.953 313.68 183.077 314.164 183.325 314.5C183.581 314.836 183.933 315.004 184.381 315.004ZM192.405 316.144C191.805 316.144 191.261 316.024 190.773 315.784C190.285 315.536 189.897 315.184 189.609 314.728C189.321 314.264 189.177 313.704 189.177 313.048C189.177 312.408 189.321 311.86 189.609 311.404C189.897 310.94 190.273 310.584 190.737 310.336C191.201 310.088 191.697 309.964 192.225 309.964C192.809 309.964 193.301 310.084 193.701 310.324C194.109 310.564 194.417 310.896 194.625 311.32C194.841 311.736 194.949 312.216 194.949 312.76C194.949 312.896 194.941 313.028 194.925 313.156C194.917 313.276 194.905 313.376 194.889 313.456H190.173V312.472H194.001L193.737 312.784C193.737 312.2 193.605 311.764 193.341 311.476C193.085 311.18 192.725 311.032 192.261 311.032C191.933 311.032 191.637 311.108 191.373 311.26C191.117 311.412 190.913 311.64 190.761 311.944C190.609 312.24 190.533 312.608 190.533 313.048C190.533 313.504 190.617 313.88 190.785 314.176C190.961 314.472 191.201 314.696 191.505 314.848C191.817 315 192.177 315.076 192.585 315.076C192.897 315.076 193.185 315.032 193.449 314.944C193.713 314.856 193.977 314.736 194.241 314.584L194.709 315.448C194.397 315.648 194.045 315.816 193.653 315.952C193.261 316.08 192.845 316.144 192.405 316.144ZM204.791 316V308.152H209.819V309.328H206.183V311.332H209.267V312.508H206.183V314.824H209.939V316H204.791ZM215.911 316.144C215.231 316.144 214.711 315.944 214.351 315.544C213.999 315.136 213.823 314.572 213.823 313.852V308.62H211.903V307.528H215.203V313.924C215.203 314.324 215.303 314.608 215.503 314.776C215.711 314.936 215.963 315.016 216.259 315.016C216.411 315.016 216.567 315 216.727 314.968C216.887 314.928 217.067 314.868 217.267 314.788L217.591 315.808C217.311 315.904 217.047 315.984 216.799 316.048C216.559 316.112 216.263 316.144 215.911 316.144ZM222.626 316.144C222.026 316.144 221.482 316.024 220.994 315.784C220.506 315.536 220.118 315.184 219.83 314.728C219.542 314.264 219.398 313.704 219.398 313.048C219.398 312.408 219.542 311.86 219.83 311.404C220.118 310.94 220.494 310.584 220.958 310.336C221.422 310.088 221.918 309.964 222.446 309.964C223.03 309.964 223.522 310.084 223.922 310.324C224.33 310.564 224.638 310.896 224.846 311.32C225.062 311.736 225.17 312.216 225.17 312.76C225.17 312.896 225.162 313.028 225.146 313.156C225.138 313.276 225.126 313.376 225.11 313.456H220.394V312.472H224.222L223.958 312.784C223.958 312.2 223.826 311.764 223.562 311.476C223.306 311.18 222.946 311.032 222.482 311.032C222.154 311.032 221.858 311.108 221.594 311.26C221.338 311.412 221.134 311.64 220.982 311.944C220.83 312.24 220.754 312.608 220.754 313.048C220.754 313.504 220.838 313.88 221.006 314.176C221.182 314.472 221.422 314.696 221.726 314.848C222.038 315 222.398 315.076 222.806 315.076C223.118 315.076 223.406 315.032 223.67 314.944C223.934 314.856 224.198 314.736 224.462 314.584L224.93 315.448C224.618 315.648 224.266 315.816 223.874 315.952C223.482 316.08 223.066 316.144 222.626 316.144ZM230.349 316.144C229.733 316.144 229.177 316.024 228.681 315.784C228.193 315.536 227.805 315.184 227.517 314.728C227.237 314.264 227.097 313.708 227.097 313.06C227.097 312.404 227.249 311.848 227.553 311.392C227.865 310.928 228.277 310.576 228.789 310.336C229.301 310.088 229.853 309.964 230.445 309.964C230.925 309.964 231.349 310.044 231.717 310.204C232.085 310.356 232.389 310.552 232.629 310.792L231.969 311.656C231.737 311.472 231.501 311.332 231.261 311.236C231.029 311.14 230.781 311.092 230.517 311.092C230.125 311.092 229.777 311.176 229.473 311.344C229.177 311.504 228.945 311.732 228.777 312.028C228.609 312.324 228.525 312.668 228.525 313.06C228.525 313.452 228.605 313.796 228.765 314.092C228.933 314.388 229.161 314.616 229.449 314.776C229.745 314.936 230.089 315.016 230.481 315.016C230.817 315.016 231.125 314.952 231.405 314.824C231.685 314.696 231.937 314.544 232.161 314.368L232.737 315.256C232.401 315.544 232.025 315.764 231.609 315.916C231.193 316.068 230.773 316.144 230.349 316.144ZM238.469 316.144C237.869 316.144 237.393 316.04 237.041 315.832C236.689 315.616 236.437 315.32 236.285 314.944C236.133 314.568 236.057 314.132 236.057 313.636V311.2H234.485V310.168L236.117 310.108L236.297 308.26H237.437V310.108H240.125V311.2H237.437V313.624C237.437 313.944 237.481 314.212 237.569 314.428C237.657 314.636 237.801 314.792 238.001 314.896C238.201 314.992 238.465 315.04 238.793 315.04C239.049 315.04 239.281 315.02 239.489 314.98C239.697 314.94 239.897 314.884 240.089 314.812L240.353 315.808C240.089 315.896 239.805 315.972 239.501 316.036C239.197 316.108 238.853 316.144 238.469 316.144ZM242.892 316V310.108H244.032L244.152 311.44H244.188C244.484 310.96 244.848 310.596 245.28 310.348C245.72 310.092 246.192 309.964 246.696 309.964C246.936 309.964 247.144 309.984 247.32 310.024C247.496 310.064 247.668 310.124 247.836 310.204L247.548 311.368C247.356 311.304 247.184 311.26 247.032 311.236C246.888 311.204 246.704 311.188 246.48 311.188C246.08 311.188 245.688 311.304 245.304 311.536C244.928 311.768 244.588 312.172 244.284 312.748V316H242.892ZM252.487 316.144C251.967 316.144 251.483 316.024 251.035 315.784C250.587 315.536 250.223 315.184 249.943 314.728C249.663 314.264 249.523 313.708 249.523 313.06C249.523 312.404 249.663 311.848 249.943 311.392C250.223 310.928 250.587 310.576 251.035 310.336C251.483 310.088 251.967 309.964 252.487 309.964C253.007 309.964 253.491 310.088 253.939 310.336C254.387 310.576 254.751 310.928 255.031 311.392C255.311 311.848 255.451 312.404 255.451 313.06C255.451 313.708 255.311 314.264 255.031 314.728C254.751 315.184 254.387 315.536 253.939 315.784C253.491 316.024 253.007 316.144 252.487 316.144ZM252.487 315.016C252.807 315.016 253.083 314.936 253.315 314.776C253.547 314.616 253.723 314.388 253.843 314.092C253.963 313.796 254.023 313.452 254.023 313.06C254.023 312.668 253.963 312.324 253.843 312.028C253.723 311.732 253.547 311.504 253.315 311.344C253.083 311.176 252.807 311.092 252.487 311.092C252.167 311.092 251.891 311.176 251.659 311.344C251.435 311.504 251.259 311.732 251.131 312.028C251.011 312.324 250.951 312.668 250.951 313.06C250.951 313.452 251.011 313.796 251.131 314.092C251.259 314.388 251.435 314.616 251.659 314.776C251.891 314.936 252.167 315.016 252.487 315.016ZM257.427 316V310.108H258.567L258.675 310.996H258.723C259.003 310.708 259.311 310.464 259.647 310.264C259.991 310.064 260.391 309.964 260.847 309.964C261.527 309.964 262.027 310.172 262.347 310.588C262.667 311.004 262.827 311.592 262.827 312.352V316H261.435V312.532C261.435 312.06 261.351 311.712 261.183 311.488C261.015 311.264 260.731 311.152 260.331 311.152C260.043 311.152 259.787 311.22 259.563 311.356C259.339 311.492 259.091 311.7 258.819 311.98V316H257.427ZM267.562 316V311.2H265.006V310.108H268.942V316H267.562ZM268.15 309.028C267.87 309.028 267.634 308.944 267.442 308.776C267.258 308.608 267.166 308.384 267.166 308.104C267.166 307.824 267.258 307.6 267.442 307.432C267.634 307.256 267.87 307.168 268.15 307.168C268.438 307.168 268.674 307.256 268.858 307.432C269.042 307.6 269.134 307.824 269.134 308.104C269.134 308.384 269.042 308.608 268.858 308.776C268.674 308.944 268.438 309.028 268.15 309.028ZM275.681 316.144C275.065 316.144 274.509 316.024 274.013 315.784C273.525 315.536 273.137 315.184 272.849 314.728C272.569 314.264 272.429 313.708 272.429 313.06C272.429 312.404 272.581 311.848 272.885 311.392C273.197 310.928 273.609 310.576 274.121 310.336C274.633 310.088 275.185 309.964 275.777 309.964C276.257 309.964 276.681 310.044 277.049 310.204C277.417 310.356 277.721 310.552 277.961 310.792L277.301 311.656C277.069 311.472 276.833 311.332 276.593 311.236C276.361 311.14 276.113 311.092 275.849 311.092C275.457 311.092 275.109 311.176 274.805 311.344C274.509 311.504 274.277 311.732 274.109 312.028C273.941 312.324 273.857 312.668 273.857 313.06C273.857 313.452 273.937 313.796 274.097 314.092C274.265 314.388 274.493 314.616 274.781 314.776C275.077 314.936 275.421 315.016 275.813 315.016C276.149 315.016 276.457 314.952 276.737 314.824C277.017 314.696 277.269 314.544 277.493 314.368L278.069 315.256C277.733 315.544 277.357 315.764 276.941 315.916C276.525 316.068 276.105 316.144 275.681 316.144ZM281.928 316.144C281.544 316.144 281.204 316.072 280.908 315.928C280.612 315.776 280.38 315.572 280.212 315.316C280.044 315.06 279.96 314.76 279.96 314.416C279.96 313.76 280.272 313.26 280.896 312.916C281.528 312.564 282.572 312.336 284.028 312.232C284.012 312.016 283.952 311.82 283.848 311.644C283.752 311.468 283.604 311.332 283.404 311.236C283.204 311.132 282.944 311.08 282.624 311.08C282.4 311.08 282.18 311.108 281.964 311.164C281.748 311.22 281.532 311.296 281.316 311.392C281.108 311.488 280.9 311.592 280.692 311.704L280.188 310.78C280.428 310.636 280.692 310.504 280.98 310.384C281.268 310.256 281.572 310.156 281.892 310.084C282.212 310.004 282.54 309.964 282.876 309.964C283.428 309.964 283.888 310.064 284.256 310.264C284.632 310.456 284.916 310.744 285.108 311.128C285.308 311.504 285.408 311.964 285.408 312.508V316H284.28L284.172 315.268H284.136C283.824 315.508 283.476 315.716 283.092 315.892C282.716 316.06 282.328 316.144 281.928 316.144ZM282.348 315.064C282.644 315.064 282.928 315 283.2 314.872C283.48 314.736 283.756 314.56 284.028 314.344V313.096C283.324 313.144 282.772 313.224 282.372 313.336C281.972 313.44 281.692 313.576 281.532 313.744C281.372 313.912 281.292 314.1 281.292 314.308C281.292 314.484 281.34 314.628 281.436 314.74C281.532 314.852 281.656 314.936 281.808 314.992C281.968 315.04 282.148 315.064 282.348 315.064ZM282.948 309.148C282.508 309.148 282.144 309.06 281.856 308.884C281.576 308.708 281.364 308.48 281.22 308.2C281.084 307.92 281.008 307.616 280.992 307.288L281.808 307.156C281.84 307.348 281.9 307.528 281.988 307.696C282.076 307.864 282.2 308 282.36 308.104C282.52 308.208 282.716 308.26 282.948 308.26C283.188 308.26 283.384 308.208 283.536 308.104C283.696 308 283.82 307.864 283.908 307.696C283.996 307.528 284.056 307.348 284.088 307.156L284.904 307.288C284.888 307.616 284.808 307.92 284.664 308.2C284.528 308.48 284.32 308.708 284.04 308.884C283.76 309.06 283.396 309.148 282.948 309.148ZM289.292 318.58L288.932 317.752C289.46 317.544 289.848 317.28 290.096 316.96C290.352 316.648 290.476 316.272 290.468 315.832L290.324 314.56L291.032 315.64C290.928 315.744 290.812 315.816 290.684 315.856C290.564 315.896 290.436 315.916 290.3 315.916C290.1 315.916 289.912 315.876 289.736 315.796C289.568 315.716 289.432 315.596 289.328 315.436C289.224 315.276 289.172 315.08 289.172 314.848C289.172 314.52 289.284 314.26 289.508 314.068C289.74 313.876 290.012 313.78 290.324 313.78C290.756 313.78 291.08 313.94 291.296 314.26C291.512 314.58 291.62 315.02 291.62 315.58C291.62 316.308 291.416 316.928 291.008 317.44C290.608 317.952 290.036 318.332 289.292 318.58ZM89.352 338V331.316H86.88V330.152H93.216V331.316H90.744V338H89.352ZM97.9633 338.144C97.3633 338.144 96.8193 338.024 96.3313 337.784C95.8433 337.536 95.4553 337.184 95.1673 336.728C94.8793 336.264 94.7353 335.704 94.7353 335.048C94.7353 334.408 94.8793 333.86 95.1673 333.404C95.4553 332.94 95.8313 332.584 96.2953 332.336C96.7593 332.088 97.2553 331.964 97.7833 331.964C98.3673 331.964 98.8593 332.084 99.2593 332.324C99.6673 332.564 99.9753 332.896 100.183 333.32C100.399 333.736 100.507 334.216 100.507 334.76C100.507 334.896 100.499 335.028 100.483 335.156C100.475 335.276 100.463 335.376 100.447 335.456H95.7313V334.472H99.5593L99.2953 334.784C99.2953 334.2 99.1633 333.764 98.8993 333.476C98.6433 333.18 98.2833 333.032 97.8193 333.032C97.4913 333.032 97.1953 333.108 96.9313 333.26C96.6753 333.412 96.4713 333.64 96.3193 333.944C96.1673 334.24 96.0913 334.608 96.0913 335.048C96.0913 335.504 96.1753 335.88 96.3433 336.176C96.5193 336.472 96.7593 336.696 97.0633 336.848C97.3753 337 97.7353 337.076 98.1433 337.076C98.4553 337.076 98.7433 337.032 99.0073 336.944C99.2713 336.856 99.5353 336.736 99.7993 336.584L100.267 337.448C99.9553 337.648 99.6033 337.816 99.2113 337.952C98.8193 338.08 98.4033 338.144 97.9633 338.144ZM106.359 338.144C105.679 338.144 105.159 337.944 104.799 337.544C104.447 337.136 104.271 336.572 104.271 335.852V330.62H102.351V329.528H105.651V335.924C105.651 336.324 105.751 336.608 105.951 336.776C106.159 336.936 106.411 337.016 106.707 337.016C106.859 337.016 107.015 337 107.175 336.968C107.335 336.928 107.515 336.868 107.715 336.788L108.039 337.808C107.759 337.904 107.495 337.984 107.247 338.048C107.007 338.112 106.711 338.144 106.359 338.144ZM113.074 338.144C112.474 338.144 111.93 338.024 111.442 337.784C110.954 337.536 110.566 337.184 110.278 336.728C109.99 336.264 109.846 335.704 109.846 335.048C109.846 334.408 109.99 333.86 110.278 333.404C110.566 332.94 110.942 332.584 111.406 332.336C111.87 332.088 112.366 331.964 112.894 331.964C113.478 331.964 113.97 332.084 114.37 332.324C114.778 332.564 115.086 332.896 115.294 333.32C115.51 333.736 115.618 334.216 115.618 334.76C115.618 334.896 115.61 335.028 115.594 335.156C115.586 335.276 115.574 335.376 115.558 335.456H110.842V334.472H114.67L114.406 334.784C114.406 334.2 114.274 333.764 114.01 333.476C113.754 333.18 113.394 333.032 112.93 333.032C112.602 333.032 112.306 333.108 112.042 333.26C111.786 333.412 111.582 333.64 111.43 333.944C111.278 334.24 111.202 334.608 111.202 335.048C111.202 335.504 111.286 335.88 111.454 336.176C111.63 336.472 111.87 336.696 112.174 336.848C112.486 337 112.846 337.076 113.254 337.076C113.566 337.076 113.854 337.032 114.118 336.944C114.382 336.856 114.646 336.736 114.91 336.584L115.378 337.448C115.066 337.648 114.714 337.816 114.322 337.952C113.93 338.08 113.514 338.144 113.074 338.144ZM120.797 338.144C120.181 338.144 119.625 338.024 119.129 337.784C118.641 337.536 118.253 337.184 117.965 336.728C117.685 336.264 117.545 335.708 117.545 335.06C117.545 334.404 117.697 333.848 118.001 333.392C118.313 332.928 118.725 332.576 119.237 332.336C119.749 332.088 120.301 331.964 120.893 331.964C121.373 331.964 121.797 332.044 122.165 332.204C122.533 332.356 122.837 332.552 123.077 332.792L122.417 333.656C122.185 333.472 121.949 333.332 121.709 333.236C121.477 333.14 121.229 333.092 120.965 333.092C120.573 333.092 120.225 333.176 119.921 333.344C119.625 333.504 119.393 333.732 119.225 334.028C119.057 334.324 118.973 334.668 118.973 335.06C118.973 335.452 119.053 335.796 119.213 336.092C119.381 336.388 119.609 336.616 119.897 336.776C120.193 336.936 120.537 337.016 120.929 337.016C121.265 337.016 121.573 336.952 121.853 336.824C122.133 336.696 122.385 336.544 122.609 336.368L123.185 337.256C122.849 337.544 122.473 337.764 122.057 337.916C121.641 338.068 121.221 338.144 120.797 338.144ZM127.825 338.144C127.305 338.144 126.821 338.024 126.373 337.784C125.925 337.536 125.561 337.184 125.281 336.728C125.001 336.264 124.861 335.708 124.861 335.06C124.861 334.404 125.001 333.848 125.281 333.392C125.561 332.928 125.925 332.576 126.373 332.336C126.821 332.088 127.305 331.964 127.825 331.964C128.345 331.964 128.829 332.088 129.277 332.336C129.725 332.576 130.089 332.928 130.369 333.392C130.649 333.848 130.789 334.404 130.789 335.06C130.789 335.708 130.649 336.264 130.369 336.728C130.089 337.184 129.725 337.536 129.277 337.784C128.829 338.024 128.345 338.144 127.825 338.144ZM127.825 337.016C128.145 337.016 128.421 336.936 128.653 336.776C128.885 336.616 129.061 336.388 129.181 336.092C129.301 335.796 129.361 335.452 129.361 335.06C129.361 334.668 129.301 334.324 129.181 334.028C129.061 333.732 128.885 333.504 128.653 333.344C128.421 333.176 128.145 333.092 127.825 333.092C127.505 333.092 127.229 333.176 126.997 333.344C126.773 333.504 126.597 333.732 126.469 334.028C126.349 334.324 126.289 334.668 126.289 335.06C126.289 335.452 126.349 335.796 126.469 336.092C126.597 336.388 126.773 336.616 126.997 336.776C127.229 336.936 127.505 337.016 127.825 337.016ZM132.332 338V332.108H133.4L133.508 332.852H133.544C133.672 332.596 133.836 332.384 134.036 332.216C134.236 332.048 134.508 331.964 134.852 331.964C135.124 331.964 135.352 332.048 135.536 332.216C135.72 332.376 135.848 332.62 135.92 332.948C136.056 332.66 136.228 332.424 136.436 332.24C136.644 332.056 136.92 331.964 137.264 331.964C137.68 331.964 138 332.128 138.224 332.456C138.456 332.776 138.572 333.232 138.572 333.824V338H137.24V333.92C137.24 333.4 137.084 333.14 136.772 333.14C136.612 333.14 136.476 333.2 136.364 333.32C136.26 333.44 136.148 333.628 136.028 333.884V338H134.876V333.92C134.876 333.664 134.84 333.472 134.768 333.344C134.696 333.208 134.576 333.14 134.408 333.14C134.256 333.14 134.124 333.2 134.012 333.32C133.9 333.44 133.788 333.628 133.676 333.884V338H132.332ZM142.143 338.144C141.455 338.144 140.955 337.936 140.643 337.52C140.331 337.104 140.175 336.516 140.175 335.756V332.108H141.555V335.576C141.555 336.048 141.635 336.396 141.795 336.62C141.963 336.844 142.251 336.956 142.659 336.956C142.931 336.956 143.179 336.892 143.403 336.764C143.635 336.628 143.879 336.4 144.135 336.08V332.108H145.515V338H144.387L144.279 337.064H144.231C143.951 337.384 143.643 337.644 143.307 337.844C142.971 338.044 142.583 338.144 142.143 338.144ZM147.874 338V332.108H149.014L149.122 332.996H149.17C149.45 332.708 149.758 332.464 150.094 332.264C150.438 332.064 150.838 331.964 151.294 331.964C151.974 331.964 152.474 332.172 152.794 332.588C153.114 333.004 153.274 333.592 153.274 334.352V338H151.882V334.532C151.882 334.06 151.798 333.712 151.63 333.488C151.462 333.264 151.178 333.152 150.778 333.152C150.49 333.152 150.234 333.22 150.01 333.356C149.786 333.492 149.538 333.7 149.266 333.98V338H147.874ZM158.01 338V333.2H155.454V332.108H159.39V338H158.01ZM158.598 331.028C158.318 331.028 158.082 330.944 157.89 330.776C157.706 330.608 157.614 330.384 157.614 330.104C157.614 329.824 157.706 329.6 157.89 329.432C158.082 329.256 158.318 329.168 158.598 329.168C158.886 329.168 159.122 329.256 159.306 329.432C159.49 329.6 159.582 329.824 159.582 330.104C159.582 330.384 159.49 330.608 159.306 330.776C159.122 330.944 158.886 331.028 158.598 331.028ZM166.129 338.144C165.513 338.144 164.957 338.024 164.461 337.784C163.973 337.536 163.585 337.184 163.297 336.728C163.017 336.264 162.877 335.708 162.877 335.06C162.877 334.404 163.029 333.848 163.333 333.392C163.645 332.928 164.057 332.576 164.569 332.336C165.081 332.088 165.633 331.964 166.225 331.964C166.705 331.964 167.129 332.044 167.497 332.204C167.865 332.356 168.169 332.552 168.409 332.792L167.749 333.656C167.517 333.472 167.281 333.332 167.041 333.236C166.809 333.14 166.561 333.092 166.297 333.092C165.905 333.092 165.557 333.176 165.253 333.344C164.957 333.504 164.725 333.732 164.557 334.028C164.389 334.324 164.305 334.668 164.305 335.06C164.305 335.452 164.385 335.796 164.545 336.092C164.713 336.388 164.941 336.616 165.229 336.776C165.525 336.936 165.869 337.016 166.261 337.016C166.597 337.016 166.905 336.952 167.185 336.824C167.465 336.696 167.717 336.544 167.941 336.368L168.517 337.256C168.181 337.544 167.805 337.764 167.389 337.916C166.973 338.068 166.553 338.144 166.129 338.144ZM172.376 338.144C171.992 338.144 171.652 338.072 171.356 337.928C171.06 337.776 170.828 337.572 170.66 337.316C170.492 337.06 170.408 336.76 170.408 336.416C170.408 335.76 170.72 335.26 171.344 334.916C171.976 334.564 173.02 334.336 174.476 334.232C174.46 334.016 174.4 333.82 174.296 333.644C174.2 333.468 174.052 333.332 173.852 333.236C173.652 333.132 173.392 333.08 173.072 333.08C172.848 333.08 172.628 333.108 172.412 333.164C172.196 333.22 171.98 333.296 171.764 333.392C171.556 333.488 171.348 333.592 171.14 333.704L170.636 332.78C170.876 332.636 171.14 332.504 171.428 332.384C171.716 332.256 172.02 332.156 172.34 332.084C172.66 332.004 172.988 331.964 173.324 331.964C173.876 331.964 174.336 332.064 174.704 332.264C175.08 332.456 175.364 332.744 175.556 333.128C175.756 333.504 175.856 333.964 175.856 334.508V338H174.728L174.62 337.268H174.584C174.272 337.508 173.924 337.716 173.54 337.892C173.164 338.06 172.776 338.144 172.376 338.144ZM172.796 337.064C173.092 337.064 173.376 337 173.648 336.872C173.928 336.736 174.204 336.56 174.476 336.344V335.096C173.772 335.144 173.22 335.224 172.82 335.336C172.42 335.44 172.14 335.576 171.98 335.744C171.82 335.912 171.74 336.1 171.74 336.308C171.74 336.484 171.788 336.628 171.884 336.74C171.98 336.852 172.104 336.936 172.256 336.992C172.416 337.04 172.596 337.064 172.796 337.064ZM181.804 338.144C181.204 338.144 180.728 338.04 180.376 337.832C180.024 337.616 179.772 337.32 179.62 336.944C179.468 336.568 179.392 336.132 179.392 335.636V333.2H177.82V332.168L179.452 332.108L179.632 330.26H180.772V332.108H183.46V333.2H180.772V335.624C180.772 335.944 180.816 336.212 180.904 336.428C180.992 336.636 181.136 336.792 181.336 336.896C181.536 336.992 181.8 337.04 182.128 337.04C182.384 337.04 182.616 337.02 182.824 336.98C183.032 336.94 183.232 336.884 183.424 336.812L183.688 337.808C183.424 337.896 183.14 337.972 182.836 338.036C182.532 338.108 182.188 338.144 181.804 338.144ZM180.472 340.796L180.352 340.196C180.84 340.164 181.172 340.104 181.348 340.016C181.532 339.936 181.624 339.824 181.624 339.68C181.624 339.544 181.556 339.436 181.42 339.356C181.292 339.284 181.088 339.236 180.808 339.212L181.096 338.66C181.68 338.716 182.084 338.82 182.308 338.972C182.532 339.124 182.644 339.34 182.644 339.62C182.644 339.996 182.452 340.276 182.068 340.46C181.692 340.652 181.16 340.764 180.472 340.796ZM188.231 338V333.2H185.675V332.108H189.611V338H188.231ZM188.819 331.028C188.539 331.028 188.303 330.944 188.111 330.776C187.927 330.608 187.835 330.384 187.835 330.104C187.835 329.824 187.927 329.6 188.111 329.432C188.303 329.256 188.539 329.168 188.819 329.168C189.107 329.168 189.343 329.256 189.527 329.432C189.711 329.6 189.803 329.824 189.803 330.104C189.803 330.384 189.711 330.608 189.527 330.776C189.343 330.944 189.107 331.028 188.819 331.028ZM195.786 338V333.2H193.23V332.108H197.166V338H195.786ZM196.374 331.028C196.094 331.028 195.858 330.944 195.666 330.776C195.482 330.608 195.39 330.384 195.39 330.104C195.39 329.824 195.482 329.6 195.666 329.432C195.858 329.256 196.094 329.168 196.374 329.168C196.662 329.168 196.898 329.256 197.082 329.432C197.266 329.6 197.358 329.824 197.358 330.104C197.358 330.384 197.266 330.608 197.082 330.776C196.898 330.944 196.662 331.028 196.374 331.028ZM210.969 338.144C210.417 338.144 209.889 338.056 209.385 337.88C208.881 337.696 208.445 337.48 208.077 337.232L208.677 336.356C209.029 336.588 209.409 336.772 209.817 336.908C210.225 337.036 210.669 337.1 211.149 337.1C211.557 337.1 211.857 337.032 212.049 336.896C212.249 336.752 212.349 336.584 212.349 336.392C212.349 336.296 212.325 336.208 212.277 336.128C212.237 336.048 212.161 335.976 212.049 335.912C211.937 335.84 211.773 335.772 211.557 335.708C211.341 335.644 211.061 335.576 210.717 335.504C209.933 335.336 209.357 335.108 208.989 334.82C208.621 334.532 208.437 334.168 208.437 333.728C208.437 333.208 208.661 332.784 209.109 332.456C209.565 332.128 210.205 331.964 211.029 331.964C211.517 331.964 211.973 332.044 212.397 332.204C212.829 332.364 213.193 332.544 213.489 332.744L212.853 333.596C212.573 333.404 212.265 333.26 211.929 333.164C211.593 333.06 211.253 333.008 210.909 333.008C210.645 333.008 210.433 333.036 210.273 333.092C210.121 333.148 210.005 333.228 209.925 333.332C209.853 333.428 209.817 333.536 209.817 333.656C209.817 333.864 209.937 334.02 210.177 334.124C210.417 334.228 210.809 334.34 211.353 334.46C211.985 334.596 212.473 334.752 212.817 334.928C213.161 335.096 213.397 335.292 213.525 335.516C213.661 335.732 213.729 336 213.729 336.32C213.729 336.656 213.621 336.964 213.405 337.244C213.197 337.516 212.889 337.736 212.481 337.904C212.073 338.064 211.569 338.144 210.969 338.144ZM209.901 340.796L209.781 340.196C210.269 340.164 210.601 340.104 210.777 340.016C210.961 339.936 211.053 339.824 211.053 339.68C211.053 339.544 210.985 339.436 210.849 339.356C210.721 339.284 210.517 339.236 210.237 339.212L210.525 338.66C211.109 338.716 211.513 338.82 211.737 338.972C211.961 339.124 212.073 339.34 212.073 339.62C212.073 339.996 211.881 340.276 211.497 340.46C211.121 340.652 210.589 340.764 209.901 340.796ZM218.452 338V333.2H215.896V332.108H219.832V338H218.452ZM219.04 331.028C218.76 331.028 218.524 330.944 218.332 330.776C218.148 330.608 218.056 330.384 218.056 330.104C218.056 329.824 218.148 329.6 218.332 329.432C218.524 329.256 218.76 329.168 219.04 329.168C219.328 329.168 219.564 329.256 219.748 329.432C219.932 329.6 220.024 329.824 220.024 330.104C220.024 330.384 219.932 330.608 219.748 330.776C219.564 330.944 219.328 331.028 219.04 331.028ZM232.903 338V331.316H230.431V330.152H236.767V331.316H234.295V338H232.903ZM241.514 338.144C240.914 338.144 240.37 338.024 239.882 337.784C239.394 337.536 239.006 337.184 238.718 336.728C238.43 336.264 238.286 335.704 238.286 335.048C238.286 334.408 238.43 333.86 238.718 333.404C239.006 332.94 239.382 332.584 239.846 332.336C240.31 332.088 240.806 331.964 241.334 331.964C241.918 331.964 242.41 332.084 242.81 332.324C243.218 332.564 243.526 332.896 243.734 333.32C243.95 333.736 244.058 334.216 244.058 334.76C244.058 334.896 244.05 335.028 244.034 335.156C244.026 335.276 244.014 335.376 243.998 335.456H239.282V334.472H243.11L242.846 334.784C242.846 334.2 242.714 333.764 242.45 333.476C242.194 333.18 241.834 333.032 241.37 333.032C241.042 333.032 240.746 333.108 240.482 333.26C240.226 333.412 240.022 333.64 239.87 333.944C239.718 334.24 239.642 334.608 239.642 335.048C239.642 335.504 239.726 335.88 239.894 336.176C240.07 336.472 240.31 336.696 240.614 336.848C240.926 337 241.286 337.076 241.694 337.076C242.006 337.076 242.294 337.032 242.558 336.944C242.822 336.856 243.086 336.736 243.35 336.584L243.818 337.448C243.506 337.648 243.154 337.816 242.762 337.952C242.37 338.08 241.954 338.144 241.514 338.144ZM246.094 338V329.528H247.486V331.712L247.402 332.972H247.438C247.694 332.7 247.99 332.464 248.326 332.264C248.67 332.064 249.066 331.964 249.514 331.964C250.194 331.964 250.694 332.172 251.014 332.588C251.334 333.004 251.494 333.592 251.494 334.352V338H250.102V334.532C250.102 334.06 250.018 333.712 249.85 333.488C249.682 333.264 249.398 333.152 248.998 333.152C248.71 333.152 248.454 333.22 248.23 333.356C248.006 333.492 247.758 333.7 247.486 333.98V338H246.094ZM253.649 338V332.108H254.789L254.897 332.996H254.945C255.225 332.708 255.533 332.464 255.869 332.264C256.213 332.064 256.613 331.964 257.069 331.964C257.749 331.964 258.249 332.172 258.569 332.588C258.889 333.004 259.049 333.592 259.049 334.352V338H257.657V334.532C257.657 334.06 257.573 333.712 257.405 333.488C257.237 333.264 256.953 333.152 256.553 333.152C256.265 333.152 256.009 333.22 255.785 333.356C255.561 333.492 255.313 333.7 255.041 333.98V338H253.649ZM263.82 338.144C263.3 338.144 262.816 338.024 262.368 337.784C261.92 337.536 261.556 337.184 261.276 336.728C260.996 336.264 260.856 335.708 260.856 335.06C260.856 334.404 260.996 333.848 261.276 333.392C261.556 332.928 261.92 332.576 262.368 332.336C262.816 332.088 263.3 331.964 263.82 331.964C264.34 331.964 264.824 332.088 265.272 332.336C265.72 332.576 266.084 332.928 266.364 333.392C266.644 333.848 266.784 334.404 266.784 335.06C266.784 335.708 266.644 336.264 266.364 336.728C266.084 337.184 265.72 337.536 265.272 337.784C264.824 338.024 264.34 338.144 263.82 338.144ZM263.82 337.016C264.14 337.016 264.416 336.936 264.648 336.776C264.88 336.616 265.056 336.388 265.176 336.092C265.296 335.796 265.356 335.452 265.356 335.06C265.356 334.668 265.296 334.324 265.176 334.028C265.056 333.732 264.88 333.504 264.648 333.344C264.416 333.176 264.14 333.092 263.82 333.092C263.5 333.092 263.224 333.176 262.992 333.344C262.768 333.504 262.592 333.732 262.464 334.028C262.344 334.324 262.284 334.668 262.284 335.06C262.284 335.452 262.344 335.796 262.464 336.092C262.592 336.388 262.768 336.616 262.992 336.776C263.224 336.936 263.5 337.016 263.82 337.016ZM272.575 338.144C271.895 338.144 271.375 337.944 271.015 337.544C270.663 337.136 270.487 336.572 270.487 335.852V330.62H268.567V329.528H271.867V335.924C271.867 336.324 271.967 336.608 272.167 336.776C272.375 336.936 272.627 337.016 272.923 337.016C273.075 337.016 273.231 337 273.391 336.968C273.551 336.928 273.731 336.868 273.931 336.788L274.255 337.808C273.975 337.904 273.711 337.984 273.463 338.048C273.223 338.112 272.927 338.144 272.575 338.144ZM278.931 338.144C278.411 338.144 277.927 338.024 277.479 337.784C277.031 337.536 276.667 337.184 276.387 336.728C276.107 336.264 275.967 335.708 275.967 335.06C275.967 334.404 276.107 333.848 276.387 333.392C276.667 332.928 277.031 332.576 277.479 332.336C277.927 332.088 278.411 331.964 278.931 331.964C279.451 331.964 279.935 332.088 280.383 332.336C280.831 332.576 281.195 332.928 281.475 333.392C281.755 333.848 281.895 334.404 281.895 335.06C281.895 335.708 281.755 336.264 281.475 336.728C281.195 337.184 280.831 337.536 280.383 337.784C279.935 338.024 279.451 338.144 278.931 338.144ZM278.931 337.016C279.251 337.016 279.527 336.936 279.759 336.776C279.991 336.616 280.167 336.388 280.287 336.092C280.407 335.796 280.467 335.452 280.467 335.06C280.467 334.668 280.407 334.324 280.287 334.028C280.167 333.732 279.991 333.504 279.759 333.344C279.527 333.176 279.251 333.092 278.931 333.092C278.611 333.092 278.335 333.176 278.103 333.344C277.879 333.504 277.703 333.732 277.575 334.028C277.455 334.324 277.395 334.668 277.395 335.06C277.395 335.452 277.455 335.796 277.575 336.092C277.703 336.388 277.879 336.616 278.103 336.776C278.335 336.936 278.611 337.016 278.931 337.016ZM286.318 340.604C285.774 340.604 285.302 340.544 284.902 340.424C284.502 340.312 284.19 340.14 283.966 339.908C283.742 339.676 283.63 339.384 283.63 339.032C283.63 338.8 283.71 338.576 283.87 338.36C284.03 338.144 284.262 337.956 284.566 337.796V337.748C284.414 337.652 284.274 337.528 284.146 337.376C284.026 337.216 283.966 337.012 283.966 336.764C283.966 336.572 284.03 336.376 284.158 336.176C284.286 335.976 284.458 335.804 284.674 335.66V335.612C284.466 335.46 284.286 335.256 284.134 335C283.99 334.736 283.918 334.432 283.918 334.088C283.918 333.632 284.03 333.248 284.254 332.936C284.478 332.616 284.774 332.376 285.142 332.216C285.51 332.048 285.91 331.964 286.342 331.964C286.694 331.964 287.002 332.012 287.266 332.108H289.678V333.164H288.322C288.426 333.276 288.514 333.42 288.586 333.596C288.666 333.764 288.706 333.944 288.706 334.136C288.706 334.568 288.598 334.936 288.382 335.24C288.174 335.536 287.894 335.76 287.542 335.912C287.19 336.064 286.79 336.14 286.342 336.14C286.206 336.14 286.058 336.128 285.898 336.104C285.746 336.072 285.594 336.028 285.442 335.972C285.322 336.044 285.23 336.124 285.166 336.212C285.11 336.3 285.082 336.404 285.082 336.524C285.082 336.708 285.174 336.848 285.358 336.944C285.55 337.032 285.83 337.076 286.198 337.076H287.398C288.166 337.076 288.742 337.188 289.126 337.412C289.518 337.628 289.714 337.996 289.714 338.516C289.714 338.9 289.574 339.252 289.294 339.572C289.022 339.892 288.63 340.144 288.118 340.328C287.614 340.512 287.014 340.604 286.318 340.604ZM286.342 335.264C286.55 335.264 286.738 335.22 286.906 335.132C287.074 335.036 287.206 334.9 287.302 334.724C287.406 334.548 287.458 334.336 287.458 334.088C287.458 333.848 287.406 333.644 287.302 333.476C287.206 333.3 287.074 333.164 286.906 333.068C286.738 332.972 286.55 332.924 286.342 332.924C286.142 332.924 285.958 332.972 285.79 333.068C285.622 333.164 285.486 333.3 285.382 333.476C285.278 333.644 285.226 333.848 285.226 334.088C285.226 334.336 285.278 334.548 285.382 334.724C285.486 334.9 285.622 335.036 285.79 335.132C285.958 335.22 286.142 335.264 286.342 335.264ZM286.486 339.692C286.87 339.692 287.202 339.648 287.482 339.56C287.77 339.472 287.99 339.356 288.142 339.212C288.302 339.068 288.382 338.912 288.382 338.744C288.382 338.512 288.282 338.356 288.082 338.276C287.89 338.204 287.594 338.168 287.194 338.168H286.258C286.066 338.168 285.898 338.16 285.754 338.144C285.61 338.128 285.478 338.108 285.358 338.084C285.15 338.204 285.002 338.328 284.914 338.456C284.826 338.584 284.782 338.716 284.782 338.852C284.782 339.116 284.93 339.32 285.226 339.464C285.522 339.616 285.942 339.692 286.486 339.692ZM294.005 338V333.2H291.449V332.108H295.385V338H294.005ZM294.593 331.028C294.313 331.028 294.077 330.944 293.885 330.776C293.701 330.608 293.609 330.384 293.609 330.104C293.609 329.824 293.701 329.6 293.885 329.432C294.077 329.256 294.313 329.168 294.593 329.168C294.881 329.168 295.117 329.256 295.301 329.432C295.485 329.6 295.577 329.824 295.577 330.104C295.577 330.384 295.485 330.608 295.301 330.776C295.117 330.944 294.881 331.028 294.593 331.028ZM300.817 338.144C300.433 338.144 300.093 338.072 299.797 337.928C299.501 337.776 299.269 337.572 299.101 337.316C298.933 337.06 298.849 336.76 298.849 336.416C298.849 335.76 299.161 335.26 299.785 334.916C300.417 334.564 301.461 334.336 302.917 334.232C302.901 334.016 302.841 333.82 302.737 333.644C302.641 333.468 302.493 333.332 302.293 333.236C302.093 333.132 301.833 333.08 301.513 333.08C301.289 333.08 301.069 333.108 300.853 333.164C300.637 333.22 300.421 333.296 300.205 333.392C299.997 333.488 299.789 333.592 299.581 333.704L299.077 332.78C299.317 332.636 299.581 332.504 299.869 332.384C300.157 332.256 300.461 332.156 300.781 332.084C301.101 332.004 301.429 331.964 301.765 331.964C302.317 331.964 302.777 332.064 303.145 332.264C303.521 332.456 303.805 332.744 303.997 333.128C304.197 333.504 304.297 333.964 304.297 334.508V338H303.169L303.061 337.268H303.025C302.713 337.508 302.365 337.716 301.981 337.892C301.605 338.06 301.217 338.144 300.817 338.144ZM301.237 337.064C301.533 337.064 301.817 337 302.089 336.872C302.369 336.736 302.645 336.56 302.917 336.344V335.096C302.213 335.144 301.661 335.224 301.261 335.336C300.861 335.44 300.581 335.576 300.421 335.744C300.261 335.912 300.181 336.1 300.181 336.308C300.181 336.484 300.229 336.628 300.325 336.74C300.421 336.852 300.545 336.936 300.697 336.992C300.857 337.04 301.037 337.064 301.237 337.064ZM121.635 360V358.824H123.531V353.328H121.635V352.152H126.819V353.328H124.923V358.824H126.819V360H121.635ZM129.166 360V354.108H130.306L130.414 354.996H130.462C130.742 354.708 131.05 354.464 131.386 354.264C131.73 354.064 132.13 353.964 132.586 353.964C133.266 353.964 133.766 354.172 134.086 354.588C134.406 355.004 134.566 355.592 134.566 356.352V360H133.174V356.532C133.174 356.06 133.09 355.712 132.922 355.488C132.754 355.264 132.47 355.152 132.07 355.152C131.782 355.152 131.526 355.22 131.302 355.356C131.078 355.492 130.83 355.7 130.558 355.98V360H129.166ZM138.474 360V353.784C138.474 353.32 138.562 352.908 138.738 352.548C138.914 352.18 139.186 351.896 139.554 351.696C139.922 351.488 140.394 351.384 140.97 351.384C141.29 351.384 141.594 351.416 141.882 351.48C142.178 351.536 142.458 351.612 142.722 351.708L142.434 352.728C142.218 352.64 142.006 352.576 141.798 352.536C141.598 352.496 141.378 352.476 141.138 352.476C140.69 352.476 140.362 352.588 140.154 352.812C139.946 353.028 139.842 353.344 139.842 353.76V360H138.474ZM136.842 355.2V354.168L138.51 354.108H142.086V355.2H136.842ZM146.893 360.144C146.373 360.144 145.889 360.024 145.441 359.784C144.993 359.536 144.629 359.184 144.349 358.728C144.069 358.264 143.929 357.708 143.929 357.06C143.929 356.404 144.069 355.848 144.349 355.392C144.629 354.928 144.993 354.576 145.441 354.336C145.889 354.088 146.373 353.964 146.893 353.964C147.413 353.964 147.897 354.088 148.345 354.336C148.793 354.576 149.157 354.928 149.437 355.392C149.717 355.848 149.857 356.404 149.857 357.06C149.857 357.708 149.717 358.264 149.437 358.728C149.157 359.184 148.793 359.536 148.345 359.784C147.897 360.024 147.413 360.144 146.893 360.144ZM146.893 359.016C147.213 359.016 147.489 358.936 147.721 358.776C147.953 358.616 148.129 358.388 148.249 358.092C148.369 357.796 148.429 357.452 148.429 357.06C148.429 356.668 148.369 356.324 148.249 356.028C148.129 355.732 147.953 355.504 147.721 355.344C147.489 355.176 147.213 355.092 146.893 355.092C146.573 355.092 146.297 355.176 146.065 355.344C145.841 355.504 145.665 355.732 145.537 356.028C145.417 356.324 145.357 356.668 145.357 357.06C145.357 357.452 145.417 357.796 145.537 358.092C145.665 358.388 145.841 358.616 146.065 358.776C146.297 358.936 146.573 359.016 146.893 359.016ZM152.408 360V354.108H153.548L153.668 355.44H153.704C154 354.96 154.364 354.596 154.796 354.348C155.236 354.092 155.708 353.964 156.212 353.964C156.452 353.964 156.66 353.984 156.836 354.024C157.012 354.064 157.184 354.124 157.352 354.204L157.064 355.368C156.872 355.304 156.7 355.26 156.548 355.236C156.404 355.204 156.22 355.188 155.996 355.188C155.596 355.188 155.204 355.304 154.82 355.536C154.444 355.768 154.104 356.172 153.8 356.748V360H152.408ZM158.955 360V354.108H160.023L160.131 354.852H160.167C160.295 354.596 160.459 354.384 160.659 354.216C160.859 354.048 161.131 353.964 161.475 353.964C161.747 353.964 161.975 354.048 162.159 354.216C162.343 354.376 162.471 354.62 162.543 354.948C162.679 354.66 162.851 354.424 163.059 354.24C163.267 354.056 163.543 353.964 163.887 353.964C164.303 353.964 164.623 354.128 164.847 354.456C165.079 354.776 165.195 355.232 165.195 355.824V360H163.863V355.92C163.863 355.4 163.707 355.14 163.395 355.14C163.235 355.14 163.099 355.2 162.987 355.32C162.883 355.44 162.771 355.628 162.651 355.884V360H161.499V355.92C161.499 355.664 161.463 355.472 161.391 355.344C161.319 355.208 161.199 355.14 161.031 355.14C160.879 355.14 160.747 355.2 160.635 355.32C160.523 355.44 160.411 355.628 160.299 355.884V360H158.955ZM168.779 360.144C168.395 360.144 168.055 360.072 167.759 359.928C167.463 359.776 167.231 359.572 167.063 359.316C166.895 359.06 166.811 358.76 166.811 358.416C166.811 357.76 167.123 357.26 167.747 356.916C168.379 356.564 169.423 356.336 170.879 356.232C170.863 356.016 170.803 355.82 170.699 355.644C170.603 355.468 170.455 355.332 170.255 355.236C170.055 355.132 169.795 355.08 169.475 355.08C169.251 355.08 169.031 355.108 168.815 355.164C168.599 355.22 168.383 355.296 168.167 355.392C167.959 355.488 167.751 355.592 167.543 355.704L167.039 354.78C167.279 354.636 167.543 354.504 167.831 354.384C168.119 354.256 168.423 354.156 168.743 354.084C169.063 354.004 169.391 353.964 169.727 353.964C170.279 353.964 170.739 354.064 171.107 354.264C171.483 354.456 171.767 354.744 171.959 355.128C172.159 355.504 172.259 355.964 172.259 356.508V360H171.131L171.023 359.268H170.987C170.675 359.508 170.327 359.716 169.943 359.892C169.567 360.06 169.179 360.144 168.779 360.144ZM169.199 359.064C169.495 359.064 169.779 359 170.051 358.872C170.331 358.736 170.607 358.56 170.879 358.344V357.096C170.175 357.144 169.623 357.224 169.223 357.336C168.823 357.44 168.543 357.576 168.383 357.744C168.223 357.912 168.143 358.1 168.143 358.308C168.143 358.484 168.191 358.628 168.287 358.74C168.383 358.852 168.507 358.936 168.659 358.992C168.819 359.04 168.999 359.064 169.199 359.064ZM178.206 360.144C177.606 360.144 177.13 360.04 176.778 359.832C176.426 359.616 176.174 359.32 176.022 358.944C175.87 358.568 175.794 358.132 175.794 357.636V355.2H174.222V354.168L175.854 354.108L176.034 352.26H177.174V354.108H179.862V355.2H177.174V357.624C177.174 357.944 177.218 358.212 177.306 358.428C177.394 358.636 177.538 358.792 177.738 358.896C177.938 358.992 178.202 359.04 178.53 359.04C178.786 359.04 179.018 359.02 179.226 358.98C179.434 358.94 179.634 358.884 179.826 358.812L180.09 359.808C179.826 359.896 179.542 359.972 179.238 360.036C178.934 360.108 178.59 360.144 178.206 360.144ZM176.874 362.796L176.754 362.196C177.242 362.164 177.574 362.104 177.75 362.016C177.934 361.936 178.026 361.824 178.026 361.68C178.026 361.544 177.958 361.436 177.822 361.356C177.694 361.284 177.49 361.236 177.21 361.212L177.498 360.66C178.082 360.716 178.486 360.82 178.71 360.972C178.934 361.124 179.046 361.34 179.046 361.62C179.046 361.996 178.854 362.276 178.47 362.46C178.094 362.652 177.562 362.764 176.874 362.796ZM184.633 360V355.2H182.077V354.108H186.013V360H184.633ZM185.221 353.028C184.941 353.028 184.705 352.944 184.513 352.776C184.329 352.608 184.237 352.384 184.237 352.104C184.237 351.824 184.329 351.6 184.513 351.432C184.705 351.256 184.941 351.168 185.221 351.168C185.509 351.168 185.745 351.256 185.929 351.432C186.113 351.6 186.205 351.824 186.205 352.104C186.205 352.384 186.113 352.608 185.929 352.776C185.745 352.944 185.509 353.028 185.221 353.028ZM192.585 360.144C191.985 360.144 191.441 360.024 190.953 359.784C190.465 359.536 190.077 359.184 189.789 358.728C189.501 358.264 189.357 357.704 189.357 357.048C189.357 356.408 189.501 355.86 189.789 355.404C190.077 354.94 190.453 354.584 190.917 354.336C191.381 354.088 191.877 353.964 192.405 353.964C192.989 353.964 193.481 354.084 193.881 354.324C194.289 354.564 194.597 354.896 194.805 355.32C195.021 355.736 195.129 356.216 195.129 356.76C195.129 356.896 195.121 357.028 195.105 357.156C195.097 357.276 195.085 357.376 195.069 357.456H190.353V356.472H194.181L193.917 356.784C193.917 356.2 193.785 355.764 193.521 355.476C193.265 355.18 192.905 355.032 192.441 355.032C192.113 355.032 191.817 355.108 191.553 355.26C191.297 355.412 191.093 355.64 190.941 355.944C190.789 356.24 190.713 356.608 190.713 357.048C190.713 357.504 190.797 357.88 190.965 358.176C191.141 358.472 191.381 358.696 191.685 358.848C191.997 359 192.357 359.076 192.765 359.076C193.077 359.076 193.365 359.032 193.629 358.944C193.893 358.856 194.157 358.736 194.421 358.584L194.889 359.448C194.577 359.648 194.225 359.816 193.833 359.952C193.441 360.08 193.025 360.144 192.585 360.144ZM199.744 360V355.2H197.188V354.108H201.124V360H199.744ZM200.332 353.028C200.052 353.028 199.816 352.944 199.624 352.776C199.44 352.608 199.348 352.384 199.348 352.104C199.348 351.824 199.44 351.6 199.624 351.432C199.816 351.256 200.052 351.168 200.332 351.168C200.62 351.168 200.856 351.256 201.04 351.432C201.224 351.6 201.316 351.824 201.316 352.104C201.316 352.384 201.224 352.608 201.04 352.776C200.856 352.944 200.62 353.028 200.332 353.028ZM212.227 356.544V355.536H217.555V356.544H212.227ZM230.685 360.144C230.197 360.144 229.733 360.06 229.293 359.892C228.853 359.724 228.461 359.476 228.117 359.148C227.781 358.812 227.513 358.396 227.313 357.9C227.121 357.396 227.025 356.812 227.025 356.148C227.025 355.276 227.193 354.536 227.529 353.928C227.873 353.312 228.329 352.844 228.897 352.524C229.465 352.204 230.101 352.044 230.805 352.044C231.301 352.044 231.753 352.148 232.161 352.356C232.569 352.556 232.905 352.788 233.169 353.052L232.113 354.228C231.937 354.06 231.741 353.932 231.525 353.844C231.317 353.748 231.077 353.7 230.805 353.7C230.461 353.7 230.149 353.796 229.869 353.988C229.597 354.172 229.381 354.444 229.221 354.804C229.069 355.156 228.993 355.58 228.993 356.076C228.993 356.588 229.069 357.024 229.221 357.384C229.381 357.744 229.605 358.02 229.893 358.212C230.181 358.396 230.513 358.488 230.889 358.488C231.153 358.488 231.397 358.428 231.621 358.308C231.845 358.18 232.045 358.024 232.221 357.84L233.277 358.992C232.957 359.376 232.577 359.664 232.137 359.856C231.697 360.048 231.213 360.144 230.685 360.144ZM237.557 360.144C237.029 360.144 236.529 360.02 236.057 359.772C235.593 359.524 235.213 359.168 234.917 358.704C234.629 358.24 234.485 357.676 234.485 357.012C234.485 356.348 234.629 355.784 234.917 355.32C235.213 354.856 235.593 354.5 236.057 354.252C236.529 354.004 237.029 353.88 237.557 353.88C238.085 353.88 238.581 354.004 239.045 354.252C239.517 354.5 239.897 354.856 240.185 355.32C240.481 355.784 240.629 356.348 240.629 357.012C240.629 357.676 240.481 358.24 240.185 358.704C239.897 359.168 239.517 359.524 239.045 359.772C238.581 360.02 238.085 360.144 237.557 360.144ZM237.557 358.608C237.805 358.608 238.009 358.544 238.169 358.416C238.337 358.28 238.461 358.096 238.541 357.864C238.621 357.624 238.661 357.34 238.661 357.012C238.661 356.692 238.621 356.412 238.541 356.172C238.461 355.932 238.337 355.748 238.169 355.62C238.009 355.484 237.805 355.416 237.557 355.416C237.309 355.416 237.101 355.484 236.933 355.62C236.773 355.748 236.653 355.932 236.573 356.172C236.493 356.412 236.453 356.692 236.453 357.012C236.453 357.34 236.493 357.624 236.573 357.864C236.653 358.096 236.773 358.28 236.933 358.416C237.101 358.544 237.309 358.608 237.557 358.608ZM242.832 360V354.024H244.404L244.548 355.308H244.596C244.884 354.82 245.236 354.46 245.652 354.228C246.068 353.996 246.508 353.88 246.972 353.88C247.244 353.88 247.46 353.904 247.62 353.952C247.78 353.992 247.944 354.048 248.112 354.12L247.728 355.728C247.552 355.664 247.388 355.62 247.236 355.596C247.084 355.564 246.9 355.548 246.684 355.548C246.324 355.548 245.972 355.656 245.628 355.872C245.284 356.08 244.988 356.444 244.74 356.964V360H242.832ZM249.883 362.16V354.024H251.443L251.575 354.6H251.623C251.863 354.384 252.131 354.212 252.427 354.084C252.731 353.948 253.039 353.88 253.351 353.88C253.847 353.88 254.271 354.008 254.623 354.264C254.975 354.512 255.247 354.864 255.439 355.32C255.639 355.768 255.739 356.3 255.739 356.916C255.739 357.604 255.615 358.188 255.367 358.668C255.119 359.148 254.799 359.516 254.407 359.772C254.023 360.02 253.607 360.144 253.159 360.144C252.903 360.144 252.655 360.092 252.415 359.988C252.175 359.876 251.955 359.72 251.755 359.52H251.707L251.803 360.456V362.16H249.883ZM252.715 358.584C252.907 358.584 253.083 358.532 253.243 358.428C253.403 358.316 253.531 358.14 253.627 357.9C253.723 357.66 253.771 357.34 253.771 356.94C253.771 356.596 253.735 356.316 253.663 356.1C253.591 355.876 253.483 355.712 253.339 355.608C253.195 355.496 253.007 355.44 252.775 355.44C252.607 355.44 252.443 355.48 252.283 355.56C252.123 355.632 251.963 355.756 251.803 355.932V358.236C251.947 358.364 252.099 358.456 252.259 358.512C252.419 358.56 252.571 358.584 252.715 358.584ZM264.226 360L266.626 352.188H268.93L271.33 360H269.302L268.354 356.124C268.266 355.74 268.166 355.328 268.054 354.888C267.95 354.448 267.85 354.028 267.754 353.628H267.706C267.626 354.028 267.534 354.448 267.43 354.888C267.334 355.328 267.238 355.74 267.142 356.124L266.194 360H264.226ZM265.882 358.236V356.76H269.65V358.236H265.882Z" fill="#091931"/>
</g>
<defs>
<filter id="filter0_d_123_1344" x="-184" y="0" width="760" height="634" filterUnits="userSpaceOnUse" color-interpolation-filters="sRGB">
<feFlood flood-opacity="0" result="BackgroundImageFix"/>
<feColorMatrix in="SourceAlpha" type="matrix" values="0 0 0 0 0 0 0 0 0 0 0 0 0 0 0 0 0 0 127 0" result="hardAlpha"/>
<feOffset dy="4"/>
<feGaussianBlur stdDeviation="125"/>
<feComposite in2="hardAlpha" operator="out"/>
<feColorMatrix type="matrix" values="0 0 0 0 1 0 0 0 0 1 0 0 0 0 1 0 0 0 0.37 0"/>
<feBlend mode="normal" in2="BackgroundImageFix" result="effect1_dropShadow_123_1344"/>
<feBlend mode="normal" in="SourceGraphic" in2="effect1_dropShadow_123_1344" result="shape"/>
</filter>
</defs>
</svg>
