<svg width="393" height="594" viewBox="0 0 393 594" fill="none" xmlns="http://www.w3.org/2000/svg">
<g filter="url(#filter0_d_123_1589)">
<rect x="66" y="246" width="260" height="94" rx="6" fill="white" shape-rendering="crispEdges"/>
<rect x="89" y="266" width="26" height="26" rx="4" fill="#091931"/>
<g clip-path="url(#clip0_123_1589)">
<path d="M107.097 273.509H106.134V273.006C106.134 272.744 105.916 272.525 105.653 272.525C105.391 272.525 105.172 272.744 105.172 273.006V273.509H98.85V273.006C98.85 272.744 98.6312 272.525 98.3687 272.525C98.1062 272.525 97.8875 272.744 97.8875 273.006V273.509H96.9031C96.0719 273.509 95.3937 274.188 95.3937 275.019V281.1C95.3937 281.931 96.0719 282.609 96.9031 282.609H101.65C101.912 282.609 102.131 282.391 102.131 282.128C102.131 281.866 101.912 281.647 101.65 281.647H96.9031C96.6187 281.647 96.3781 281.406 96.3781 281.122V277.294H107.644V279.591C107.644 279.853 107.862 280.072 108.125 280.072C108.387 280.072 108.606 279.853 108.606 279.591V274.997C108.606 274.188 107.928 273.509 107.097 273.509ZM96.3562 276.309V274.997C96.3562 274.713 96.5969 274.472 96.8812 274.472H97.8437V274.691C97.8437 274.953 98.0625 275.172 98.325 275.172C98.5875 275.172 98.8062 274.953 98.8062 274.691V274.472H105.106V274.691C105.106 274.953 105.325 275.172 105.587 275.172C105.85 275.172 106.069 274.953 106.069 274.691V274.472H107.031C107.316 274.472 107.556 274.713 107.556 274.997V276.309H96.3562Z" fill="#FFC947"/>
<path d="M105.566 279.897C104.012 279.897 102.766 281.144 102.766 282.697C102.766 284.25 104.012 285.497 105.566 285.497C107.119 285.497 108.366 284.25 108.366 282.697C108.366 281.144 107.097 279.897 105.566 279.897ZM105.566 284.512C104.559 284.512 103.75 283.703 103.75 282.697C103.75 281.691 104.559 280.881 105.566 280.881C106.572 280.881 107.381 281.691 107.381 282.697C107.381 283.703 106.572 284.512 105.566 284.512Z" fill="#FFC947"/>
<path d="M106.244 282.194H104.888C104.625 282.194 104.406 282.412 104.406 282.675C104.406 282.937 104.625 283.156 104.888 283.156H106.244C106.506 283.156 106.725 282.937 106.725 282.675C106.725 282.412 106.506 282.194 106.244 282.194Z" fill="#FFC947"/>
</g>
<path d="M128.474 286.5V272.178H132.522C133.901 272.178 135.103 272.427 136.13 272.926C137.171 273.41 137.985 274.173 138.572 275.214C139.159 276.255 139.452 277.612 139.452 279.284C139.452 280.941 139.159 282.305 138.572 283.376C138 284.447 137.208 285.239 136.196 285.752C135.184 286.251 134.025 286.5 132.72 286.5H128.474ZM131.994 283.684H132.324C133.013 283.684 133.622 283.552 134.15 283.288C134.678 283.009 135.089 282.555 135.382 281.924C135.69 281.293 135.844 280.413 135.844 279.284C135.844 278.155 135.69 277.282 135.382 276.666C135.089 276.05 134.678 275.617 134.15 275.368C133.622 275.119 133.013 274.994 132.324 274.994H131.994V283.684ZM145.391 286.764C144.643 286.764 144.005 286.61 143.477 286.302C142.949 285.994 142.539 285.591 142.245 285.092C141.967 284.593 141.827 284.036 141.827 283.42C141.827 282.203 142.363 281.271 143.433 280.626C144.519 279.966 146.337 279.563 148.889 279.416C148.845 279.123 148.735 278.881 148.559 278.69C148.383 278.485 148.134 278.331 147.811 278.228C147.503 278.111 147.122 278.052 146.667 278.052C146.345 278.052 146.007 278.096 145.655 278.184C145.318 278.257 144.966 278.367 144.599 278.514C144.247 278.661 143.859 278.837 143.433 279.042L142.179 276.732C142.722 276.439 143.272 276.182 143.829 275.962C144.387 275.742 144.959 275.573 145.545 275.456C146.132 275.339 146.733 275.28 147.349 275.28C148.391 275.28 149.285 275.463 150.033 275.83C150.781 276.182 151.361 276.732 151.771 277.48C152.182 278.213 152.387 279.159 152.387 280.318V286.5H149.527L149.285 285.312H149.197C148.655 285.723 148.061 286.067 147.415 286.346C146.77 286.625 146.095 286.764 145.391 286.764ZM146.513 284.058C146.983 284.058 147.408 283.97 147.789 283.794C148.185 283.603 148.552 283.376 148.889 283.112V281.528C147.907 281.557 147.144 281.653 146.601 281.814C146.059 281.961 145.685 282.151 145.479 282.386C145.274 282.606 145.171 282.855 145.171 283.134C145.171 283.339 145.223 283.515 145.325 283.662C145.443 283.794 145.597 283.897 145.787 283.97C145.993 284.029 146.235 284.058 146.513 284.058ZM162.617 286.764C161.443 286.764 160.505 286.566 159.801 286.17C159.097 285.759 158.583 285.187 158.261 284.454C157.953 283.721 157.799 282.87 157.799 281.902V278.294H155.115V275.676L157.953 275.544L158.415 272.222H161.319V275.544H165.785V278.294H161.319V281.858C161.319 282.386 161.399 282.811 161.561 283.134C161.722 283.457 161.964 283.684 162.287 283.816C162.609 283.948 163.02 284.014 163.519 284.014C163.915 284.014 164.281 283.985 164.619 283.926C164.971 283.853 165.301 283.757 165.609 283.64L166.225 286.192C165.741 286.324 165.198 286.449 164.597 286.566C164.01 286.698 163.35 286.764 162.617 286.764ZM172.494 286.764C171.746 286.764 171.108 286.61 170.58 286.302C170.052 285.994 169.642 285.591 169.348 285.092C169.07 284.593 168.93 284.036 168.93 283.42C168.93 282.203 169.466 281.271 170.536 280.626C171.622 279.966 173.44 279.563 175.992 279.416C175.948 279.123 175.838 278.881 175.662 278.69C175.486 278.485 175.237 278.331 174.914 278.228C174.606 278.111 174.225 278.052 173.77 278.052C173.448 278.052 173.11 278.096 172.758 278.184C172.421 278.257 172.069 278.367 171.702 278.514C171.35 278.661 170.962 278.837 170.536 279.042L169.282 276.732C169.825 276.439 170.375 276.182 170.932 275.962C171.49 275.742 172.062 275.573 172.648 275.456C173.235 275.339 173.836 275.28 174.452 275.28C175.494 275.28 176.388 275.463 177.136 275.83C177.884 276.182 178.464 276.732 178.874 277.48C179.285 278.213 179.49 279.159 179.49 280.318V286.5H176.63L176.388 285.312H176.3C175.758 285.723 175.164 286.067 174.518 286.346C173.873 286.625 173.198 286.764 172.494 286.764ZM173.616 284.058C174.086 284.058 174.511 283.97 174.892 283.794C175.288 283.603 175.655 283.376 175.992 283.112V281.528C175.01 281.557 174.247 281.653 173.704 281.814C173.162 281.961 172.788 282.151 172.582 282.386C172.377 282.606 172.274 282.855 172.274 283.134C172.274 283.339 172.326 283.515 172.428 283.662C172.546 283.794 172.7 283.897 172.89 283.97C173.096 284.029 173.338 284.058 173.616 284.058ZM174.694 273.916C173.858 273.916 173.162 273.769 172.604 273.476C172.047 273.168 171.629 272.75 171.35 272.222C171.086 271.694 170.94 271.093 170.91 270.418L172.89 270.088C172.934 270.396 173.03 270.675 173.176 270.924C173.323 271.173 173.521 271.371 173.77 271.518C174.02 271.665 174.328 271.738 174.694 271.738C175.061 271.738 175.369 271.665 175.618 271.518C175.882 271.371 176.08 271.173 176.212 270.924C176.359 270.675 176.454 270.396 176.498 270.088L178.478 270.418C178.449 271.093 178.295 271.694 178.016 272.222C177.752 272.75 177.342 273.168 176.784 273.476C176.242 273.769 175.545 273.916 174.694 273.916ZM199.839 286.764C198.812 286.764 197.954 286.573 197.265 286.192C196.576 285.811 196.055 285.305 195.703 284.674C195.366 284.043 195.197 283.369 195.197 282.65C195.197 281.887 195.336 281.242 195.615 280.714C195.894 280.186 196.253 279.731 196.693 279.35C197.148 278.954 197.617 278.602 198.101 278.294C198.6 277.986 199.069 277.685 199.509 277.392C199.949 277.084 200.308 276.761 200.587 276.424C200.88 276.087 201.027 275.691 201.027 275.236C201.027 274.913 200.961 274.664 200.829 274.488C200.712 274.312 200.499 274.224 200.191 274.224C199.956 274.224 199.758 274.356 199.597 274.62C199.45 274.869 199.377 275.236 199.377 275.72C199.377 276.277 199.538 276.864 199.861 277.48C200.198 278.096 200.638 278.719 201.181 279.35C201.738 279.981 202.347 280.582 203.007 281.154C203.682 281.711 204.364 282.203 205.053 282.628C205.537 282.965 205.999 283.251 206.439 283.486C206.894 283.706 207.312 283.86 207.693 283.948L206.879 286.764C206.219 286.603 205.566 286.368 204.921 286.06C204.276 285.737 203.623 285.327 202.963 284.828C202.098 284.241 201.269 283.567 200.477 282.804C199.7 282.027 199.01 281.22 198.409 280.384C197.822 279.533 197.353 278.705 197.001 277.898C196.664 277.091 196.495 276.365 196.495 275.72C196.495 275.045 196.642 274.422 196.935 273.85C197.228 273.263 197.646 272.794 198.189 272.442C198.732 272.09 199.37 271.914 200.103 271.914C201.218 271.914 202.09 272.215 202.721 272.816C203.366 273.417 203.689 274.224 203.689 275.236C203.689 275.823 203.564 276.351 203.315 276.82C203.066 277.275 202.743 277.693 202.347 278.074C201.951 278.455 201.533 278.815 201.093 279.152C200.653 279.489 200.235 279.827 199.839 280.164C199.443 280.487 199.12 280.839 198.871 281.22C198.622 281.587 198.497 281.997 198.497 282.452C198.497 282.775 198.57 283.061 198.717 283.31C198.864 283.559 199.069 283.757 199.333 283.904C199.612 284.036 199.927 284.102 200.279 284.102C200.675 284.102 201.064 283.977 201.445 283.728C201.841 283.464 202.23 283.119 202.611 282.694C203.051 282.151 203.432 281.521 203.755 280.802C204.078 280.069 204.334 279.247 204.525 278.338H207.715C207.451 279.409 207.092 280.443 206.637 281.44C206.197 282.423 205.654 283.361 205.009 284.256C204.393 285.004 203.652 285.613 202.787 286.082C201.936 286.537 200.954 286.764 199.839 286.764ZM223.334 286.5V272.178H227.382C228.761 272.178 229.963 272.427 230.99 272.926C232.031 273.41 232.845 274.173 233.432 275.214C234.019 276.255 234.312 277.612 234.312 279.284C234.312 280.941 234.019 282.305 233.432 283.376C232.86 284.447 232.068 285.239 231.056 285.752C230.044 286.251 228.885 286.5 227.58 286.5H223.334ZM226.854 283.684H227.184C227.873 283.684 228.482 283.552 229.01 283.288C229.538 283.009 229.949 282.555 230.242 281.924C230.55 281.293 230.704 280.413 230.704 279.284C230.704 278.155 230.55 277.282 230.242 276.666C229.949 276.05 229.538 275.617 229.01 275.368C228.482 275.119 227.873 274.994 227.184 274.994H226.854V283.684ZM240.207 286.764C238.975 286.764 238.081 286.361 237.523 285.554C236.981 284.747 236.709 283.662 236.709 282.298V275.544H240.207V281.858C240.207 282.518 240.303 283.002 240.493 283.31C240.699 283.618 241.08 283.772 241.637 283.772C242.004 283.772 242.327 283.699 242.605 283.552C242.899 283.405 243.207 283.112 243.529 282.672V275.544H247.027V286.5H244.167L243.925 284.982H243.837C243.368 285.525 242.84 285.957 242.253 286.28C241.681 286.603 240.999 286.764 240.207 286.764ZM251.383 286.5V275.544H254.265L254.529 277.898H254.617C255.145 277.003 255.79 276.343 256.553 275.918C257.315 275.493 258.122 275.28 258.973 275.28C259.471 275.28 259.867 275.324 260.161 275.412C260.454 275.485 260.755 275.588 261.063 275.72L260.359 278.668C260.036 278.551 259.735 278.47 259.457 278.426C259.178 278.367 258.841 278.338 258.445 278.338C257.785 278.338 257.139 278.536 256.509 278.932C255.878 279.313 255.335 279.981 254.881 280.934V286.5H251.383ZM267.354 286.764C266.606 286.764 265.968 286.61 265.44 286.302C264.912 285.994 264.501 285.591 264.208 285.092C263.929 284.593 263.79 284.036 263.79 283.42C263.79 282.203 264.325 281.271 265.396 280.626C266.481 279.966 268.3 279.563 270.852 279.416C270.808 279.123 270.698 278.881 270.522 278.69C270.346 278.485 270.097 278.331 269.774 278.228C269.466 278.111 269.085 278.052 268.63 278.052C268.307 278.052 267.97 278.096 267.618 278.184C267.281 278.257 266.929 278.367 266.562 278.514C266.21 278.661 265.821 278.837 265.396 279.042L264.142 276.732C264.685 276.439 265.235 276.182 265.792 275.962C266.349 275.742 266.921 275.573 267.508 275.456C268.095 275.339 268.696 275.28 269.312 275.28C270.353 275.28 271.248 275.463 271.996 275.83C272.744 276.182 273.323 276.732 273.734 277.48C274.145 278.213 274.35 279.159 274.35 280.318V286.5H271.49L271.248 285.312H271.16C270.617 285.723 270.023 286.067 269.378 286.346C268.733 286.625 268.058 286.764 267.354 286.764ZM268.476 284.058C268.945 284.058 269.371 283.97 269.752 283.794C270.148 283.603 270.515 283.376 270.852 283.112V281.528C269.869 281.557 269.107 281.653 268.564 281.814C268.021 281.961 267.647 282.151 267.442 282.386C267.237 282.606 267.134 282.855 267.134 283.134C267.134 283.339 267.185 283.515 267.288 283.662C267.405 283.794 267.559 283.897 267.75 283.97C267.955 284.029 268.197 284.058 268.476 284.058ZM284.579 286.764C283.406 286.764 282.467 286.566 281.763 286.17C281.059 285.759 280.546 285.187 280.223 284.454C279.915 283.721 279.761 282.87 279.761 281.902V278.294H277.077V275.676L279.915 275.544L280.377 272.222H283.281V275.544H287.747V278.294H283.281V281.858C283.281 282.386 283.362 282.811 283.523 283.134C283.685 283.457 283.927 283.684 284.249 283.816C284.572 283.948 284.983 284.014 285.481 284.014C285.877 284.014 286.244 283.985 286.581 283.926C286.933 283.853 287.263 283.757 287.571 283.64L288.187 286.192C287.703 286.324 287.161 286.449 286.559 286.566C285.973 286.698 285.313 286.764 284.579 286.764ZM294.457 286.764C293.709 286.764 293.071 286.61 292.543 286.302C292.015 285.994 291.604 285.591 291.311 285.092C291.032 284.593 290.893 284.036 290.893 283.42C290.893 282.203 291.428 281.271 292.499 280.626C293.584 279.966 295.403 279.563 297.955 279.416C297.911 279.123 297.801 278.881 297.625 278.69C297.449 278.485 297.2 278.331 296.877 278.228C296.569 278.111 296.188 278.052 295.733 278.052C295.41 278.052 295.073 278.096 294.721 278.184C294.384 278.257 294.032 278.367 293.665 278.514C293.313 278.661 292.924 278.837 292.499 279.042L291.245 276.732C291.788 276.439 292.338 276.182 292.895 275.962C293.452 275.742 294.024 275.573 294.611 275.456C295.198 275.339 295.799 275.28 296.415 275.28C297.456 275.28 298.351 275.463 299.099 275.83C299.847 276.182 300.426 276.732 300.837 277.48C301.248 278.213 301.453 279.159 301.453 280.318V286.5H298.593L298.351 285.312H298.263C297.72 285.723 297.126 286.067 296.481 286.346C295.836 286.625 295.161 286.764 294.457 286.764ZM295.579 284.058C296.048 284.058 296.474 283.97 296.855 283.794C297.251 283.603 297.618 283.376 297.955 283.112V281.528C296.972 281.557 296.21 281.653 295.667 281.814C295.124 281.961 294.75 282.151 294.545 282.386C294.34 282.606 294.237 282.855 294.237 283.134C294.237 283.339 294.288 283.515 294.391 283.662C294.508 283.794 294.662 283.897 294.853 283.97C295.058 284.029 295.3 284.058 295.579 284.058ZM296.657 273.916C295.821 273.916 295.124 273.769 294.567 273.476C294.01 273.168 293.592 272.75 293.313 272.222C293.049 271.694 292.902 271.093 292.873 270.418L294.853 270.088C294.897 270.396 294.992 270.675 295.139 270.924C295.286 271.173 295.484 271.371 295.733 271.518C295.982 271.665 296.29 271.738 296.657 271.738C297.024 271.738 297.332 271.665 297.581 271.518C297.845 271.371 298.043 271.173 298.175 270.924C298.322 270.675 298.417 270.396 298.461 270.088L300.441 270.418C300.412 271.093 300.258 271.694 299.979 272.222C299.715 272.75 299.304 273.168 298.747 273.476C298.204 273.769 297.508 273.916 296.657 273.916Z" fill="#091931"/>
<path d="M116.692 318.144C116.14 318.144 115.652 318.048 115.228 317.856C114.812 317.664 114.472 317.448 114.208 317.208L115.216 316.068C115.368 316.204 115.56 316.328 115.792 316.44C116.032 316.552 116.276 316.608 116.524 316.608C116.836 316.608 117.12 316.528 117.376 316.368C117.64 316.2 117.852 315.932 118.012 315.564C118.172 315.188 118.252 314.68 118.252 314.04C118.252 313.408 118.184 312.92 118.048 312.576C117.912 312.232 117.744 311.996 117.544 311.868C117.344 311.74 117.136 311.676 116.92 311.676C116.744 311.676 116.572 311.712 116.404 311.784C116.236 311.856 116.1 311.976 115.996 312.144C115.9 312.312 115.852 312.536 115.852 312.816C115.852 313.176 115.948 313.436 116.14 313.596C116.332 313.748 116.58 313.824 116.884 313.824C117.1 313.824 117.324 313.768 117.556 313.656C117.788 313.536 118.016 313.336 118.24 313.056L118.324 314.28C118.052 314.56 117.74 314.78 117.388 314.94C117.044 315.092 116.736 315.168 116.464 315.168C116.024 315.168 115.624 315.088 115.264 314.928C114.912 314.76 114.632 314.504 114.424 314.16C114.216 313.808 114.112 313.36 114.112 312.816C114.112 312.28 114.24 311.82 114.496 311.436C114.752 311.044 115.088 310.748 115.504 310.548C115.928 310.34 116.388 310.236 116.884 310.236C117.268 310.236 117.644 310.308 118.012 310.452C118.388 310.596 118.724 310.82 119.02 311.124C119.316 311.428 119.552 311.82 119.728 312.3C119.904 312.78 119.992 313.36 119.992 314.04C119.992 314.736 119.9 315.344 119.716 315.864C119.532 316.376 119.284 316.8 118.972 317.136C118.668 317.472 118.316 317.724 117.916 317.892C117.524 318.06 117.116 318.144 116.692 318.144ZM121.859 314.712V313.368H127.451V314.712H121.859ZM129.523 318V316.464H131.539V312.288H129.859V311.1C130.211 311.052 130.511 310.996 130.759 310.932C131.015 310.868 131.243 310.792 131.443 310.704C131.643 310.616 131.847 310.508 132.055 310.38H133.447V316.464H135.139V318H129.523ZM139.766 318.144C139.174 318.144 138.654 317.992 138.206 317.688C137.766 317.384 137.422 316.936 137.174 316.344C136.926 315.752 136.802 315.024 136.802 314.16C136.802 312.856 137.074 311.876 137.618 311.22C138.162 310.564 138.878 310.236 139.766 310.236C140.654 310.236 141.37 310.564 141.914 311.22C142.458 311.876 142.73 312.856 142.73 314.16C142.73 315.024 142.606 315.752 142.358 316.344C142.11 316.936 141.762 317.384 141.314 317.688C140.874 317.992 140.358 318.144 139.766 318.144ZM139.766 316.668C139.998 316.668 140.21 316.596 140.402 316.452C140.594 316.3 140.746 316.044 140.858 315.684C140.978 315.316 141.038 314.808 141.038 314.16C141.038 313.512 140.978 313.012 140.858 312.66C140.746 312.308 140.594 312.064 140.402 311.928C140.21 311.784 139.998 311.712 139.766 311.712C139.534 311.712 139.322 311.784 139.13 311.928C138.938 312.064 138.782 312.308 138.662 312.66C138.55 313.012 138.494 313.512 138.494 314.16C138.494 314.808 138.55 315.316 138.662 315.684C138.782 316.044 138.938 316.3 139.13 316.452C139.322 316.596 139.534 316.668 139.766 316.668ZM139.766 315.084C139.502 315.084 139.278 315 139.094 314.832C138.918 314.656 138.83 314.428 138.83 314.148C138.83 313.868 138.918 313.644 139.094 313.476C139.278 313.3 139.502 313.212 139.766 313.212C140.038 313.212 140.262 313.3 140.438 313.476C140.614 313.644 140.702 313.868 140.702 314.148C140.702 314.428 140.614 314.656 140.438 314.832C140.262 315 140.038 315.084 139.766 315.084ZM151.637 318V312.024H153.077L153.209 312.756H153.257C153.361 312.516 153.513 312.312 153.713 312.144C153.921 311.968 154.197 311.88 154.541 311.88C154.789 311.88 155.001 311.964 155.177 312.132C155.361 312.292 155.489 312.532 155.561 312.852C155.657 312.588 155.813 312.36 156.029 312.168C156.245 311.976 156.521 311.88 156.857 311.88C157.289 311.88 157.621 312.056 157.853 312.408C158.085 312.752 158.201 313.224 158.201 313.824V318H156.389V313.956C156.389 313.66 156.301 313.512 156.125 313.512C156.029 313.512 155.945 313.552 155.873 313.632C155.801 313.712 155.729 313.844 155.657 314.028V318H154.181V313.956C154.181 313.804 154.157 313.692 154.109 313.62C154.069 313.548 153.997 313.512 153.893 313.512C153.805 313.512 153.725 313.552 153.653 313.632C153.589 313.712 153.521 313.844 153.449 314.028V318H151.637ZM161.472 318.144C161.064 318.144 160.716 318.06 160.428 317.892C160.14 317.724 159.916 317.504 159.756 317.232C159.604 316.96 159.528 316.656 159.528 316.32C159.528 315.656 159.82 315.148 160.404 314.796C160.996 314.436 161.988 314.216 163.38 314.136C163.356 313.976 163.296 313.844 163.2 313.74C163.104 313.628 162.968 313.544 162.792 313.488C162.624 313.424 162.416 313.392 162.168 313.392C161.992 313.392 161.808 313.416 161.616 313.464C161.432 313.504 161.24 313.564 161.04 313.644C160.848 313.724 160.636 313.82 160.404 313.932L159.72 312.672C160.016 312.512 160.316 312.372 160.62 312.252C160.924 312.132 161.236 312.04 161.556 311.976C161.876 311.912 162.204 311.88 162.54 311.88C163.108 311.88 163.596 311.98 164.004 312.18C164.412 312.372 164.728 312.672 164.952 313.08C165.176 313.48 165.288 313.996 165.288 314.628V318H163.728L163.596 317.352H163.548C163.252 317.576 162.928 317.764 162.576 317.916C162.224 318.068 161.856 318.144 161.472 318.144ZM162.084 316.668C162.34 316.668 162.572 316.62 162.78 316.524C162.996 316.42 163.196 316.296 163.38 316.152V315.288C162.844 315.304 162.428 315.356 162.132 315.444C161.836 315.524 161.632 315.628 161.52 315.756C161.408 315.876 161.352 316.012 161.352 316.164C161.352 316.276 161.38 316.372 161.436 316.452C161.5 316.524 161.584 316.58 161.688 316.62C161.8 316.652 161.932 316.668 162.084 316.668ZM167.707 318V312.024H169.279L169.423 313.308H169.471C169.759 312.82 170.111 312.46 170.527 312.228C170.943 311.996 171.383 311.88 171.847 311.88C172.119 311.88 172.335 311.904 172.495 311.952C172.655 311.992 172.819 312.048 172.987 312.12L172.603 313.728C172.427 313.664 172.263 313.62 172.111 313.596C171.959 313.564 171.775 313.548 171.559 313.548C171.199 313.548 170.847 313.656 170.503 313.872C170.159 314.08 169.863 314.444 169.615 314.964V318H167.707ZM178.587 318.144C177.947 318.144 177.435 318.036 177.051 317.82C176.667 317.596 176.387 317.284 176.211 316.884C176.043 316.484 175.959 316.02 175.959 315.492V313.524H174.495V312.096L176.043 312.024L176.295 310.212H177.879V312.024H180.315V313.524H177.879V315.468C177.879 315.756 177.923 315.988 178.011 316.164C178.099 316.34 178.231 316.464 178.407 316.536C178.583 316.608 178.807 316.644 179.079 316.644C179.295 316.644 179.495 316.628 179.679 316.596C179.871 316.556 180.051 316.504 180.219 316.44L180.555 317.832C180.291 317.904 179.995 317.972 179.667 318.036C179.347 318.108 178.987 318.144 178.587 318.144ZM184.75 318V313.524H182.41V312.024H186.67V318H184.75ZM185.638 311.148C185.278 311.148 184.978 311.044 184.738 310.836C184.506 310.628 184.39 310.352 184.39 310.008C184.39 309.664 184.506 309.388 184.738 309.18C184.978 308.964 185.278 308.856 185.638 308.856C185.998 308.856 186.294 308.964 186.526 309.18C186.766 309.388 186.886 309.664 186.886 310.008C186.886 310.352 186.766 310.628 186.526 310.836C186.294 311.044 185.998 311.148 185.638 311.148ZM193.013 318.144C192.389 318.144 191.825 318.02 191.321 317.772C190.817 317.524 190.417 317.168 190.121 316.704C189.833 316.24 189.689 315.676 189.689 315.012C189.689 314.356 189.837 313.796 190.133 313.332C190.429 312.868 190.813 312.512 191.285 312.264C191.765 312.008 192.273 311.88 192.809 311.88C193.425 311.88 193.941 312.008 194.357 312.264C194.781 312.52 195.097 312.868 195.305 313.308C195.521 313.74 195.629 314.224 195.629 314.76C195.629 314.928 195.621 315.092 195.605 315.252C195.589 315.404 195.573 315.516 195.557 315.588H191.117V314.328H194.237L193.961 314.676C193.961 314.236 193.869 313.904 193.685 313.68C193.501 313.448 193.229 313.332 192.869 313.332C192.589 313.332 192.349 313.392 192.149 313.512C191.957 313.632 191.805 313.82 191.693 314.076C191.589 314.324 191.537 314.636 191.537 315.012C191.537 315.404 191.601 315.724 191.729 315.972C191.865 316.22 192.061 316.404 192.317 316.524C192.581 316.636 192.901 316.692 193.277 316.692C193.533 316.692 193.777 316.66 194.009 316.596C194.249 316.532 194.501 316.436 194.765 316.308L195.389 317.448C195.045 317.664 194.661 317.836 194.237 317.964C193.813 318.084 193.405 318.144 193.013 318.144ZM204.824 318V316.908C205.528 316.324 206.148 315.788 206.684 315.3C207.228 314.812 207.652 314.364 207.956 313.956C208.26 313.548 208.412 313.168 208.412 312.816C208.412 312.456 208.304 312.188 208.088 312.012C207.88 311.828 207.592 311.736 207.224 311.736C206.936 311.736 206.672 311.812 206.432 311.964C206.192 312.116 205.964 312.288 205.748 312.48L204.728 311.46C205.136 311.044 205.548 310.736 205.964 310.536C206.388 310.336 206.896 310.236 207.488 310.236C208.032 310.236 208.508 310.34 208.916 310.548C209.324 310.748 209.644 311.036 209.876 311.412C210.108 311.78 210.224 312.212 210.224 312.708C210.224 313.124 210.096 313.548 209.84 313.98C209.584 314.412 209.252 314.84 208.844 315.264C208.444 315.688 208.016 316.096 207.56 316.488C207.776 316.464 208.012 316.444 208.268 316.428C208.524 316.404 208.748 316.392 208.94 316.392H210.608V318H204.824ZM215.319 318.144C214.727 318.144 214.207 317.992 213.759 317.688C213.319 317.384 212.975 316.936 212.727 316.344C212.479 315.752 212.355 315.024 212.355 314.16C212.355 312.856 212.627 311.876 213.171 311.22C213.715 310.564 214.431 310.236 215.319 310.236C216.207 310.236 216.923 310.564 217.467 311.22C218.011 311.876 218.283 312.856 218.283 314.16C218.283 315.024 218.159 315.752 217.911 316.344C217.663 316.936 217.315 317.384 216.867 317.688C216.427 317.992 215.911 318.144 215.319 318.144ZM215.319 316.668C215.551 316.668 215.763 316.596 215.955 316.452C216.147 316.3 216.299 316.044 216.411 315.684C216.531 315.316 216.591 314.808 216.591 314.16C216.591 313.512 216.531 313.012 216.411 312.66C216.299 312.308 216.147 312.064 215.955 311.928C215.763 311.784 215.551 311.712 215.319 311.712C215.087 311.712 214.875 311.784 214.683 311.928C214.491 312.064 214.335 312.308 214.215 312.66C214.103 313.012 214.047 313.512 214.047 314.16C214.047 314.808 214.103 315.316 214.215 315.684C214.335 316.044 214.491 316.3 214.683 316.452C214.875 316.596 215.087 316.668 215.319 316.668ZM215.319 315.084C215.055 315.084 214.831 315 214.647 314.832C214.471 314.656 214.383 314.428 214.383 314.148C214.383 313.868 214.471 313.644 214.647 313.476C214.831 313.3 215.055 313.212 215.319 313.212C215.591 313.212 215.815 313.3 215.991 313.476C216.167 313.644 216.255 313.868 216.255 314.148C216.255 314.428 216.167 314.656 215.991 314.832C215.815 315 215.591 315.084 215.319 315.084ZM219.934 318V316.908C220.638 316.324 221.258 315.788 221.794 315.3C222.338 314.812 222.762 314.364 223.066 313.956C223.37 313.548 223.522 313.168 223.522 312.816C223.522 312.456 223.414 312.188 223.198 312.012C222.99 311.828 222.702 311.736 222.334 311.736C222.046 311.736 221.782 311.812 221.542 311.964C221.302 312.116 221.074 312.288 220.858 312.48L219.838 311.46C220.246 311.044 220.658 310.736 221.074 310.536C221.498 310.336 222.006 310.236 222.598 310.236C223.142 310.236 223.618 310.34 224.026 310.548C224.434 310.748 224.754 311.036 224.986 311.412C225.218 311.78 225.334 312.212 225.334 312.708C225.334 313.124 225.206 313.548 224.95 313.98C224.694 314.412 224.362 314.84 223.954 315.264C223.554 315.688 223.126 316.096 222.67 316.488C222.886 316.464 223.122 316.444 223.378 316.428C223.634 316.404 223.858 316.392 224.05 316.392H225.718V318H219.934ZM230.85 318V313.716C230.85 313.46 230.858 313.168 230.874 312.84C230.898 312.512 230.914 312.224 230.922 311.976H230.874C230.746 312.192 230.606 312.412 230.454 312.636C230.31 312.86 230.17 313.084 230.034 313.308L229.062 314.784H233.562V316.236H227.238V314.904L230.298 310.38H232.638V318H230.85Z" fill="#091931"/>
<rect x="244.5" y="308" width="1" height="12" fill="#091931"/>
<path d="M256.28 318V317.196C257.08 316.508 257.764 315.896 258.332 315.36C258.908 314.824 259.348 314.336 259.652 313.896C259.964 313.448 260.12 313.028 260.12 312.636C260.12 312.228 259.996 311.908 259.748 311.676C259.5 311.436 259.136 311.316 258.656 311.316C258.328 311.316 258.024 311.4 257.744 311.568C257.464 311.736 257.208 311.936 256.976 312.168L256.22 311.4C256.588 311.024 256.976 310.736 257.384 310.536C257.792 310.328 258.276 310.224 258.836 310.224C259.364 310.224 259.82 310.32 260.204 310.512C260.596 310.704 260.9 310.976 261.116 311.328C261.332 311.68 261.44 312.092 261.44 312.564C261.44 313.012 261.3 313.472 261.02 313.944C260.74 314.408 260.36 314.884 259.88 315.372C259.408 315.86 258.876 316.372 258.284 316.908C258.508 316.884 258.744 316.864 258.992 316.848C259.24 316.832 259.468 316.824 259.676 316.824H261.836V318H256.28ZM267.303 318V313.14C267.311 312.916 267.323 312.664 267.339 312.384C267.355 312.104 267.367 311.852 267.375 311.628H267.315C267.187 311.828 267.051 312.028 266.907 312.228C266.771 312.428 266.639 312.632 266.511 312.84L264.903 314.964H269.679V316.032H263.499V315.096L267.003 310.356H268.599V318H267.303ZM271.595 318V309.528H272.987V311.712L272.903 312.972H272.939C273.195 312.7 273.491 312.464 273.827 312.264C274.171 312.064 274.567 311.964 275.015 311.964C275.695 311.964 276.195 312.172 276.515 312.588C276.835 313.004 276.995 313.592 276.995 314.352V318H275.603V314.532C275.603 314.06 275.519 313.712 275.351 313.488C275.183 313.264 274.899 313.152 274.499 313.152C274.211 313.152 273.955 313.22 273.731 313.356C273.507 313.492 273.259 313.7 272.987 313.98V318H271.595Z" fill="#091931"/>
</g>
<defs>
<filter id="filter0_d_123_1589" x="-184" y="0" width="760" height="594" filterUnits="userSpaceOnUse" color-interpolation-filters="sRGB">
<feFlood flood-opacity="0" result="BackgroundImageFix"/>
<feColorMatrix in="SourceAlpha" type="matrix" values="0 0 0 0 0 0 0 0 0 0 0 0 0 0 0 0 0 0 127 0" result="hardAlpha"/>
<feOffset dy="4"/>
<feGaussianBlur stdDeviation="125"/>
<feComposite in2="hardAlpha" operator="out"/>
<feColorMatrix type="matrix" values="0 0 0 0 1 0 0 0 0 1 0 0 0 0 1 0 0 0 0.37 0"/>
<feBlend mode="normal" in2="BackgroundImageFix" result="effect1_dropShadow_123_1589"/>
<feBlend mode="normal" in="SourceGraphic" in2="effect1_dropShadow_123_1589" result="shape"/>
</filter>
<clipPath id="clip0_123_1589">
<rect width="14" height="14" fill="white" transform="translate(95 272)"/>
</clipPath>
</defs>
</svg>
