<svg width="26" height="27" viewBox="0 0 26 27" fill="none" xmlns="http://www.w3.org/2000/svg">
<rect y="0.510498" width="26" height="26" rx="4" fill="#091931"/>
<path d="M13.175 18.3667C12.5407 18.5198 11.9063 18.5854 11.2938 18.5854C9.65317 18.5854 8.10005 17.9729 7.37817 17.6448C7.46567 16.3979 7.8813 15.2823 8.55942 14.4511C9.2813 13.5979 10.2657 13.1167 11.2938 13.1167C12.3219 13.1167 13.3063 13.5979 14.0282 14.4511C14.0719 14.4948 14.0938 14.5386 14.1375 14.5823C14.2907 14.8011 14.5969 14.8667 14.8157 14.7136C15.0344 14.5604 15.1 14.2542 14.9469 14.0354C14.9032 13.9698 14.8375 13.9042 14.7938 13.8386C14.2032 13.1386 13.4594 12.6354 12.65 12.3729C13.4594 11.9136 14.0063 11.0386 14.0063 10.0323C14.0063 8.54482 12.8032 7.31982 11.2938 7.31982C9.78442 7.31982 8.60317 8.52295 8.60317 10.0104C8.60317 11.0167 9.15005 11.8698 9.95942 12.3511C9.15005 12.6136 8.4063 13.1167 7.81567 13.8167C6.9188 14.8667 6.41567 16.3323 6.3938 17.9292C6.3938 18.1261 6.50317 18.3011 6.6563 18.3886C7.20317 18.6729 9.1938 19.5698 11.2938 19.5698C11.9719 19.5698 12.6719 19.4823 13.3938 19.3292C13.6563 19.2636 13.8313 19.0011 13.7657 18.7386C13.7219 18.4761 13.4375 18.3011 13.175 18.3667ZM11.2938 8.28232C12.2344 8.28232 13.0219 9.04795 13.0219 10.0104C13.0219 10.9511 12.2563 11.7386 11.2938 11.7386C10.3532 11.7386 9.56567 10.9729 9.56567 10.0104C9.58755 9.06982 10.3532 8.28232 11.2938 8.28232Z" fill="white"/>
<path d="M19.5625 15.873C19.4531 15.5011 19.1031 15.2605 18.7094 15.2605H17.6156L17.2875 14.2324C17.1781 13.8605 16.8281 13.6199 16.4344 13.6199C16.0406 13.6199 15.7125 13.8605 15.5813 14.2324L15.275 15.2605H14.1813C13.7875 15.2605 13.4594 15.5011 13.3281 15.873C13.1969 16.2449 13.3281 16.6386 13.6563 16.8792L14.5313 17.5136L14.2031 18.5417C14.0938 18.9136 14.2031 19.3074 14.5313 19.548C14.8375 19.7667 15.275 19.7667 15.5813 19.548L16.4563 18.9136L17.3313 19.548C17.4844 19.6574 17.6813 19.723 17.8563 19.723C18.0313 19.723 18.2281 19.6574 18.3813 19.548C18.6875 19.3292 18.8188 18.9136 18.7094 18.5417L18.3813 17.5136L19.2563 16.8792C19.5625 16.6605 19.6938 16.2449 19.5625 15.873ZM17.7469 16.748C17.4406 16.9667 17.3094 17.3824 17.4188 17.7542L17.6813 18.5855L16.9813 18.0824C16.675 17.8636 16.2375 17.8636 15.9313 18.0824L15.2313 18.5855L15.4938 17.7542C15.6031 17.3824 15.4938 16.9886 15.1656 16.748L14.4656 16.2449H15.3406C15.7344 16.2449 16.0625 16.0042 16.1938 15.6324L16.4563 14.8011L16.7188 15.6324C16.8281 16.0042 17.1781 16.2449 17.5719 16.2449H18.4469L17.7469 16.748Z" fill="white"/>
</svg>
