<svg width="135" height="37" viewBox="0 0 135 37" fill="none" xmlns="http://www.w3.org/2000/svg">
<path d="M10.8829 36.312C9.19625 36.312 7.43292 35.9593 5.59292 35.254C3.78359 34.518 2.20425 33.23 0.854921 31.39L5.04092 26.836C5.89959 27.8173 6.80425 28.584 7.75492 29.136C8.70559 29.688 9.65625 29.964 10.6069 29.964C12.0176 29.964 13.0909 29.6113 13.8269 28.906C14.5629 28.17 14.9309 26.8207 14.9309 24.858V11.978H3.38492V5.81401H22.2909V25.456C22.2909 27.4493 21.9229 29.274 21.1869 30.93C20.4509 32.5553 19.2549 33.8587 17.5989 34.84C15.9429 35.8213 13.7043 36.312 10.8829 36.312ZM36.295 36.312C33.719 36.312 31.8483 35.4687 30.683 33.782C29.5483 32.0953 28.981 29.826 28.981 26.974V12.852H36.295V26.054C36.295 27.434 36.4943 28.446 36.893 29.09C37.3223 29.734 38.1196 30.056 39.285 30.056C40.0516 30.056 40.7263 29.9027 41.309 29.596C41.9223 29.2893 42.5663 28.676 43.241 27.756V12.852H50.555V35.76H44.575L44.069 32.586H43.885C42.9036 33.7207 41.7996 34.6253 40.573 35.3C39.377 35.9747 37.951 36.312 36.295 36.312ZM59.269 35.76V12.852H65.295L65.847 17.774H66.031C67.135 15.9033 68.4843 14.5233 70.079 13.634C71.6737 12.7447 73.3603 12.3 75.139 12.3C76.1817 12.3 77.0097 12.392 77.623 12.576C78.2363 12.7293 78.865 12.944 79.509 13.22L78.037 19.384C77.3623 19.1387 76.7337 18.97 76.151 18.878C75.5683 18.7553 74.863 18.694 74.035 18.694C72.655 18.694 71.3057 19.108 69.987 19.936C68.6683 20.7333 67.5337 22.1287 66.583 24.122V35.76H59.269ZM94.617 35.76V18.602H85.647V12.852H101.977V35.76H94.617ZM98.021 9.49401C96.641 9.49401 95.491 9.09534 94.571 8.29801C93.6817 7.50068 93.237 6.44268 93.237 5.12401C93.237 3.80534 93.6817 2.74734 94.571 1.95001C95.491 1.12201 96.641 0.708009 98.021 0.708009C99.401 0.708009 100.536 1.12201 101.425 1.95001C102.345 2.74734 102.805 3.80534 102.805 5.12401C102.805 6.44268 102.345 7.50068 101.425 8.29801C100.536 9.09534 99.401 9.49401 98.021 9.49401ZM120.121 36.312C117.545 36.312 115.674 35.4687 114.509 33.782C113.374 32.0953 112.807 29.826 112.807 26.974V12.852H120.121V26.054C120.121 27.434 120.32 28.446 120.719 29.09C121.148 29.734 121.946 30.056 123.111 30.056C123.878 30.056 124.552 29.9027 125.135 29.596C125.748 29.2893 126.392 28.676 127.067 27.756V12.852H134.381V35.76H128.401L127.895 32.586H127.711C126.73 33.7207 125.626 34.6253 124.399 35.3C123.203 35.9747 121.777 36.312 120.121 36.312Z" fill="white"/>
</svg>
