<svg width="64" height="64" viewBox="0 0 64 64" fill="none" xmlns="http://www.w3.org/2000/svg">
<g filter="url(#filter0_bddd_35_1845)">
<path d="M10.5 8C10.5 3.85786 13.8579 0.5 18 0.5H46C50.1421 0.5 53.5 3.85786 53.5 8V36C53.5 40.1421 50.1421 43.5 46 43.5H18C13.8579 43.5 10.5 40.1421 10.5 36V8Z" stroke="white" shape-rendering="crispEdges"/>
<g clip-path="url(#clip0_35_1845)">
<path d="M38.1167 30.3332H25.8833C24.6583 30.3332 23.6667 29.3415 23.6667 28.1165V15.8832C23.6667 14.6582 24.6583 13.6665 25.8833 13.6665H38.1083C39.3417 13.6665 40.3333 14.6582 40.3333 15.8832V28.1082C40.3333 29.3415 39.3417 30.3332 38.1167 30.3332Z" stroke="white" stroke-width="1.5" stroke-miterlimit="10" stroke-linecap="round" stroke-linejoin="round"/>
<path d="M27.8333 20.3335V26.1668" stroke="white" stroke-width="1.5" stroke-miterlimit="10" stroke-linecap="round" stroke-linejoin="round"/>
<path d="M36.1667 26.1667C36.1667 26.1667 36.1667 22.375 36.1667 22.3667C36.1667 21.8917 36.1917 21.3417 35.9667 20.9083C35.4667 19.925 34.1417 20.425 33.4333 20.8333C32.7 21.25 32.0333 21.7833 31.4 22.3333C31.325 22.4 31.2417 22.475 31.1667 22.5417V20.3417V26.1667" stroke="white" stroke-width="1.5" stroke-miterlimit="10" stroke-linecap="round" stroke-linejoin="round"/>
<path d="M27.8333 17.8333C28.0634 17.8333 28.25 17.6468 28.25 17.4167C28.25 17.1865 28.0634 17 27.8333 17C27.6032 17 27.4167 17.1865 27.4167 17.4167C27.4167 17.6468 27.6032 17.8333 27.8333 17.8333Z" stroke="white" stroke-width="1.5" stroke-miterlimit="10" stroke-linecap="round" stroke-linejoin="round"/>
</g>
</g>
<defs>
<filter id="filter0_bddd_35_1845" x="-10" y="-20" width="84" height="84" filterUnits="userSpaceOnUse" color-interpolation-filters="sRGB">
<feFlood flood-opacity="0" result="BackgroundImageFix"/>
<feGaussianBlur in="BackgroundImageFix" stdDeviation="10"/>
<feComposite in2="SourceAlpha" operator="in" result="effect1_backgroundBlur_35_1845"/>
<feColorMatrix in="SourceAlpha" type="matrix" values="0 0 0 0 0 0 0 0 0 0 0 0 0 0 0 0 0 0 127 0" result="hardAlpha"/>
<feOffset dy="10"/>
<feGaussianBlur stdDeviation="5"/>
<feComposite in2="hardAlpha" operator="out"/>
<feColorMatrix type="matrix" values="0 0 0 0 0 0 0 0 0 0 0 0 0 0 0 0 0 0 0.1 0"/>
<feBlend mode="normal" in2="effect1_backgroundBlur_35_1845" result="effect2_dropShadow_35_1845"/>
<feColorMatrix in="SourceAlpha" type="matrix" values="0 0 0 0 0 0 0 0 0 0 0 0 0 0 0 0 0 0 127 0" result="hardAlpha"/>
<feOffset dy="4"/>
<feGaussianBlur stdDeviation="2"/>
<feComposite in2="hardAlpha" operator="out"/>
<feColorMatrix type="matrix" values="0 0 0 0 0 0 0 0 0 0 0 0 0 0 0 0 0 0 0.05 0"/>
<feBlend mode="normal" in2="effect2_dropShadow_35_1845" result="effect3_dropShadow_35_1845"/>
<feColorMatrix in="SourceAlpha" type="matrix" values="0 0 0 0 0 0 0 0 0 0 0 0 0 0 0 0 0 0 127 0" result="hardAlpha"/>
<feOffset dy="1"/>
<feComposite in2="hardAlpha" operator="out"/>
<feColorMatrix type="matrix" values="0 0 0 0 0 0 0 0 0 0 0 0 0 0 0 0 0 0 0.05 0"/>
<feBlend mode="normal" in2="effect3_dropShadow_35_1845" result="effect4_dropShadow_35_1845"/>
<feBlend mode="normal" in="SourceGraphic" in2="effect4_dropShadow_35_1845" result="shape"/>
</filter>
<clipPath id="clip0_35_1845">
<rect width="20" height="20" fill="white" transform="translate(22 12)"/>
</clipPath>
</defs>
</svg>
