<svg width="45" height="44" viewBox="0 0 45 44" fill="none" xmlns="http://www.w3.org/2000/svg">
<g filter="url(#filter0_d_1_41)">
<g clip-path="url(#clip0_1_41)">
<path d="M40.1448 14.4413C40.6101 16.723 40.6239 19.0954 40.1668 21.4486C39.2525 26.1606 36.5566 30.234 32.5746 32.9202C28.5927 35.6064 23.8066 36.5807 19.0894 35.667C17.9962 35.4551 16.9387 35.1468 15.9226 34.7505L19.4419 32.3752C19.5135 32.3918 19.5851 32.4055 19.6567 32.4193C23.366 33.1569 27.3563 32.4716 30.7324 30.1954C35.3835 27.0578 37.6636 21.7074 37.1211 16.4835C36.9999 15.322 36.7411 14.1688 36.3335 13.0459L39.1341 11.1551C39.5775 12.2202 39.9162 13.3211 40.142 14.4441L40.1448 14.4413Z" fill="#FFC947"/>
<path d="M38.2474 9.32707L36.8265 10.2849L25.8527 17.6885L25.8031 17.7216C25.9546 19.0041 25.4038 20.3252 24.2665 21.1014C23.121 21.8555 21.6973 21.8693 20.5682 21.2528C20.0808 20.9885 19.6485 20.6032 19.3153 20.1133C18.9821 19.6206 18.7893 19.0784 18.726 18.5252C18.5855 17.3197 19.0619 16.0812 20.0615 15.2913L20.1139 15.2555L20.3837 15.0739L20.4581 15.0243C21.5651 14.3913 22.8952 14.4106 23.9609 14.994L24.0104 14.961L33.6128 8.48212L33.6624 8.44909C33.2328 7.94542 32.7729 7.47478 32.291 7.04267C31.4043 6.24725 30.4295 5.57294 29.3996 5.02524C24.754 2.55643 18.9242 2.66652 14.2676 5.80689C14.2511 5.8179 14.2373 5.82891 14.2208 5.83716C14.2015 5.85092 14.1795 5.86469 14.1602 5.87845C14.1079 5.91423 14.0556 5.95001 14.006 5.98579L13.9922 5.99404C13.9372 6.03258 13.8821 6.07111 13.8298 6.10964C13.805 6.12615 13.7802 6.14542 13.7582 6.16193C13.6976 6.20597 13.6398 6.25001 13.5792 6.29404C13.5158 6.34083 13.4525 6.39037 13.3892 6.43992C13.3754 6.44817 13.3644 6.45918 13.3506 6.47019C13.29 6.51698 13.2294 6.56652 13.1689 6.61606C13.122 6.65459 13.0752 6.69313 13.0257 6.73166C13.0119 6.74267 12.9981 6.75368 12.9844 6.76469C12.9541 6.78946 12.9265 6.81423 12.8962 6.839C12.8577 6.87203 12.8219 6.9023 12.7861 6.93533C12.7778 6.94359 12.7696 6.94909 12.7613 6.95735C12.7062 7.00414 12.6512 7.05368 12.5988 7.10322C12.5906 7.10872 12.5823 7.11698 12.574 7.12524C12.5135 7.18028 12.4529 7.23533 12.3923 7.29313C12.34 7.33992 12.2904 7.38946 12.2381 7.439C12.2161 7.46102 12.194 7.48028 12.172 7.5023C12.1417 7.53258 12.1114 7.5601 12.0811 7.59313C12.0563 7.6179 12.0288 7.64542 12.004 7.67019C11.9544 7.71973 11.9049 7.76927 11.8581 7.81881C11.8085 7.87111 11.7617 7.92065 11.7121 7.97019C11.6928 7.99221 11.6736 8.01423 11.6515 8.03625C11.602 8.09129 11.5524 8.14359 11.5028 8.19863C11.5001 8.20138 11.4973 8.20689 11.4946 8.20964C11.4422 8.27019 11.3899 8.32799 11.3376 8.38854C11.1724 8.57845 11.0127 8.77111 10.8584 8.96927C10.8089 9.03258 10.7621 9.09313 10.7153 9.15643C10.7097 9.16193 10.7042 9.17019 10.7015 9.1757C10.6547 9.23625 10.6079 9.29955 10.5638 9.3601C10.5638 9.3601 10.5638 9.3656 10.5583 9.3656C10.5087 9.43166 10.4619 9.50047 10.4151 9.56927C10.3683 9.63808 10.3215 9.70413 10.2746 9.77569C10.137 9.97936 10.0048 10.183 9.87811 10.395C9.82579 10.4803 9.77622 10.5656 9.72665 10.6509C9.6936 10.7115 9.65781 10.7693 9.62476 10.8298C9.58345 10.9014 9.5449 10.9729 9.50635 11.0445C9.4678 11.1161 9.42924 11.1904 9.39069 11.2619C9.35489 11.3335 9.31634 11.4078 9.28054 11.4821C9.20894 11.628 9.13734 11.7766 9.07125 11.9252C9.03821 11.9995 9.00516 12.0739 8.97212 12.1509C8.90878 12.2968 8.8482 12.4427 8.79037 12.5913C8.61413 13.0372 8.45992 13.4913 8.32774 13.9509C8.31672 13.9812 8.30846 14.0142 8.3002 14.0473C8.28918 14.083 8.28092 14.1188 8.27266 14.1546C8.26165 14.1931 8.25063 14.2289 8.24237 14.2674C8.22034 14.3528 8.19831 14.4408 8.17628 14.5289C8.16526 14.5757 8.15425 14.6197 8.14323 14.6665C8.13222 14.7078 8.12396 14.7463 8.1157 14.7876C8.08816 14.906 8.06337 15.0243 8.03859 15.1482C8.02758 15.206 8.01656 15.2665 8.00555 15.3243C7.99453 15.3849 7.98352 15.4427 7.9725 15.5032L4.5 17.8427C4.51102 16.75 4.62117 15.6491 4.83321 14.5537C5.75021 9.84175 8.44339 5.76836 12.4253 3.08212C16.4073 0.395879 21.1961 -0.581185 25.9105 0.332576C28.2733 0.792209 30.4735 1.69496 32.4232 2.98579C33.3788 3.61881 34.271 4.34267 35.0944 5.15184C35.557 5.60597 35.9948 6.09037 36.4079 6.5968C36.7521 7.02065 37.0798 7.46102 37.3882 7.9179C37.6967 8.37753 37.9858 8.84542 38.2474 9.32157V9.32707Z" fill="#FFC947"/>
<path d="M15.7326 24.5147L9.88362 28.4615L8.51225 29.3862C8.16803 28.9624 7.84033 28.522 7.5319 28.0651C7.22348 27.6083 6.93709 27.1376 6.67273 26.6615L8.04411 25.7367L13.8931 21.7899C14.1107 22.2881 14.375 22.7697 14.6889 23.2376C15.0029 23.7028 15.3526 24.1294 15.7326 24.5174V24.5147Z" fill="#749CE9"/>
<path d="M30.0687 8.54035L27.169 10.4945C26.0042 9.74586 24.6906 9.27797 23.3358 9.11283C21.2319 8.85411 19.0289 9.32476 17.1398 10.5991C15.2479 11.8761 13.9895 13.7422 13.4442 15.7871C13.0917 17.1055 13.0339 18.4982 13.2928 19.8578L7.21795 23.9559L5.82179 24.8972C5.37843 23.8321 5.03972 22.7339 4.81116 21.611L7.83204 19.5715L9.84504 18.2119C9.84504 18.1596 9.84504 18.1101 9.84504 18.0578C9.84504 18.0082 9.84504 17.9587 9.84504 17.9092C9.84504 17.8706 9.84504 17.8321 9.84504 17.7936C9.84504 17.7303 9.85055 17.667 9.85331 17.6064C9.85881 17.4963 9.86432 17.389 9.87258 17.2789C9.87534 17.2348 9.87809 17.1908 9.8836 17.1468C9.8891 17.0835 9.89461 17.0202 9.90012 16.9541C9.90012 16.9348 9.90287 16.9156 9.90563 16.8991C9.90838 16.8578 9.91389 16.8137 9.9194 16.7725C9.92215 16.7449 9.9249 16.7147 9.93041 16.6871C9.93867 16.6266 9.94418 16.566 9.9552 16.5027C9.96896 16.4009 9.98273 16.2963 9.99926 16.1945C10.0075 16.1422 10.0158 16.0926 10.024 16.0404C10.0323 15.9963 10.0406 15.9523 10.0461 15.9082C10.0516 15.8725 10.0598 15.8394 10.0653 15.8037C10.0709 15.7706 10.0791 15.7348 10.0874 15.6991C10.1011 15.633 10.1149 15.5642 10.1287 15.4982C10.1397 15.4514 10.148 15.4046 10.159 15.3578C10.1672 15.3248 10.1727 15.2945 10.181 15.2642C10.203 15.1679 10.2278 15.0743 10.2526 14.9807C10.2636 14.9367 10.2774 14.8899 10.2884 14.8459C10.3049 14.7853 10.3214 14.7248 10.338 14.667C10.3572 14.6009 10.3765 14.5376 10.3958 14.4715C10.4068 14.4385 10.4151 14.4082 10.4261 14.3752C10.4481 14.3092 10.4674 14.2404 10.4922 14.1743C10.5004 14.1495 10.5087 14.1248 10.517 14.1C10.5335 14.0477 10.5528 13.9926 10.572 13.9404C10.6051 13.8495 10.6381 13.7587 10.6739 13.6679C10.6739 13.6624 10.6794 13.6569 10.6822 13.6514C10.6822 13.6486 10.6849 13.6431 10.6877 13.6404C10.6932 13.6266 10.6987 13.6128 10.7042 13.6018C10.7235 13.5523 10.7428 13.5055 10.762 13.4559C10.7841 13.4009 10.8061 13.3486 10.8309 13.2936C10.8502 13.2495 10.8667 13.2055 10.886 13.1642C10.8887 13.1559 10.8915 13.1477 10.897 13.1394C10.9052 13.1202 10.9135 13.1037 10.9218 13.0844C10.9383 13.0486 10.9521 13.0128 10.9713 12.9771C10.9879 12.944 11.0016 12.911 11.0181 12.878C11.0347 12.8449 11.0484 12.8119 11.065 12.7789C11.0897 12.7266 11.1173 12.6743 11.1421 12.6193C11.1916 12.5202 11.2412 12.4238 11.2908 12.3303C11.3045 12.3027 11.3183 12.278 11.3348 12.2504C11.3899 12.1486 11.445 12.0468 11.5028 11.9449C11.5386 11.8816 11.5744 11.8183 11.613 11.7578C11.6322 11.7275 11.6515 11.6945 11.6708 11.6642C11.6901 11.6339 11.7093 11.6009 11.7286 11.5706C11.847 11.3807 11.971 11.1936 12.1004 11.0092C12.1224 10.9789 12.1417 10.9486 12.1637 10.9211C12.1692 10.9128 12.1747 10.9046 12.1802 10.8963C12.205 10.8605 12.2298 10.8248 12.2573 10.789C12.2601 10.7835 12.2656 10.778 12.2684 10.7725C12.2821 10.7532 12.2959 10.7367 12.3097 10.7174C12.3427 10.6734 12.3758 10.6266 12.4116 10.5826C12.4363 10.5495 12.4611 10.5193 12.4859 10.4862C12.5548 10.3982 12.6236 10.3128 12.6924 10.2275C12.7255 10.189 12.7585 10.1477 12.7916 10.1092C12.8081 10.0899 12.8246 10.0706 12.8411 10.0514C12.8577 10.0321 12.8742 10.0128 12.8907 9.99356C12.9265 9.95228 12.9623 9.91375 12.9981 9.87246C13.0229 9.84219 13.0504 9.81466 13.078 9.78439C13.1193 9.7376 13.1606 9.69356 13.2019 9.64953C13.2322 9.61925 13.2597 9.58622 13.29 9.55595C13.2983 9.54494 13.3093 9.53668 13.3175 9.52567C13.3368 9.50366 13.3589 9.48164 13.3809 9.46237C13.4415 9.39907 13.5048 9.33852 13.5654 9.27797C13.5847 9.2587 13.6039 9.23943 13.6232 9.22292C13.6508 9.1954 13.681 9.16787 13.7113 9.14035C13.7416 9.11283 13.7692 9.08531 13.7995 9.05778C13.8297 9.03026 13.86 9.00274 13.8903 8.97521C13.9206 8.94769 13.9509 8.92017 13.9812 8.89265C14.0005 8.87613 14.0225 8.85687 14.0418 8.84035L14.0473 8.83485C14.0858 8.80182 14.1244 8.76604 14.1657 8.73301C14.1877 8.71375 14.2098 8.69448 14.2318 8.67797C14.2786 8.63943 14.3254 8.6009 14.3722 8.56237C14.3998 8.54035 14.4246 8.51833 14.4521 8.49632C14.4714 8.4798 14.4907 8.46329 14.5127 8.44953C14.5595 8.41375 14.6063 8.37521 14.6531 8.33943C14.7027 8.3009 14.7523 8.26512 14.8018 8.22659C14.8624 8.18255 14.923 8.13576 14.9836 8.09173C15.0331 8.05595 15.0827 8.02017 15.1295 7.98714C15.1295 7.98714 15.135 7.98439 15.1378 7.98164C15.1929 7.9431 15.2452 7.90732 15.3003 7.87155C18.8609 5.46879 23.2311 5.16879 26.9377 6.68255C28.0557 7.13944 29.1132 7.7587 30.0687 8.5376V8.54035Z" fill="#749CE9"/>
<path d="M34.081 14.4936C34.4445 15.6743 34.6235 16.8853 34.6262 18.0936C34.6372 22.0872 32.7234 26.0147 29.1683 28.4119C29.1159 28.4477 29.0664 28.4807 29.014 28.5138L28.9755 28.5385C28.9259 28.5716 28.8764 28.6018 28.824 28.6349C28.769 28.6707 28.7139 28.7037 28.6588 28.7367C28.6423 28.745 28.6285 28.756 28.612 28.7642C28.5762 28.7863 28.5376 28.8083 28.5018 28.8303C28.4826 28.8413 28.4633 28.8523 28.444 28.8633C28.4027 28.8881 28.3614 28.9101 28.3201 28.9349C28.3036 28.9431 28.2871 28.9541 28.2705 28.9624C28.2237 28.9899 28.1741 29.0147 28.1273 29.0422C28.1218 29.045 28.1191 29.0477 28.1136 29.0505C27.9979 29.1138 27.8822 29.1716 27.7693 29.2294C27.7115 29.2569 27.6537 29.2872 27.5959 29.3147C27.527 29.3477 27.4609 29.378 27.3921 29.411C27.2929 29.4551 27.1938 29.4991 27.0947 29.5431C27.0616 29.5569 27.0286 29.5707 26.9955 29.5844C26.9597 29.6009 26.9267 29.6147 26.8909 29.6285C26.8826 29.6312 26.8744 29.634 26.8689 29.6367C26.8661 29.6367 26.8606 29.6395 26.8578 29.6422C26.8523 29.6422 26.8496 29.645 26.8441 29.6477C26.789 29.6697 26.7339 29.6918 26.6789 29.7138C26.5274 29.7716 26.3787 29.8266 26.2272 29.8762L26.208 29.8817C26.1914 29.8872 26.1749 29.8927 26.1611 29.8982C26.1446 29.9037 26.1281 29.9092 26.1116 29.9147C26.0427 29.9367 25.9739 29.9587 25.9023 29.9807C25.7784 30.0193 25.6572 30.0551 25.5333 30.0881C25.5002 30.0963 25.4672 30.1046 25.4369 30.1156C25.3653 30.1349 25.291 30.1541 25.2194 30.1707C25.2111 30.1707 25.2028 30.1734 25.1946 30.1762C25.156 30.1844 25.1202 30.1954 25.0817 30.2037C25.0762 30.2037 25.0707 30.2064 25.0651 30.2092C24.9825 30.2285 24.9027 30.245 24.8201 30.2642C24.8063 30.2642 24.7925 30.2697 24.7815 30.2725C24.743 30.2807 24.7072 30.2863 24.6714 30.2945C24.5805 30.3138 24.4869 30.3303 24.3932 30.3468C24.3492 30.3551 24.3079 30.3606 24.2638 30.3688C24.1619 30.3853 24.0573 30.4018 23.9554 30.4156C23.8728 30.4266 23.7929 30.4376 23.7103 30.4459C23.6965 30.4459 23.6828 30.4486 23.6717 30.4514C23.6001 30.4596 23.5285 30.4679 23.4569 30.4734C23.3991 30.4789 23.3413 30.4844 23.2807 30.4899C23.2614 30.4899 23.2449 30.4927 23.2256 30.4954C23.2201 30.4954 23.2119 30.4954 23.2064 30.4954C23.1733 30.4982 23.1375 30.5009 23.1045 30.5037C23.0356 30.5092 22.9668 30.5119 22.8979 30.5147C22.8649 30.5147 22.8318 30.5174 22.7988 30.5202C22.7905 30.5202 22.7823 30.5202 22.7768 30.5202C22.7602 30.5202 22.7437 30.5202 22.7272 30.5202C22.6831 30.5202 22.6418 30.5229 22.5978 30.5229C22.5785 30.5229 22.5592 30.5229 22.5427 30.5229C22.5069 30.5229 22.4711 30.5229 22.4353 30.5229C22.3912 30.5229 22.3499 30.5229 22.3086 30.5229C22.2893 30.5229 22.2701 30.5229 22.248 30.5229C22.1461 30.5229 22.0443 30.5229 21.9451 30.5202C21.9424 30.5202 21.9369 30.5202 21.9341 30.5202C21.8873 30.5202 21.8405 30.5174 21.7937 30.5147C21.7331 30.5147 21.6725 30.5092 21.6119 30.5064C21.5651 30.5064 21.5183 30.5009 21.4742 30.4982C21.4081 30.4927 21.3448 30.4899 21.2787 30.4844C21.1878 30.4789 21.0997 30.4707 21.0088 30.4596C20.9868 30.4596 20.9648 30.4541 20.94 30.4514C20.9152 30.4514 20.8904 30.4459 20.8656 30.4431C20.7913 30.4349 20.7169 30.4266 20.6426 30.4156C20.604 30.4101 20.5655 30.4046 20.5297 30.3991C20.4774 30.3908 20.4223 30.3826 20.3672 30.3743C20.2984 30.3633 20.2268 30.3523 20.1579 30.3413C20.1084 30.333 20.056 30.3248 20.0065 30.3138C19.9542 30.3055 19.9046 30.2945 19.855 30.2863C19.8027 30.2752 19.7531 30.267 19.7036 30.256C19.654 30.245 19.6017 30.234 19.5521 30.2229C19.5218 30.2174 19.4915 30.2092 19.464 30.2037C19.4282 30.1954 19.3924 30.1872 19.3593 30.1789C19.3346 30.1734 19.307 30.1679 19.2822 30.1596C19.1914 30.1376 19.1032 30.1156 19.0124 30.0908C18.8444 30.0468 18.6736 29.9973 18.5084 29.9422C18.4533 29.9257 18.401 29.9092 18.3487 29.8899C18.2606 29.8624 18.1725 29.8321 18.0871 29.7991C18.0293 29.7771 17.9687 29.7578 17.9109 29.7358C17.8503 29.7138 17.7897 29.6918 17.7319 29.667C17.6768 29.645 17.6217 29.6229 17.5666 29.6009L15.5509 30.9606L12.5272 33C11.5717 32.3697 10.6767 31.6431 9.85333 30.834L11.2495 29.8899L17.3298 25.789C18.4974 26.5349 19.8165 27.0028 21.1741 27.1624C21.2071 27.1651 21.2374 27.1707 21.2705 27.1734C21.3035 27.1762 21.3338 27.1817 21.3668 27.1817C21.4357 27.1899 21.5018 27.1954 21.5706 27.2009C21.5789 27.2009 21.5844 27.2009 21.5899 27.2009C21.6092 27.2009 21.6284 27.2009 21.6477 27.2037C21.7606 27.2119 21.8763 27.2174 21.9892 27.2202C22.0222 27.2202 22.0553 27.2202 22.0883 27.2202C22.0966 27.2202 22.1021 27.2202 22.1104 27.2202C22.1214 27.2202 22.1324 27.2202 22.1462 27.2202C22.1572 27.2202 22.1709 27.2202 22.1819 27.2202C22.2233 27.2202 22.2673 27.2202 22.3114 27.2202C22.3582 27.2202 22.4023 27.2202 22.4491 27.2202C22.4628 27.2202 22.4766 27.2202 22.4904 27.2202C22.5372 27.2202 22.584 27.2202 22.6281 27.2147C22.6281 27.2147 22.6281 27.2147 22.6308 27.2147C22.8401 27.2064 23.0521 27.1899 23.2614 27.1679C23.2724 27.1679 23.2807 27.1679 23.2917 27.1651C23.333 27.1596 23.3743 27.1569 23.4156 27.1514C23.4432 27.1486 23.4707 27.1431 23.4983 27.1404C23.6387 27.1211 23.7764 27.0991 23.9168 27.0743C24.1234 27.0358 24.3299 26.9918 24.5337 26.9367C24.5777 26.9257 24.6218 26.9147 24.6631 26.9009C24.7072 26.8899 24.754 26.8762 24.7953 26.8624C24.8256 26.8541 24.8531 26.8459 24.8806 26.8376C24.9385 26.8211 24.9963 26.8018 25.0541 26.7826C25.0927 26.7716 25.1285 26.7578 25.167 26.744C25.2138 26.7275 25.2607 26.711 25.3075 26.6945C25.357 26.678 25.4094 26.6587 25.4589 26.6395C25.492 26.6285 25.5223 26.6147 25.5553 26.6009C25.5911 26.5872 25.6297 26.5734 25.6655 26.5569C25.682 26.5486 25.6985 26.5431 25.715 26.5376C25.7205 26.5349 25.7288 26.5321 25.7343 26.5294C25.7371 26.5294 25.7398 26.5294 25.7453 26.5266C25.7839 26.5101 25.8252 26.4936 25.8637 26.4771C25.9023 26.4606 25.9408 26.444 25.9766 26.4275C26.0042 26.4165 26.029 26.4028 26.0565 26.3918C26.0978 26.3725 26.1364 26.3532 26.1777 26.334C26.2217 26.3119 26.2658 26.2927 26.3098 26.2707C26.3098 26.2707 26.3126 26.2707 26.3154 26.2707C26.3236 26.2651 26.3346 26.2624 26.3429 26.2569C26.3677 26.2431 26.3952 26.2294 26.42 26.2156C26.453 26.1991 26.4888 26.1798 26.5219 26.1633C26.5467 26.1496 26.5715 26.1358 26.5962 26.122C26.632 26.1028 26.6678 26.0835 26.7064 26.0615C26.7257 26.0505 26.7477 26.0395 26.767 26.0285C26.7752 26.0229 26.7835 26.0174 26.7945 26.0119C26.7945 26.0119 26.7973 26.0119 26.8 26.0092C26.8248 25.9954 26.8496 25.9789 26.8744 25.9651C26.8771 25.9651 26.8799 25.9624 26.8854 25.9596C26.8936 25.9541 26.9047 25.9486 26.9129 25.9431C26.9212 25.9376 26.9322 25.9321 26.9405 25.9266C26.9735 25.9074 27.0038 25.8881 27.0368 25.8688C27.0479 25.8606 27.0616 25.8551 27.0726 25.8468C27.0781 25.844 27.0837 25.8413 27.0864 25.8385C27.125 25.8138 27.1608 25.7918 27.1966 25.767C27.2021 25.7642 27.2076 25.7615 27.2131 25.756C27.2544 25.7285 27.2957 25.7009 27.3398 25.6734C29.2206 24.4046 30.4763 22.5496 31.0271 20.5156C31.385 19.1945 31.4456 17.7991 31.1895 16.4367L34.092 14.4798L34.081 14.4936Z" fill="#749CE9"/>
</g>
</g>
<defs>
<filter id="filter0_d_1_41" x="0.5" y="0" width="44" height="44" filterUnits="userSpaceOnUse" color-interpolation-filters="sRGB">
<feFlood flood-opacity="0" result="BackgroundImageFix"/>
<feColorMatrix in="SourceAlpha" type="matrix" values="0 0 0 0 0 0 0 0 0 0 0 0 0 0 0 0 0 0 127 0" result="hardAlpha"/>
<feOffset dy="4"/>
<feGaussianBlur stdDeviation="2"/>
<feComposite in2="hardAlpha" operator="out"/>
<feColorMatrix type="matrix" values="0 0 0 0 0 0 0 0 0 0 0 0 0 0 0 0 0 0 0.25 0"/>
<feBlend mode="normal" in2="BackgroundImageFix" result="effect1_dropShadow_1_41"/>
<feBlend mode="normal" in="SourceGraphic" in2="effect1_dropShadow_1_41" result="shape"/>
</filter>
<clipPath id="clip0_1_41">
<rect width="36" height="36" fill="white" transform="translate(4.5)"/>
</clipPath>
</defs>
</svg>
