<svg width="112" height="24" viewBox="0 0 112 24" fill="none" xmlns="http://www.w3.org/2000/svg">
<g clip-path="url(#clip0_123_638)">
<path d="M22.773 9.7265C23.0704 11.1842 23.0792 12.7 22.7871 14.2034C22.203 17.2138 20.4806 19.8163 17.9366 21.5325C15.3926 23.2487 12.3348 23.8711 9.32104 23.2874C8.62258 23.152 7.94699 22.955 7.29779 22.7018L9.54624 21.1843C9.59198 21.1948 9.63773 21.2036 9.68347 21.2124C12.0533 21.6837 14.6026 21.2458 16.7596 19.7916C19.7311 17.787 21.1879 14.3687 20.8413 11.0312C20.7639 10.2892 20.5985 9.55241 20.3381 8.83498L22.1274 7.62695C22.4106 8.30746 22.627 9.01082 22.7713 9.72825L22.773 9.7265Z" fill="#FFC947"/>
<path d="M21.5609 6.45877L20.653 7.07069L13.642 11.8008L13.6103 11.8219C13.7071 12.6413 13.3552 13.4854 12.6286 13.9812C11.8967 14.463 10.9871 14.4718 10.2658 14.078C9.95441 13.9091 9.67819 13.663 9.46531 13.35C9.25243 13.0352 9.12927 12.6888 9.08881 12.3354C8.99908 11.5652 9.30345 10.7739 9.94209 10.2692L9.97552 10.2464L10.1479 10.1303L10.1954 10.0987C10.9027 9.69424 11.7525 9.70655 12.4333 10.0793L12.465 10.0582L18.5999 5.91893L18.6315 5.89783C18.3571 5.57604 18.0633 5.27536 17.7554 4.99929C17.1889 4.4911 16.566 4.06029 15.9081 3.71037C12.94 2.13308 9.21548 2.20341 6.24042 4.20976C6.22986 4.21679 6.22107 4.22383 6.21051 4.2291C6.19819 4.23789 6.18412 4.24669 6.1718 4.25548C6.13838 4.27834 6.10495 4.3012 6.07328 4.32406L6.06448 4.32933C6.0293 4.35395 5.99411 4.37857 5.96068 4.40318C5.94485 4.41373 5.92901 4.42604 5.91494 4.43659C5.87623 4.46473 5.83929 4.49286 5.80058 4.521C5.76012 4.55089 5.71965 4.58254 5.67919 4.61419C5.67039 4.61947 5.66335 4.6265 5.65455 4.63354C5.61585 4.66343 5.57714 4.69508 5.53844 4.72673C5.50853 4.75135 5.47862 4.77597 5.44695 4.80058C5.43815 4.80762 5.42936 4.81465 5.42056 4.82169C5.40121 4.83751 5.38361 4.85334 5.36426 4.86916C5.33963 4.89026 5.31676 4.90961 5.29389 4.93071C5.28861 4.93598 5.28333 4.9395 5.27805 4.94477C5.24287 4.97467 5.20768 5.00632 5.17425 5.03797C5.16897 5.04149 5.1637 5.04676 5.15842 5.05204C5.11971 5.08721 5.08101 5.12237 5.0423 5.1593C5.00887 5.18919 4.9772 5.22085 4.94378 5.2525C4.9297 5.26656 4.91563 5.27887 4.90155 5.29294C4.8822 5.31228 4.86285 5.32987 4.84349 5.35097C4.82766 5.36679 4.81007 5.38438 4.79423 5.4002C4.76256 5.43185 4.7309 5.46351 4.70099 5.49516C4.66932 5.52857 4.63941 5.56022 4.60774 5.59187C4.59543 5.60594 4.58311 5.62 4.56904 5.63407C4.53737 5.66924 4.5057 5.70265 4.47403 5.73782C4.47227 5.73958 4.47051 5.74309 4.46875 5.74485C4.43532 5.78354 4.4019 5.82046 4.36847 5.85915C4.26291 5.98048 4.16087 6.10357 4.06234 6.23017C4.03067 6.27062 4.00076 6.3093 3.97086 6.34974C3.96734 6.35326 3.96382 6.35854 3.96206 6.36205C3.93215 6.40074 3.90224 6.44118 3.87409 6.47987C3.87409 6.47987 3.87409 6.48338 3.87057 6.48338C3.8389 6.52558 3.809 6.56955 3.77909 6.61351C3.74918 6.65747 3.71927 6.69967 3.68936 6.74539C3.60139 6.87551 3.51694 7.00563 3.43601 7.14103C3.40259 7.19554 3.37092 7.25005 3.33925 7.30456C3.31814 7.34325 3.29526 7.38017 3.27415 7.41886C3.24776 7.46458 3.22313 7.51029 3.1985 7.55601C3.17387 7.60173 3.14924 7.64921 3.12461 7.69493C3.10174 7.74065 3.07711 7.78812 3.05423 7.8356C3.00849 7.9288 2.96275 8.02375 2.92052 8.1187C2.89941 8.16618 2.8783 8.21366 2.85719 8.26289C2.81672 8.35609 2.77802 8.44929 2.74107 8.54424C2.62847 8.8291 2.52995 9.11924 2.4455 9.41289C2.43846 9.43224 2.43318 9.45334 2.4279 9.47444C2.42087 9.4973 2.41559 9.52016 2.41031 9.54302C2.40327 9.56763 2.39624 9.59049 2.39096 9.61511C2.37688 9.66962 2.36281 9.72589 2.34873 9.78216C2.3417 9.81205 2.33466 9.84019 2.32762 9.87008C2.32058 9.89646 2.31531 9.92107 2.31003 9.94745C2.29243 10.0231 2.2766 10.0987 2.26077 10.1778C2.25373 10.2147 2.24669 10.2534 2.23965 10.2903C2.23262 10.329 2.22558 10.366 2.21854 10.4046L0 11.8993C0.0070374 11.2012 0.0774115 10.4978 0.212882 9.79799C0.798745 6.78759 2.51939 4.18514 5.06341 2.46893C7.60743 0.752726 10.6669 0.128491 13.679 0.712283C15.1885 1.00594 16.5942 1.5827 17.8398 2.40739C18.4503 2.81182 19.0203 3.27429 19.5464 3.79126C19.842 4.0814 20.1217 4.39088 20.3856 4.71442C20.6055 4.98522 20.8149 5.26656 21.0119 5.55846C21.209 5.85211 21.3937 6.15104 21.5609 6.45525V6.45877Z" fill="#FFC947"/>
<path d="M7.17639 16.1622L3.43953 18.6838L2.56337 19.2746C2.34345 19.0038 2.13409 18.7225 1.93704 18.4306C1.73999 18.1387 1.55702 17.838 1.38812 17.5338L2.26428 16.9429L6.00114 14.4214C6.14013 14.7397 6.30903 15.0474 6.50959 15.3463C6.71016 15.6435 6.9336 15.916 7.17639 16.164V16.1622Z" fill="#749CE9"/>
<path d="M16.3356 5.95627L14.483 7.20474C13.7388 6.72645 12.8996 6.42752 12.0339 6.32202C10.6898 6.15672 9.28232 6.45741 8.07541 7.27156C6.86673 8.08746 6.06271 9.27966 5.71436 10.5862C5.48916 11.4284 5.45222 12.3182 5.61759 13.1868L1.73646 15.8051L0.844474 16.4065C0.561218 15.726 0.344818 15.0244 0.198792 14.307L2.1288 13.004L3.41489 12.1353C3.41489 12.1019 3.41489 12.0703 3.41489 12.0368C3.41489 12.0052 3.41489 11.9735 3.41489 11.9419C3.41489 11.9173 3.41489 11.8927 3.41489 11.868C3.41489 11.8276 3.41841 11.7872 3.42016 11.7485C3.42368 11.6781 3.4272 11.6096 3.43248 11.5392C3.43424 11.5111 3.436 11.4829 3.43952 11.4548C3.44304 11.4144 3.44655 11.3739 3.45007 11.3317C3.45007 11.3194 3.45183 11.3071 3.45359 11.2966C3.45535 11.2702 3.45887 11.242 3.46239 11.2157C3.46415 11.1981 3.46591 11.1787 3.46943 11.1612C3.4747 11.1225 3.47822 11.0838 3.48526 11.0433C3.49406 10.9783 3.50285 10.9115 3.51341 10.8464C3.51869 10.813 3.52397 10.7813 3.52924 10.7479C3.53452 10.7198 3.5398 10.6917 3.54332 10.6635C3.54684 10.6407 3.55212 10.6196 3.55563 10.5967C3.55915 10.5756 3.56443 10.5527 3.56971 10.5299C3.57851 10.4877 3.5873 10.4437 3.5961 10.4015C3.60314 10.3716 3.60841 10.3417 3.61545 10.3118C3.62073 10.2907 3.62425 10.2714 3.62953 10.2521C3.6436 10.1905 3.65944 10.1307 3.67527 10.0709C3.68231 10.0428 3.6911 10.0129 3.69814 9.98478C3.7087 9.9461 3.71925 9.90741 3.72981 9.87049C3.74213 9.82828 3.75444 9.78784 3.76676 9.74564C3.77379 9.72454 3.77907 9.7052 3.78611 9.68409C3.80018 9.64189 3.8125 9.59793 3.82833 9.55573C3.83361 9.53991 3.83889 9.52408 3.84417 9.50825C3.85472 9.47484 3.86704 9.43968 3.87935 9.40627C3.90047 9.34824 3.92158 9.29021 3.94445 9.23218C3.94445 9.22867 3.94797 9.22515 3.94973 9.22163C3.94973 9.21987 3.95149 9.21636 3.95325 9.2146C3.95677 9.20581 3.96029 9.19701 3.9638 9.18998C3.97612 9.15833 3.98843 9.12844 4.00075 9.09679C4.01483 9.06162 4.0289 9.02821 4.04473 8.99304C4.05705 8.9649 4.06761 8.93677 4.07992 8.91039C4.08168 8.90512 4.08344 8.89984 4.08696 8.89457C4.09224 8.88226 4.09751 8.87171 4.10279 8.8594C4.11335 8.83654 4.12215 8.81368 4.13446 8.79082C4.14502 8.76972 4.15381 8.74862 4.16437 8.72752C4.17493 8.70642 4.18372 8.68532 4.19428 8.66422C4.21011 8.63081 4.22771 8.5974 4.24354 8.56223C4.27521 8.49893 4.30688 8.43738 4.33855 8.3776C4.34734 8.36001 4.35614 8.34419 4.3667 8.3266C4.40188 8.26154 4.43707 8.19648 4.47402 8.13142C4.49689 8.09098 4.51976 8.05053 4.54439 8.01185C4.55671 7.9925 4.56902 7.9714 4.58134 7.95206C4.59365 7.93272 4.60597 7.91162 4.61828 7.89228C4.69393 7.77094 4.77311 7.65137 4.85579 7.53356C4.86987 7.51422 4.88219 7.49487 4.89626 7.47729C4.89978 7.47202 4.9033 7.46674 4.90682 7.46146C4.92265 7.43861 4.93848 7.41575 4.95608 7.39289C4.95784 7.38937 4.96136 7.38585 4.96312 7.38234C4.97191 7.37003 4.98071 7.35948 4.98951 7.34717C5.01062 7.31903 5.03173 7.28914 5.0546 7.26101C5.07044 7.23991 5.08627 7.22056 5.1021 7.19946C5.14609 7.14319 5.19007 7.08868 5.23406 7.03417C5.25517 7.00955 5.27628 6.98318 5.29739 6.95856C5.30795 6.94625 5.3185 6.93394 5.32906 6.92163C5.33962 6.90932 5.35017 6.89702 5.36073 6.88471C5.3836 6.85833 5.40647 6.83371 5.42934 6.80734C5.44518 6.78799 5.46277 6.77041 5.48036 6.75107C5.50675 6.72117 5.53315 6.69304 5.55954 6.66491C5.57889 6.64556 5.59648 6.62446 5.61583 6.60512C5.62111 6.59809 5.62815 6.59281 5.63343 6.58578C5.64574 6.57171 5.65982 6.55764 5.67389 6.54533C5.7126 6.50489 5.75306 6.4662 5.79177 6.42752C5.80409 6.41521 5.8164 6.4029 5.82872 6.39235C5.84631 6.37477 5.86566 6.35718 5.88502 6.3396C5.90437 6.32201 5.92196 6.30443 5.94131 6.28685C5.96067 6.26926 5.98002 6.25168 5.99937 6.23409C6.01873 6.21651 6.03808 6.19893 6.05743 6.18134C6.06975 6.17079 6.08382 6.15848 6.09614 6.14793L6.09966 6.14442C6.12429 6.12331 6.14892 6.10046 6.17531 6.07935C6.18938 6.06705 6.20346 6.05474 6.21753 6.04419C6.24744 6.01957 6.27735 5.99495 6.30726 5.97033C6.32485 5.95627 6.34069 5.9422 6.35828 5.92813C6.3706 5.91758 6.38291 5.90703 6.39699 5.89824C6.4269 5.87538 6.4568 5.85076 6.48671 5.8279C6.51838 5.80328 6.55005 5.78042 6.58172 5.75581C6.62042 5.72767 6.65913 5.69778 6.69784 5.66964C6.7295 5.64679 6.76117 5.62393 6.79108 5.60283C6.79108 5.60283 6.7946 5.60107 6.79636 5.59931C6.83155 5.57469 6.86497 5.55183 6.90016 5.52897C9.175 3.99388 11.9671 3.80221 14.3352 4.76934C15.0495 5.06124 15.7251 5.45688 16.3356 5.95451V5.95627Z" fill="#749CE9"/>
<path d="M18.8989 9.75977C19.1312 10.5141 19.2455 11.2878 19.2473 12.0598C19.2543 14.6112 18.0316 17.1205 15.7603 18.652C15.7268 18.6749 15.6952 18.696 15.6617 18.7171L15.6371 18.7329C15.6054 18.754 15.5738 18.7734 15.5403 18.7945C15.5052 18.8173 15.47 18.8384 15.4348 18.8595C15.4242 18.8648 15.4154 18.8718 15.4049 18.8771C15.382 18.8912 15.3574 18.9053 15.3345 18.9193C15.3222 18.9264 15.3099 18.9334 15.2975 18.9404C15.2712 18.9563 15.2448 18.9703 15.2184 18.9861C15.2078 18.9914 15.1973 18.9985 15.1867 19.0037C15.1568 19.0213 15.1251 19.0371 15.0952 19.0547C15.0917 19.0565 15.0899 19.0582 15.0864 19.06C15.0125 19.1004 14.9386 19.1374 14.8665 19.1743C14.8296 19.1919 14.7926 19.2112 14.7557 19.2288C14.7117 19.2499 14.6695 19.2692 14.6255 19.2903C14.5621 19.3185 14.4988 19.3466 14.4355 19.3748C14.4144 19.3835 14.3932 19.3923 14.3721 19.4011C14.3493 19.4117 14.3281 19.4205 14.3053 19.4293C14.3 19.431 14.2947 19.4328 14.2912 19.4345C14.2894 19.4345 14.2859 19.4363 14.2842 19.4381C14.2806 19.4381 14.2789 19.4398 14.2754 19.4416C14.2402 19.4556 14.205 19.4697 14.1698 19.4838C14.073 19.5207 13.978 19.5559 13.8813 19.5875L13.869 19.591C13.8584 19.5946 13.8478 19.5981 13.839 19.6016C13.8285 19.6051 13.8179 19.6086 13.8074 19.6121C13.7634 19.6262 13.7194 19.6403 13.6737 19.6543C13.5945 19.679 13.5171 19.7018 13.4379 19.7229C13.4168 19.7282 13.3957 19.7335 13.3763 19.7405C13.3306 19.7528 13.2831 19.7651 13.2373 19.7757C13.2321 19.7757 13.2268 19.7774 13.2215 19.7792C13.1969 19.7845 13.174 19.7915 13.1494 19.7968C13.1459 19.7968 13.1423 19.7985 13.1388 19.8003C13.086 19.8126 13.035 19.8231 12.9822 19.8355C12.9734 19.8355 12.9646 19.839 12.9576 19.8407C12.933 19.846 12.9101 19.8495 12.8872 19.8548C12.8292 19.8671 12.7694 19.8777 12.7095 19.8882C12.6814 19.8935 12.655 19.897 12.6269 19.9023C12.5618 19.9128 12.4949 19.9234 12.4298 19.9322C12.377 19.9392 12.326 19.9462 12.2732 19.9515C12.2644 19.9515 12.2556 19.9533 12.2486 19.955C12.2028 19.9603 12.1571 19.9656 12.1114 19.9691C12.0744 19.9726 12.0375 19.9761 11.9988 19.9796C11.9864 19.9796 11.9759 19.9814 11.9636 19.9832C11.9601 19.9832 11.9548 19.9832 11.9513 19.9832C11.9301 19.9849 11.9073 19.9867 11.8862 19.9884C11.8422 19.992 11.7982 19.9937 11.7542 19.9955C11.7331 19.9955 11.712 19.9972 11.6909 19.999C11.6856 19.999 11.6803 19.999 11.6768 19.999C11.6662 19.999 11.6557 19.999 11.6451 19.999C11.617 19.999 11.5906 20.0007 11.5624 20.0007C11.5501 20.0007 11.5378 20.0007 11.5273 20.0007C11.5044 20.0007 11.4815 20.0007 11.4586 20.0007C11.4305 20.0007 11.4041 20.0007 11.3777 20.0007C11.3654 20.0007 11.3531 20.0007 11.339 20.0007C11.2739 20.0007 11.2088 20.0007 11.1455 19.999C11.1437 19.999 11.1402 19.999 11.1384 19.999C11.1085 19.999 11.0786 19.9972 11.0487 19.9955C11.01 19.9955 10.9713 19.992 10.9326 19.9902C10.9027 19.9902 10.8728 19.9867 10.8446 19.9849C10.8024 19.9814 10.7619 19.9796 10.7197 19.9761C10.6617 19.9726 10.6054 19.9673 10.5473 19.9603C10.5332 19.9603 10.5192 19.9568 10.5033 19.955C10.4875 19.955 10.4716 19.9515 10.4558 19.9498C10.4083 19.9445 10.3608 19.9392 10.3133 19.9322C10.2887 19.9287 10.264 19.9251 10.2412 19.9216C10.2077 19.9163 10.1726 19.9111 10.1374 19.9058C10.0934 19.8988 10.0476 19.8917 10.0037 19.8847C9.97199 19.8794 9.93856 19.8741 9.9069 19.8671C9.87347 19.8618 9.8418 19.8548 9.81013 19.8495C9.7767 19.8425 9.74503 19.8372 9.71337 19.8302C9.6817 19.8231 9.64827 19.8161 9.6166 19.8091C9.59725 19.8056 9.5779 19.8003 9.5603 19.7968C9.53743 19.7915 9.51456 19.7862 9.49345 19.7809C9.47761 19.7774 9.46002 19.7739 9.44419 19.7686C9.38613 19.7546 9.32983 19.7405 9.27177 19.7247C9.16445 19.6965 9.05537 19.6649 8.94981 19.6297C8.91462 19.6192 8.88119 19.6086 8.84777 19.5963C8.79147 19.5787 8.73517 19.5594 8.68063 19.5383C8.64368 19.5242 8.60498 19.5119 8.56803 19.4978C8.52932 19.4838 8.49062 19.4697 8.45367 19.4539C8.41848 19.4398 8.3833 19.4257 8.34811 19.4117L7.06026 20.2803L5.1285 21.5833C4.518 21.1806 3.94621 20.7164 3.42017 20.1994L4.31216 19.5963L8.19681 16.9763C8.94277 17.4528 9.7855 17.7517 10.6529 17.8537C10.674 17.8555 10.6933 17.859 10.7144 17.8608C10.7355 17.8625 10.7549 17.866 10.776 17.866C10.82 17.8713 10.8622 17.8748 10.9062 17.8783C10.9115 17.8783 10.915 17.8783 10.9185 17.8783C10.9308 17.8783 10.9432 17.8783 10.9555 17.8801C11.0276 17.8854 11.1015 17.8889 11.1736 17.8907C11.1947 17.8907 11.2159 17.8907 11.237 17.8907C11.2422 17.8907 11.2458 17.8907 11.251 17.8907C11.2581 17.8907 11.2651 17.8907 11.2739 17.8907C11.2809 17.8907 11.2897 17.8907 11.2968 17.8907C11.3232 17.8907 11.3513 17.8907 11.3795 17.8907C11.4094 17.8907 11.4375 17.8907 11.4674 17.8907C11.4762 17.8907 11.485 17.8907 11.4938 17.8907C11.5237 17.8907 11.5536 17.8907 11.5818 17.8871C11.5818 17.8871 11.5818 17.8871 11.5836 17.8871C11.7173 17.8819 11.8527 17.8713 11.9864 17.8572C11.9935 17.8572 11.9988 17.8572 12.0058 17.8555C12.0322 17.852 12.0586 17.8502 12.085 17.8467C12.1026 17.8449 12.1202 17.8414 12.1378 17.8397C12.2275 17.8274 12.3154 17.8133 12.4052 17.7975C12.5371 17.7728 12.6691 17.7447 12.7993 17.7095C12.8274 17.7025 12.8556 17.6955 12.882 17.6867C12.9101 17.6796 12.94 17.6709 12.9664 17.6621C12.9858 17.6568 13.0034 17.6515 13.0209 17.6462C13.0579 17.6357 13.0948 17.6234 13.1318 17.6111C13.1564 17.604 13.1793 17.5952 13.2039 17.5865C13.2338 17.5759 13.2637 17.5653 13.2936 17.5548C13.3253 17.5442 13.3587 17.5319 13.3904 17.5196C13.4115 17.5126 13.4309 17.5038 13.452 17.495C13.4749 17.4862 13.4995 17.4774 13.5224 17.4669C13.5329 17.4616 13.5435 17.4581 13.554 17.4546C13.5575 17.4528 13.5628 17.4511 13.5663 17.4493C13.5681 17.4493 13.5699 17.4493 13.5734 17.4475C13.598 17.437 13.6244 17.4264 13.649 17.4159C13.6737 17.4053 13.6983 17.3948 13.7212 17.3842C13.7388 17.3772 13.7546 17.3684 13.7722 17.3614C13.7986 17.3491 13.8232 17.3368 13.8496 17.3244C13.8778 17.3104 13.9059 17.2981 13.9341 17.284C13.9341 17.284 13.9358 17.284 13.9376 17.284C13.9428 17.2805 13.9499 17.2787 13.9552 17.2752C13.971 17.2664 13.9886 17.2576 14.0044 17.2488C14.0255 17.2383 14.0484 17.226 14.0695 17.2154C14.0854 17.2066 14.1012 17.1978 14.117 17.1891C14.1399 17.1767 14.1628 17.1644 14.1874 17.1504C14.1997 17.1433 14.2138 17.1363 14.2261 17.1293C14.2314 17.1257 14.2367 17.1222 14.2437 17.1187C14.2437 17.1187 14.2455 17.1187 14.2472 17.117C14.2631 17.1082 14.2789 17.0976 14.2947 17.0888C14.2965 17.0888 14.2982 17.0871 14.3018 17.0853C14.307 17.0818 14.3141 17.0783 14.3193 17.0748C14.3246 17.0712 14.3317 17.0677 14.3369 17.0642C14.3581 17.0519 14.3774 17.0396 14.3985 17.0273C14.4056 17.022 14.4144 17.0185 14.4214 17.0132C14.4249 17.0115 14.4284 17.0097 14.4302 17.0079C14.4548 16.9921 14.4777 16.978 14.5006 16.9622C14.5041 16.9605 14.5076 16.9587 14.5111 16.9552C14.5375 16.9376 14.5639 16.92 14.592 16.9024C15.7937 16.0918 16.596 14.9066 16.9478 13.6072C17.1765 12.7631 17.2152 11.8716 17.0516 11.0012L18.906 9.75098L18.8989 9.75977Z" fill="#749CE9"/>
</g>
<path d="M41 11.9751C41 12.2139 40.862 12.4199 40.589 12.5991L35.7025 15.8683C34.7975 16.4744 35.2362 17.8507 36.3313 17.8537C37.0184 17.8537 37.7086 17.6716 38.4018 17.3074C39.0951 16.9431 39.5031 16.761 39.6258 16.761C40.1902 16.761 40.4724 16.9909 40.4724 17.4507C40.4724 17.7164 40.3037 17.994 39.9693 18.2747C38.9141 19.1853 37.5276 19.5884 35.8067 19.4839C34.9141 19.4301 34.046 19.1375 33.3221 18.627C31.773 17.5313 31 16.1131 31 14.3785C31 12.9693 31.5798 11.787 32.7393 10.8376C33.8374 9.94784 35.1258 9.5 36.6074 9.5C38.3313 9.5 39.6963 10.115 40.7025 11.3481C40.9018 11.6019 41 11.8079 41 11.9721V11.9751ZM37.184 12.8767C37.9785 12.3453 37.5951 11.1331 36.6288 11.1301H36.6043C35.6135 11.1301 34.7423 11.4287 33.9969 12.0199C33.1902 12.6588 32.7853 13.444 32.7853 14.3815C32.7853 14.9905 33.4877 15.3488 34.0061 15.0055L37.184 12.8767Z" fill="white"/>
<path d="M45 18.701C45 19.2337 44.8333 19.5 44.5 19.5C44.1667 19.5 44 19.2337 44 18.701V4.29899C44 3.76633 44.1667 3.5 44.5 3.5C44.8333 3.5 45 3.76633 45 4.29899V18.701Z" fill="white"/>
<path d="M56.9972 11.9751C56.9972 12.2139 56.873 12.4199 56.6273 12.5991L52.2101 15.8832C51.404 16.4833 51.7933 17.8507 52.7733 17.8537H52.7982C53.4166 17.8537 54.0377 17.6716 54.6617 17.3074C55.2856 16.9431 55.6528 16.761 55.7632 16.761C56.2712 16.761 56.5252 16.9909 56.5252 17.4507C56.5252 17.7164 56.3733 17.994 56.0724 18.2747C55.1227 19.1853 53.8748 19.5884 52.3261 19.4839C51.5227 19.4301 50.7414 19.1375 50.0899 18.627C48.6957 17.5313 48 16.1131 48 14.3785C48 12.9693 48.5218 11.787 49.5653 10.8376C50.5537 9.94784 51.7132 9.5 53.0466 9.5C54.5982 9.5 55.8267 10.115 56.7322 11.3481C56.9117 11.6019 57 11.8079 57 11.9721L56.9972 11.9751ZM53.5463 12.8887C54.2669 12.3513 53.919 11.1301 53.0439 11.1272C52.1521 11.1272 51.3681 11.4257 50.6972 12.0199C49.9712 12.6588 49.6067 13.444 49.6067 14.3815C49.6067 14.9905 50.239 15.3488 50.7055 15.0055L53.5491 12.8916L53.5463 12.8887Z" fill="white"/>
<path d="M68.9941 11.2343C68.9941 11.4731 68.9138 11.691 68.7504 11.891C68.587 12.091 68.3879 12.1925 68.1532 12.1925C68.0047 12.1925 67.657 12.0134 67.1103 11.6582C66.5636 11.303 66.0021 11.1239 65.4257 11.1239C64.466 11.1239 63.6222 11.4224 62.9002 12.0134C62.1158 12.6522 61.7265 13.4373 61.7265 14.3746C61.7265 15.3119 62.0623 16.1418 62.7338 16.8254C63.4053 17.509 64.2164 17.8493 65.1612 17.8493C65.7674 17.8493 66.3883 17.691 67.0242 17.3716C67.66 17.0522 68.0136 16.894 68.0878 16.894C68.3226 16.894 68.5335 16.9687 68.7207 17.1179C68.9049 17.2672 68.997 17.4522 68.997 17.6731C68.997 18.2373 68.48 18.706 67.4461 19.0761C66.6171 19.3567 65.8565 19.5 65.1642 19.5C63.8599 19.5 62.7278 19.0791 61.7681 18.2403C60.6777 17.2851 60.0151 15.8881 60.0003 14.4343C59.9854 12.9985 60.547 11.8015 61.6849 10.8373C62.7486 9.94776 63.9965 9.5 65.4316 9.5C66.6884 9.5 67.8175 9.93881 68.8217 10.8134C68.9406 10.9179 69 11.0582 69 11.2373L68.9941 11.2343Z" fill="white"/>
<path d="M76.3504 19.5C75.5133 19.5 74.8435 19.161 74.3358 18.4829C73.8554 17.8503 73.6167 17.0693 73.6167 16.1339V12.2261C73.6167 11.5329 73.1885 10.9275 72.5764 10.761H72.5736C72.1921 10.6702 72 10.4068 72 9.97092C72 9.53503 72.1921 9.27168 72.5736 9.18086C72.6834 9.15059 73.032 9.13546 73.6167 9.13546V6.33546C73.6167 5.77849 73.8829 5.5 74.4154 5.5C74.9479 5.5 75.2141 5.78151 75.2141 6.34151V9.15968H77.2013C77.7338 9.15968 78 9.43513 78 9.98303C78 10.5309 77.7338 10.8064 77.2013 10.8064H75.2141V16.1339C75.2141 16.6152 75.3349 17.0118 75.5764 17.3205C75.8179 17.6293 76.15 17.7837 76.5755 17.7837C76.6578 17.7837 76.7813 17.7685 76.946 17.7383C77.1107 17.708 77.2287 17.6929 77.2973 17.6929C77.5032 17.6929 77.6706 17.7746 77.8024 17.9411C77.9341 18.1076 78 18.3013 78 18.5283C78 19.1761 77.4511 19.5 76.3532 19.5H76.3504Z" fill="white"/>
<path d="M87 10.7548C87 10.9752 86.9162 11.1721 86.746 11.3454C86.5757 11.5217 86.395 11.607 86.1986 11.607C86.1331 11.607 85.9472 11.5217 85.6408 11.3542C85.3344 11.1867 85.0306 11.1015 84.732 11.1015C84.0668 11.1015 83.5325 11.3513 83.1292 11.8479C82.7259 12.3445 82.5242 12.9675 82.5242 13.711V18.7095C82.5242 19.2355 82.2702 19.5 81.7621 19.5C81.254 19.5 81 19.2355 81 18.7095V10.2493C81.2121 9.84088 81.5107 9.63224 81.8983 9.63224C82.0031 9.63224 82.0947 9.64399 82.1707 9.67044C82.5373 9.79092 82.9223 9.85851 83.2863 9.71746C83.6504 9.5764 84.1113 9.5 84.6534 9.5C85.1091 9.5 85.5779 9.59403 86.0598 9.78504C86.6857 10.0348 86.9974 10.3551 86.9974 10.7489L87 10.7548Z" fill="white"/>
<path d="M101 14.5619C101.015 15.9983 100.432 17.1988 99.2507 18.1634C98.2205 18.9936 97.0236 19.4386 95.6603 19.4953C94.1704 19.555 92.6867 19.0444 91.6132 18.0439C90.5398 17.0435 90 15.8221 90 14.3797C90 12.9373 90.583 11.7875 91.749 10.8379C92.8533 9.94795 94.1488 9.5 95.6387 9.5C96.9928 9.5 98.1649 9.92107 99.1613 10.7602C100.296 11.7159 100.981 13.1105 101 14.5648V14.5619ZM99.2075 14.6216C99.2075 13.6719 98.859 12.8507 98.1619 12.1608C97.4647 11.471 96.6226 11.1246 95.6417 11.1246C94.6608 11.1246 93.7694 11.4232 93.0198 12.0145C92.2055 12.6536 91.8014 13.439 91.8014 14.3767C91.8014 15.3144 92.15 16.1446 92.8471 16.8285C93.5442 17.5124 94.3832 17.8528 95.3672 17.8528C96.3512 17.8528 97.2396 17.5572 97.9891 16.9629C98.8035 16.3387 99.2075 15.5593 99.2075 14.6246V14.6216Z" fill="white"/>
<path d="M112 18.688C112 19.2283 111.73 19.5 111.19 19.5C110.649 19.5 110.379 19.2314 110.379 18.688V13.2851C110.379 13.104 110.31 12.8716 110.171 12.5878C109.756 11.6883 109.048 11.2145 108.052 11.1692H107.801C106.846 11.1239 106.175 11.7306 105.788 12.9923C105.676 13.3515 105.621 13.5839 105.621 13.6896V18.5975C105.621 19.1378 105.351 19.4064 104.81 19.4064C104.27 19.4064 104 19.1378 104 18.5975V10.5142C104 10.2576 104.089 10.0463 104.27 9.87127C104.451 9.69922 104.657 9.61168 104.894 9.61168C105.016 9.61168 105.122 9.62677 105.211 9.65696C105.701 9.82297 106.208 9.88938 106.695 9.71733C106.709 9.71129 106.726 9.70525 106.74 9.70223C107.197 9.56641 107.634 9.5 108.049 9.5C109.004 9.5 109.889 9.85919 110.708 10.5806C111.566 11.3624 111.997 12.2618 111.997 13.2821V18.685L112 18.688Z" fill="white"/>
<defs>
<clipPath id="clip0_123_638">
<rect width="23" height="23" fill="white" transform="translate(0 0.5)"/>
</clipPath>
</defs>
</svg>
