<?xml version="1.0" encoding="UTF-8"?>
<svg id="Layer_2" data-name="Layer 2" xmlns="http://www.w3.org/2000/svg" viewBox="0 0 420.38 421.14">
  <defs>
    <style>
      .cls-1 {
        fill: #fff;
        stroke-width: 0px;
      }
    </style>
  </defs>
  <g id="Layer_1-2" data-name="Layer 1">
    <g>
      <path class="cls-1" d="M210.18,0C94.28,0,0,94.46,0,210.57s94.28,210.57,210.18,210.57,210.2-94.46,210.2-210.57S326.09,0,210.18,0ZM210.18,413.01c-111.4,0-202.05-90.81-202.05-202.44S98.78,8.15,210.18,8.15s202.05,90.8,202.05,202.42-90.63,202.44-202.05,202.44Z"/>
      <path class="cls-1" d="M296.24,268.77l-21.07,67.93-200.25-.3.07-4.06,8.88-.15c8.13-.13,11.14-.3,17.4-5.3s9.21-12.86,9.21-21.9V108.57c0-10.84-5.06-17.51-12.1-21.74-7.04-4.22-13.8-4.85-23.46-5.1v-5.48h113.62v6.36c-9.36.24-22.85-.5-30.02,3.61-7.28,4.15-11.8,11.69-11.71,22.79l1.8,199.9c.09,8.23,2.06,9.45,5.43,10.86,1.96.82,7.25,1.65,15.08,1.67l70.67.07c13.34.02,25.22-12.23,29.54-16.83,4.47-4.74,19.59-28.28,24.16-37.08l2.74,1.17Z"/>
      <path class="cls-1" d="M260.84,272.42c0,5.91-1.72,11.67-5.24,17.2-3.52,5.48-8.82,10.04-15.88,13.56-7.12,3.54-15.88,5.3-26.35,5.3-6.6,0-12.41-.61-17.47-1.83-5.08-1.22-7-1.91-12.32-3.93-2.09-.8-5.87-1.17-6.65-1.17-1.52,0-3.84,1.28-4.32,2.26-.46.93-.37,3.3-1.15,6.47l-2,.28-.43-42.6h2c2.59,10.25,7.8,23.18,15.32,28.41,7.5,5.24,16.64,7.86,27.42,7.86,8.1,0,13.51-.48,18.2-3.39,4.74-2.93,7.21-7.04,8.45-11.19,1.19-3.98,1.28-12.38.78-16.66-.61-5.17-4.63-10.69-10.08-15.66-5.43-4.95-8.93-6.39-19.99-11.6-7.69-3.61-13.23-7.37-16.88-9.38-1.26-.69-2.56-1.37-3.85-2.11,0,0-7.3-4.13-13.01-9.12-6.04-5.28-9.45-13.88-9.45-23.61,0-5.91,1.45-9.19,4.6-14.71,3.13-5.5,7.88-10.06,14.19-13.58,6.34-3.52,14.18-5.3,23.53-5.3,5.89,0,11.08.61,15.62,1.83,4.52,1.24,6.24,1.91,11.01,3.93,1.87.8,4.65,1.13,5.36,1.13,1.35,0,4-1.24,4.43-2.2.43-.95.74-2.56.91-5.84l3.5.02.09,45.56-4.52.15c-2.32-10.25-5.97-25.77-12.67-31.02-6.73-5.23-14.45-9.3-24.07-9.3-7.25,0-13.4,3.35-17.58,6.24-4.22,2.95-5.13,4.21-6.23,8.34-1.07,3.98-2.3,12.53-.7,16.68,1.85,4.76,6.45,9.23,11.32,14.19,4.84,4.97,8.89,5.69,18.73,11.03,7.54,4.1,10.41,4.84,11.58,5.58,10.14,5.08,18.16,10.14,24.05,15.21,6.52,5.58,9.77,13.25,9.77,22.98Z"/>
      <path class="cls-1" d="M361.55,323.73l-3.91,13.38h-67.28v-.93h1.54c2.39,0,4.74-.72,7.04-2.19s3.45-3.87,3.45-7.17v-64.24c0-2.63-.78-4.91-2.32-6.84-1.57-1.93-4.3-2.89-8.17-2.89h-1.54v-.98h67.28v13.43h-1.06c0-7.17-6.34-10.77-19.03-10.77h-23.51v38.69h20.68c4.1,0,7.75-.5,10.97-1.5,3.22-1,5.06-3.3,5.52-6.89h1.15v19.35h-1.15c-.46-2.19-1.33-3.89-2.61-5.06-1.28-1.19-2.54-1.98-3.8-2.35-1.26-.39-2.35-.57-3.32-.57-1.83-.24-3.76-.35-5.76-.35h-21.68v30.26c0,2.28.57,4.24,1.72,5.91s3.82,2.48,8,2.48h16.79c4.04,0,7.36-.43,9.97-1.32,2.59-.89,4.67-2.13,6.15-3.71,1.52-1.59,2.78-3.5,3.8-5.74h1.07Z"/>
    </g>
  </g>
</svg>