<svg width="680" height="47" viewBox="0 0 680 47" fill="none" xmlns="http://www.w3.org/2000/svg">
<path d="M0.39861 35.76V5.81401H11.3466C13.4933 5.81401 15.4559 6.12068 17.2346 6.73401C19.0439 7.34734 20.4853 8.35934 21.5586 9.77001C22.6319 11.1807 23.1686 13.128 23.1686 15.612C23.1686 18.004 22.6166 19.9667 21.5126 21.5C20.4393 23.0027 18.9979 24.122 17.1886 24.858C15.3793 25.5633 13.4319 25.916 11.3466 25.916H7.75861V35.76H0.39861ZM7.75861 20.12H10.9786C12.6959 20.12 13.9533 19.7367 14.7506 18.97C15.5786 18.1727 15.9926 17.0533 15.9926 15.612C15.9926 14.14 15.5633 13.1127 14.7046 12.53C13.8459 11.9473 12.6039 11.656 10.9786 11.656H7.75861V20.12ZM34.9266 36.312C33.3626 36.312 32.0286 35.99 30.9246 35.346C29.8206 34.702 28.962 33.8587 28.3486 32.816C27.766 31.7733 27.4746 30.608 27.4746 29.32C27.4746 26.7747 28.594 24.8273 30.8326 23.478C33.102 22.098 36.9046 21.2547 42.2406 20.948C42.1486 20.3347 41.9186 19.8287 41.5506 19.43C41.1826 19.0007 40.6613 18.6787 39.9866 18.464C39.3426 18.2187 38.5453 18.096 37.5946 18.096C36.92 18.096 36.2146 18.188 35.4786 18.372C34.7733 18.5253 34.0373 18.7553 33.2706 19.062C32.5346 19.3687 31.722 19.7367 30.8326 20.166L28.2106 15.336C29.3453 14.7227 30.4953 14.186 31.6606 13.726C32.826 13.266 34.022 12.9133 35.2486 12.668C36.4753 12.4227 37.7326 12.3 39.0206 12.3C41.198 12.3 43.0686 12.6833 44.6326 13.45C46.1966 14.186 47.408 15.336 48.2666 16.9C49.1253 18.4333 49.5546 20.4113 49.5546 22.834V35.76H43.5746L43.0686 33.276H42.8846C41.75 34.1347 40.508 34.8553 39.1586 35.438C37.8093 36.0207 36.3986 36.312 34.9266 36.312ZM37.2726 30.654C38.254 30.654 39.1433 30.47 39.9406 30.102C40.7686 29.7033 41.5353 29.228 42.2406 28.676V25.364C40.186 25.4253 38.5913 25.6247 37.4566 25.962C36.322 26.2687 35.54 26.6673 35.1106 27.158C34.6813 27.618 34.4666 28.1393 34.4666 28.722C34.4666 29.1513 34.574 29.5193 34.7886 29.826C35.034 30.102 35.356 30.3167 35.7546 30.47C36.184 30.5927 36.69 30.654 37.2726 30.654ZM57.4487 35.76V12.852H63.4747L64.0267 17.774H64.2107C65.3147 15.9033 66.664 14.5233 68.2587 13.634C69.8533 12.7447 71.54 12.3 73.3187 12.3C74.3613 12.3 75.1893 12.392 75.8027 12.576C76.416 12.7293 77.0447 12.944 77.6887 13.22L76.2167 19.384C75.542 19.1387 74.9133 18.97 74.3307 18.878C73.748 18.7553 73.0427 18.694 72.2147 18.694C70.8347 18.694 69.4853 19.108 68.1667 19.936C66.848 20.7333 65.7133 22.1287 64.7627 24.122V35.76H57.4487ZM97.7727 36.312C95.3194 36.312 93.3567 35.898 91.8847 35.07C90.4127 34.2113 89.3394 33.0153 88.6647 31.482C88.0207 29.9487 87.6987 28.17 87.6987 26.146V18.602H82.0867V13.128L88.0207 12.852L88.9867 5.90601H95.0587V12.852H104.397V18.602H95.0587V26.054C95.0587 27.158 95.2274 28.0473 95.5647 28.722C95.902 29.3967 96.408 29.872 97.0827 30.148C97.7574 30.424 98.616 30.562 99.6587 30.562C100.487 30.562 101.253 30.5007 101.959 30.378C102.695 30.2247 103.385 30.0253 104.029 29.78L105.317 35.116C104.305 35.392 103.17 35.6527 101.913 35.898C100.686 36.174 99.306 36.312 97.7727 36.312ZM122.733 36.312C120.341 36.312 118.179 35.8367 116.247 34.886C114.315 33.9353 112.781 32.5707 111.647 30.792C110.543 29.0133 109.991 26.8513 109.991 24.306C109.991 21.7913 110.558 19.6447 111.693 17.866C112.827 16.0873 114.299 14.7227 116.109 13.772C117.949 12.7907 119.896 12.3 121.951 12.3C124.312 12.3 126.29 12.7907 127.885 13.772C129.51 14.7533 130.721 16.0873 131.519 17.774C132.347 19.43 132.761 21.2853 132.761 23.34C132.761 23.984 132.73 24.6127 132.669 25.226C132.607 25.8087 132.546 26.238 132.485 26.514H115.465V21.684H127.425L126.367 23.018C126.367 21.3313 126.014 20.0587 125.309 19.2C124.603 18.3107 123.561 17.866 122.181 17.866C121.107 17.866 120.187 18.096 119.421 18.556C118.685 19.016 118.102 19.7367 117.673 20.718C117.274 21.6687 117.075 22.8647 117.075 24.306C117.075 25.8087 117.32 27.0353 117.811 27.986C118.332 28.9367 119.083 29.642 120.065 30.102C121.077 30.5313 122.303 30.746 123.745 30.746C124.726 30.746 125.661 30.6233 126.551 30.378C127.471 30.1327 128.437 29.7647 129.449 29.274L131.841 33.644C130.522 34.472 129.05 35.1313 127.425 35.622C125.799 36.082 124.235 36.312 122.733 36.312ZM138.263 35.76V12.852H144.243L144.749 15.75H144.933C145.883 14.83 146.987 14.0327 148.245 13.358C149.533 12.6527 151.035 12.3 152.753 12.3C155.298 12.3 157.153 13.1433 158.319 14.83C159.515 16.486 160.113 18.7553 160.113 21.638V35.76H152.753V22.558C152.753 21.178 152.538 20.166 152.109 19.522C151.679 18.878 150.897 18.556 149.763 18.556C148.935 18.556 148.214 18.74 147.601 19.108C146.987 19.4453 146.328 19.936 145.623 20.58V35.76H138.263ZM177.897 36.312C175.505 36.312 173.343 35.8367 171.411 34.886C169.479 33.9353 167.945 32.5707 166.811 30.792C165.707 29.0133 165.155 26.8513 165.155 24.306C165.155 21.7913 165.722 19.6447 166.857 17.866C167.991 16.0873 169.463 14.7227 171.273 13.772C173.113 12.7907 175.06 12.3 177.115 12.3C179.476 12.3 181.454 12.7907 183.049 13.772C184.674 14.7533 185.885 16.0873 186.683 17.774C187.511 19.43 187.925 21.2853 187.925 23.34C187.925 23.984 187.894 24.6127 187.833 25.226C187.771 25.8087 187.71 26.238 187.649 26.514H170.629V21.684H182.589L181.531 23.018C181.531 21.3313 181.178 20.0587 180.473 19.2C179.767 18.3107 178.725 17.866 177.345 17.866C176.271 17.866 175.351 18.096 174.585 18.556C173.849 19.016 173.266 19.7367 172.837 20.718C172.438 21.6687 172.239 22.8647 172.239 24.306C172.239 25.8087 172.484 27.0353 172.975 27.986C173.496 28.9367 174.247 29.642 175.229 30.102C176.241 30.5313 177.467 30.746 178.909 30.746C179.89 30.746 180.825 30.6233 181.715 30.378C182.635 30.1327 183.601 29.7647 184.613 29.274L187.005 33.644C185.686 34.472 184.214 35.1313 182.589 35.622C180.963 36.082 179.399 36.312 177.897 36.312ZM195.359 35.76V12.852H201.385L201.937 17.774H202.121C203.225 15.9033 204.574 14.5233 206.169 13.634C207.763 12.7447 209.45 12.3 211.229 12.3C212.271 12.3 213.099 12.392 213.713 12.576C214.326 12.7293 214.955 12.944 215.599 13.22L214.127 19.384C213.452 19.1387 212.823 18.97 212.241 18.878C211.658 18.7553 210.953 18.694 210.125 18.694C208.745 18.694 207.395 19.108 206.077 19.936C204.758 20.7333 203.623 22.1287 202.673 24.122V35.76H195.359ZM230.347 35.76V18.602H221.377V12.852H237.707V35.76H230.347ZM233.751 9.49401C232.371 9.49401 231.221 9.09534 230.301 8.29801C229.412 7.50068 228.967 6.44268 228.967 5.12401C228.967 3.80534 229.412 2.74734 230.301 1.95001C231.221 1.12201 232.371 0.708009 233.751 0.708009C235.131 0.708009 236.266 1.12201 237.155 1.95001C238.075 2.74734 238.535 3.80534 238.535 5.12401C238.535 6.44268 238.075 7.50068 237.155 8.29801C236.266 9.09534 235.131 9.49401 233.751 9.49401ZM286.523 36.312C284.53 36.312 282.521 35.9747 280.497 35.3C278.504 34.5947 276.786 33.7667 275.345 32.816L278.427 28.262C279.838 29.1207 281.31 29.78 282.843 30.24C284.407 30.7 285.971 30.93 287.535 30.93C288.67 30.93 289.482 30.7767 289.973 30.47C290.494 30.1327 290.755 29.7187 290.755 29.228C290.755 28.952 290.663 28.7067 290.479 28.492C290.326 28.2773 290.05 28.0933 289.651 27.94C289.283 27.756 288.746 27.5873 288.041 27.434C287.366 27.2807 286.508 27.0813 285.465 26.836C282.337 26.1613 280.098 25.226 278.749 24.03C277.43 22.834 276.771 21.362 276.771 19.614C276.771 17.406 277.722 15.6427 279.623 14.324C281.555 12.9747 284.177 12.3 287.489 12.3C289.605 12.3 291.506 12.6373 293.193 13.312C294.88 13.9867 296.336 14.7073 297.563 15.474L294.297 19.844C293.101 19.1387 291.859 18.602 290.571 18.234C289.283 17.866 288.026 17.682 286.799 17.682C286.216 17.682 285.71 17.7433 285.281 17.866C284.882 17.9887 284.576 18.1727 284.361 18.418C284.146 18.6633 284.039 18.9393 284.039 19.246C284.039 19.798 284.407 20.1967 285.143 20.442C285.91 20.6567 287.213 20.994 289.053 21.454C291.384 21.9753 293.193 22.5733 294.481 23.248C295.8 23.892 296.72 24.674 297.241 25.594C297.762 26.4833 298.023 27.5567 298.023 28.814C298.023 30.2247 297.578 31.4973 296.689 32.632C295.83 33.7667 294.542 34.6713 292.825 35.346C291.138 35.99 289.038 36.312 286.523 36.312ZM282.291 46.892L281.785 43.994C283.533 43.902 284.744 43.718 285.419 43.442C286.094 43.166 286.431 42.7673 286.431 42.246C286.431 41.8473 286.201 41.51 285.741 41.234C285.312 40.9887 284.591 40.82 283.579 40.728L284.959 38.106C287.504 38.29 289.252 38.6887 290.203 39.302C291.184 39.946 291.675 40.8507 291.675 42.016C291.675 43.6107 290.847 44.7913 289.191 45.558C287.535 46.3247 285.235 46.7693 282.291 46.892ZM313.093 35.76V18.602H304.123V12.852H320.453V35.76H313.093ZM316.497 9.49401C315.117 9.49401 313.967 9.09534 313.047 8.29801C312.158 7.50068 311.713 6.44268 311.713 5.12401C311.713 3.80534 312.158 2.74734 313.047 1.95001C313.967 1.12201 315.117 0.708009 316.497 0.708009C317.877 0.708009 319.012 1.12201 319.901 1.95001C320.821 2.74734 321.281 3.80534 321.281 5.12401C321.281 6.44268 320.821 7.50068 319.901 8.29801C319.012 9.09534 317.877 9.49401 316.497 9.49401ZM372.213 36.312C370.342 36.312 368.564 35.99 366.877 35.346C365.19 34.702 363.688 33.7513 362.369 32.494C361.081 31.206 360.054 29.6113 359.287 27.71C358.551 25.778 358.183 23.5393 358.183 20.994C358.183 17.6513 358.827 14.8147 360.115 12.484C361.434 10.1227 363.182 8.32868 365.359 7.10201C367.536 5.87534 369.974 5.26201 372.673 5.26201C374.574 5.26201 376.307 5.66067 377.871 6.45801C379.435 7.22467 380.723 8.11401 381.735 9.12601L377.687 13.634C377.012 12.99 376.261 12.4993 375.433 12.162C374.636 11.794 373.716 11.61 372.673 11.61C371.354 11.61 370.158 11.978 369.085 12.714C368.042 13.4193 367.214 14.462 366.601 15.842C366.018 17.1913 365.727 18.8167 365.727 20.718C365.727 22.6807 366.018 24.352 366.601 25.732C367.214 27.112 368.073 28.17 369.177 28.906C370.281 29.6113 371.554 29.964 372.995 29.964C374.007 29.964 374.942 29.734 375.801 29.274C376.66 28.7833 377.426 28.1853 378.101 27.48L382.149 31.896C380.922 33.368 379.466 34.472 377.779 35.208C376.092 35.944 374.237 36.312 372.213 36.312ZM397.173 36.312C395.149 36.312 393.232 35.8367 391.423 34.886C389.644 33.9353 388.188 32.5707 387.053 30.792C385.949 29.0133 385.397 26.8513 385.397 24.306C385.397 21.7607 385.949 19.5987 387.053 17.82C388.188 16.0413 389.644 14.6767 391.423 13.726C393.232 12.7753 395.149 12.3 397.173 12.3C399.197 12.3 401.098 12.7753 402.877 13.726C404.686 14.6767 406.143 16.0413 407.247 17.82C408.382 19.5987 408.949 21.7607 408.949 24.306C408.949 26.8513 408.382 29.0133 407.247 30.792C406.143 32.5707 404.686 33.9353 402.877 34.886C401.098 35.8367 399.197 36.312 397.173 36.312ZM397.173 30.424C398.124 30.424 398.906 30.1787 399.519 29.688C400.163 29.1667 400.638 28.4613 400.945 27.572C401.252 26.652 401.405 25.5633 401.405 24.306C401.405 23.0793 401.252 22.006 400.945 21.086C400.638 20.166 400.163 19.4607 399.519 18.97C398.906 18.4487 398.124 18.188 397.173 18.188C396.222 18.188 395.425 18.4487 394.781 18.97C394.168 19.4607 393.708 20.166 393.401 21.086C393.094 22.006 392.941 23.0793 392.941 24.306C392.941 25.5633 393.094 26.652 393.401 27.572C393.708 28.4613 394.168 29.1667 394.781 29.688C395.425 30.1787 396.222 30.424 397.173 30.424ZM429.033 36.312C426.058 36.312 423.82 35.4227 422.317 33.644C420.814 31.8347 420.063 29.4733 420.063 26.56V9.35601H413.071V3.65201H427.377V26.836C427.377 28.1853 427.76 29.1207 428.527 29.642C429.294 30.1633 430.106 30.424 430.965 30.424C431.486 30.424 432.008 30.3627 432.529 30.24C433.081 30.1173 433.71 29.9333 434.415 29.688L436.025 35.116C434.829 35.484 433.725 35.7753 432.713 35.99C431.732 36.2047 430.505 36.312 429.033 36.312ZM448.657 36.312C447.093 36.312 445.759 35.99 444.655 35.346C443.551 34.702 442.692 33.8587 442.079 32.816C441.496 31.7733 441.205 30.608 441.205 29.32C441.205 26.7747 442.324 24.8273 444.563 23.478C446.832 22.098 450.635 21.2547 455.971 20.948C455.879 20.3347 455.649 19.8287 455.281 19.43C454.913 19.0007 454.392 18.6787 453.717 18.464C453.073 18.2187 452.276 18.096 451.325 18.096C450.65 18.096 449.945 18.188 449.209 18.372C448.504 18.5253 447.768 18.7553 447.001 19.062C446.265 19.3687 445.452 19.7367 444.563 20.166L441.941 15.336C443.076 14.7227 444.226 14.186 445.391 13.726C446.556 13.266 447.752 12.9133 448.979 12.668C450.206 12.4227 451.463 12.3 452.751 12.3C454.928 12.3 456.799 12.6833 458.363 13.45C459.927 14.186 461.138 15.336 461.997 16.9C462.856 18.4333 463.285 20.4113 463.285 22.834V35.76H457.305L456.799 33.276H456.615C455.48 34.1347 454.238 34.8553 452.889 35.438C451.54 36.0207 450.129 36.312 448.657 36.312ZM451.003 30.654C451.984 30.654 452.874 30.47 453.671 30.102C454.499 29.7033 455.266 29.228 455.971 28.676V25.364C453.916 25.4253 452.322 25.6247 451.187 25.962C450.052 26.2687 449.27 26.6673 448.841 27.158C448.412 27.618 448.197 28.1393 448.197 28.722C448.197 29.1513 448.304 29.5193 448.519 29.826C448.764 30.102 449.086 30.3167 449.485 30.47C449.914 30.5927 450.42 30.654 451.003 30.654ZM481.851 36.312C480.778 36.312 479.72 36.0667 478.677 35.576C477.634 35.0547 476.653 34.288 475.733 33.276H475.595L474.997 35.76H469.247V3.65201H476.607V11.288L476.331 14.738H476.515C477.343 13.9713 478.278 13.3733 479.321 12.944C480.364 12.5147 481.422 12.3 482.495 12.3C484.396 12.3 486.022 12.7907 487.371 13.772C488.751 14.7227 489.809 16.0567 490.545 17.774C491.312 19.4913 491.695 21.5307 491.695 23.892C491.695 26.5293 491.22 28.7833 490.269 30.654C489.318 32.494 488.092 33.9047 486.589 34.886C485.117 35.8367 483.538 36.312 481.851 36.312ZM480.103 30.332C480.839 30.332 481.514 30.1327 482.127 29.734C482.74 29.3047 483.231 28.63 483.599 27.71C483.967 26.79 484.151 25.5633 484.151 24.03C484.151 22.7113 484.013 21.638 483.737 20.81C483.461 19.9513 483.047 19.3227 482.495 18.924C481.943 18.4947 481.222 18.28 480.333 18.28C479.689 18.28 479.06 18.4333 478.447 18.74C477.834 19.016 477.22 19.4913 476.607 20.166V28.998C477.159 29.4887 477.742 29.8413 478.355 30.056C478.968 30.24 479.551 30.332 480.103 30.332ZM507.501 36.312C505.477 36.312 503.561 35.8367 501.751 34.886C499.973 33.9353 498.516 32.5707 497.381 30.792C496.277 29.0133 495.725 26.8513 495.725 24.306C495.725 21.7607 496.277 19.5987 497.381 17.82C498.516 16.0413 499.973 14.6767 501.751 13.726C503.561 12.7753 505.477 12.3 507.501 12.3C509.525 12.3 511.427 12.7753 513.205 13.726C515.015 14.6767 516.471 16.0413 517.575 17.82C518.71 19.5987 519.277 21.7607 519.277 24.306C519.277 26.8513 518.71 29.0133 517.575 30.792C516.471 32.5707 515.015 33.9353 513.205 34.886C511.427 35.8367 509.525 36.312 507.501 36.312ZM507.501 30.424C508.452 30.424 509.234 30.1787 509.847 29.688C510.491 29.1667 510.967 28.4613 511.273 27.572C511.58 26.652 511.733 25.5633 511.733 24.306C511.733 23.0793 511.58 22.006 511.273 21.086C510.967 20.166 510.491 19.4607 509.847 18.97C509.234 18.4487 508.452 18.188 507.501 18.188C506.551 18.188 505.753 18.4487 505.109 18.97C504.496 19.4607 504.036 20.166 503.729 21.086C503.423 22.006 503.269 23.0793 503.269 24.306C503.269 25.5633 503.423 26.652 503.729 27.572C504.036 28.4613 504.496 29.1667 505.109 29.688C505.753 30.1787 506.551 30.424 507.501 30.424ZM526.343 35.76V12.852H532.369L532.921 17.774H533.105C534.209 15.9033 535.559 14.5233 537.153 13.634C538.748 12.7447 540.435 12.3 542.213 12.3C543.256 12.3 544.084 12.392 544.697 12.576C545.311 12.7293 545.939 12.944 546.583 13.22L545.111 19.384C544.437 19.1387 543.808 18.97 543.225 18.878C542.643 18.7553 541.937 18.694 541.109 18.694C539.729 18.694 538.38 19.108 537.061 19.936C535.743 20.7333 534.608 22.1287 533.657 24.122V35.76H526.343ZM558.985 36.312C557.421 36.312 556.087 35.99 554.983 35.346C553.879 34.702 553.021 33.8587 552.407 32.816C551.825 31.7733 551.533 30.608 551.533 29.32C551.533 26.7747 552.653 24.8273 554.891 23.478C557.161 22.098 560.963 21.2547 566.299 20.948C566.207 20.3347 565.977 19.8287 565.609 19.43C565.241 19.0007 564.72 18.6787 564.045 18.464C563.401 18.2187 562.604 18.096 561.653 18.096C560.979 18.096 560.273 18.188 559.537 18.372C558.832 18.5253 558.096 18.7553 557.329 19.062C556.593 19.3687 555.781 19.7367 554.891 20.166L552.269 15.336C553.404 14.7227 554.554 14.186 555.719 13.726C556.885 13.266 558.081 12.9133 559.307 12.668C560.534 12.4227 561.791 12.3 563.079 12.3C565.257 12.3 567.127 12.6833 568.691 13.45C570.255 14.186 571.467 15.336 572.325 16.9C573.184 18.4333 573.613 20.4113 573.613 22.834V35.76H567.633L567.127 33.276H566.943C565.809 34.1347 564.567 34.8553 563.217 35.438C561.868 36.0207 560.457 36.312 558.985 36.312ZM561.331 30.654C562.313 30.654 563.202 30.47 563.999 30.102C564.827 29.7033 565.594 29.228 566.299 28.676V25.364C564.245 25.4253 562.65 25.6247 561.515 25.962C560.381 26.2687 559.599 26.6673 559.169 27.158C558.74 27.618 558.525 28.1393 558.525 28.722C558.525 29.1513 558.633 29.5193 558.847 29.826C559.093 30.102 559.415 30.3167 559.813 30.47C560.243 30.5927 560.749 30.654 561.331 30.654ZM594.249 36.312C591.796 36.312 589.833 35.898 588.361 35.07C586.889 34.2113 585.816 33.0153 585.141 31.482C584.497 29.9487 584.175 28.17 584.175 26.146V18.602H578.563V13.128L584.497 12.852L585.463 5.90601H591.535V12.852H600.873V18.602H591.535V26.054C591.535 27.158 591.704 28.0473 592.041 28.722C592.379 29.3967 592.885 29.872 593.559 30.148C594.234 30.424 595.093 30.562 596.135 30.562C596.963 30.562 597.73 30.5007 598.435 30.378C599.171 30.2247 599.861 30.0253 600.505 29.78L601.793 35.116C600.781 35.392 599.647 35.6527 598.389 35.898C597.163 36.174 595.783 36.312 594.249 36.312ZM617.829 36.312C615.805 36.312 613.889 35.8367 612.079 34.886C610.301 33.9353 608.844 32.5707 607.709 30.792C606.605 29.0133 606.053 26.8513 606.053 24.306C606.053 21.7607 606.605 19.5987 607.709 17.82C608.844 16.0413 610.301 14.6767 612.079 13.726C613.889 12.7753 615.805 12.3 617.829 12.3C619.853 12.3 621.755 12.7753 623.533 13.726C625.343 14.6767 626.799 16.0413 627.903 17.82C629.038 19.5987 629.605 21.7607 629.605 24.306C629.605 26.8513 629.038 29.0133 627.903 30.792C626.799 32.5707 625.343 33.9353 623.533 34.886C621.755 35.8367 619.853 36.312 617.829 36.312ZM617.829 30.424C618.78 30.424 619.562 30.1787 620.175 29.688C620.819 29.1667 621.295 28.4613 621.601 27.572C621.908 26.652 622.061 25.5633 622.061 24.306C622.061 23.0793 621.908 22.006 621.601 21.086C621.295 20.166 620.819 19.4607 620.175 18.97C619.562 18.4487 618.78 18.188 617.829 18.188C616.879 18.188 616.081 18.4487 615.437 18.97C614.824 19.4607 614.364 20.166 614.057 21.086C613.751 22.006 613.597 23.0793 613.597 24.306C613.597 25.5633 613.751 26.652 614.057 27.572C614.364 28.4613 614.824 29.1667 615.437 29.688C616.081 30.1787 616.879 30.424 617.829 30.424ZM636.671 35.76V12.852H642.697L643.249 17.774H643.433C644.537 15.9033 645.887 14.5233 647.481 13.634C649.076 12.7447 650.763 12.3 652.541 12.3C653.584 12.3 654.412 12.392 655.025 12.576C655.639 12.7293 656.267 12.944 656.911 13.22L655.439 19.384C654.765 19.1387 654.136 18.97 653.553 18.878C652.971 18.7553 652.265 18.694 651.437 18.694C650.057 18.694 648.708 19.108 647.389 19.936C646.071 20.7333 644.936 22.1287 643.985 24.122V35.76H636.671ZM671.659 35.76V18.602H662.689V12.852H679.019V35.76H671.659ZM675.063 9.49401C673.683 9.49401 672.533 9.09534 671.613 8.29801C670.724 7.50068 670.279 6.44268 670.279 5.12401C670.279 3.80534 670.724 2.74734 671.613 1.95001C672.533 1.12201 673.683 0.708009 675.063 0.708009C676.443 0.708009 677.578 1.12201 678.467 1.95001C679.387 2.74734 679.847 3.80534 679.847 5.12401C679.847 6.44268 679.387 7.50068 678.467 8.29801C677.578 9.09534 676.443 9.49401 675.063 9.49401Z" fill="white"/>
</svg>
