<svg width="770" height="589" viewBox="0 0 770 589" fill="none" xmlns="http://www.w3.org/2000/svg">
<rect x="235.5" y="246.76" width="7" height="88" rx="3.5" fill="#FFC947"/>
<g filter="url(#filter0_d_35_1192)">
<rect x="250.5" y="246.76" width="311" height="88" rx="6" fill="white" shape-rendering="crispEdges"/>
<rect x="276.5" y="272.76" width="36" height="36" rx="6" fill="#091931"/>
<g clip-path="url(#clip0_35_1192)">
<path d="M301.925 289.673C301.925 287.798 301.212 286.073 300.05 284.76V281.798C300.05 280.485 299 279.435 297.687 279.435H291.312C290 279.435 288.95 280.485 288.95 281.798V284.76C287.787 286.073 287.075 287.798 287.075 289.673C287.075 291.548 287.787 293.273 288.95 294.585V300.923C288.95 301.335 289.175 301.71 289.512 301.935C289.7 302.048 289.887 302.085 290.112 302.085C290.3 302.085 290.487 302.048 290.637 301.935L294.425 299.985C294.462 299.948 294.5 299.948 294.537 299.985L298.325 301.935C298.7 302.123 299.112 302.123 299.45 301.898C299.787 301.673 300.012 301.298 300.012 300.885V294.585C301.212 293.273 301.925 291.548 301.925 289.673ZM291.312 281.123H297.65C298.025 281.123 298.325 281.423 298.325 281.798V283.335C297.2 282.66 295.887 282.248 294.462 282.248C293.037 282.248 291.725 282.66 290.6 283.335V281.798C290.637 281.423 290.937 281.123 291.312 281.123ZM294.5 283.935C297.65 283.935 300.237 286.523 300.237 289.673C300.237 292.823 297.65 295.41 294.5 295.41C291.35 295.41 288.762 292.823 288.762 289.673C288.762 286.523 291.35 283.935 294.5 283.935ZM295.287 298.523C294.762 298.26 294.2 298.26 293.675 298.523L290.637 300.098V296.01C291.762 296.685 293.075 297.098 294.5 297.098C295.925 297.098 297.237 296.685 298.362 296.01V300.06L295.287 298.523Z" fill="#FFC947"/>
<path d="M294.5 293.123C296.413 293.123 297.95 291.585 297.95 289.673C297.95 287.76 296.413 286.223 294.5 286.223C292.588 286.223 291.05 287.76 291.05 289.673C291.05 291.585 292.588 293.123 294.5 293.123ZM294.5 287.91C295.475 287.91 296.263 288.698 296.263 289.673C296.263 290.648 295.475 291.435 294.5 291.435C293.525 291.435 292.738 290.648 292.738 289.673C292.738 288.698 293.525 287.91 294.5 287.91Z" fill="#FFC947"/>
</g>
<path d="M334.02 284.26V273.78H337.332C338.1 273.78 338.777 273.881 339.364 274.084C339.961 274.276 340.425 274.607 340.756 275.076C341.087 275.535 341.252 276.153 341.252 276.932C341.252 277.689 341.081 278.313 340.74 278.804C340.409 279.295 339.945 279.663 339.348 279.908C338.761 280.143 338.089 280.26 337.332 280.26H335.62V284.26H334.02ZM335.62 278.964H337.172C338.025 278.964 338.655 278.799 339.06 278.468C339.465 278.137 339.668 277.625 339.668 276.932C339.668 276.228 339.46 275.743 339.044 275.476C338.628 275.199 338.004 275.06 337.172 275.06H335.62V278.964ZM344.662 284.26V276.436H345.974L346.102 278.26H346.15C346.555 277.62 347.051 277.124 347.638 276.772C348.224 276.42 348.864 276.244 349.558 276.244C349.856 276.244 350.128 276.271 350.374 276.324C350.619 276.377 350.859 276.457 351.094 276.564L350.742 277.924C350.475 277.828 350.246 277.764 350.054 277.732C349.862 277.689 349.616 277.668 349.318 277.668C348.752 277.668 348.208 277.828 347.686 278.148C347.163 278.468 346.683 279.023 346.246 279.812V284.26H344.662ZM357.687 284.452C356.898 284.452 356.178 284.292 355.527 283.972C354.887 283.652 354.381 283.183 354.007 282.564C353.634 281.945 353.447 281.204 353.447 280.34C353.447 279.487 353.634 278.756 354.007 278.148C354.391 277.54 354.887 277.071 355.495 276.74C356.103 276.409 356.754 276.244 357.447 276.244C358.215 276.244 358.866 276.404 359.399 276.724C359.933 277.033 360.338 277.465 360.615 278.02C360.903 278.564 361.047 279.204 361.047 279.94C361.047 280.1 361.042 280.26 361.031 280.42C361.021 280.569 361.005 280.697 360.983 280.804H354.551V279.636H359.991L359.639 280.02C359.639 279.177 359.447 278.548 359.063 278.132C358.679 277.705 358.157 277.492 357.495 277.492C357.037 277.492 356.615 277.604 356.231 277.828C355.858 278.041 355.559 278.361 355.335 278.788C355.111 279.204 354.999 279.721 354.999 280.34C354.999 280.98 355.122 281.513 355.367 281.94C355.623 282.356 355.965 282.671 356.391 282.884C356.829 283.097 357.33 283.204 357.895 283.204C358.333 283.204 358.733 283.145 359.095 283.028C359.458 282.9 359.815 282.729 360.167 282.516L360.727 283.524C360.333 283.791 359.879 284.015 359.367 284.196C358.855 284.367 358.295 284.452 357.687 284.452ZM363.193 284.26V276.436H364.441L364.569 277.46H364.601C364.793 277.108 365.023 276.82 365.289 276.596C365.556 276.361 365.913 276.244 366.361 276.244C366.735 276.244 367.044 276.356 367.289 276.58C367.535 276.804 367.705 277.14 367.801 277.588C368.015 277.183 368.255 276.857 368.521 276.612C368.799 276.367 369.161 276.244 369.609 276.244C370.164 276.244 370.591 276.457 370.889 276.884C371.199 277.311 371.353 277.913 371.353 278.692V284.26H369.801V278.804C369.801 278.004 369.561 277.604 369.081 277.604C368.847 277.604 368.649 277.695 368.489 277.876C368.329 278.057 368.153 278.329 367.961 278.692V284.26H366.585V278.804C366.585 278.409 366.527 278.111 366.409 277.908C366.303 277.705 366.127 277.604 365.881 277.604C365.647 277.604 365.439 277.695 365.257 277.876C365.087 278.057 364.916 278.329 364.745 278.692V284.26H363.193ZM377.211 284.26V277.716H373.707V276.436H378.795V284.26H377.211ZM377.867 274.916C377.526 274.916 377.243 274.815 377.019 274.612C376.795 274.399 376.683 274.121 376.683 273.78C376.683 273.439 376.795 273.167 377.019 272.964C377.243 272.751 377.526 272.644 377.867 272.644C378.208 272.644 378.491 272.751 378.715 272.964C378.939 273.167 379.051 273.439 379.051 273.78C379.051 274.121 378.939 274.399 378.715 274.612C378.491 274.815 378.208 274.916 377.867 274.916ZM387.165 284.26V277.716H383.661V276.436H388.749V284.26H387.165ZM387.821 274.916C387.479 274.916 387.197 274.815 386.973 274.612C386.749 274.399 386.637 274.121 386.637 273.78C386.637 273.439 386.749 273.167 386.973 272.964C387.197 272.751 387.479 272.644 387.821 272.644C388.162 272.644 388.445 272.751 388.669 272.964C388.893 273.167 389.005 273.439 389.005 273.78C389.005 274.121 388.893 274.399 388.669 274.612C388.445 274.815 388.162 274.916 387.821 274.916ZM398.671 284.452C397.807 284.452 397.145 284.201 396.687 283.7C396.228 283.188 395.999 282.463 395.999 281.524V274.196H393.39V272.916H397.582V281.62C397.582 282.164 397.721 282.559 397.999 282.804C398.276 283.039 398.623 283.156 399.039 283.156C399.252 283.156 399.47 283.129 399.694 283.076C399.929 283.023 400.185 282.937 400.463 282.82L400.847 284.004C400.473 284.132 400.127 284.239 399.807 284.324C399.497 284.409 399.119 284.452 398.671 284.452ZM407.456 284.452C406.667 284.452 405.947 284.292 405.296 283.972C404.656 283.652 404.15 283.183 403.776 282.564C403.403 281.945 403.216 281.204 403.216 280.34C403.216 279.487 403.403 278.756 403.776 278.148C404.16 277.54 404.656 277.071 405.264 276.74C405.872 276.409 406.523 276.244 407.216 276.244C407.984 276.244 408.635 276.404 409.168 276.724C409.702 277.033 410.107 277.465 410.384 278.02C410.672 278.564 410.816 279.204 410.816 279.94C410.816 280.1 410.811 280.26 410.8 280.42C410.79 280.569 410.774 280.697 410.752 280.804H404.32V279.636H409.76L409.408 280.02C409.408 279.177 409.216 278.548 408.832 278.132C408.448 277.705 407.926 277.492 407.264 277.492C406.806 277.492 406.384 277.604 406 277.828C405.627 278.041 405.328 278.361 405.104 278.788C404.88 279.204 404.768 279.721 404.768 280.34C404.768 280.98 404.891 281.513 405.136 281.94C405.392 282.356 405.734 282.671 406.16 282.884C406.598 283.097 407.099 283.204 407.664 283.204C408.102 283.204 408.502 283.145 408.864 283.028C409.227 282.9 409.584 282.729 409.936 282.516L410.496 283.524C410.102 283.791 409.648 284.015 409.136 284.196C408.624 284.367 408.064 284.452 407.456 284.452ZM423.492 287.46V276.436H424.788L424.916 277.396H424.964C425.316 277.065 425.721 276.793 426.18 276.58C426.638 276.356 427.102 276.244 427.572 276.244C428.265 276.244 428.846 276.409 429.316 276.74C429.796 277.071 430.158 277.535 430.404 278.132C430.66 278.729 430.788 279.428 430.788 280.228C430.788 281.124 430.622 281.887 430.292 282.516C429.961 283.145 429.529 283.625 428.996 283.956C428.462 284.287 427.886 284.452 427.268 284.452C426.916 284.452 426.537 284.367 426.132 284.196C425.737 284.025 425.374 283.791 425.044 283.492H424.996L425.076 284.9V287.46H423.492ZM426.964 283.14C427.38 283.14 427.753 283.028 428.084 282.804C428.414 282.58 428.676 282.255 428.868 281.828C429.06 281.391 429.156 280.863 429.156 280.244C429.156 279.7 429.081 279.231 428.932 278.836C428.793 278.431 428.58 278.121 428.292 277.908C428.004 277.684 427.62 277.572 427.14 277.572C426.82 277.572 426.484 277.657 426.132 277.828C425.78 277.988 425.428 278.255 425.076 278.628V282.324C425.406 282.612 425.742 282.82 426.084 282.948C426.425 283.076 426.718 283.14 426.964 283.14ZM434.245 284.26V276.436H435.557L435.685 278.26H435.733C436.139 277.62 436.635 277.124 437.221 276.772C437.808 276.42 438.448 276.244 439.141 276.244C439.44 276.244 439.712 276.271 439.957 276.324C440.203 276.377 440.443 276.457 440.677 276.564L440.325 277.924C440.059 277.828 439.829 277.764 439.637 277.732C439.445 277.689 439.2 277.668 438.901 277.668C438.336 277.668 437.792 277.828 437.269 278.148C436.747 278.468 436.267 279.023 435.829 279.812V284.26H434.245ZM446.791 284.452C446.109 284.452 445.469 284.292 444.871 283.972C444.285 283.652 443.805 283.188 443.431 282.58C443.069 281.961 442.887 281.22 442.887 280.356C442.887 279.492 443.069 278.756 443.431 278.148C443.805 277.529 444.285 277.06 444.871 276.74C445.469 276.409 446.109 276.244 446.791 276.244C447.474 276.244 448.109 276.409 448.695 276.74C449.293 277.06 449.773 277.529 450.135 278.148C450.509 278.756 450.695 279.492 450.695 280.356C450.695 281.22 450.509 281.961 450.135 282.58C449.773 283.188 449.293 283.652 448.695 283.972C448.109 284.292 447.474 284.452 446.791 284.452ZM446.791 283.156C447.25 283.156 447.65 283.039 447.991 282.804C448.333 282.569 448.594 282.244 448.775 281.828C448.967 281.412 449.063 280.921 449.063 280.356C449.063 279.801 448.967 279.316 448.775 278.9C448.594 278.473 448.333 278.143 447.991 277.908C447.65 277.673 447.25 277.556 446.791 277.556C446.333 277.556 445.933 277.673 445.591 277.908C445.25 278.143 444.983 278.473 444.791 278.9C444.61 279.316 444.519 279.801 444.519 280.356C444.519 280.921 444.61 281.412 444.791 281.828C444.983 282.244 445.25 282.569 445.591 282.804C445.933 283.039 446.333 283.156 446.791 283.156ZM457.145 284.452C456.761 284.452 456.361 284.361 455.945 284.18C455.529 283.988 455.145 283.727 454.793 283.396H454.745L454.601 284.26H453.353V272.916H454.937V275.924L454.873 277.364H454.921C455.262 277.023 455.652 276.751 456.089 276.548C456.537 276.345 456.98 276.244 457.417 276.244C458.11 276.244 458.697 276.409 459.177 276.74C459.657 277.071 460.02 277.535 460.265 278.132C460.521 278.719 460.649 279.417 460.649 280.228C460.649 281.113 460.484 281.876 460.153 282.516C459.822 283.145 459.39 283.625 458.857 283.956C458.334 284.287 457.764 284.452 457.145 284.452ZM456.841 283.14C457.257 283.14 457.625 283.028 457.945 282.804C458.276 282.58 458.537 282.255 458.729 281.828C458.921 281.391 459.017 280.863 459.017 280.244C459.017 279.7 458.942 279.231 458.793 278.836C458.654 278.431 458.441 278.121 458.153 277.908C457.865 277.684 457.481 277.572 457.001 277.572C456.681 277.572 456.345 277.657 455.993 277.828C455.641 277.988 455.289 278.255 454.937 278.628V282.324C455.268 282.612 455.604 282.82 455.945 282.948C456.286 283.076 456.585 283.14 456.841 283.14ZM467.179 284.452C466.389 284.452 465.669 284.292 465.019 283.972C464.379 283.652 463.872 283.183 463.499 282.564C463.125 281.945 462.939 281.204 462.939 280.34C462.939 279.487 463.125 278.756 463.499 278.148C463.883 277.54 464.379 277.071 464.987 276.74C465.595 276.409 466.245 276.244 466.939 276.244C467.707 276.244 468.357 276.404 468.891 276.724C469.424 277.033 469.829 277.465 470.107 278.02C470.395 278.564 470.539 279.204 470.539 279.94C470.539 280.1 470.533 280.26 470.523 280.42C470.512 280.569 470.496 280.697 470.475 280.804H464.043V279.636H469.483L469.131 280.02C469.131 279.177 468.939 278.548 468.555 278.132C468.171 277.705 467.648 277.492 466.987 277.492C466.528 277.492 466.107 277.604 465.723 277.828C465.349 278.041 465.051 278.361 464.827 278.788C464.603 279.204 464.491 279.721 464.491 280.34C464.491 280.98 464.613 281.513 464.859 281.94C465.115 282.356 465.456 282.671 465.883 282.884C466.32 283.097 466.821 283.204 467.387 283.204C467.824 283.204 468.224 283.145 468.587 283.028C468.949 282.9 469.307 282.729 469.659 282.516L470.219 283.524C469.824 283.791 469.371 284.015 468.859 284.196C468.347 284.367 467.787 284.452 467.179 284.452ZM476.748 284.26V277.716H473.244V276.436H478.332V284.26H476.748ZM477.404 274.916C477.063 274.916 476.78 274.815 476.556 274.612C476.332 274.399 476.22 274.121 476.22 273.78C476.22 273.439 476.332 273.167 476.556 272.964C476.78 272.751 477.063 272.644 477.404 272.644C477.746 272.644 478.028 272.751 478.252 272.964C478.476 273.167 478.588 273.439 478.588 273.78C478.588 274.121 478.476 274.399 478.252 274.612C478.028 274.815 477.746 274.916 477.404 274.916ZM496.656 284.26V277.716H493.152V276.436H498.24V284.26H496.656ZM495.36 275.204L494.72 274.596L496.512 272.404H498.112L499.904 274.596L499.264 275.204L497.344 273.476H497.28L495.36 275.204ZM503.122 284.26V276.436H504.418L504.546 277.7H504.61C505.004 277.295 505.431 276.953 505.89 276.676C506.348 276.388 506.882 276.244 507.49 276.244C508.396 276.244 509.063 276.521 509.49 277.076C509.927 277.62 510.146 278.399 510.146 279.412V284.26H508.562V279.62C508.562 278.937 508.434 278.436 508.178 278.116C507.932 277.785 507.516 277.62 506.93 277.62C506.514 277.62 506.14 277.727 505.81 277.94C505.479 278.143 505.111 278.452 504.706 278.868V284.26H503.122ZM336.436 308.26L333.236 300.436H334.836L336.484 304.692C336.633 305.076 336.777 305.465 336.916 305.86C337.055 306.244 337.188 306.628 337.316 307.012H337.38C337.519 306.628 337.652 306.244 337.78 305.86C337.908 305.465 338.047 305.076 338.196 304.692L339.844 300.436H341.364L338.228 308.26H336.436ZM346.31 308.452C345.808 308.452 345.355 308.361 344.95 308.18C344.555 307.988 344.24 307.727 344.006 307.396C343.782 307.055 343.67 306.655 343.67 306.196C343.67 305.321 344.096 304.655 344.95 304.196C345.814 303.737 347.227 303.433 349.19 303.284C349.179 302.964 349.104 302.671 348.966 302.404C348.838 302.137 348.63 301.929 348.342 301.78C348.064 301.62 347.696 301.54 347.238 301.54C346.918 301.54 346.603 301.583 346.294 301.668C345.984 301.743 345.686 301.849 345.398 301.988C345.11 302.127 344.838 302.271 344.582 302.42L343.99 301.348C344.278 301.177 344.608 301.007 344.982 300.836C345.355 300.655 345.755 300.511 346.182 300.404C346.619 300.297 347.062 300.244 347.51 300.244C348.235 300.244 348.838 300.377 349.318 300.644C349.798 300.911 350.16 301.289 350.406 301.78C350.651 302.271 350.774 302.863 350.774 303.556V308.26H349.478L349.35 307.252H349.302C348.886 307.572 348.416 307.855 347.894 308.1C347.371 308.335 346.843 308.452 346.31 308.452ZM346.758 307.188C347.174 307.188 347.584 307.097 347.99 306.916C348.395 306.735 348.795 306.479 349.19 306.148V304.292C348.166 304.367 347.36 304.484 346.774 304.644C346.198 304.804 345.792 305.007 345.558 305.252C345.323 305.487 345.206 305.764 345.206 306.084C345.206 306.34 345.275 306.553 345.414 306.724C345.563 306.884 345.755 307.001 345.99 307.076C346.224 307.151 346.48 307.188 346.758 307.188ZM358.855 308.452C357.991 308.452 357.33 308.201 356.871 307.7C356.413 307.188 356.183 306.463 356.183 305.524V298.196H353.575V296.916H357.767V305.62C357.767 306.164 357.906 306.559 358.183 306.804C358.461 307.039 358.807 307.156 359.223 307.156C359.437 307.156 359.655 307.129 359.879 307.076C360.114 307.023 360.37 306.937 360.648 306.82L361.031 308.004C360.658 308.132 360.311 308.239 359.991 308.324C359.682 308.409 359.303 308.452 358.855 308.452ZM367.161 308.452C366.479 308.452 365.839 308.292 365.241 307.972C364.655 307.652 364.175 307.188 363.801 306.58C363.439 305.961 363.257 305.22 363.257 304.356C363.257 303.492 363.439 302.756 363.801 302.148C364.175 301.529 364.655 301.06 365.241 300.74C365.839 300.409 366.479 300.244 367.161 300.244C367.844 300.244 368.479 300.409 369.065 300.74C369.663 301.06 370.143 301.529 370.505 302.148C370.879 302.756 371.065 303.492 371.065 304.356C371.065 305.22 370.879 305.961 370.505 306.58C370.143 307.188 369.663 307.652 369.065 307.972C368.479 308.292 367.844 308.452 367.161 308.452ZM367.161 307.156C367.62 307.156 368.02 307.039 368.361 306.804C368.703 306.569 368.964 306.244 369.145 305.828C369.337 305.412 369.433 304.921 369.433 304.356C369.433 303.801 369.337 303.316 369.145 302.9C368.964 302.473 368.703 302.143 368.361 301.908C368.02 301.673 367.62 301.556 367.161 301.556C366.703 301.556 366.303 301.673 365.961 301.908C365.62 302.143 365.353 302.473 365.161 302.9C364.98 303.316 364.889 303.801 364.889 304.356C364.889 304.921 364.98 305.412 365.161 305.828C365.353 306.244 365.62 306.569 365.961 306.804C366.303 307.039 366.703 307.156 367.161 307.156ZM376.171 308.452C375.67 308.452 375.216 308.361 374.811 308.18C374.416 307.988 374.102 307.727 373.867 307.396C373.643 307.055 373.531 306.655 373.531 306.196C373.531 305.321 373.958 304.655 374.811 304.196C375.675 303.737 377.088 303.433 379.051 303.284C379.04 302.964 378.966 302.671 378.827 302.404C378.699 302.137 378.491 301.929 378.203 301.78C377.926 301.62 377.558 301.54 377.099 301.54C376.779 301.54 376.464 301.583 376.155 301.668C375.846 301.743 375.547 301.849 375.259 301.988C374.971 302.127 374.699 302.271 374.443 302.42L373.851 301.348C374.139 301.177 374.47 301.007 374.843 300.836C375.216 300.655 375.616 300.511 376.043 300.404C376.48 300.297 376.923 300.244 377.371 300.244C378.096 300.244 378.699 300.377 379.179 300.644C379.659 300.911 380.022 301.289 380.267 301.78C380.512 302.271 380.635 302.863 380.635 303.556V308.26H379.339L379.211 307.252H379.163C378.747 307.572 378.278 307.855 377.755 308.1C377.232 308.335 376.704 308.452 376.171 308.452ZM376.619 307.188C377.035 307.188 377.446 307.097 377.851 306.916C378.256 306.735 378.656 306.479 379.051 306.148V304.292C378.027 304.367 377.222 304.484 376.635 304.644C376.059 304.804 375.654 305.007 375.419 305.252C375.184 305.487 375.067 305.764 375.067 306.084C375.067 306.34 375.136 306.553 375.275 306.724C375.424 306.884 375.616 307.001 375.851 307.076C376.086 307.151 376.342 307.188 376.619 307.188ZM384.477 308.26V300.436H385.789L385.917 302.26H385.965C386.37 301.62 386.866 301.124 387.453 300.772C388.039 300.42 388.679 300.244 389.373 300.244C389.671 300.244 389.943 300.271 390.189 300.324C390.434 300.377 390.674 300.457 390.909 300.564L390.557 301.924C390.29 301.828 390.061 301.764 389.869 301.732C389.677 301.689 389.431 301.668 389.133 301.668C388.567 301.668 388.023 301.828 387.501 302.148C386.978 302.468 386.498 303.023 386.061 303.812V308.26H384.477ZM397.503 308.452C396.713 308.452 395.993 308.292 395.342 307.972C394.702 307.652 394.196 307.183 393.822 306.564C393.449 305.945 393.262 305.204 393.262 304.34C393.262 303.487 393.449 302.756 393.822 302.148C394.206 301.54 394.702 301.071 395.31 300.74C395.918 300.409 396.569 300.244 397.263 300.244C398.031 300.244 398.681 300.404 399.214 300.724C399.748 301.033 400.153 301.465 400.431 302.02C400.719 302.564 400.863 303.204 400.863 303.94C400.863 304.1 400.857 304.26 400.847 304.42C400.836 304.569 400.82 304.697 400.799 304.804H394.366V303.636H399.807L399.455 304.02C399.455 303.177 399.263 302.548 398.878 302.132C398.495 301.705 397.972 301.492 397.311 301.492C396.852 301.492 396.43 301.604 396.046 301.828C395.673 302.041 395.375 302.361 395.151 302.788C394.926 303.204 394.814 303.721 394.814 304.34C394.814 304.98 394.937 305.513 395.182 305.94C395.438 306.356 395.78 306.671 396.207 306.884C396.644 307.097 397.145 307.204 397.711 307.204C398.148 307.204 398.548 307.145 398.911 307.028C399.273 306.9 399.631 306.729 399.983 306.516L400.543 307.524C400.148 307.791 399.695 308.015 399.183 308.196C398.671 308.367 398.111 308.452 397.503 308.452ZM416.402 308.452C415.389 308.452 414.573 308.095 413.954 307.38C413.335 306.655 413.026 305.647 413.026 304.356C413.026 303.513 413.191 302.788 413.522 302.18C413.863 301.561 414.301 301.087 414.834 300.756C415.367 300.415 415.933 300.244 416.53 300.244C416.989 300.244 417.399 300.329 417.762 300.5C418.125 300.671 418.461 300.911 418.77 301.22H418.818L418.738 299.828V296.916H420.322V308.26H419.026L418.898 307.3H418.85C418.541 307.609 418.173 307.881 417.746 308.116C417.319 308.34 416.871 308.452 416.402 308.452ZM416.77 307.14C417.122 307.14 417.458 307.055 417.778 306.884C418.109 306.703 418.429 306.436 418.738 306.084V302.372C418.429 302.084 418.119 301.881 417.81 301.764C417.501 301.636 417.191 301.572 416.882 301.572C416.477 301.572 416.103 301.684 415.762 301.908C415.431 302.132 415.165 302.452 414.962 302.868C414.759 303.284 414.658 303.775 414.658 304.34C414.658 305.236 414.845 305.929 415.218 306.42C415.591 306.9 416.109 307.14 416.77 307.14ZM427.364 308.452C426.574 308.452 425.854 308.292 425.204 307.972C424.564 307.652 424.057 307.183 423.684 306.564C423.31 305.945 423.124 305.204 423.124 304.34C423.124 303.487 423.31 302.756 423.684 302.148C424.068 301.54 424.564 301.071 425.172 300.74C425.78 300.409 426.43 300.244 427.124 300.244C427.892 300.244 428.542 300.404 429.076 300.724C429.609 301.033 430.014 301.465 430.292 302.02C430.58 302.564 430.724 303.204 430.724 303.94C430.724 304.1 430.718 304.26 430.708 304.42C430.697 304.569 430.681 304.697 430.66 304.804H424.228V303.636H429.668L429.316 304.02C429.316 303.177 429.124 302.548 428.74 302.132C428.356 301.705 427.833 301.492 427.172 301.492C426.713 301.492 426.292 301.604 425.908 301.828C425.534 302.041 425.236 302.361 425.012 302.788C424.788 303.204 424.676 303.721 424.676 304.34C424.676 304.98 424.798 305.513 425.044 305.94C425.3 306.356 425.641 306.671 426.068 306.884C426.505 307.097 427.006 307.204 427.572 307.204C428.009 307.204 428.409 307.145 428.772 307.028C429.134 306.9 429.492 306.729 429.844 306.516L430.404 307.524C430.009 307.791 429.556 308.015 429.044 308.196C428.532 308.367 427.972 308.452 427.364 308.452ZM443.729 308.26V305.642H447.491V297.568H444.389V295.566C445.02 295.463 445.563 295.361 446.017 295.258C446.487 295.141 446.905 295.009 447.271 294.862C447.638 294.701 447.997 294.51 448.349 294.29H450.725V305.642H453.893V308.26H443.729ZM462.517 308.524C461.798 308.524 461.101 308.392 460.427 308.128C459.752 307.864 459.143 307.453 458.601 306.896C458.073 306.339 457.647 305.627 457.325 304.762C457.017 303.882 456.863 302.826 456.863 301.594C456.863 300.289 457.031 299.159 457.369 298.206C457.706 297.253 458.153 296.468 458.711 295.852C459.283 295.236 459.928 294.781 460.647 294.488C461.365 294.18 462.113 294.026 462.891 294.026C463.873 294.026 464.739 294.195 465.487 294.532C466.249 294.855 466.865 295.243 467.335 295.698L465.641 297.634C465.347 297.37 464.981 297.143 464.541 296.952C464.101 296.747 463.646 296.644 463.177 296.644C462.575 296.644 462.018 296.798 461.505 297.106C461.006 297.414 460.603 297.935 460.295 298.668C459.987 299.387 459.833 300.362 459.833 301.594C459.833 302.753 459.957 303.662 460.207 304.322C460.456 304.967 460.779 305.429 461.175 305.708C461.585 305.972 462.011 306.104 462.451 306.104C462.832 306.104 463.184 306.023 463.507 305.862C463.829 305.701 464.086 305.459 464.277 305.136C464.482 304.799 464.585 304.366 464.585 303.838C464.585 303.119 464.394 302.606 464.013 302.298C463.631 301.975 463.133 301.814 462.517 301.814C462.106 301.814 461.666 301.924 461.197 302.144C460.742 302.364 460.287 302.753 459.833 303.31L459.701 301.198C460.214 300.655 460.793 300.245 461.439 299.966C462.084 299.673 462.678 299.526 463.221 299.526C464.027 299.526 464.753 299.68 465.399 299.988C466.059 300.296 466.579 300.773 466.961 301.418C467.342 302.049 467.533 302.855 467.533 303.838C467.533 304.806 467.298 305.642 466.829 306.346C466.374 307.05 465.765 307.593 465.003 307.974C464.255 308.341 463.426 308.524 462.517 308.524ZM475.694 308.524C474.623 308.524 473.685 308.245 472.878 307.688C472.071 307.116 471.441 306.287 470.986 305.202C470.546 304.117 470.326 302.789 470.326 301.22C470.326 298.829 470.817 297.033 471.8 295.83C472.783 294.627 474.081 294.026 475.694 294.026C477.322 294.026 478.62 294.627 479.588 295.83C480.571 297.033 481.062 298.829 481.062 301.22C481.062 302.789 480.835 304.117 480.38 305.202C479.94 306.287 479.317 307.116 478.51 307.688C477.718 308.245 476.779 308.524 475.694 308.524ZM475.694 306.016C476.163 306.016 476.581 305.869 476.948 305.576C477.329 305.283 477.63 304.784 477.85 304.08C478.07 303.376 478.18 302.423 478.18 301.22C478.18 300.003 478.07 299.057 477.85 298.382C477.63 297.693 477.329 297.216 476.948 296.952C476.581 296.673 476.163 296.534 475.694 296.534C475.239 296.534 474.821 296.673 474.44 296.952C474.059 297.216 473.758 297.693 473.538 298.382C473.318 299.057 473.208 300.003 473.208 301.22C473.208 302.423 473.318 303.376 473.538 304.08C473.758 304.784 474.059 305.283 474.44 305.576C474.821 305.869 475.239 306.016 475.694 306.016ZM475.694 302.848C475.239 302.848 474.851 302.694 474.528 302.386C474.205 302.078 474.044 301.675 474.044 301.176C474.044 300.663 474.205 300.259 474.528 299.966C474.851 299.658 475.239 299.504 475.694 299.504C476.163 299.504 476.552 299.658 476.86 299.966C477.183 300.259 477.344 300.663 477.344 301.176C477.344 301.675 477.183 302.078 476.86 302.386C476.552 302.694 476.163 302.848 475.694 302.848ZM489.245 308.524C488.175 308.524 487.236 308.245 486.429 307.688C485.623 307.116 484.992 306.287 484.537 305.202C484.097 304.117 483.877 302.789 483.877 301.22C483.877 298.829 484.369 297.033 485.351 295.83C486.334 294.627 487.632 294.026 489.245 294.026C490.873 294.026 492.171 294.627 493.139 295.83C494.122 297.033 494.613 298.829 494.613 301.22C494.613 302.789 494.386 304.117 493.931 305.202C493.491 306.287 492.868 307.116 492.061 307.688C491.269 308.245 490.331 308.524 489.245 308.524ZM489.245 306.016C489.715 306.016 490.133 305.869 490.499 305.576C490.881 305.283 491.181 304.784 491.401 304.08C491.621 303.376 491.731 302.423 491.731 301.22C491.731 300.003 491.621 299.057 491.401 298.382C491.181 297.693 490.881 297.216 490.499 296.952C490.133 296.673 489.715 296.534 489.245 296.534C488.791 296.534 488.373 296.673 487.991 296.952C487.61 297.216 487.309 297.693 487.089 298.382C486.869 299.057 486.759 300.003 486.759 301.22C486.759 302.423 486.869 303.376 487.089 304.08C487.309 304.784 487.61 305.283 487.991 305.576C488.373 305.869 488.791 306.016 489.245 306.016ZM489.245 302.848C488.791 302.848 488.402 302.694 488.079 302.386C487.757 302.078 487.595 301.675 487.595 301.176C487.595 300.663 487.757 300.259 488.079 299.966C488.402 299.658 488.791 299.504 489.245 299.504C489.715 299.504 490.103 299.658 490.411 299.966C490.734 300.259 490.895 300.663 490.895 301.176C490.895 301.675 490.734 302.078 490.411 302.386C490.103 302.694 489.715 302.848 489.245 302.848ZM504.579 308.524C503.391 308.524 502.328 308.253 501.389 307.71C500.465 307.167 499.732 306.361 499.189 305.29C498.646 304.219 498.375 302.907 498.375 301.352C498.375 299.812 498.646 298.499 499.189 297.414C499.746 296.314 500.509 295.478 501.477 294.906C502.445 294.319 503.56 294.026 504.821 294.026C505.569 294.026 506.295 294.18 506.999 294.488C507.703 294.781 508.319 295.199 508.847 295.742L507.065 297.48C506.728 297.201 506.368 296.974 505.987 296.798C505.606 296.622 505.18 296.534 504.711 296.534C504.036 296.534 503.472 296.725 503.017 297.106C502.562 297.473 502.21 298.008 501.961 298.712C501.726 299.416 501.609 300.259 501.609 301.242C501.609 302.254 501.734 303.119 501.983 303.838C502.247 304.542 502.614 305.085 503.083 305.466C503.552 305.833 504.117 306.016 504.777 306.016C505.29 306.016 505.745 305.913 506.141 305.708C506.537 305.488 506.904 305.195 507.241 304.828L509.023 306.5C508.436 307.145 507.769 307.644 507.021 307.996C506.288 308.348 505.474 308.524 504.579 308.524ZM497.187 300.714V299.196L498.815 299.086H507.395V300.714H497.187ZM497.187 303.442V301.946L498.815 301.814H506.515V303.442H497.187Z" fill="#091931"/>
</g>
<rect x="569.5" y="246.76" width="7" height="88" rx="3.5" fill="#FFC947"/>
<defs>
<filter id="filter0_d_35_1192" x="0.5" y="0.76001" width="811" height="588" filterUnits="userSpaceOnUse" color-interpolation-filters="sRGB">
<feFlood flood-opacity="0" result="BackgroundImageFix"/>
<feColorMatrix in="SourceAlpha" type="matrix" values="0 0 0 0 0 0 0 0 0 0 0 0 0 0 0 0 0 0 127 0" result="hardAlpha"/>
<feOffset dy="4"/>
<feGaussianBlur stdDeviation="125"/>
<feComposite in2="hardAlpha" operator="out"/>
<feColorMatrix type="matrix" values="0 0 0 0 1 0 0 0 0 1 0 0 0 0 1 0 0 0 0.37 0"/>
<feBlend mode="normal" in2="BackgroundImageFix" result="effect1_dropShadow_35_1192"/>
<feBlend mode="normal" in="SourceGraphic" in2="effect1_dropShadow_35_1192" result="shape"/>
</filter>
<clipPath id="clip0_35_1192">
<rect width="24" height="24" fill="white" transform="translate(282.5 278.76)"/>
</clipPath>
</defs>
</svg>
