<svg width="393" height="589" viewBox="0 0 393 589" fill="none" xmlns="http://www.w3.org/2000/svg">
<rect x="46" y="246.117" width="7" height="88" rx="3.5" fill="#FFC947"/>
<g filter="url(#filter0_d_144_1613)">
<rect x="61" y="246.117" width="277" height="88" rx="6" fill="white" shape-rendering="crispEdges"/>
<rect x="87" y="272.117" width="36" height="36" rx="6" fill="#091931"/>
<g clip-path="url(#clip0_144_1613)">
<path d="M112.425 289.029C112.425 287.154 111.713 285.429 110.55 284.117V281.154C110.55 279.842 109.5 278.792 108.188 278.792H101.813C100.5 278.792 99.45 279.842 99.45 281.154V284.117C98.2875 285.429 97.575 287.154 97.575 289.029C97.575 290.904 98.2875 292.629 99.45 293.942V300.279C99.45 300.692 99.675 301.067 100.013 301.292C100.2 301.404 100.388 301.442 100.613 301.442C100.8 301.442 100.988 301.404 101.138 301.292L104.925 299.342C104.963 299.304 105 299.304 105.038 299.342L108.825 301.292C109.2 301.479 109.613 301.479 109.95 301.254C110.288 301.029 110.513 300.654 110.513 300.242V293.942C111.713 292.629 112.425 290.904 112.425 289.029ZM101.813 280.479H108.15C108.525 280.479 108.825 280.779 108.825 281.154V282.692C107.7 282.017 106.388 281.604 104.963 281.604C103.538 281.604 102.225 282.017 101.1 282.692V281.154C101.138 280.779 101.438 280.479 101.813 280.479ZM105 283.292C108.15 283.292 110.738 285.879 110.738 289.029C110.738 292.179 108.15 294.767 105 294.767C101.85 294.767 99.2625 292.179 99.2625 289.029C99.2625 285.879 101.85 283.292 105 283.292ZM105.788 297.879C105.263 297.617 104.7 297.617 104.175 297.879L101.138 299.454V295.367C102.263 296.042 103.575 296.454 105 296.454C106.425 296.454 107.738 296.042 108.863 295.367V299.417L105.788 297.879Z" fill="#FFC947"/>
<path d="M105 292.479C106.913 292.479 108.45 290.942 108.45 289.029C108.45 287.117 106.913 285.579 105 285.579C103.088 285.579 101.55 287.117 101.55 289.029C101.55 290.942 103.088 292.479 105 292.479ZM105 287.267C105.975 287.267 106.763 288.054 106.763 289.029C106.763 290.004 105.975 290.792 105 290.792C104.025 290.792 103.238 290.004 103.238 289.029C103.238 288.054 104.025 287.267 105 287.267Z" fill="#FFC947"/>
</g>
<path d="M144.14 282.117V274.257H146.624C147.2 274.257 147.708 274.333 148.148 274.485C148.596 274.629 148.944 274.877 149.192 275.229C149.44 275.573 149.564 276.037 149.564 276.621C149.564 277.189 149.436 277.657 149.18 278.025C148.932 278.393 148.584 278.669 148.136 278.853C147.696 279.029 147.192 279.117 146.624 279.117H145.34V282.117H144.14ZM145.34 278.145H146.504C147.144 278.145 147.616 278.021 147.92 277.773C148.224 277.525 148.376 277.141 148.376 276.621C148.376 276.093 148.22 275.729 147.908 275.529C147.596 275.321 147.128 275.217 146.504 275.217H145.34V278.145ZM152.211 282.117V276.249H153.195L153.291 277.617H153.327C153.631 277.137 154.003 276.765 154.443 276.501C154.883 276.237 155.363 276.105 155.883 276.105C156.107 276.105 156.311 276.125 156.495 276.165C156.679 276.205 156.859 276.265 157.035 276.345L156.771 277.365C156.571 277.293 156.399 277.245 156.255 277.221C156.111 277.189 155.927 277.173 155.703 277.173C155.279 277.173 154.871 277.293 154.479 277.533C154.087 277.773 153.727 278.189 153.399 278.781V282.117H152.211ZM162.071 282.261C161.479 282.261 160.939 282.141 160.451 281.901C159.971 281.661 159.591 281.309 159.311 280.845C159.031 280.381 158.891 279.825 158.891 279.177C158.891 278.537 159.031 277.989 159.311 277.533C159.599 277.077 159.971 276.725 160.427 276.477C160.883 276.229 161.371 276.105 161.891 276.105C162.467 276.105 162.955 276.225 163.355 276.465C163.755 276.697 164.059 277.021 164.267 277.437C164.483 277.845 164.591 278.325 164.591 278.877C164.591 278.997 164.587 279.117 164.579 279.237C164.571 279.349 164.559 279.445 164.543 279.525H159.719V278.649H163.799L163.535 278.937C163.535 278.305 163.391 277.833 163.103 277.521C162.815 277.201 162.423 277.041 161.927 277.041C161.583 277.041 161.267 277.125 160.979 277.293C160.699 277.453 160.475 277.693 160.307 278.013C160.139 278.325 160.055 278.713 160.055 279.177C160.055 279.657 160.147 280.057 160.331 280.377C160.523 280.689 160.779 280.925 161.099 281.085C161.427 281.245 161.803 281.325 162.227 281.325C162.555 281.325 162.855 281.281 163.127 281.193C163.399 281.097 163.667 280.969 163.931 280.809L164.351 281.565C164.055 281.765 163.715 281.933 163.331 282.069C162.947 282.197 162.527 282.261 162.071 282.261ZM166.29 282.117V276.249H167.226L167.322 277.017H167.346C167.49 276.753 167.662 276.537 167.862 276.369C168.062 276.193 168.33 276.105 168.666 276.105C168.946 276.105 169.178 276.189 169.362 276.357C169.546 276.525 169.674 276.777 169.746 277.113C169.906 276.809 170.086 276.565 170.286 276.381C170.494 276.197 170.766 276.105 171.102 276.105C171.518 276.105 171.838 276.265 172.062 276.585C172.294 276.905 172.41 277.357 172.41 277.941V282.117H171.246V278.025C171.246 277.425 171.066 277.125 170.706 277.125C170.53 277.125 170.382 277.193 170.262 277.329C170.142 277.465 170.01 277.669 169.866 277.941V282.117H168.834V278.025C168.834 277.729 168.79 277.505 168.702 277.353C168.622 277.201 168.49 277.125 168.306 277.125C168.13 277.125 167.974 277.193 167.838 277.329C167.71 277.465 167.582 277.669 167.454 277.941V282.117H166.29ZM176.893 282.117V277.209H174.265V276.249H178.081V282.117H176.893ZM177.385 275.109C177.129 275.109 176.917 275.033 176.749 274.881C176.581 274.721 176.497 274.513 176.497 274.257C176.497 274.001 176.581 273.797 176.749 273.645C176.917 273.485 177.129 273.405 177.385 273.405C177.641 273.405 177.853 273.485 178.021 273.645C178.189 273.797 178.273 274.001 178.273 274.257C178.273 274.513 178.189 274.721 178.021 274.881C177.853 275.033 177.641 275.109 177.385 275.109ZM184.449 282.117V277.209H181.821V276.249H185.637V282.117H184.449ZM184.941 275.109C184.685 275.109 184.473 275.033 184.305 274.881C184.137 274.721 184.053 274.513 184.053 274.257C184.053 274.001 184.137 273.797 184.305 273.645C184.473 273.485 184.685 273.405 184.941 273.405C185.197 273.405 185.409 273.485 185.577 273.645C185.745 273.797 185.829 274.001 185.829 274.257C185.829 274.513 185.745 274.721 185.577 274.881C185.409 275.033 185.197 275.109 184.941 275.109ZM193.168 282.261C192.52 282.261 192.024 282.073 191.68 281.697C191.336 281.313 191.164 280.769 191.164 280.065V274.569H189.208V273.609H192.352V280.137C192.352 280.545 192.456 280.841 192.664 281.025C192.872 281.201 193.132 281.289 193.444 281.289C193.604 281.289 193.768 281.269 193.936 281.229C194.112 281.189 194.304 281.125 194.512 281.037L194.8 281.925C194.52 282.021 194.26 282.101 194.02 282.165C193.788 282.229 193.504 282.261 193.168 282.261ZM199.847 282.261C199.255 282.261 198.715 282.141 198.227 281.901C197.747 281.661 197.367 281.309 197.087 280.845C196.807 280.381 196.667 279.825 196.667 279.177C196.667 278.537 196.807 277.989 197.087 277.533C197.375 277.077 197.747 276.725 198.203 276.477C198.659 276.229 199.147 276.105 199.667 276.105C200.243 276.105 200.731 276.225 201.131 276.465C201.531 276.697 201.835 277.021 202.043 277.437C202.259 277.845 202.367 278.325 202.367 278.877C202.367 278.997 202.363 279.117 202.355 279.237C202.347 279.349 202.335 279.445 202.319 279.525H197.495V278.649H201.575L201.311 278.937C201.311 278.305 201.167 277.833 200.879 277.521C200.591 277.201 200.199 277.041 199.703 277.041C199.359 277.041 199.043 277.125 198.755 277.293C198.475 277.453 198.251 277.693 198.083 278.013C197.915 278.325 197.831 278.713 197.831 279.177C197.831 279.657 197.923 280.057 198.107 280.377C198.299 280.689 198.555 280.925 198.875 281.085C199.203 281.245 199.579 281.325 200.003 281.325C200.331 281.325 200.631 281.281 200.903 281.193C201.175 281.097 201.443 280.969 201.707 280.809L202.127 281.565C201.831 281.765 201.491 281.933 201.107 282.069C200.723 282.197 200.303 282.261 199.847 282.261ZM212.054 284.517V276.249H213.026L213.122 276.969H213.158C213.422 276.721 213.726 276.517 214.07 276.357C214.414 276.189 214.762 276.105 215.114 276.105C215.634 276.105 216.07 276.229 216.422 276.477C216.782 276.725 217.054 277.073 217.238 277.521C217.43 277.969 217.526 278.493 217.526 279.093C217.526 279.765 217.402 280.337 217.154 280.809C216.906 281.281 216.582 281.641 216.182 281.889C215.782 282.137 215.35 282.261 214.886 282.261C214.622 282.261 214.338 282.197 214.034 282.069C213.738 281.941 213.466 281.765 213.218 281.541H213.182L213.242 282.597V284.517H212.054ZM214.658 281.277C214.97 281.277 215.25 281.193 215.498 281.025C215.746 280.857 215.942 280.613 216.086 280.293C216.23 279.965 216.302 279.569 216.302 279.105C216.302 278.697 216.246 278.345 216.134 278.049C216.03 277.745 215.87 277.513 215.654 277.353C215.438 277.185 215.15 277.101 214.79 277.101C214.55 277.101 214.298 277.165 214.034 277.293C213.77 277.413 213.506 277.613 213.242 277.893V280.665C213.49 280.881 213.742 281.037 213.998 281.133C214.254 281.229 214.474 281.277 214.658 281.277ZM220.209 282.117V276.249H221.193L221.289 277.617H221.325C221.629 277.137 222.001 276.765 222.441 276.501C222.881 276.237 223.361 276.105 223.881 276.105C224.105 276.105 224.309 276.125 224.493 276.165C224.677 276.205 224.857 276.265 225.033 276.345L224.769 277.365C224.569 277.293 224.397 277.245 224.253 277.221C224.109 277.189 223.925 277.173 223.701 277.173C223.277 277.173 222.869 277.293 222.477 277.533C222.085 277.773 221.725 278.189 221.397 278.781V282.117H220.209ZM229.708 282.261C229.196 282.261 228.716 282.141 228.268 281.901C227.828 281.661 227.468 281.313 227.188 280.857C226.916 280.393 226.78 279.837 226.78 279.189C226.78 278.541 226.916 277.989 227.188 277.533C227.468 277.069 227.828 276.717 228.268 276.477C228.716 276.229 229.196 276.105 229.708 276.105C230.22 276.105 230.696 276.229 231.136 276.477C231.584 276.717 231.944 277.069 232.216 277.533C232.496 277.989 232.636 278.541 232.636 279.189C232.636 279.837 232.496 280.393 232.216 280.857C231.944 281.313 231.584 281.661 231.136 281.901C230.696 282.141 230.22 282.261 229.708 282.261ZM229.708 281.289C230.052 281.289 230.352 281.201 230.608 281.025C230.864 280.849 231.06 280.605 231.196 280.293C231.34 279.981 231.412 279.613 231.412 279.189C231.412 278.773 231.34 278.409 231.196 278.097C231.06 277.777 230.864 277.529 230.608 277.353C230.352 277.177 230.052 277.089 229.708 277.089C229.364 277.089 229.064 277.177 228.808 277.353C228.552 277.529 228.352 277.777 228.208 278.097C228.072 278.409 228.004 278.773 228.004 279.189C228.004 279.613 228.072 279.981 228.208 280.293C228.352 280.605 228.552 280.849 228.808 281.025C229.064 281.201 229.364 281.289 229.708 281.289ZM237.564 282.261C237.276 282.261 236.976 282.193 236.664 282.057C236.352 281.913 236.064 281.717 235.8 281.469H235.764L235.656 282.117H234.72V273.609H235.908V275.865L235.86 276.945H235.896C236.152 276.689 236.444 276.485 236.772 276.333C237.108 276.181 237.44 276.105 237.768 276.105C238.288 276.105 238.728 276.229 239.088 276.477C239.448 276.725 239.72 277.073 239.904 277.521C240.096 277.961 240.192 278.485 240.192 279.093C240.192 279.757 240.068 280.329 239.82 280.809C239.572 281.281 239.248 281.641 238.848 281.889C238.456 282.137 238.028 282.261 237.564 282.261ZM237.336 281.277C237.648 281.277 237.924 281.193 238.164 281.025C238.412 280.857 238.608 280.613 238.752 280.293C238.896 279.965 238.968 279.569 238.968 279.105C238.968 278.697 238.912 278.345 238.8 278.049C238.696 277.745 238.536 277.513 238.32 277.353C238.104 277.185 237.816 277.101 237.456 277.101C237.216 277.101 236.964 277.165 236.7 277.293C236.436 277.413 236.172 277.613 235.908 277.893V280.665C236.156 280.881 236.408 281.037 236.664 281.133C236.92 281.229 237.144 281.277 237.336 281.277ZM245.179 282.261C244.587 282.261 244.047 282.141 243.559 281.901C243.079 281.661 242.699 281.309 242.419 280.845C242.139 280.381 241.999 279.825 241.999 279.177C241.999 278.537 242.139 277.989 242.419 277.533C242.707 277.077 243.079 276.725 243.535 276.477C243.991 276.229 244.479 276.105 244.999 276.105C245.575 276.105 246.063 276.225 246.463 276.465C246.863 276.697 247.167 277.021 247.375 277.437C247.591 277.845 247.699 278.325 247.699 278.877C247.699 278.997 247.695 279.117 247.687 279.237C247.679 279.349 247.667 279.445 247.651 279.525H242.827V278.649H246.907L246.643 278.937C246.643 278.305 246.499 277.833 246.211 277.521C245.923 277.201 245.531 277.041 245.035 277.041C244.691 277.041 244.375 277.125 244.087 277.293C243.807 277.453 243.583 277.693 243.415 278.013C243.247 278.325 243.163 278.713 243.163 279.177C243.163 279.657 243.255 280.057 243.439 280.377C243.631 280.689 243.887 280.925 244.207 281.085C244.535 281.245 244.911 281.325 245.335 281.325C245.663 281.325 245.963 281.281 246.235 281.193C246.507 281.097 246.775 280.969 247.039 280.809L247.459 281.565C247.163 281.765 246.823 281.933 246.439 282.069C246.055 282.197 245.635 282.261 245.179 282.261ZM252.446 282.117V277.209H249.818V276.249H253.634V282.117H252.446ZM252.938 275.109C252.682 275.109 252.47 275.033 252.302 274.881C252.134 274.721 252.05 274.513 252.05 274.257C252.05 274.001 252.134 273.797 252.302 273.645C252.47 273.485 252.682 273.405 252.938 273.405C253.194 273.405 253.406 273.485 253.574 273.645C253.742 273.797 253.826 274.001 253.826 274.257C253.826 274.513 253.742 274.721 253.574 274.881C253.406 275.033 253.194 275.109 252.938 275.109ZM267.557 282.117V277.209H264.929V276.249H268.745V282.117H267.557ZM266.585 275.325L266.105 274.869L267.449 273.225H268.649L269.993 274.869L269.513 275.325L268.073 274.029H268.025L266.585 275.325ZM272.496 282.117V276.249H273.468L273.564 277.197H273.612C273.908 276.893 274.228 276.637 274.572 276.429C274.916 276.213 275.316 276.105 275.772 276.105C276.452 276.105 276.952 276.313 277.272 276.729C277.6 277.137 277.764 277.721 277.764 278.481V282.117H276.576V278.637C276.576 278.125 276.48 277.749 276.288 277.509C276.104 277.261 275.792 277.137 275.352 277.137C275.04 277.137 274.76 277.217 274.512 277.377C274.264 277.529 273.988 277.761 273.684 278.073V282.117H272.496ZM145.952 306.117L143.552 300.249H144.752L145.988 303.441C146.1 303.729 146.208 304.021 146.312 304.317C146.416 304.605 146.516 304.893 146.612 305.181H146.66C146.764 304.893 146.864 304.605 146.96 304.317C147.056 304.021 147.16 303.729 147.272 303.441L148.508 300.249H149.648L147.296 306.117H145.952ZM153.447 306.261C153.071 306.261 152.731 306.193 152.427 306.057C152.131 305.913 151.895 305.717 151.719 305.469C151.551 305.213 151.467 304.913 151.467 304.569C151.467 303.913 151.787 303.413 152.427 303.069C153.075 302.725 154.135 302.497 155.607 302.385C155.599 302.145 155.543 301.925 155.439 301.725C155.343 301.525 155.187 301.369 154.971 301.257C154.763 301.137 154.487 301.077 154.143 301.077C153.903 301.077 153.667 301.109 153.435 301.173C153.203 301.229 152.979 301.309 152.763 301.413C152.547 301.517 152.343 301.625 152.151 301.737L151.707 300.933C151.923 300.805 152.171 300.677 152.451 300.549C152.731 300.413 153.031 300.305 153.351 300.225C153.679 300.145 154.011 300.105 154.347 300.105C154.891 300.105 155.343 300.205 155.703 300.405C156.063 300.605 156.335 300.889 156.519 301.257C156.703 301.625 156.795 302.069 156.795 302.589V306.117H155.823L155.727 305.361H155.691C155.379 305.601 155.027 305.813 154.635 305.997C154.243 306.173 153.847 306.261 153.447 306.261ZM153.783 305.313C154.095 305.313 154.403 305.245 154.707 305.109C155.011 304.973 155.311 304.781 155.607 304.533V303.141C154.839 303.197 154.235 303.285 153.795 303.405C153.363 303.525 153.059 303.677 152.883 303.861C152.707 304.037 152.619 304.245 152.619 304.485C152.619 304.677 152.671 304.837 152.775 304.965C152.887 305.085 153.031 305.173 153.207 305.229C153.383 305.285 153.575 305.313 153.783 305.313ZM162.947 306.261C162.299 306.261 161.803 306.073 161.459 305.697C161.115 305.313 160.943 304.769 160.943 304.065V298.569H158.987V297.609H162.131V304.137C162.131 304.545 162.235 304.841 162.443 305.025C162.651 305.201 162.911 305.289 163.223 305.289C163.383 305.289 163.547 305.269 163.715 305.229C163.891 305.189 164.083 305.125 164.291 305.037L164.579 305.925C164.299 306.021 164.039 306.101 163.799 306.165C163.567 306.229 163.283 306.261 162.947 306.261ZM169.266 306.261C168.754 306.261 168.274 306.141 167.826 305.901C167.386 305.661 167.026 305.313 166.746 304.857C166.474 304.393 166.338 303.837 166.338 303.189C166.338 302.541 166.474 301.989 166.746 301.533C167.026 301.069 167.386 300.717 167.826 300.477C168.274 300.229 168.754 300.105 169.266 300.105C169.778 300.105 170.254 300.229 170.694 300.477C171.142 300.717 171.502 301.069 171.774 301.533C172.054 301.989 172.194 302.541 172.194 303.189C172.194 303.837 172.054 304.393 171.774 304.857C171.502 305.313 171.142 305.661 170.694 305.901C170.254 306.141 169.778 306.261 169.266 306.261ZM169.266 305.289C169.61 305.289 169.91 305.201 170.166 305.025C170.422 304.849 170.618 304.605 170.754 304.293C170.898 303.981 170.97 303.613 170.97 303.189C170.97 302.773 170.898 302.409 170.754 302.097C170.618 301.777 170.422 301.529 170.166 301.353C169.91 301.177 169.61 301.089 169.266 301.089C168.922 301.089 168.622 301.177 168.366 301.353C168.11 301.529 167.91 301.777 167.766 302.097C167.63 302.409 167.562 302.773 167.562 303.189C167.562 303.613 167.63 303.981 167.766 304.293C167.91 304.605 168.11 304.849 168.366 305.025C168.622 305.201 168.922 305.289 169.266 305.289ZM176.113 306.261C175.737 306.261 175.397 306.193 175.093 306.057C174.797 305.913 174.561 305.717 174.385 305.469C174.217 305.213 174.133 304.913 174.133 304.569C174.133 303.913 174.453 303.413 175.093 303.069C175.741 302.725 176.801 302.497 178.273 302.385C178.265 302.145 178.209 301.925 178.105 301.725C178.009 301.525 177.853 301.369 177.637 301.257C177.429 301.137 177.153 301.077 176.809 301.077C176.569 301.077 176.333 301.109 176.101 301.173C175.869 301.229 175.645 301.309 175.429 301.413C175.213 301.517 175.009 301.625 174.817 301.737L174.373 300.933C174.589 300.805 174.837 300.677 175.117 300.549C175.397 300.413 175.697 300.305 176.017 300.225C176.345 300.145 176.677 300.105 177.013 300.105C177.557 300.105 178.009 300.205 178.369 300.405C178.729 300.605 179.001 300.889 179.185 301.257C179.369 301.625 179.461 302.069 179.461 302.589V306.117H178.489L178.393 305.361H178.357C178.045 305.601 177.693 305.813 177.301 305.997C176.909 306.173 176.513 306.261 176.113 306.261ZM176.449 305.313C176.761 305.313 177.069 305.245 177.373 305.109C177.677 304.973 177.977 304.781 178.273 304.533V303.141C177.505 303.197 176.901 303.285 176.461 303.405C176.029 303.525 175.725 303.677 175.549 303.861C175.373 304.037 175.285 304.245 175.285 304.485C175.285 304.677 175.337 304.837 175.441 304.965C175.553 305.085 175.697 305.173 175.873 305.229C176.049 305.285 176.241 305.313 176.449 305.313ZM182.433 306.117V300.249H183.417L183.513 301.617H183.549C183.853 301.137 184.225 300.765 184.665 300.501C185.105 300.237 185.585 300.105 186.105 300.105C186.329 300.105 186.533 300.125 186.717 300.165C186.901 300.205 187.081 300.265 187.257 300.345L186.993 301.365C186.793 301.293 186.621 301.245 186.477 301.221C186.333 301.189 186.149 301.173 185.925 301.173C185.501 301.173 185.093 301.293 184.701 301.533C184.309 301.773 183.949 302.189 183.621 302.781V306.117H182.433ZM192.292 306.261C191.7 306.261 191.16 306.141 190.672 305.901C190.192 305.661 189.812 305.309 189.532 304.845C189.252 304.381 189.112 303.825 189.112 303.177C189.112 302.537 189.252 301.989 189.532 301.533C189.82 301.077 190.192 300.725 190.648 300.477C191.104 300.229 191.592 300.105 192.112 300.105C192.688 300.105 193.176 300.225 193.576 300.465C193.976 300.697 194.28 301.021 194.488 301.437C194.704 301.845 194.812 302.325 194.812 302.877C194.812 302.997 194.808 303.117 194.8 303.237C194.792 303.349 194.78 303.445 194.764 303.525H189.94V302.649H194.02L193.756 302.937C193.756 302.305 193.612 301.833 193.324 301.521C193.036 301.201 192.644 301.041 192.148 301.041C191.804 301.041 191.488 301.125 191.2 301.293C190.92 301.453 190.696 301.693 190.528 302.013C190.36 302.325 190.276 302.713 190.276 303.177C190.276 303.657 190.368 304.057 190.552 304.377C190.744 304.689 191 304.925 191.32 305.085C191.648 305.245 192.024 305.325 192.448 305.325C192.776 305.325 193.076 305.281 193.348 305.193C193.62 305.097 193.888 304.969 194.152 304.809L194.572 305.565C194.276 305.765 193.936 305.933 193.552 306.069C193.168 306.197 192.748 306.261 192.292 306.261ZM206.647 306.261C205.887 306.261 205.275 305.993 204.811 305.457C204.347 304.913 204.115 304.157 204.115 303.189C204.115 302.557 204.239 302.013 204.487 301.557C204.743 301.093 205.071 300.737 205.471 300.489C205.871 300.233 206.295 300.105 206.743 300.105C207.087 300.105 207.395 300.169 207.667 300.297C207.939 300.425 208.191 300.605 208.423 300.837H208.459L208.399 299.793V297.609H209.587V306.117H208.615L208.519 305.397H208.483C208.251 305.629 207.975 305.833 207.655 306.009C207.335 306.177 206.999 306.261 206.647 306.261ZM206.923 305.277C207.187 305.277 207.439 305.213 207.679 305.085C207.927 304.949 208.167 304.749 208.399 304.485V301.701C208.167 301.485 207.935 301.333 207.703 301.245C207.471 301.149 207.239 301.101 207.007 301.101C206.703 301.101 206.423 301.185 206.167 301.353C205.919 301.521 205.719 301.761 205.567 302.073C205.415 302.385 205.339 302.753 205.339 303.177C205.339 303.849 205.479 304.369 205.759 304.737C206.039 305.097 206.427 305.277 206.923 305.277ZM214.958 306.261C214.366 306.261 213.826 306.141 213.338 305.901C212.858 305.661 212.478 305.309 212.198 304.845C211.918 304.381 211.778 303.825 211.778 303.177C211.778 302.537 211.918 301.989 212.198 301.533C212.486 301.077 212.858 300.725 213.314 300.477C213.77 300.229 214.258 300.105 214.778 300.105C215.354 300.105 215.842 300.225 216.242 300.465C216.642 300.697 216.946 301.021 217.154 301.437C217.37 301.845 217.478 302.325 217.478 302.877C217.478 302.997 217.474 303.117 217.466 303.237C217.458 303.349 217.446 303.445 217.43 303.525H212.606V302.649H216.686L216.422 302.937C216.422 302.305 216.278 301.833 215.99 301.521C215.702 301.201 215.31 301.041 214.814 301.041C214.47 301.041 214.154 301.125 213.866 301.293C213.586 301.453 213.362 301.693 213.194 302.013C213.026 302.325 212.942 302.713 212.942 303.177C212.942 303.657 213.034 304.057 213.218 304.377C213.41 304.689 213.666 304.925 213.986 305.085C214.314 305.245 214.69 305.325 215.114 305.325C215.442 305.325 215.742 305.281 216.014 305.193C216.286 305.097 216.554 304.969 216.818 304.809L217.238 305.565C216.942 305.765 216.602 305.933 216.218 306.069C215.834 306.197 215.414 306.261 214.958 306.261ZM229.551 306.117V304.605C230.643 303.681 231.597 302.847 232.413 302.103C233.241 301.347 233.883 300.657 234.339 300.033C234.795 299.397 235.023 298.809 235.023 298.269C235.023 297.705 234.855 297.279 234.519 296.991C234.195 296.691 233.739 296.541 233.151 296.541C232.695 296.541 232.275 296.661 231.891 296.901C231.519 297.129 231.171 297.399 230.847 297.711L229.425 296.289C230.013 295.677 230.619 295.221 231.243 294.921C231.879 294.621 232.635 294.471 233.511 294.471C234.303 294.471 234.999 294.621 235.599 294.921C236.211 295.221 236.685 295.647 237.021 296.199C237.369 296.739 237.543 297.375 237.543 298.107C237.543 298.755 237.345 299.409 236.949 300.069C236.565 300.729 236.049 301.395 235.401 302.067C234.765 302.727 234.081 303.381 233.349 304.029C233.673 303.993 234.027 303.963 234.411 303.939C234.795 303.903 235.131 303.885 235.419 303.885H238.137V306.117H229.551ZM244.754 306.333C244.094 306.333 243.5 306.261 242.972 306.117C242.444 305.973 241.976 305.781 241.568 305.541C241.16 305.301 240.8 305.031 240.488 304.731L241.676 303.057C241.928 303.261 242.192 303.453 242.468 303.633C242.744 303.801 243.038 303.939 243.35 304.047C243.674 304.143 244.016 304.191 244.376 304.191C244.808 304.191 245.192 304.125 245.528 303.993C245.864 303.849 246.122 303.645 246.302 303.381C246.494 303.117 246.59 302.793 246.59 302.409C246.59 301.833 246.392 301.395 245.996 301.095C245.6 300.795 245.102 300.645 244.502 300.645C244.13 300.645 243.812 300.687 243.548 300.771C243.296 300.855 242.972 301.005 242.576 301.221L241.406 300.465L241.712 294.687H248.714V296.919H243.998L243.8 299.061C244.076 298.965 244.322 298.899 244.538 298.863C244.766 298.815 245.024 298.791 245.312 298.791C246.02 298.791 246.668 298.917 247.256 299.169C247.856 299.421 248.336 299.811 248.696 300.339C249.056 300.867 249.236 301.533 249.236 302.337C249.236 303.189 249.026 303.915 248.606 304.515C248.186 305.103 247.634 305.553 246.95 305.865C246.266 306.177 245.534 306.333 244.754 306.333ZM256.213 306.333C255.337 306.333 254.569 306.105 253.909 305.649C253.249 305.181 252.733 304.503 252.361 303.615C252.001 302.727 251.821 301.641 251.821 300.357C251.821 298.401 252.223 296.931 253.027 295.947C253.831 294.963 254.893 294.471 256.213 294.471C257.545 294.471 258.607 294.963 259.399 295.947C260.203 296.931 260.605 298.401 260.605 300.357C260.605 301.641 260.419 302.727 260.047 303.615C259.687 304.503 259.177 305.181 258.517 305.649C257.869 306.105 257.101 306.333 256.213 306.333ZM256.213 304.281C256.597 304.281 256.939 304.161 257.239 303.921C257.551 303.681 257.797 303.273 257.977 302.697C258.157 302.121 258.247 301.341 258.247 300.357C258.247 299.361 258.157 298.587 257.977 298.035C257.797 297.471 257.551 297.081 257.239 296.865C256.939 296.637 256.597 296.523 256.213 296.523C255.841 296.523 255.499 296.637 255.187 296.865C254.875 297.081 254.629 297.471 254.449 298.035C254.269 298.587 254.179 299.361 254.179 300.357C254.179 301.341 254.269 302.121 254.449 302.697C254.629 303.273 254.875 303.681 255.187 303.921C255.499 304.161 255.841 304.281 256.213 304.281ZM256.213 301.689C255.841 301.689 255.523 301.563 255.259 301.311C254.995 301.059 254.863 300.729 254.863 300.321C254.863 299.901 254.995 299.571 255.259 299.331C255.523 299.079 255.841 298.953 256.213 298.953C256.597 298.953 256.915 299.079 257.167 299.331C257.431 299.571 257.563 299.901 257.563 300.321C257.563 300.729 257.431 301.059 257.167 301.311C256.915 301.563 256.597 301.689 256.213 301.689ZM267.366 306.333C266.49 306.333 265.722 306.105 265.062 305.649C264.402 305.181 263.886 304.503 263.514 303.615C263.154 302.727 262.974 301.641 262.974 300.357C262.974 298.401 263.376 296.931 264.18 295.947C264.984 294.963 266.046 294.471 267.366 294.471C268.698 294.471 269.76 294.963 270.552 295.947C271.356 296.931 271.758 298.401 271.758 300.357C271.758 301.641 271.572 302.727 271.2 303.615C270.84 304.503 270.33 305.181 269.67 305.649C269.022 306.105 268.254 306.333 267.366 306.333ZM267.366 304.281C267.75 304.281 268.092 304.161 268.392 303.921C268.704 303.681 268.95 303.273 269.13 302.697C269.31 302.121 269.4 301.341 269.4 300.357C269.4 299.361 269.31 298.587 269.13 298.035C268.95 297.471 268.704 297.081 268.392 296.865C268.092 296.637 267.75 296.523 267.366 296.523C266.994 296.523 266.652 296.637 266.34 296.865C266.028 297.081 265.782 297.471 265.602 298.035C265.422 298.587 265.332 299.361 265.332 300.357C265.332 301.341 265.422 302.121 265.602 302.697C265.782 303.273 266.028 303.681 266.34 303.921C266.652 304.161 266.994 304.281 267.366 304.281ZM267.366 301.689C266.994 301.689 266.676 301.563 266.412 301.311C266.148 301.059 266.016 300.729 266.016 300.321C266.016 299.901 266.148 299.571 266.412 299.331C266.676 299.079 266.994 298.953 267.366 298.953C267.75 298.953 268.068 299.079 268.32 299.331C268.584 299.571 268.716 299.901 268.716 300.321C268.716 300.729 268.584 301.059 268.32 301.311C268.068 301.563 267.75 301.689 267.366 301.689ZM279.977 306.333C279.005 306.333 278.135 306.111 277.367 305.667C276.611 305.223 276.011 304.563 275.567 303.687C275.123 302.811 274.901 301.737 274.901 300.465C274.901 299.205 275.123 298.131 275.567 297.243C276.023 296.343 276.647 295.659 277.439 295.191C278.231 294.711 279.143 294.471 280.175 294.471C280.787 294.471 281.381 294.597 281.957 294.849C282.533 295.089 283.037 295.431 283.469 295.875L282.011 297.297C281.735 297.069 281.441 296.883 281.129 296.739C280.817 296.595 280.469 296.523 280.085 296.523C279.533 296.523 279.071 296.679 278.699 296.991C278.327 297.291 278.039 297.729 277.835 298.305C277.643 298.881 277.547 299.571 277.547 300.375C277.547 301.203 277.649 301.911 277.853 302.499C278.069 303.075 278.369 303.519 278.753 303.831C279.137 304.131 279.599 304.281 280.139 304.281C280.559 304.281 280.931 304.197 281.255 304.029C281.579 303.849 281.879 303.609 282.155 303.309L283.613 304.677C283.133 305.205 282.587 305.613 281.975 305.901C281.375 306.189 280.709 306.333 279.977 306.333ZM273.929 299.943V298.701L275.261 298.611H282.281V299.943H273.929ZM273.929 302.175V300.951L275.261 300.843H281.561V302.175H273.929Z" fill="#091931"/>
</g>
<rect x="346" y="246.117" width="7" height="88" rx="3.5" fill="#FFC947"/>
<defs>
<filter id="filter0_d_144_1613" x="-189" y="0.116577" width="777" height="588" filterUnits="userSpaceOnUse" color-interpolation-filters="sRGB">
<feFlood flood-opacity="0" result="BackgroundImageFix"/>
<feColorMatrix in="SourceAlpha" type="matrix" values="0 0 0 0 0 0 0 0 0 0 0 0 0 0 0 0 0 0 127 0" result="hardAlpha"/>
<feOffset dy="4"/>
<feGaussianBlur stdDeviation="125"/>
<feComposite in2="hardAlpha" operator="out"/>
<feColorMatrix type="matrix" values="0 0 0 0 1 0 0 0 0 1 0 0 0 0 1 0 0 0 0.37 0"/>
<feBlend mode="normal" in2="BackgroundImageFix" result="effect1_dropShadow_144_1613"/>
<feBlend mode="normal" in="SourceGraphic" in2="effect1_dropShadow_144_1613" result="shape"/>
</filter>
<clipPath id="clip0_144_1613">
<rect width="24" height="24" fill="white" transform="translate(93 278.117)"/>
</clipPath>
</defs>
</svg>
