<svg width="767" height="589" viewBox="0 0 767 589" fill="none" xmlns="http://www.w3.org/2000/svg">
<rect x="190.5" y="246.76" width="7" height="88" rx="3.5" fill="#FFC947"/>
<g filter="url(#filter0_d_35_1179)">
<rect x="205.5" y="246.76" width="311" height="88" rx="6" fill="white" shape-rendering="crispEdges"/>
<rect x="231.5" y="272.76" width="36" height="36" rx="6" fill="#091931"/>
<g clip-path="url(#clip0_35_1179)">
<path d="M256.925 289.673C256.925 287.798 256.213 286.073 255.05 284.76V281.798C255.05 280.485 254 279.435 252.688 279.435H246.313C245 279.435 243.95 280.485 243.95 281.798V284.76C242.788 286.073 242.075 287.798 242.075 289.673C242.075 291.548 242.788 293.273 243.95 294.585V300.923C243.95 301.335 244.175 301.71 244.513 301.935C244.7 302.048 244.888 302.085 245.113 302.085C245.3 302.085 245.488 302.048 245.638 301.935L249.425 299.985C249.463 299.948 249.5 299.948 249.538 299.985L253.325 301.935C253.7 302.123 254.113 302.123 254.45 301.898C254.788 301.673 255.013 301.298 255.013 300.885V294.585C256.213 293.273 256.925 291.548 256.925 289.673ZM246.313 281.123H252.65C253.025 281.123 253.325 281.423 253.325 281.798V283.335C252.2 282.66 250.888 282.248 249.463 282.248C248.038 282.248 246.725 282.66 245.6 283.335V281.798C245.638 281.423 245.938 281.123 246.313 281.123ZM249.5 283.935C252.65 283.935 255.238 286.523 255.238 289.673C255.238 292.823 252.65 295.41 249.5 295.41C246.35 295.41 243.763 292.823 243.763 289.673C243.763 286.523 246.35 283.935 249.5 283.935ZM250.288 298.523C249.763 298.26 249.2 298.26 248.675 298.523L245.638 300.098V296.01C246.763 296.685 248.075 297.098 249.5 297.098C250.925 297.098 252.238 296.685 253.363 296.01V300.06L250.288 298.523Z" fill="#FFC947"/>
<path d="M249.5 293.123C251.412 293.123 252.95 291.585 252.95 289.673C252.95 287.76 251.412 286.223 249.5 286.223C247.587 286.223 246.05 287.76 246.05 289.673C246.05 291.585 247.587 293.123 249.5 293.123ZM249.5 287.91C250.475 287.91 251.262 288.698 251.262 289.673C251.262 290.648 250.475 291.435 249.5 291.435C248.525 291.435 247.737 290.648 247.737 289.673C247.737 288.698 248.525 287.91 249.5 287.91Z" fill="#FFC947"/>
</g>
<path d="M289.02 284.26V273.78H292.332C293.1 273.78 293.777 273.881 294.364 274.084C294.961 274.276 295.425 274.607 295.756 275.076C296.087 275.535 296.252 276.153 296.252 276.932C296.252 277.689 296.081 278.313 295.74 278.804C295.409 279.295 294.945 279.663 294.348 279.908C293.761 280.143 293.089 280.26 292.332 280.26H290.62V284.26H289.02ZM290.62 278.964H292.172C293.025 278.964 293.655 278.799 294.06 278.468C294.465 278.137 294.668 277.625 294.668 276.932C294.668 276.228 294.46 275.743 294.044 275.476C293.628 275.199 293.004 275.06 292.172 275.06H290.62V278.964ZM299.662 284.26V276.436H300.974L301.102 278.26H301.15C301.555 277.62 302.051 277.124 302.638 276.772C303.224 276.42 303.864 276.244 304.558 276.244C304.856 276.244 305.128 276.271 305.374 276.324C305.619 276.377 305.859 276.457 306.094 276.564L305.742 277.924C305.475 277.828 305.246 277.764 305.054 277.732C304.862 277.689 304.616 277.668 304.318 277.668C303.752 277.668 303.208 277.828 302.686 278.148C302.163 278.468 301.683 279.023 301.246 279.812V284.26H299.662ZM312.687 284.452C311.898 284.452 311.178 284.292 310.527 283.972C309.887 283.652 309.381 283.183 309.007 282.564C308.634 281.945 308.447 281.204 308.447 280.34C308.447 279.487 308.634 278.756 309.007 278.148C309.391 277.54 309.887 277.071 310.495 276.74C311.103 276.409 311.754 276.244 312.447 276.244C313.215 276.244 313.866 276.404 314.399 276.724C314.933 277.033 315.338 277.465 315.615 278.02C315.903 278.564 316.047 279.204 316.047 279.94C316.047 280.1 316.042 280.26 316.031 280.42C316.021 280.569 316.005 280.697 315.983 280.804H309.551V279.636H314.991L314.639 280.02C314.639 279.177 314.447 278.548 314.063 278.132C313.679 277.705 313.157 277.492 312.495 277.492C312.037 277.492 311.615 277.604 311.231 277.828C310.858 278.041 310.559 278.361 310.335 278.788C310.111 279.204 309.999 279.721 309.999 280.34C309.999 280.98 310.122 281.513 310.367 281.94C310.623 282.356 310.965 282.671 311.391 282.884C311.829 283.097 312.33 283.204 312.895 283.204C313.333 283.204 313.733 283.145 314.095 283.028C314.458 282.9 314.815 282.729 315.167 282.516L315.727 283.524C315.333 283.791 314.879 284.015 314.367 284.196C313.855 284.367 313.295 284.452 312.687 284.452ZM318.193 284.26V276.436H319.441L319.569 277.46H319.601C319.793 277.108 320.023 276.82 320.289 276.596C320.556 276.361 320.913 276.244 321.361 276.244C321.735 276.244 322.044 276.356 322.289 276.58C322.535 276.804 322.705 277.14 322.801 277.588C323.015 277.183 323.255 276.857 323.521 276.612C323.799 276.367 324.161 276.244 324.609 276.244C325.164 276.244 325.591 276.457 325.889 276.884C326.199 277.311 326.353 277.913 326.353 278.692V284.26H324.801V278.804C324.801 278.004 324.561 277.604 324.081 277.604C323.847 277.604 323.649 277.695 323.489 277.876C323.329 278.057 323.153 278.329 322.961 278.692V284.26H321.585V278.804C321.585 278.409 321.527 278.111 321.409 277.908C321.303 277.705 321.127 277.604 320.881 277.604C320.647 277.604 320.439 277.695 320.257 277.876C320.087 278.057 319.916 278.329 319.745 278.692V284.26H318.193ZM332.211 284.26V277.716H328.707V276.436H333.795V284.26H332.211ZM332.867 274.916C332.526 274.916 332.243 274.815 332.019 274.612C331.795 274.399 331.683 274.121 331.683 273.78C331.683 273.439 331.795 273.167 332.019 272.964C332.243 272.751 332.526 272.644 332.867 272.644C333.208 272.644 333.491 272.751 333.715 272.964C333.939 273.167 334.051 273.439 334.051 273.78C334.051 274.121 333.939 274.399 333.715 274.612C333.491 274.815 333.208 274.916 332.867 274.916ZM342.165 284.26V277.716H338.661V276.436H343.749V284.26H342.165ZM342.821 274.916C342.479 274.916 342.197 274.815 341.973 274.612C341.749 274.399 341.637 274.121 341.637 273.78C341.637 273.439 341.749 273.167 341.973 272.964C342.197 272.751 342.479 272.644 342.821 272.644C343.162 272.644 343.445 272.751 343.669 272.964C343.893 273.167 344.005 273.439 344.005 273.78C344.005 274.121 343.893 274.399 343.669 274.612C343.445 274.815 343.162 274.916 342.821 274.916ZM353.671 284.452C352.807 284.452 352.145 284.201 351.687 283.7C351.228 283.188 350.999 282.463 350.999 281.524V274.196H348.39V272.916H352.582V281.62C352.582 282.164 352.721 282.559 352.999 282.804C353.276 283.039 353.623 283.156 354.039 283.156C354.252 283.156 354.47 283.129 354.694 283.076C354.929 283.023 355.185 282.937 355.463 282.82L355.847 284.004C355.473 284.132 355.127 284.239 354.807 284.324C354.497 284.409 354.119 284.452 353.671 284.452ZM362.456 284.452C361.667 284.452 360.947 284.292 360.296 283.972C359.656 283.652 359.15 283.183 358.776 282.564C358.403 281.945 358.216 281.204 358.216 280.34C358.216 279.487 358.403 278.756 358.776 278.148C359.16 277.54 359.656 277.071 360.264 276.74C360.872 276.409 361.523 276.244 362.216 276.244C362.984 276.244 363.635 276.404 364.168 276.724C364.702 277.033 365.107 277.465 365.384 278.02C365.672 278.564 365.816 279.204 365.816 279.94C365.816 280.1 365.811 280.26 365.8 280.42C365.79 280.569 365.774 280.697 365.752 280.804H359.32V279.636H364.76L364.408 280.02C364.408 279.177 364.216 278.548 363.832 278.132C363.448 277.705 362.926 277.492 362.264 277.492C361.806 277.492 361.384 277.604 361 277.828C360.627 278.041 360.328 278.361 360.104 278.788C359.88 279.204 359.768 279.721 359.768 280.34C359.768 280.98 359.891 281.513 360.136 281.94C360.392 282.356 360.734 282.671 361.16 282.884C361.598 283.097 362.099 283.204 362.664 283.204C363.102 283.204 363.502 283.145 363.864 283.028C364.227 282.9 364.584 282.729 364.936 282.516L365.496 283.524C365.102 283.791 364.648 284.015 364.136 284.196C363.624 284.367 363.064 284.452 362.456 284.452ZM378.492 287.46V276.436H379.788L379.916 277.396H379.964C380.316 277.065 380.721 276.793 381.18 276.58C381.638 276.356 382.102 276.244 382.572 276.244C383.265 276.244 383.846 276.409 384.316 276.74C384.796 277.071 385.158 277.535 385.404 278.132C385.66 278.729 385.788 279.428 385.788 280.228C385.788 281.124 385.622 281.887 385.292 282.516C384.961 283.145 384.529 283.625 383.996 283.956C383.462 284.287 382.886 284.452 382.268 284.452C381.916 284.452 381.537 284.367 381.132 284.196C380.737 284.025 380.374 283.791 380.044 283.492H379.996L380.076 284.9V287.46H378.492ZM381.964 283.14C382.38 283.14 382.753 283.028 383.084 282.804C383.414 282.58 383.676 282.255 383.868 281.828C384.06 281.391 384.156 280.863 384.156 280.244C384.156 279.7 384.081 279.231 383.932 278.836C383.793 278.431 383.58 278.121 383.292 277.908C383.004 277.684 382.62 277.572 382.14 277.572C381.82 277.572 381.484 277.657 381.132 277.828C380.78 277.988 380.428 278.255 380.076 278.628V282.324C380.406 282.612 380.742 282.82 381.084 282.948C381.425 283.076 381.718 283.14 381.964 283.14ZM389.245 284.26V276.436H390.557L390.685 278.26H390.733C391.139 277.62 391.635 277.124 392.221 276.772C392.808 276.42 393.448 276.244 394.141 276.244C394.44 276.244 394.712 276.271 394.957 276.324C395.203 276.377 395.443 276.457 395.677 276.564L395.325 277.924C395.059 277.828 394.829 277.764 394.637 277.732C394.445 277.689 394.2 277.668 393.901 277.668C393.336 277.668 392.792 277.828 392.269 278.148C391.747 278.468 391.267 279.023 390.829 279.812V284.26H389.245ZM401.791 284.452C401.109 284.452 400.469 284.292 399.871 283.972C399.285 283.652 398.805 283.188 398.431 282.58C398.069 281.961 397.887 281.22 397.887 280.356C397.887 279.492 398.069 278.756 398.431 278.148C398.805 277.529 399.285 277.06 399.871 276.74C400.469 276.409 401.109 276.244 401.791 276.244C402.474 276.244 403.109 276.409 403.695 276.74C404.293 277.06 404.773 277.529 405.135 278.148C405.509 278.756 405.695 279.492 405.695 280.356C405.695 281.22 405.509 281.961 405.135 282.58C404.773 283.188 404.293 283.652 403.695 283.972C403.109 284.292 402.474 284.452 401.791 284.452ZM401.791 283.156C402.25 283.156 402.65 283.039 402.991 282.804C403.333 282.569 403.594 282.244 403.775 281.828C403.967 281.412 404.063 280.921 404.063 280.356C404.063 279.801 403.967 279.316 403.775 278.9C403.594 278.473 403.333 278.143 402.991 277.908C402.65 277.673 402.25 277.556 401.791 277.556C401.333 277.556 400.933 277.673 400.591 277.908C400.25 278.143 399.983 278.473 399.791 278.9C399.61 279.316 399.519 279.801 399.519 280.356C399.519 280.921 399.61 281.412 399.791 281.828C399.983 282.244 400.25 282.569 400.591 282.804C400.933 283.039 401.333 283.156 401.791 283.156ZM412.145 284.452C411.761 284.452 411.361 284.361 410.945 284.18C410.529 283.988 410.145 283.727 409.793 283.396H409.745L409.601 284.26H408.353V272.916H409.937V275.924L409.873 277.364H409.921C410.262 277.023 410.652 276.751 411.089 276.548C411.537 276.345 411.98 276.244 412.417 276.244C413.11 276.244 413.697 276.409 414.177 276.74C414.657 277.071 415.02 277.535 415.265 278.132C415.521 278.719 415.649 279.417 415.649 280.228C415.649 281.113 415.484 281.876 415.153 282.516C414.822 283.145 414.39 283.625 413.857 283.956C413.334 284.287 412.764 284.452 412.145 284.452ZM411.841 283.14C412.257 283.14 412.625 283.028 412.945 282.804C413.276 282.58 413.537 282.255 413.729 281.828C413.921 281.391 414.017 280.863 414.017 280.244C414.017 279.7 413.942 279.231 413.793 278.836C413.654 278.431 413.441 278.121 413.153 277.908C412.865 277.684 412.481 277.572 412.001 277.572C411.681 277.572 411.345 277.657 410.993 277.828C410.641 277.988 410.289 278.255 409.937 278.628V282.324C410.268 282.612 410.604 282.82 410.945 282.948C411.286 283.076 411.585 283.14 411.841 283.14ZM422.179 284.452C421.389 284.452 420.669 284.292 420.019 283.972C419.379 283.652 418.872 283.183 418.499 282.564C418.125 281.945 417.939 281.204 417.939 280.34C417.939 279.487 418.125 278.756 418.499 278.148C418.883 277.54 419.379 277.071 419.987 276.74C420.595 276.409 421.245 276.244 421.939 276.244C422.707 276.244 423.357 276.404 423.891 276.724C424.424 277.033 424.829 277.465 425.107 278.02C425.395 278.564 425.539 279.204 425.539 279.94C425.539 280.1 425.533 280.26 425.523 280.42C425.512 280.569 425.496 280.697 425.475 280.804H419.043V279.636H424.483L424.131 280.02C424.131 279.177 423.939 278.548 423.555 278.132C423.171 277.705 422.648 277.492 421.987 277.492C421.528 277.492 421.107 277.604 420.723 277.828C420.349 278.041 420.051 278.361 419.827 278.788C419.603 279.204 419.491 279.721 419.491 280.34C419.491 280.98 419.613 281.513 419.859 281.94C420.115 282.356 420.456 282.671 420.883 282.884C421.32 283.097 421.821 283.204 422.387 283.204C422.824 283.204 423.224 283.145 423.587 283.028C423.949 282.9 424.307 282.729 424.659 282.516L425.219 283.524C424.824 283.791 424.371 284.015 423.859 284.196C423.347 284.367 422.787 284.452 422.179 284.452ZM431.748 284.26V277.716H428.244V276.436H433.332V284.26H431.748ZM432.404 274.916C432.063 274.916 431.78 274.815 431.556 274.612C431.332 274.399 431.22 274.121 431.22 273.78C431.22 273.439 431.332 273.167 431.556 272.964C431.78 272.751 432.063 272.644 432.404 272.644C432.746 272.644 433.028 272.751 433.252 272.964C433.476 273.167 433.588 273.439 433.588 273.78C433.588 274.121 433.476 274.399 433.252 274.612C433.028 274.815 432.746 274.916 432.404 274.916ZM451.656 284.26V277.716H448.152V276.436H453.24V284.26H451.656ZM450.36 275.204L449.72 274.596L451.512 272.404H453.112L454.904 274.596L454.264 275.204L452.344 273.476H452.28L450.36 275.204ZM458.122 284.26V276.436H459.418L459.546 277.7H459.61C460.004 277.295 460.431 276.953 460.89 276.676C461.348 276.388 461.882 276.244 462.49 276.244C463.396 276.244 464.063 276.521 464.49 277.076C464.927 277.62 465.146 278.399 465.146 279.412V284.26H463.562V279.62C463.562 278.937 463.434 278.436 463.178 278.116C462.932 277.785 462.516 277.62 461.93 277.62C461.514 277.62 461.14 277.727 460.81 277.94C460.479 278.143 460.111 278.452 459.706 278.868V284.26H458.122ZM291.436 308.26L288.236 300.436H289.836L291.484 304.692C291.633 305.076 291.777 305.465 291.916 305.86C292.055 306.244 292.188 306.628 292.316 307.012H292.38C292.519 306.628 292.652 306.244 292.78 305.86C292.908 305.465 293.047 305.076 293.196 304.692L294.844 300.436H296.364L293.228 308.26H291.436ZM301.31 308.452C300.808 308.452 300.355 308.361 299.95 308.18C299.555 307.988 299.24 307.727 299.006 307.396C298.782 307.055 298.67 306.655 298.67 306.196C298.67 305.321 299.096 304.655 299.95 304.196C300.814 303.737 302.227 303.433 304.19 303.284C304.179 302.964 304.104 302.671 303.966 302.404C303.838 302.137 303.63 301.929 303.342 301.78C303.064 301.62 302.696 301.54 302.238 301.54C301.918 301.54 301.603 301.583 301.294 301.668C300.984 301.743 300.686 301.849 300.398 301.988C300.11 302.127 299.838 302.271 299.582 302.42L298.99 301.348C299.278 301.177 299.608 301.007 299.982 300.836C300.355 300.655 300.755 300.511 301.182 300.404C301.619 300.297 302.062 300.244 302.51 300.244C303.235 300.244 303.838 300.377 304.318 300.644C304.798 300.911 305.16 301.289 305.406 301.78C305.651 302.271 305.774 302.863 305.774 303.556V308.26H304.478L304.35 307.252H304.302C303.886 307.572 303.416 307.855 302.894 308.1C302.371 308.335 301.843 308.452 301.31 308.452ZM301.758 307.188C302.174 307.188 302.584 307.097 302.99 306.916C303.395 306.735 303.795 306.479 304.19 306.148V304.292C303.166 304.367 302.36 304.484 301.774 304.644C301.198 304.804 300.792 305.007 300.558 305.252C300.323 305.487 300.206 305.764 300.206 306.084C300.206 306.34 300.275 306.553 300.414 306.724C300.563 306.884 300.755 307.001 300.99 307.076C301.224 307.151 301.48 307.188 301.758 307.188ZM313.855 308.452C312.991 308.452 312.33 308.201 311.871 307.7C311.413 307.188 311.183 306.463 311.183 305.524V298.196H308.575V296.916H312.767V305.62C312.767 306.164 312.906 306.559 313.183 306.804C313.461 307.039 313.807 307.156 314.223 307.156C314.437 307.156 314.655 307.129 314.879 307.076C315.114 307.023 315.37 306.937 315.648 306.82L316.031 308.004C315.658 308.132 315.311 308.239 314.991 308.324C314.682 308.409 314.303 308.452 313.855 308.452ZM322.161 308.452C321.479 308.452 320.839 308.292 320.241 307.972C319.655 307.652 319.175 307.188 318.801 306.58C318.439 305.961 318.257 305.22 318.257 304.356C318.257 303.492 318.439 302.756 318.801 302.148C319.175 301.529 319.655 301.06 320.241 300.74C320.839 300.409 321.479 300.244 322.161 300.244C322.844 300.244 323.479 300.409 324.065 300.74C324.663 301.06 325.143 301.529 325.505 302.148C325.879 302.756 326.065 303.492 326.065 304.356C326.065 305.22 325.879 305.961 325.505 306.58C325.143 307.188 324.663 307.652 324.065 307.972C323.479 308.292 322.844 308.452 322.161 308.452ZM322.161 307.156C322.62 307.156 323.02 307.039 323.361 306.804C323.703 306.569 323.964 306.244 324.145 305.828C324.337 305.412 324.433 304.921 324.433 304.356C324.433 303.801 324.337 303.316 324.145 302.9C323.964 302.473 323.703 302.143 323.361 301.908C323.02 301.673 322.62 301.556 322.161 301.556C321.703 301.556 321.303 301.673 320.961 301.908C320.62 302.143 320.353 302.473 320.161 302.9C319.98 303.316 319.889 303.801 319.889 304.356C319.889 304.921 319.98 305.412 320.161 305.828C320.353 306.244 320.62 306.569 320.961 306.804C321.303 307.039 321.703 307.156 322.161 307.156ZM331.171 308.452C330.67 308.452 330.216 308.361 329.811 308.18C329.416 307.988 329.102 307.727 328.867 307.396C328.643 307.055 328.531 306.655 328.531 306.196C328.531 305.321 328.958 304.655 329.811 304.196C330.675 303.737 332.088 303.433 334.051 303.284C334.04 302.964 333.966 302.671 333.827 302.404C333.699 302.137 333.491 301.929 333.203 301.78C332.926 301.62 332.558 301.54 332.099 301.54C331.779 301.54 331.464 301.583 331.155 301.668C330.846 301.743 330.547 301.849 330.259 301.988C329.971 302.127 329.699 302.271 329.443 302.42L328.851 301.348C329.139 301.177 329.47 301.007 329.843 300.836C330.216 300.655 330.616 300.511 331.043 300.404C331.48 300.297 331.923 300.244 332.371 300.244C333.096 300.244 333.699 300.377 334.179 300.644C334.659 300.911 335.022 301.289 335.267 301.78C335.512 302.271 335.635 302.863 335.635 303.556V308.26H334.339L334.211 307.252H334.163C333.747 307.572 333.278 307.855 332.755 308.1C332.232 308.335 331.704 308.452 331.171 308.452ZM331.619 307.188C332.035 307.188 332.446 307.097 332.851 306.916C333.256 306.735 333.656 306.479 334.051 306.148V304.292C333.027 304.367 332.222 304.484 331.635 304.644C331.059 304.804 330.654 305.007 330.419 305.252C330.184 305.487 330.067 305.764 330.067 306.084C330.067 306.34 330.136 306.553 330.275 306.724C330.424 306.884 330.616 307.001 330.851 307.076C331.086 307.151 331.342 307.188 331.619 307.188ZM339.477 308.26V300.436H340.789L340.917 302.26H340.965C341.37 301.62 341.866 301.124 342.453 300.772C343.039 300.42 343.679 300.244 344.373 300.244C344.671 300.244 344.943 300.271 345.189 300.324C345.434 300.377 345.674 300.457 345.909 300.564L345.557 301.924C345.29 301.828 345.061 301.764 344.869 301.732C344.677 301.689 344.431 301.668 344.133 301.668C343.567 301.668 343.023 301.828 342.501 302.148C341.978 302.468 341.498 303.023 341.061 303.812V308.26H339.477ZM352.503 308.452C351.713 308.452 350.993 308.292 350.342 307.972C349.702 307.652 349.196 307.183 348.822 306.564C348.449 305.945 348.262 305.204 348.262 304.34C348.262 303.487 348.449 302.756 348.822 302.148C349.206 301.54 349.702 301.071 350.31 300.74C350.918 300.409 351.569 300.244 352.263 300.244C353.031 300.244 353.681 300.404 354.214 300.724C354.748 301.033 355.153 301.465 355.431 302.02C355.719 302.564 355.863 303.204 355.863 303.94C355.863 304.1 355.857 304.26 355.847 304.42C355.836 304.569 355.82 304.697 355.799 304.804H349.366V303.636H354.807L354.455 304.02C354.455 303.177 354.263 302.548 353.878 302.132C353.495 301.705 352.972 301.492 352.311 301.492C351.852 301.492 351.43 301.604 351.046 301.828C350.673 302.041 350.375 302.361 350.151 302.788C349.926 303.204 349.814 303.721 349.814 304.34C349.814 304.98 349.937 305.513 350.182 305.94C350.438 306.356 350.78 306.671 351.207 306.884C351.644 307.097 352.145 307.204 352.711 307.204C353.148 307.204 353.548 307.145 353.911 307.028C354.273 306.9 354.631 306.729 354.983 306.516L355.543 307.524C355.148 307.791 354.695 308.015 354.183 308.196C353.671 308.367 353.111 308.452 352.503 308.452ZM371.402 308.452C370.389 308.452 369.573 308.095 368.954 307.38C368.335 306.655 368.026 305.647 368.026 304.356C368.026 303.513 368.191 302.788 368.522 302.18C368.863 301.561 369.301 301.087 369.834 300.756C370.367 300.415 370.933 300.244 371.53 300.244C371.989 300.244 372.399 300.329 372.762 300.5C373.125 300.671 373.461 300.911 373.77 301.22H373.818L373.738 299.828V296.916H375.322V308.26H374.026L373.898 307.3H373.85C373.541 307.609 373.173 307.881 372.746 308.116C372.319 308.34 371.871 308.452 371.402 308.452ZM371.77 307.14C372.122 307.14 372.458 307.055 372.778 306.884C373.109 306.703 373.429 306.436 373.738 306.084V302.372C373.429 302.084 373.119 301.881 372.81 301.764C372.501 301.636 372.191 301.572 371.882 301.572C371.477 301.572 371.103 301.684 370.762 301.908C370.431 302.132 370.165 302.452 369.962 302.868C369.759 303.284 369.658 303.775 369.658 304.34C369.658 305.236 369.845 305.929 370.218 306.42C370.591 306.9 371.109 307.14 371.77 307.14ZM382.364 308.452C381.574 308.452 380.854 308.292 380.204 307.972C379.564 307.652 379.057 307.183 378.684 306.564C378.31 305.945 378.124 305.204 378.124 304.34C378.124 303.487 378.31 302.756 378.684 302.148C379.068 301.54 379.564 301.071 380.172 300.74C380.78 300.409 381.43 300.244 382.124 300.244C382.892 300.244 383.542 300.404 384.076 300.724C384.609 301.033 385.014 301.465 385.292 302.02C385.58 302.564 385.724 303.204 385.724 303.94C385.724 304.1 385.718 304.26 385.708 304.42C385.697 304.569 385.681 304.697 385.66 304.804H379.228V303.636H384.668L384.316 304.02C384.316 303.177 384.124 302.548 383.74 302.132C383.356 301.705 382.833 301.492 382.172 301.492C381.713 301.492 381.292 301.604 380.908 301.828C380.534 302.041 380.236 302.361 380.012 302.788C379.788 303.204 379.676 303.721 379.676 304.34C379.676 304.98 379.798 305.513 380.044 305.94C380.3 306.356 380.641 306.671 381.068 306.884C381.505 307.097 382.006 307.204 382.572 307.204C383.009 307.204 383.409 307.145 383.772 307.028C384.134 306.9 384.492 306.729 384.844 306.516L385.404 307.524C385.009 307.791 384.556 308.015 384.044 308.196C383.532 308.367 382.972 308.452 382.364 308.452ZM398.729 308.26V305.642H402.491V297.568H399.389V295.566C400.02 295.463 400.563 295.361 401.017 295.258C401.487 295.141 401.905 295.009 402.271 294.862C402.638 294.701 402.997 294.51 403.349 294.29H405.725V305.642H408.893V308.26H398.729ZM417.143 308.524C416.072 308.524 415.133 308.245 414.327 307.688C413.52 307.116 412.889 306.287 412.435 305.202C411.995 304.117 411.775 302.789 411.775 301.22C411.775 298.829 412.266 297.033 413.249 295.83C414.231 294.627 415.529 294.026 417.143 294.026C418.771 294.026 420.069 294.627 421.037 295.83C422.019 297.033 422.511 298.829 422.511 301.22C422.511 302.789 422.283 304.117 421.829 305.202C421.389 306.287 420.765 307.116 419.959 307.688C419.167 308.245 418.228 308.524 417.143 308.524ZM417.143 306.016C417.612 306.016 418.03 305.869 418.397 305.576C418.778 305.283 419.079 304.784 419.299 304.08C419.519 303.376 419.629 302.423 419.629 301.22C419.629 300.003 419.519 299.057 419.299 298.382C419.079 297.693 418.778 297.216 418.397 296.952C418.03 296.673 417.612 296.534 417.143 296.534C416.688 296.534 416.27 296.673 415.889 296.952C415.507 297.216 415.207 297.693 414.987 298.382C414.767 299.057 414.657 300.003 414.657 301.22C414.657 302.423 414.767 303.376 414.987 304.08C415.207 304.784 415.507 305.283 415.889 305.576C416.27 305.869 416.688 306.016 417.143 306.016ZM417.143 302.848C416.688 302.848 416.299 302.694 415.977 302.386C415.654 302.078 415.493 301.675 415.493 301.176C415.493 300.663 415.654 300.259 415.977 299.966C416.299 299.658 416.688 299.504 417.143 299.504C417.612 299.504 418.001 299.658 418.309 299.966C418.631 300.259 418.793 300.663 418.793 301.176C418.793 301.675 418.631 302.078 418.309 302.386C418.001 302.694 417.612 302.848 417.143 302.848ZM430.694 308.524C429.623 308.524 428.685 308.245 427.878 307.688C427.071 307.116 426.441 306.287 425.986 305.202C425.546 304.117 425.326 302.789 425.326 301.22C425.326 298.829 425.817 297.033 426.8 295.83C427.783 294.627 429.081 294.026 430.694 294.026C432.322 294.026 433.62 294.627 434.588 295.83C435.571 297.033 436.062 298.829 436.062 301.22C436.062 302.789 435.835 304.117 435.38 305.202C434.94 306.287 434.317 307.116 433.51 307.688C432.718 308.245 431.779 308.524 430.694 308.524ZM430.694 306.016C431.163 306.016 431.581 305.869 431.948 305.576C432.329 305.283 432.63 304.784 432.85 304.08C433.07 303.376 433.18 302.423 433.18 301.22C433.18 300.003 433.07 299.057 432.85 298.382C432.63 297.693 432.329 297.216 431.948 296.952C431.581 296.673 431.163 296.534 430.694 296.534C430.239 296.534 429.821 296.673 429.44 296.952C429.059 297.216 428.758 297.693 428.538 298.382C428.318 299.057 428.208 300.003 428.208 301.22C428.208 302.423 428.318 303.376 428.538 304.08C428.758 304.784 429.059 305.283 429.44 305.576C429.821 305.869 430.239 306.016 430.694 306.016ZM430.694 302.848C430.239 302.848 429.851 302.694 429.528 302.386C429.205 302.078 429.044 301.675 429.044 301.176C429.044 300.663 429.205 300.259 429.528 299.966C429.851 299.658 430.239 299.504 430.694 299.504C431.163 299.504 431.552 299.658 431.86 299.966C432.183 300.259 432.344 300.663 432.344 301.176C432.344 301.675 432.183 302.078 431.86 302.386C431.552 302.694 431.163 302.848 430.694 302.848ZM444.245 308.524C443.175 308.524 442.236 308.245 441.429 307.688C440.623 307.116 439.992 306.287 439.537 305.202C439.097 304.117 438.877 302.789 438.877 301.22C438.877 298.829 439.369 297.033 440.351 295.83C441.334 294.627 442.632 294.026 444.245 294.026C445.873 294.026 447.171 294.627 448.139 295.83C449.122 297.033 449.613 298.829 449.613 301.22C449.613 302.789 449.386 304.117 448.931 305.202C448.491 306.287 447.868 307.116 447.061 307.688C446.269 308.245 445.331 308.524 444.245 308.524ZM444.245 306.016C444.715 306.016 445.133 305.869 445.499 305.576C445.881 305.283 446.181 304.784 446.401 304.08C446.621 303.376 446.731 302.423 446.731 301.22C446.731 300.003 446.621 299.057 446.401 298.382C446.181 297.693 445.881 297.216 445.499 296.952C445.133 296.673 444.715 296.534 444.245 296.534C443.791 296.534 443.373 296.673 442.991 296.952C442.61 297.216 442.309 297.693 442.089 298.382C441.869 299.057 441.759 300.003 441.759 301.22C441.759 302.423 441.869 303.376 442.089 304.08C442.309 304.784 442.61 305.283 442.991 305.576C443.373 305.869 443.791 306.016 444.245 306.016ZM444.245 302.848C443.791 302.848 443.402 302.694 443.079 302.386C442.757 302.078 442.595 301.675 442.595 301.176C442.595 300.663 442.757 300.259 443.079 299.966C443.402 299.658 443.791 299.504 444.245 299.504C444.715 299.504 445.103 299.658 445.411 299.966C445.734 300.259 445.895 300.663 445.895 301.176C445.895 301.675 445.734 302.078 445.411 302.386C445.103 302.694 444.715 302.848 444.245 302.848ZM459.579 308.524C458.391 308.524 457.328 308.253 456.389 307.71C455.465 307.167 454.732 306.361 454.189 305.29C453.646 304.219 453.375 302.907 453.375 301.352C453.375 299.812 453.646 298.499 454.189 297.414C454.746 296.314 455.509 295.478 456.477 294.906C457.445 294.319 458.56 294.026 459.821 294.026C460.569 294.026 461.295 294.18 461.999 294.488C462.703 294.781 463.319 295.199 463.847 295.742L462.065 297.48C461.728 297.201 461.368 296.974 460.987 296.798C460.606 296.622 460.18 296.534 459.711 296.534C459.036 296.534 458.472 296.725 458.017 297.106C457.562 297.473 457.21 298.008 456.961 298.712C456.726 299.416 456.609 300.259 456.609 301.242C456.609 302.254 456.734 303.119 456.983 303.838C457.247 304.542 457.614 305.085 458.083 305.466C458.552 305.833 459.117 306.016 459.777 306.016C460.29 306.016 460.745 305.913 461.141 305.708C461.537 305.488 461.904 305.195 462.241 304.828L464.023 306.5C463.436 307.145 462.769 307.644 462.021 307.996C461.288 308.348 460.474 308.524 459.579 308.524ZM452.187 300.714V299.196L453.815 299.086H462.395V300.714H452.187ZM452.187 303.442V301.946L453.815 301.814H461.515V303.442H452.187Z" fill="#091931"/>
</g>
<rect x="524.5" y="246.76" width="7" height="88" rx="3.5" fill="#FFC947"/>
<defs>
<filter id="filter0_d_35_1179" x="-44.5" y="0.76001" width="811" height="588" filterUnits="userSpaceOnUse" color-interpolation-filters="sRGB">
<feFlood flood-opacity="0" result="BackgroundImageFix"/>
<feColorMatrix in="SourceAlpha" type="matrix" values="0 0 0 0 0 0 0 0 0 0 0 0 0 0 0 0 0 0 127 0" result="hardAlpha"/>
<feOffset dy="4"/>
<feGaussianBlur stdDeviation="125"/>
<feComposite in2="hardAlpha" operator="out"/>
<feColorMatrix type="matrix" values="0 0 0 0 1 0 0 0 0 1 0 0 0 0 1 0 0 0 0.37 0"/>
<feBlend mode="normal" in2="BackgroundImageFix" result="effect1_dropShadow_35_1179"/>
<feBlend mode="normal" in="SourceGraphic" in2="effect1_dropShadow_35_1179" result="shape"/>
</filter>
<clipPath id="clip0_35_1179">
<rect width="24" height="24" fill="white" transform="translate(237.5 278.76)"/>
</clipPath>
</defs>
</svg>
