<svg width="770" height="589" viewBox="0 0 770 589" fill="none" xmlns="http://www.w3.org/2000/svg">
<rect x="193.5" y="246.76" width="7" height="88" rx="3.5" fill="#FFC947"/>
<g filter="url(#filter0_d_35_1179)">
<rect x="208.5" y="246.76" width="311" height="88" rx="6" fill="white" shape-rendering="crispEdges"/>
<rect x="234.5" y="272.76" width="36" height="36" rx="6" fill="#091931"/>
<g clip-path="url(#clip0_35_1179)">
<path d="M259.925 289.673C259.925 287.798 259.213 286.073 258.05 284.76V281.798C258.05 280.485 257 279.435 255.688 279.435H249.313C248 279.435 246.95 280.485 246.95 281.798V284.76C245.788 286.073 245.075 287.798 245.075 289.673C245.075 291.548 245.788 293.273 246.95 294.585V300.923C246.95 301.335 247.175 301.71 247.513 301.935C247.7 302.048 247.888 302.085 248.113 302.085C248.3 302.085 248.488 302.048 248.638 301.935L252.425 299.985C252.463 299.948 252.5 299.948 252.538 299.985L256.325 301.935C256.7 302.123 257.113 302.123 257.45 301.898C257.788 301.673 258.013 301.298 258.013 300.885V294.585C259.213 293.273 259.925 291.548 259.925 289.673ZM249.313 281.123H255.65C256.025 281.123 256.325 281.423 256.325 281.798V283.335C255.2 282.66 253.888 282.248 252.463 282.248C251.038 282.248 249.725 282.66 248.6 283.335V281.798C248.638 281.423 248.938 281.123 249.313 281.123ZM252.5 283.935C255.65 283.935 258.238 286.523 258.238 289.673C258.238 292.823 255.65 295.41 252.5 295.41C249.35 295.41 246.763 292.823 246.763 289.673C246.763 286.523 249.35 283.935 252.5 283.935ZM253.288 298.523C252.763 298.26 252.2 298.26 251.675 298.523L248.638 300.098V296.01C249.763 296.685 251.075 297.098 252.5 297.098C253.925 297.098 255.238 296.685 256.363 296.01V300.06L253.288 298.523Z" fill="#FFC947"/>
<path d="M252.5 293.123C254.412 293.123 255.95 291.585 255.95 289.673C255.95 287.76 254.412 286.223 252.5 286.223C250.587 286.223 249.05 287.76 249.05 289.673C249.05 291.585 250.587 293.123 252.5 293.123ZM252.5 287.91C253.475 287.91 254.262 288.698 254.262 289.673C254.262 290.648 253.475 291.435 252.5 291.435C251.525 291.435 250.737 290.648 250.737 289.673C250.737 288.698 251.525 287.91 252.5 287.91Z" fill="#FFC947"/>
</g>
<path d="M292.02 284.26V273.78H295.332C296.1 273.78 296.777 273.881 297.364 274.084C297.961 274.276 298.425 274.607 298.756 275.076C299.087 275.535 299.252 276.153 299.252 276.932C299.252 277.689 299.081 278.313 298.74 278.804C298.409 279.295 297.945 279.663 297.348 279.908C296.761 280.143 296.089 280.26 295.332 280.26H293.62V284.26H292.02ZM293.62 278.964H295.172C296.025 278.964 296.655 278.799 297.06 278.468C297.465 278.137 297.668 277.625 297.668 276.932C297.668 276.228 297.46 275.743 297.044 275.476C296.628 275.199 296.004 275.06 295.172 275.06H293.62V278.964ZM302.662 284.26V276.436H303.974L304.102 278.26H304.15C304.555 277.62 305.051 277.124 305.638 276.772C306.224 276.42 306.864 276.244 307.558 276.244C307.856 276.244 308.128 276.271 308.374 276.324C308.619 276.377 308.859 276.457 309.094 276.564L308.742 277.924C308.475 277.828 308.246 277.764 308.054 277.732C307.862 277.689 307.616 277.668 307.318 277.668C306.752 277.668 306.208 277.828 305.686 278.148C305.163 278.468 304.683 279.023 304.246 279.812V284.26H302.662ZM315.687 284.452C314.898 284.452 314.178 284.292 313.527 283.972C312.887 283.652 312.381 283.183 312.007 282.564C311.634 281.945 311.447 281.204 311.447 280.34C311.447 279.487 311.634 278.756 312.007 278.148C312.391 277.54 312.887 277.071 313.495 276.74C314.103 276.409 314.754 276.244 315.447 276.244C316.215 276.244 316.866 276.404 317.399 276.724C317.933 277.033 318.338 277.465 318.615 278.02C318.903 278.564 319.047 279.204 319.047 279.94C319.047 280.1 319.042 280.26 319.031 280.42C319.021 280.569 319.005 280.697 318.983 280.804H312.551V279.636H317.991L317.639 280.02C317.639 279.177 317.447 278.548 317.063 278.132C316.679 277.705 316.157 277.492 315.495 277.492C315.037 277.492 314.615 277.604 314.231 277.828C313.858 278.041 313.559 278.361 313.335 278.788C313.111 279.204 312.999 279.721 312.999 280.34C312.999 280.98 313.122 281.513 313.367 281.94C313.623 282.356 313.965 282.671 314.391 282.884C314.829 283.097 315.33 283.204 315.895 283.204C316.333 283.204 316.733 283.145 317.095 283.028C317.458 282.9 317.815 282.729 318.167 282.516L318.727 283.524C318.333 283.791 317.879 284.015 317.367 284.196C316.855 284.367 316.295 284.452 315.687 284.452ZM321.193 284.26V276.436H322.441L322.569 277.46H322.601C322.793 277.108 323.023 276.82 323.289 276.596C323.556 276.361 323.913 276.244 324.361 276.244C324.735 276.244 325.044 276.356 325.289 276.58C325.535 276.804 325.705 277.14 325.801 277.588C326.015 277.183 326.255 276.857 326.521 276.612C326.799 276.367 327.161 276.244 327.609 276.244C328.164 276.244 328.591 276.457 328.889 276.884C329.199 277.311 329.353 277.913 329.353 278.692V284.26H327.801V278.804C327.801 278.004 327.561 277.604 327.081 277.604C326.847 277.604 326.649 277.695 326.489 277.876C326.329 278.057 326.153 278.329 325.961 278.692V284.26H324.585V278.804C324.585 278.409 324.527 278.111 324.409 277.908C324.303 277.705 324.127 277.604 323.881 277.604C323.647 277.604 323.439 277.695 323.257 277.876C323.087 278.057 322.916 278.329 322.745 278.692V284.26H321.193ZM335.211 284.26V277.716H331.707V276.436H336.795V284.26H335.211ZM335.867 274.916C335.526 274.916 335.243 274.815 335.019 274.612C334.795 274.399 334.683 274.121 334.683 273.78C334.683 273.439 334.795 273.167 335.019 272.964C335.243 272.751 335.526 272.644 335.867 272.644C336.208 272.644 336.491 272.751 336.715 272.964C336.939 273.167 337.051 273.439 337.051 273.78C337.051 274.121 336.939 274.399 336.715 274.612C336.491 274.815 336.208 274.916 335.867 274.916ZM345.165 284.26V277.716H341.661V276.436H346.749V284.26H345.165ZM345.821 274.916C345.479 274.916 345.197 274.815 344.973 274.612C344.749 274.399 344.637 274.121 344.637 273.78C344.637 273.439 344.749 273.167 344.973 272.964C345.197 272.751 345.479 272.644 345.821 272.644C346.162 272.644 346.445 272.751 346.669 272.964C346.893 273.167 347.005 273.439 347.005 273.78C347.005 274.121 346.893 274.399 346.669 274.612C346.445 274.815 346.162 274.916 345.821 274.916ZM356.671 284.452C355.807 284.452 355.145 284.201 354.687 283.7C354.228 283.188 353.999 282.463 353.999 281.524V274.196H351.39V272.916H355.582V281.62C355.582 282.164 355.721 282.559 355.999 282.804C356.276 283.039 356.623 283.156 357.039 283.156C357.252 283.156 357.47 283.129 357.694 283.076C357.929 283.023 358.185 282.937 358.463 282.82L358.847 284.004C358.473 284.132 358.127 284.239 357.807 284.324C357.497 284.409 357.119 284.452 356.671 284.452ZM365.456 284.452C364.667 284.452 363.947 284.292 363.296 283.972C362.656 283.652 362.15 283.183 361.776 282.564C361.403 281.945 361.216 281.204 361.216 280.34C361.216 279.487 361.403 278.756 361.776 278.148C362.16 277.54 362.656 277.071 363.264 276.74C363.872 276.409 364.523 276.244 365.216 276.244C365.984 276.244 366.635 276.404 367.168 276.724C367.702 277.033 368.107 277.465 368.384 278.02C368.672 278.564 368.816 279.204 368.816 279.94C368.816 280.1 368.811 280.26 368.8 280.42C368.79 280.569 368.774 280.697 368.752 280.804H362.32V279.636H367.76L367.408 280.02C367.408 279.177 367.216 278.548 366.832 278.132C366.448 277.705 365.926 277.492 365.264 277.492C364.806 277.492 364.384 277.604 364 277.828C363.627 278.041 363.328 278.361 363.104 278.788C362.88 279.204 362.768 279.721 362.768 280.34C362.768 280.98 362.891 281.513 363.136 281.94C363.392 282.356 363.734 282.671 364.16 282.884C364.598 283.097 365.099 283.204 365.664 283.204C366.102 283.204 366.502 283.145 366.864 283.028C367.227 282.9 367.584 282.729 367.936 282.516L368.496 283.524C368.102 283.791 367.648 284.015 367.136 284.196C366.624 284.367 366.064 284.452 365.456 284.452ZM381.492 287.46V276.436H382.788L382.916 277.396H382.964C383.316 277.065 383.721 276.793 384.18 276.58C384.638 276.356 385.102 276.244 385.572 276.244C386.265 276.244 386.846 276.409 387.316 276.74C387.796 277.071 388.158 277.535 388.404 278.132C388.66 278.729 388.788 279.428 388.788 280.228C388.788 281.124 388.622 281.887 388.292 282.516C387.961 283.145 387.529 283.625 386.996 283.956C386.462 284.287 385.886 284.452 385.268 284.452C384.916 284.452 384.537 284.367 384.132 284.196C383.737 284.025 383.374 283.791 383.044 283.492H382.996L383.076 284.9V287.46H381.492ZM384.964 283.14C385.38 283.14 385.753 283.028 386.084 282.804C386.414 282.58 386.676 282.255 386.868 281.828C387.06 281.391 387.156 280.863 387.156 280.244C387.156 279.7 387.081 279.231 386.932 278.836C386.793 278.431 386.58 278.121 386.292 277.908C386.004 277.684 385.62 277.572 385.14 277.572C384.82 277.572 384.484 277.657 384.132 277.828C383.78 277.988 383.428 278.255 383.076 278.628V282.324C383.406 282.612 383.742 282.82 384.084 282.948C384.425 283.076 384.718 283.14 384.964 283.14ZM392.245 284.26V276.436H393.557L393.685 278.26H393.733C394.139 277.62 394.635 277.124 395.221 276.772C395.808 276.42 396.448 276.244 397.141 276.244C397.44 276.244 397.712 276.271 397.957 276.324C398.203 276.377 398.443 276.457 398.677 276.564L398.325 277.924C398.059 277.828 397.829 277.764 397.637 277.732C397.445 277.689 397.2 277.668 396.901 277.668C396.336 277.668 395.792 277.828 395.269 278.148C394.747 278.468 394.267 279.023 393.829 279.812V284.26H392.245ZM404.791 284.452C404.109 284.452 403.469 284.292 402.871 283.972C402.285 283.652 401.805 283.188 401.431 282.58C401.069 281.961 400.887 281.22 400.887 280.356C400.887 279.492 401.069 278.756 401.431 278.148C401.805 277.529 402.285 277.06 402.871 276.74C403.469 276.409 404.109 276.244 404.791 276.244C405.474 276.244 406.109 276.409 406.695 276.74C407.293 277.06 407.773 277.529 408.135 278.148C408.509 278.756 408.695 279.492 408.695 280.356C408.695 281.22 408.509 281.961 408.135 282.58C407.773 283.188 407.293 283.652 406.695 283.972C406.109 284.292 405.474 284.452 404.791 284.452ZM404.791 283.156C405.25 283.156 405.65 283.039 405.991 282.804C406.333 282.569 406.594 282.244 406.775 281.828C406.967 281.412 407.063 280.921 407.063 280.356C407.063 279.801 406.967 279.316 406.775 278.9C406.594 278.473 406.333 278.143 405.991 277.908C405.65 277.673 405.25 277.556 404.791 277.556C404.333 277.556 403.933 277.673 403.591 277.908C403.25 278.143 402.983 278.473 402.791 278.9C402.61 279.316 402.519 279.801 402.519 280.356C402.519 280.921 402.61 281.412 402.791 281.828C402.983 282.244 403.25 282.569 403.591 282.804C403.933 283.039 404.333 283.156 404.791 283.156ZM415.145 284.452C414.761 284.452 414.361 284.361 413.945 284.18C413.529 283.988 413.145 283.727 412.793 283.396H412.745L412.601 284.26H411.353V272.916H412.937V275.924L412.873 277.364H412.921C413.262 277.023 413.652 276.751 414.089 276.548C414.537 276.345 414.98 276.244 415.417 276.244C416.11 276.244 416.697 276.409 417.177 276.74C417.657 277.071 418.02 277.535 418.265 278.132C418.521 278.719 418.649 279.417 418.649 280.228C418.649 281.113 418.484 281.876 418.153 282.516C417.822 283.145 417.39 283.625 416.857 283.956C416.334 284.287 415.764 284.452 415.145 284.452ZM414.841 283.14C415.257 283.14 415.625 283.028 415.945 282.804C416.276 282.58 416.537 282.255 416.729 281.828C416.921 281.391 417.017 280.863 417.017 280.244C417.017 279.7 416.942 279.231 416.793 278.836C416.654 278.431 416.441 278.121 416.153 277.908C415.865 277.684 415.481 277.572 415.001 277.572C414.681 277.572 414.345 277.657 413.993 277.828C413.641 277.988 413.289 278.255 412.937 278.628V282.324C413.268 282.612 413.604 282.82 413.945 282.948C414.286 283.076 414.585 283.14 414.841 283.14ZM425.179 284.452C424.389 284.452 423.669 284.292 423.019 283.972C422.379 283.652 421.872 283.183 421.499 282.564C421.125 281.945 420.939 281.204 420.939 280.34C420.939 279.487 421.125 278.756 421.499 278.148C421.883 277.54 422.379 277.071 422.987 276.74C423.595 276.409 424.245 276.244 424.939 276.244C425.707 276.244 426.357 276.404 426.891 276.724C427.424 277.033 427.829 277.465 428.107 278.02C428.395 278.564 428.539 279.204 428.539 279.94C428.539 280.1 428.533 280.26 428.523 280.42C428.512 280.569 428.496 280.697 428.475 280.804H422.043V279.636H427.483L427.131 280.02C427.131 279.177 426.939 278.548 426.555 278.132C426.171 277.705 425.648 277.492 424.987 277.492C424.528 277.492 424.107 277.604 423.723 277.828C423.349 278.041 423.051 278.361 422.827 278.788C422.603 279.204 422.491 279.721 422.491 280.34C422.491 280.98 422.613 281.513 422.859 281.94C423.115 282.356 423.456 282.671 423.883 282.884C424.32 283.097 424.821 283.204 425.387 283.204C425.824 283.204 426.224 283.145 426.587 283.028C426.949 282.9 427.307 282.729 427.659 282.516L428.219 283.524C427.824 283.791 427.371 284.015 426.859 284.196C426.347 284.367 425.787 284.452 425.179 284.452ZM434.748 284.26V277.716H431.244V276.436H436.332V284.26H434.748ZM435.404 274.916C435.063 274.916 434.78 274.815 434.556 274.612C434.332 274.399 434.22 274.121 434.22 273.78C434.22 273.439 434.332 273.167 434.556 272.964C434.78 272.751 435.063 272.644 435.404 272.644C435.746 272.644 436.028 272.751 436.252 272.964C436.476 273.167 436.588 273.439 436.588 273.78C436.588 274.121 436.476 274.399 436.252 274.612C436.028 274.815 435.746 274.916 435.404 274.916ZM454.656 284.26V277.716H451.152V276.436H456.24V284.26H454.656ZM453.36 275.204L452.72 274.596L454.512 272.404H456.112L457.904 274.596L457.264 275.204L455.344 273.476H455.28L453.36 275.204ZM461.122 284.26V276.436H462.418L462.546 277.7H462.61C463.004 277.295 463.431 276.953 463.89 276.676C464.348 276.388 464.882 276.244 465.49 276.244C466.396 276.244 467.063 276.521 467.49 277.076C467.927 277.62 468.146 278.399 468.146 279.412V284.26H466.562V279.62C466.562 278.937 466.434 278.436 466.178 278.116C465.932 277.785 465.516 277.62 464.93 277.62C464.514 277.62 464.14 277.727 463.81 277.94C463.479 278.143 463.111 278.452 462.706 278.868V284.26H461.122ZM294.436 308.26L291.236 300.436H292.836L294.484 304.692C294.633 305.076 294.777 305.465 294.916 305.86C295.055 306.244 295.188 306.628 295.316 307.012H295.38C295.519 306.628 295.652 306.244 295.78 305.86C295.908 305.465 296.047 305.076 296.196 304.692L297.844 300.436H299.364L296.228 308.26H294.436ZM304.31 308.452C303.808 308.452 303.355 308.361 302.95 308.18C302.555 307.988 302.24 307.727 302.006 307.396C301.782 307.055 301.67 306.655 301.67 306.196C301.67 305.321 302.096 304.655 302.95 304.196C303.814 303.737 305.227 303.433 307.19 303.284C307.179 302.964 307.104 302.671 306.966 302.404C306.838 302.137 306.63 301.929 306.342 301.78C306.064 301.62 305.696 301.54 305.238 301.54C304.918 301.54 304.603 301.583 304.294 301.668C303.984 301.743 303.686 301.849 303.398 301.988C303.11 302.127 302.838 302.271 302.582 302.42L301.99 301.348C302.278 301.177 302.608 301.007 302.982 300.836C303.355 300.655 303.755 300.511 304.182 300.404C304.619 300.297 305.062 300.244 305.51 300.244C306.235 300.244 306.838 300.377 307.318 300.644C307.798 300.911 308.16 301.289 308.406 301.78C308.651 302.271 308.774 302.863 308.774 303.556V308.26H307.478L307.35 307.252H307.302C306.886 307.572 306.416 307.855 305.894 308.1C305.371 308.335 304.843 308.452 304.31 308.452ZM304.758 307.188C305.174 307.188 305.584 307.097 305.99 306.916C306.395 306.735 306.795 306.479 307.19 306.148V304.292C306.166 304.367 305.36 304.484 304.774 304.644C304.198 304.804 303.792 305.007 303.558 305.252C303.323 305.487 303.206 305.764 303.206 306.084C303.206 306.34 303.275 306.553 303.414 306.724C303.563 306.884 303.755 307.001 303.99 307.076C304.224 307.151 304.48 307.188 304.758 307.188ZM316.855 308.452C315.991 308.452 315.33 308.201 314.871 307.7C314.413 307.188 314.183 306.463 314.183 305.524V298.196H311.575V296.916H315.767V305.62C315.767 306.164 315.906 306.559 316.183 306.804C316.461 307.039 316.807 307.156 317.223 307.156C317.437 307.156 317.655 307.129 317.879 307.076C318.114 307.023 318.37 306.937 318.648 306.82L319.031 308.004C318.658 308.132 318.311 308.239 317.991 308.324C317.682 308.409 317.303 308.452 316.855 308.452ZM325.161 308.452C324.479 308.452 323.839 308.292 323.241 307.972C322.655 307.652 322.175 307.188 321.801 306.58C321.439 305.961 321.257 305.22 321.257 304.356C321.257 303.492 321.439 302.756 321.801 302.148C322.175 301.529 322.655 301.06 323.241 300.74C323.839 300.409 324.479 300.244 325.161 300.244C325.844 300.244 326.479 300.409 327.065 300.74C327.663 301.06 328.143 301.529 328.505 302.148C328.879 302.756 329.065 303.492 329.065 304.356C329.065 305.22 328.879 305.961 328.505 306.58C328.143 307.188 327.663 307.652 327.065 307.972C326.479 308.292 325.844 308.452 325.161 308.452ZM325.161 307.156C325.62 307.156 326.02 307.039 326.361 306.804C326.703 306.569 326.964 306.244 327.145 305.828C327.337 305.412 327.433 304.921 327.433 304.356C327.433 303.801 327.337 303.316 327.145 302.9C326.964 302.473 326.703 302.143 326.361 301.908C326.02 301.673 325.62 301.556 325.161 301.556C324.703 301.556 324.303 301.673 323.961 301.908C323.62 302.143 323.353 302.473 323.161 302.9C322.98 303.316 322.889 303.801 322.889 304.356C322.889 304.921 322.98 305.412 323.161 305.828C323.353 306.244 323.62 306.569 323.961 306.804C324.303 307.039 324.703 307.156 325.161 307.156ZM334.171 308.452C333.67 308.452 333.216 308.361 332.811 308.18C332.416 307.988 332.102 307.727 331.867 307.396C331.643 307.055 331.531 306.655 331.531 306.196C331.531 305.321 331.958 304.655 332.811 304.196C333.675 303.737 335.088 303.433 337.051 303.284C337.04 302.964 336.966 302.671 336.827 302.404C336.699 302.137 336.491 301.929 336.203 301.78C335.926 301.62 335.558 301.54 335.099 301.54C334.779 301.54 334.464 301.583 334.155 301.668C333.846 301.743 333.547 301.849 333.259 301.988C332.971 302.127 332.699 302.271 332.443 302.42L331.851 301.348C332.139 301.177 332.47 301.007 332.843 300.836C333.216 300.655 333.616 300.511 334.043 300.404C334.48 300.297 334.923 300.244 335.371 300.244C336.096 300.244 336.699 300.377 337.179 300.644C337.659 300.911 338.022 301.289 338.267 301.78C338.512 302.271 338.635 302.863 338.635 303.556V308.26H337.339L337.211 307.252H337.163C336.747 307.572 336.278 307.855 335.755 308.1C335.232 308.335 334.704 308.452 334.171 308.452ZM334.619 307.188C335.035 307.188 335.446 307.097 335.851 306.916C336.256 306.735 336.656 306.479 337.051 306.148V304.292C336.027 304.367 335.222 304.484 334.635 304.644C334.059 304.804 333.654 305.007 333.419 305.252C333.184 305.487 333.067 305.764 333.067 306.084C333.067 306.34 333.136 306.553 333.275 306.724C333.424 306.884 333.616 307.001 333.851 307.076C334.086 307.151 334.342 307.188 334.619 307.188ZM342.477 308.26V300.436H343.789L343.917 302.26H343.965C344.37 301.62 344.866 301.124 345.453 300.772C346.039 300.42 346.679 300.244 347.373 300.244C347.671 300.244 347.943 300.271 348.189 300.324C348.434 300.377 348.674 300.457 348.909 300.564L348.557 301.924C348.29 301.828 348.061 301.764 347.869 301.732C347.677 301.689 347.431 301.668 347.133 301.668C346.567 301.668 346.023 301.828 345.501 302.148C344.978 302.468 344.498 303.023 344.061 303.812V308.26H342.477ZM355.503 308.452C354.713 308.452 353.993 308.292 353.342 307.972C352.702 307.652 352.196 307.183 351.822 306.564C351.449 305.945 351.262 305.204 351.262 304.34C351.262 303.487 351.449 302.756 351.822 302.148C352.206 301.54 352.702 301.071 353.31 300.74C353.918 300.409 354.569 300.244 355.263 300.244C356.031 300.244 356.681 300.404 357.214 300.724C357.748 301.033 358.153 301.465 358.431 302.02C358.719 302.564 358.863 303.204 358.863 303.94C358.863 304.1 358.857 304.26 358.847 304.42C358.836 304.569 358.82 304.697 358.799 304.804H352.366V303.636H357.807L357.455 304.02C357.455 303.177 357.263 302.548 356.878 302.132C356.495 301.705 355.972 301.492 355.311 301.492C354.852 301.492 354.43 301.604 354.046 301.828C353.673 302.041 353.375 302.361 353.151 302.788C352.926 303.204 352.814 303.721 352.814 304.34C352.814 304.98 352.937 305.513 353.182 305.94C353.438 306.356 353.78 306.671 354.207 306.884C354.644 307.097 355.145 307.204 355.711 307.204C356.148 307.204 356.548 307.145 356.911 307.028C357.273 306.9 357.631 306.729 357.983 306.516L358.543 307.524C358.148 307.791 357.695 308.015 357.183 308.196C356.671 308.367 356.111 308.452 355.503 308.452ZM374.402 308.452C373.389 308.452 372.573 308.095 371.954 307.38C371.335 306.655 371.026 305.647 371.026 304.356C371.026 303.513 371.191 302.788 371.522 302.18C371.863 301.561 372.301 301.087 372.834 300.756C373.367 300.415 373.933 300.244 374.53 300.244C374.989 300.244 375.399 300.329 375.762 300.5C376.125 300.671 376.461 300.911 376.77 301.22H376.818L376.738 299.828V296.916H378.322V308.26H377.026L376.898 307.3H376.85C376.541 307.609 376.173 307.881 375.746 308.116C375.319 308.34 374.871 308.452 374.402 308.452ZM374.77 307.14C375.122 307.14 375.458 307.055 375.778 306.884C376.109 306.703 376.429 306.436 376.738 306.084V302.372C376.429 302.084 376.119 301.881 375.81 301.764C375.501 301.636 375.191 301.572 374.882 301.572C374.477 301.572 374.103 301.684 373.762 301.908C373.431 302.132 373.165 302.452 372.962 302.868C372.759 303.284 372.658 303.775 372.658 304.34C372.658 305.236 372.845 305.929 373.218 306.42C373.591 306.9 374.109 307.14 374.77 307.14ZM385.364 308.452C384.574 308.452 383.854 308.292 383.204 307.972C382.564 307.652 382.057 307.183 381.684 306.564C381.31 305.945 381.124 305.204 381.124 304.34C381.124 303.487 381.31 302.756 381.684 302.148C382.068 301.54 382.564 301.071 383.172 300.74C383.78 300.409 384.43 300.244 385.124 300.244C385.892 300.244 386.542 300.404 387.076 300.724C387.609 301.033 388.014 301.465 388.292 302.02C388.58 302.564 388.724 303.204 388.724 303.94C388.724 304.1 388.718 304.26 388.708 304.42C388.697 304.569 388.681 304.697 388.66 304.804H382.228V303.636H387.668L387.316 304.02C387.316 303.177 387.124 302.548 386.74 302.132C386.356 301.705 385.833 301.492 385.172 301.492C384.713 301.492 384.292 301.604 383.908 301.828C383.534 302.041 383.236 302.361 383.012 302.788C382.788 303.204 382.676 303.721 382.676 304.34C382.676 304.98 382.798 305.513 383.044 305.94C383.3 306.356 383.641 306.671 384.068 306.884C384.505 307.097 385.006 307.204 385.572 307.204C386.009 307.204 386.409 307.145 386.772 307.028C387.134 306.9 387.492 306.729 387.844 306.516L388.404 307.524C388.009 307.791 387.556 308.015 387.044 308.196C386.532 308.367 385.972 308.452 385.364 308.452ZM406.129 308.524C405.337 308.524 404.611 308.436 403.951 308.26C403.306 308.099 402.727 307.871 402.213 307.578C401.7 307.285 401.267 306.94 400.915 306.544L402.411 304.498C402.881 304.909 403.409 305.246 403.995 305.51C404.582 305.774 405.191 305.906 405.821 305.906C406.32 305.906 406.767 305.847 407.163 305.73C407.559 305.598 407.867 305.407 408.087 305.158C408.322 304.909 408.439 304.608 408.439 304.256C408.439 303.845 408.315 303.493 408.065 303.2C407.816 302.892 407.383 302.657 406.767 302.496C406.166 302.335 405.315 302.254 404.215 302.254V299.966C405.139 299.966 405.873 299.885 406.415 299.724C406.958 299.563 407.354 299.343 407.603 299.064C407.853 298.785 407.977 298.463 407.977 298.096C407.977 297.597 407.794 297.216 407.427 296.952C407.061 296.688 406.555 296.556 405.909 296.556C405.367 296.556 404.853 296.666 404.369 296.886C403.9 297.091 403.423 297.392 402.939 297.788L401.311 295.808C402.001 295.251 402.741 294.818 403.533 294.51C404.325 294.187 405.169 294.026 406.063 294.026C407.075 294.026 407.97 294.18 408.747 294.488C409.525 294.781 410.126 295.214 410.551 295.786C410.991 296.343 411.211 297.033 411.211 297.854C411.211 298.573 410.977 299.189 410.507 299.702C410.038 300.215 409.385 300.633 408.549 300.956V301.044C409.136 301.205 409.664 301.44 410.133 301.748C410.617 302.041 410.991 302.415 411.255 302.87C411.534 303.325 411.673 303.853 411.673 304.454C411.673 305.319 411.417 306.06 410.903 306.676C410.39 307.277 409.715 307.739 408.879 308.062C408.043 308.37 407.127 308.524 406.129 308.524ZM419.681 308.524C418.889 308.524 418.163 308.436 417.503 308.26C416.857 308.099 416.278 307.871 415.765 307.578C415.251 307.285 414.819 306.94 414.467 306.544L415.963 304.498C416.432 304.909 416.96 305.246 417.547 305.51C418.133 305.774 418.742 305.906 419.373 305.906C419.871 305.906 420.319 305.847 420.715 305.73C421.111 305.598 421.419 305.407 421.639 305.158C421.873 304.909 421.991 304.608 421.991 304.256C421.991 303.845 421.866 303.493 421.617 303.2C421.367 302.892 420.935 302.657 420.319 302.496C419.717 302.335 418.867 302.254 417.767 302.254V299.966C418.691 299.966 419.424 299.885 419.967 299.724C420.509 299.563 420.905 299.343 421.155 299.064C421.404 298.785 421.529 298.463 421.529 298.096C421.529 297.597 421.345 297.216 420.979 296.952C420.612 296.688 420.106 296.556 419.461 296.556C418.918 296.556 418.405 296.666 417.921 296.886C417.451 297.091 416.975 297.392 416.491 297.788L414.863 295.808C415.552 295.251 416.293 294.818 417.085 294.51C417.877 294.187 418.72 294.026 419.615 294.026C420.627 294.026 421.521 294.18 422.299 294.488C423.076 294.781 423.677 295.214 424.103 295.786C424.543 296.343 424.763 297.033 424.763 297.854C424.763 298.573 424.528 299.189 424.059 299.702C423.589 300.215 422.937 300.633 422.101 300.956V301.044C422.687 301.205 423.215 301.44 423.685 301.748C424.169 302.041 424.543 302.415 424.807 302.87C425.085 303.325 425.225 303.853 425.225 304.454C425.225 305.319 424.968 306.06 424.455 306.676C423.941 307.277 423.267 307.739 422.431 308.062C421.595 308.37 420.678 308.524 419.681 308.524ZM433.694 308.524C432.623 308.524 431.685 308.245 430.878 307.688C430.071 307.116 429.441 306.287 428.986 305.202C428.546 304.117 428.326 302.789 428.326 301.22C428.326 298.829 428.817 297.033 429.8 295.83C430.783 294.627 432.081 294.026 433.694 294.026C435.322 294.026 436.62 294.627 437.588 295.83C438.571 297.033 439.062 298.829 439.062 301.22C439.062 302.789 438.835 304.117 438.38 305.202C437.94 306.287 437.317 307.116 436.51 307.688C435.718 308.245 434.779 308.524 433.694 308.524ZM433.694 306.016C434.163 306.016 434.581 305.869 434.948 305.576C435.329 305.283 435.63 304.784 435.85 304.08C436.07 303.376 436.18 302.423 436.18 301.22C436.18 300.003 436.07 299.057 435.85 298.382C435.63 297.693 435.329 297.216 434.948 296.952C434.581 296.673 434.163 296.534 433.694 296.534C433.239 296.534 432.821 296.673 432.44 296.952C432.059 297.216 431.758 297.693 431.538 298.382C431.318 299.057 431.208 300.003 431.208 301.22C431.208 302.423 431.318 303.376 431.538 304.08C431.758 304.784 432.059 305.283 432.44 305.576C432.821 305.869 433.239 306.016 433.694 306.016ZM433.694 302.848C433.239 302.848 432.851 302.694 432.528 302.386C432.205 302.078 432.044 301.675 432.044 301.176C432.044 300.663 432.205 300.259 432.528 299.966C432.851 299.658 433.239 299.504 433.694 299.504C434.163 299.504 434.552 299.658 434.86 299.966C435.183 300.259 435.344 300.663 435.344 301.176C435.344 301.675 435.183 302.078 434.86 302.386C434.552 302.694 434.163 302.848 433.694 302.848ZM447.245 308.524C446.175 308.524 445.236 308.245 444.429 307.688C443.623 307.116 442.992 306.287 442.537 305.202C442.097 304.117 441.877 302.789 441.877 301.22C441.877 298.829 442.369 297.033 443.351 295.83C444.334 294.627 445.632 294.026 447.245 294.026C448.873 294.026 450.171 294.627 451.139 295.83C452.122 297.033 452.613 298.829 452.613 301.22C452.613 302.789 452.386 304.117 451.931 305.202C451.491 306.287 450.868 307.116 450.061 307.688C449.269 308.245 448.331 308.524 447.245 308.524ZM447.245 306.016C447.715 306.016 448.133 305.869 448.499 305.576C448.881 305.283 449.181 304.784 449.401 304.08C449.621 303.376 449.731 302.423 449.731 301.22C449.731 300.003 449.621 299.057 449.401 298.382C449.181 297.693 448.881 297.216 448.499 296.952C448.133 296.673 447.715 296.534 447.245 296.534C446.791 296.534 446.373 296.673 445.991 296.952C445.61 297.216 445.309 297.693 445.089 298.382C444.869 299.057 444.759 300.003 444.759 301.22C444.759 302.423 444.869 303.376 445.089 304.08C445.309 304.784 445.61 305.283 445.991 305.576C446.373 305.869 446.791 306.016 447.245 306.016ZM447.245 302.848C446.791 302.848 446.402 302.694 446.079 302.386C445.757 302.078 445.595 301.675 445.595 301.176C445.595 300.663 445.757 300.259 446.079 299.966C446.402 299.658 446.791 299.504 447.245 299.504C447.715 299.504 448.103 299.658 448.411 299.966C448.734 300.259 448.895 300.663 448.895 301.176C448.895 301.675 448.734 302.078 448.411 302.386C448.103 302.694 447.715 302.848 447.245 302.848ZM462.579 308.524C461.391 308.524 460.328 308.253 459.389 307.71C458.465 307.167 457.732 306.361 457.189 305.29C456.646 304.219 456.375 302.907 456.375 301.352C456.375 299.812 456.646 298.499 457.189 297.414C457.746 296.314 458.509 295.478 459.477 294.906C460.445 294.319 461.56 294.026 462.821 294.026C463.569 294.026 464.295 294.18 464.999 294.488C465.703 294.781 466.319 295.199 466.847 295.742L465.065 297.48C464.728 297.201 464.368 296.974 463.987 296.798C463.606 296.622 463.18 296.534 462.711 296.534C462.036 296.534 461.472 296.725 461.017 297.106C460.562 297.473 460.21 298.008 459.961 298.712C459.726 299.416 459.609 300.259 459.609 301.242C459.609 302.254 459.734 303.119 459.983 303.838C460.247 304.542 460.614 305.085 461.083 305.466C461.552 305.833 462.117 306.016 462.777 306.016C463.29 306.016 463.745 305.913 464.141 305.708C464.537 305.488 464.904 305.195 465.241 304.828L467.023 306.5C466.436 307.145 465.769 307.644 465.021 307.996C464.288 308.348 463.474 308.524 462.579 308.524ZM455.187 300.714V299.196L456.815 299.086H465.395V300.714H455.187ZM455.187 303.442V301.946L456.815 301.814H464.515V303.442H455.187Z" fill="#091931"/>
</g>
<rect x="527.5" y="246.76" width="7" height="88" rx="3.5" fill="#FFC947"/>
<defs>
<filter id="filter0_d_35_1179" x="-41.5" y="0.76001" width="811" height="588" filterUnits="userSpaceOnUse" color-interpolation-filters="sRGB">
<feFlood flood-opacity="0" result="BackgroundImageFix"/>
<feColorMatrix in="SourceAlpha" type="matrix" values="0 0 0 0 0 0 0 0 0 0 0 0 0 0 0 0 0 0 127 0" result="hardAlpha"/>
<feOffset dy="4"/>
<feGaussianBlur stdDeviation="125"/>
<feComposite in2="hardAlpha" operator="out"/>
<feColorMatrix type="matrix" values="0 0 0 0 1 0 0 0 0 1 0 0 0 0 1 0 0 0 0.37 0"/>
<feBlend mode="normal" in2="BackgroundImageFix" result="effect1_dropShadow_35_1179"/>
<feBlend mode="normal" in="SourceGraphic" in2="effect1_dropShadow_35_1179" result="shape"/>
</filter>
<clipPath id="clip0_35_1179">
<rect width="24" height="24" fill="white" transform="translate(240.5 278.76)"/>
</clipPath>
</defs>
</svg>
