<svg width="133" height="16" viewBox="0 0 133 16" fill="none" xmlns="http://www.w3.org/2000/svg">
<path d="M0.632 12V1.504H3.8C4.57867 1.504 5.256 1.60533 5.832 1.808C6.41867 2 6.872 2.32 7.192 2.768C7.52267 3.216 7.688 3.824 7.688 4.592C7.688 5.328 7.52267 5.936 7.192 6.416C6.872 6.88533 6.41867 7.24267 5.832 7.488C5.24533 7.72267 4.568 7.84 3.8 7.84H1.96V12H0.632ZM1.96 6.752H3.64C4.55733 6.752 5.23467 6.576 5.672 6.224C6.12 5.872 6.344 5.328 6.344 4.592C6.344 3.83467 6.12 3.312 5.672 3.024C5.224 2.72533 4.54667 2.576 3.64 2.576H1.96V6.752ZM10.9298 12V4.224H12.0178L12.1298 6.064H12.1778C12.5831 5.43467 13.0844 4.93867 13.6818 4.576C14.2791 4.21333 14.9351 4.032 15.6498 4.032C15.9378 4.032 16.2044 4.05867 16.4498 4.112C16.7058 4.15467 16.9511 4.23467 17.1858 4.352L16.8818 5.488C16.6151 5.392 16.3858 5.32267 16.1938 5.28C16.0018 5.23733 15.7511 5.216 15.4418 5.216C14.8551 5.216 14.2898 5.38667 13.7458 5.728C13.2124 6.05867 12.7111 6.62933 12.2418 7.44V12H10.9298ZM23.2435 12V5.296H19.6275V4.224H24.5555V12H23.2435ZM23.7555 2.592C23.4568 2.592 23.2062 2.50133 23.0035 2.32C22.8008 2.128 22.6995 1.87733 22.6995 1.568C22.6995 1.25867 22.8008 1.01333 23.0035 0.832C23.2062 0.64 23.4568 0.544 23.7555 0.544C24.0542 0.544 24.3048 0.64 24.5075 0.832C24.7102 1.01333 24.8115 1.25867 24.8115 1.568C24.8115 1.87733 24.7102 2.128 24.5075 2.32C24.3048 2.50133 24.0542 2.592 23.7555 2.592ZM31.8773 12L28.5973 4.224H29.9253L31.7173 8.64C31.8773 9.024 32.0266 9.408 32.1653 9.792C32.3146 10.176 32.4586 10.5547 32.5973 10.928H32.6613C32.7999 10.5547 32.9386 10.176 33.0773 9.792C33.2159 9.408 33.3599 9.024 33.5093 8.64L35.3013 4.224H36.5653L33.3493 12H31.8773ZM41.311 12.192C40.831 12.192 40.3883 12.1067 39.983 11.936C39.5777 11.7547 39.2577 11.4987 39.023 11.168C38.7883 10.8373 38.671 10.4427 38.671 9.984C38.671 9.10933 39.1083 8.448 39.983 8C40.8577 7.54133 42.2977 7.232 44.303 7.072C44.2923 6.72 44.2177 6.39467 44.079 6.096C43.951 5.79733 43.7377 5.56267 43.439 5.392C43.1403 5.21067 42.7403 5.12 42.239 5.12C41.9083 5.12 41.5777 5.168 41.247 5.264C40.927 5.34933 40.6177 5.46667 40.319 5.616C40.031 5.75467 39.7643 5.89867 39.519 6.048L39.007 5.152C39.263 4.98133 39.5723 4.81067 39.935 4.64C40.3083 4.45867 40.7083 4.31467 41.135 4.208C41.5617 4.09067 42.0043 4.032 42.463 4.032C43.1777 4.032 43.7643 4.16533 44.223 4.432C44.6923 4.69867 45.039 5.072 45.263 5.552C45.4977 6.02133 45.615 6.58133 45.615 7.232V12H44.543L44.431 10.944H44.383C43.9563 11.2853 43.4763 11.5787 42.943 11.824C42.4097 12.0693 41.8657 12.192 41.311 12.192ZM41.663 11.136C42.111 11.136 42.5537 11.0347 42.991 10.832C43.4283 10.6293 43.8657 10.3467 44.303 9.984V7.936C43.1937 8.032 42.319 8.16533 41.679 8.336C41.0497 8.50667 40.6017 8.72533 40.335 8.992C40.079 9.248 39.951 9.54667 39.951 9.888C39.951 10.176 40.031 10.416 40.191 10.608C40.351 10.7893 40.559 10.9227 40.815 11.008C41.0817 11.0933 41.3643 11.136 41.663 11.136ZM52.5048 12.192C51.6941 12.192 50.9634 12.032 50.3128 11.712C49.6728 11.392 49.1661 10.928 48.7928 10.32C48.4301 9.712 48.2488 8.98133 48.2488 8.128C48.2488 7.25333 48.4461 6.512 48.8408 5.904C49.2354 5.296 49.7581 4.832 50.4088 4.512C51.0701 4.192 51.7954 4.032 52.5848 4.032C53.2248 4.032 53.7741 4.144 54.2328 4.368C54.7021 4.592 55.0968 4.85867 55.4167 5.168L54.7608 6.016C54.4408 5.73867 54.1101 5.52 53.7688 5.36C53.4274 5.2 53.0488 5.12 52.6328 5.12C52.0354 5.12 51.5074 5.248 51.0488 5.504C50.5901 5.74933 50.2328 6.10133 49.9768 6.56C49.7314 7.008 49.6088 7.53067 49.6088 8.128C49.6088 8.71467 49.7314 9.232 49.9768 9.68C50.2221 10.128 50.5688 10.48 51.0168 10.736C51.4754 10.9813 52.0034 11.104 52.6008 11.104C53.0808 11.104 53.5181 11.008 53.9128 10.816C54.3181 10.624 54.6808 10.3947 55.0008 10.128L55.5928 10.976C55.1661 11.36 54.6861 11.6587 54.1528 11.872C53.6301 12.0853 53.0808 12.192 52.5048 12.192ZM58.6585 15.344C58.4878 15.344 58.3065 15.328 58.1145 15.296C57.9332 15.264 57.7732 15.2267 57.6345 15.184L57.9065 14.144C58.0132 14.176 58.1252 14.2027 58.2425 14.224C58.3705 14.2453 58.4932 14.256 58.6105 14.256C59.1545 14.256 59.5972 14.096 59.9385 13.776C60.2798 13.4667 60.5465 13.072 60.7385 12.592L60.9785 12.016L57.3465 4.224H58.6745L60.5785 8.528C60.7278 8.86933 60.8825 9.23733 61.0425 9.632C61.2132 10.016 61.3785 10.4 61.5385 10.784H61.6025C61.7412 10.4107 61.8798 10.032 62.0185 9.648C62.1678 9.25333 62.3065 8.88 62.4345 8.528L64.1305 4.224H65.3785L61.9545 12.64C61.7625 13.152 61.5225 13.6107 61.2345 14.016C60.9465 14.432 60.5892 14.7573 60.1625 14.992C59.7465 15.2267 59.2452 15.344 58.6585 15.344ZM77.382 12V1.504H80.55C81.3287 1.504 82.006 1.60533 82.582 1.808C83.1687 2 83.622 2.32 83.942 2.768C84.2727 3.216 84.438 3.824 84.438 4.592C84.438 5.328 84.2727 5.936 83.942 6.416C83.622 6.88533 83.1687 7.24267 82.582 7.488C81.9953 7.72267 81.318 7.84 80.55 7.84H78.71V12H77.382ZM78.71 6.752H80.39C81.3073 6.752 81.9847 6.576 82.422 6.224C82.87 5.872 83.094 5.328 83.094 4.592C83.094 3.83467 82.87 3.312 82.422 3.024C81.974 2.72533 81.2967 2.576 80.39 2.576H78.71V6.752ZM90.1438 12.192C89.4611 12.192 88.8264 12.032 88.2398 11.712C87.6638 11.392 87.1944 10.928 86.8318 10.32C86.4798 9.712 86.3038 8.98133 86.3038 8.128C86.3038 7.25333 86.4798 6.512 86.8318 5.904C87.1944 5.296 87.6638 4.832 88.2398 4.512C88.8264 4.192 89.4611 4.032 90.1438 4.032C90.8264 4.032 91.4558 4.192 92.0318 4.512C92.6184 4.832 93.0878 5.296 93.4398 5.904C93.8024 6.512 93.9838 7.25333 93.9838 8.128C93.9838 8.98133 93.8024 9.712 93.4398 10.32C93.0878 10.928 92.6184 11.392 92.0318 11.712C91.4558 12.032 90.8264 12.192 90.1438 12.192ZM90.1438 11.104C90.6451 11.104 91.0824 10.9813 91.4558 10.736C91.8291 10.48 92.1171 10.128 92.3198 9.68C92.5224 9.232 92.6238 8.71467 92.6238 8.128C92.6238 7.53067 92.5224 7.008 92.3198 6.56C92.1171 6.10133 91.8291 5.74933 91.4558 5.504C91.0824 5.248 90.6451 5.12 90.1438 5.12C89.6424 5.12 89.2051 5.248 88.8318 5.504C88.4691 5.74933 88.1811 6.10133 87.9678 6.56C87.7651 7.008 87.6638 7.53067 87.6638 8.128C87.6638 8.71467 87.7651 9.232 87.9678 9.68C88.1811 10.128 88.4691 10.48 88.8318 10.736C89.2051 10.9813 89.6424 11.104 90.1438 11.104ZM101.434 12.192C100.612 12.192 99.9828 11.9573 99.5455 11.488C99.1082 11.008 98.8895 10.3093 98.8895 9.392V1.68H96.2335V0.608H100.202V9.488C100.202 10.0533 100.34 10.464 100.618 10.72C100.895 10.976 101.263 11.104 101.722 11.104C101.946 11.104 102.175 11.0773 102.41 11.024C102.644 10.96 102.906 10.864 103.194 10.736L103.53 11.728C103.178 11.856 102.847 11.9627 102.538 12.048C102.228 12.144 101.86 12.192 101.434 12.192ZM109.587 12V5.296H105.971V4.224H110.899V12H109.587ZM110.099 2.592C109.801 2.592 109.55 2.50133 109.347 2.32C109.145 2.128 109.043 1.87733 109.043 1.568C109.043 1.25867 109.145 1.01333 109.347 0.832C109.55 0.64 109.801 0.544 110.099 0.544C110.398 0.544 110.649 0.64 110.851 0.832C111.054 1.01333 111.155 1.25867 111.155 1.568C111.155 1.87733 111.054 2.128 110.851 2.32C110.649 2.50133 110.398 2.592 110.099 2.592ZM119.661 12.192C118.85 12.192 118.12 12.032 117.469 11.712C116.829 11.392 116.322 10.928 115.949 10.32C115.586 9.712 115.405 8.98133 115.405 8.128C115.405 7.25333 115.602 6.512 115.997 5.904C116.392 5.296 116.914 4.832 117.565 4.512C118.226 4.192 118.952 4.032 119.741 4.032C120.381 4.032 120.93 4.144 121.389 4.368C121.858 4.592 122.253 4.85867 122.573 5.168L121.917 6.016C121.597 5.73867 121.266 5.52 120.925 5.36C120.584 5.2 120.205 5.12 119.789 5.12C119.192 5.12 118.664 5.248 118.205 5.504C117.746 5.74933 117.389 6.10133 117.133 6.56C116.888 7.008 116.765 7.53067 116.765 8.128C116.765 8.71467 116.888 9.232 117.133 9.68C117.378 10.128 117.725 10.48 118.173 10.736C118.632 10.9813 119.16 11.104 119.757 11.104C120.237 11.104 120.674 11.008 121.069 10.816C121.474 10.624 121.837 10.3947 122.157 10.128L122.749 10.976C122.322 11.36 121.842 11.6587 121.309 11.872C120.786 12.0853 120.237 12.192 119.661 12.192ZM125.815 15.344C125.644 15.344 125.463 15.328 125.271 15.296C125.089 15.264 124.929 15.2267 124.791 15.184L125.063 14.144C125.169 14.176 125.281 14.2027 125.399 14.224C125.527 14.2453 125.649 14.256 125.767 14.256C126.311 14.256 126.753 14.096 127.095 13.776C127.436 13.4667 127.703 13.072 127.895 12.592L128.135 12.016L124.503 4.224H125.831L127.735 8.528C127.884 8.86933 128.039 9.23733 128.199 9.632C128.369 10.016 128.535 10.4 128.695 10.784H128.759C128.897 10.4107 129.036 10.032 129.175 9.648C129.324 9.25333 129.463 8.88 129.591 8.528L131.287 4.224H132.535L129.111 12.64C128.919 13.152 128.679 13.6107 128.391 14.016C128.103 14.432 127.745 14.7573 127.319 14.992C126.903 15.2267 126.401 15.344 125.815 15.344Z" fill="#F2F3FA"/>
</svg>
