<svg width="393" height="589" viewBox="0 0 393 589" fill="none" xmlns="http://www.w3.org/2000/svg">
<rect x="46" y="246.237" width="7" height="88" rx="3.5" fill="#FFC947"/>
<g filter="url(#filter0_d_144_1994)">
<rect x="61" y="246.237" width="277" height="88" rx="6" fill="white" shape-rendering="crispEdges"/>
<rect x="87" y="272.237" width="36" height="36" rx="6" fill="#091931"/>
<g clip-path="url(#clip0_144_1994)">
<path d="M112.425 289.149C112.425 287.274 111.713 285.549 110.55 284.237V281.274C110.55 279.962 109.5 278.912 108.188 278.912H101.813C100.5 278.912 99.45 279.962 99.45 281.274V284.237C98.2875 285.549 97.575 287.274 97.575 289.149C97.575 291.024 98.2875 292.749 99.45 294.062V300.399C99.45 300.812 99.675 301.187 100.013 301.412C100.2 301.524 100.388 301.562 100.613 301.562C100.8 301.562 100.988 301.524 101.138 301.412L104.925 299.462C104.963 299.424 105 299.424 105.038 299.462L108.825 301.412C109.2 301.599 109.613 301.599 109.95 301.374C110.288 301.149 110.513 300.774 110.513 300.362V294.062C111.713 292.749 112.425 291.024 112.425 289.149ZM101.813 280.599H108.15C108.525 280.599 108.825 280.899 108.825 281.274V282.812C107.7 282.137 106.388 281.724 104.963 281.724C103.538 281.724 102.225 282.137 101.1 282.812V281.274C101.138 280.899 101.438 280.599 101.813 280.599ZM105 283.412C108.15 283.412 110.738 285.999 110.738 289.149C110.738 292.299 108.15 294.887 105 294.887C101.85 294.887 99.2625 292.299 99.2625 289.149C99.2625 285.999 101.85 283.412 105 283.412ZM105.788 297.999C105.263 297.737 104.7 297.737 104.175 297.999L101.138 299.574V295.487C102.263 296.162 103.575 296.574 105 296.574C106.425 296.574 107.738 296.162 108.863 295.487V299.537L105.788 297.999Z" fill="#FFC947"/>
<path d="M105 292.599C106.913 292.599 108.45 291.062 108.45 289.149C108.45 287.237 106.913 285.699 105 285.699C103.088 285.699 101.55 287.237 101.55 289.149C101.55 291.062 103.088 292.599 105 292.599ZM105 287.387C105.975 287.387 106.763 288.174 106.763 289.149C106.763 290.124 105.975 290.912 105 290.912C104.025 290.912 103.238 290.124 103.238 289.149C103.238 288.174 104.025 287.387 105 287.387Z" fill="#FFC947"/>
</g>
<path d="M144.14 282.237V274.377H146.624C147.2 274.377 147.708 274.453 148.148 274.605C148.596 274.749 148.944 274.997 149.192 275.349C149.44 275.693 149.564 276.157 149.564 276.741C149.564 277.309 149.436 277.777 149.18 278.145C148.932 278.513 148.584 278.789 148.136 278.973C147.696 279.149 147.192 279.237 146.624 279.237H145.34V282.237H144.14ZM145.34 278.265H146.504C147.144 278.265 147.616 278.141 147.92 277.893C148.224 277.645 148.376 277.261 148.376 276.741C148.376 276.213 148.22 275.849 147.908 275.649C147.596 275.441 147.128 275.337 146.504 275.337H145.34V278.265ZM152.211 282.237V276.369H153.195L153.291 277.737H153.327C153.631 277.257 154.003 276.885 154.443 276.621C154.883 276.357 155.363 276.225 155.883 276.225C156.107 276.225 156.311 276.245 156.495 276.285C156.679 276.325 156.859 276.385 157.035 276.465L156.771 277.485C156.571 277.413 156.399 277.365 156.255 277.341C156.111 277.309 155.927 277.293 155.703 277.293C155.279 277.293 154.871 277.413 154.479 277.653C154.087 277.893 153.727 278.309 153.399 278.901V282.237H152.211ZM162.071 282.381C161.479 282.381 160.939 282.261 160.451 282.021C159.971 281.781 159.591 281.429 159.311 280.965C159.031 280.501 158.891 279.945 158.891 279.297C158.891 278.657 159.031 278.109 159.311 277.653C159.599 277.197 159.971 276.845 160.427 276.597C160.883 276.349 161.371 276.225 161.891 276.225C162.467 276.225 162.955 276.345 163.355 276.585C163.755 276.817 164.059 277.141 164.267 277.557C164.483 277.965 164.591 278.445 164.591 278.997C164.591 279.117 164.587 279.237 164.579 279.357C164.571 279.469 164.559 279.565 164.543 279.645H159.719V278.769H163.799L163.535 279.057C163.535 278.425 163.391 277.953 163.103 277.641C162.815 277.321 162.423 277.161 161.927 277.161C161.583 277.161 161.267 277.245 160.979 277.413C160.699 277.573 160.475 277.813 160.307 278.133C160.139 278.445 160.055 278.833 160.055 279.297C160.055 279.777 160.147 280.177 160.331 280.497C160.523 280.809 160.779 281.045 161.099 281.205C161.427 281.365 161.803 281.445 162.227 281.445C162.555 281.445 162.855 281.401 163.127 281.313C163.399 281.217 163.667 281.089 163.931 280.929L164.351 281.685C164.055 281.885 163.715 282.053 163.331 282.189C162.947 282.317 162.527 282.381 162.071 282.381ZM166.29 282.237V276.369H167.226L167.322 277.137H167.346C167.49 276.873 167.662 276.657 167.862 276.489C168.062 276.313 168.33 276.225 168.666 276.225C168.946 276.225 169.178 276.309 169.362 276.477C169.546 276.645 169.674 276.897 169.746 277.233C169.906 276.929 170.086 276.685 170.286 276.501C170.494 276.317 170.766 276.225 171.102 276.225C171.518 276.225 171.838 276.385 172.062 276.705C172.294 277.025 172.41 277.477 172.41 278.061V282.237H171.246V278.145C171.246 277.545 171.066 277.245 170.706 277.245C170.53 277.245 170.382 277.313 170.262 277.449C170.142 277.585 170.01 277.789 169.866 278.061V282.237H168.834V278.145C168.834 277.849 168.79 277.625 168.702 277.473C168.622 277.321 168.49 277.245 168.306 277.245C168.13 277.245 167.974 277.313 167.838 277.449C167.71 277.585 167.582 277.789 167.454 278.061V282.237H166.29ZM176.893 282.237V277.329H174.265V276.369H178.081V282.237H176.893ZM177.385 275.229C177.129 275.229 176.917 275.153 176.749 275.001C176.581 274.841 176.497 274.633 176.497 274.377C176.497 274.121 176.581 273.917 176.749 273.765C176.917 273.605 177.129 273.525 177.385 273.525C177.641 273.525 177.853 273.605 178.021 273.765C178.189 273.917 178.273 274.121 178.273 274.377C178.273 274.633 178.189 274.841 178.021 275.001C177.853 275.153 177.641 275.229 177.385 275.229ZM184.449 282.237V277.329H181.821V276.369H185.637V282.237H184.449ZM184.941 275.229C184.685 275.229 184.473 275.153 184.305 275.001C184.137 274.841 184.053 274.633 184.053 274.377C184.053 274.121 184.137 273.917 184.305 273.765C184.473 273.605 184.685 273.525 184.941 273.525C185.197 273.525 185.409 273.605 185.577 273.765C185.745 273.917 185.829 274.121 185.829 274.377C185.829 274.633 185.745 274.841 185.577 275.001C185.409 275.153 185.197 275.229 184.941 275.229ZM193.168 282.381C192.52 282.381 192.024 282.193 191.68 281.817C191.336 281.433 191.164 280.889 191.164 280.185V274.689H189.208V273.729H192.352V280.257C192.352 280.665 192.456 280.961 192.664 281.145C192.872 281.321 193.132 281.409 193.444 281.409C193.604 281.409 193.768 281.389 193.936 281.349C194.112 281.309 194.304 281.245 194.512 281.157L194.8 282.045C194.52 282.141 194.26 282.221 194.02 282.285C193.788 282.349 193.504 282.381 193.168 282.381ZM199.847 282.381C199.255 282.381 198.715 282.261 198.227 282.021C197.747 281.781 197.367 281.429 197.087 280.965C196.807 280.501 196.667 279.945 196.667 279.297C196.667 278.657 196.807 278.109 197.087 277.653C197.375 277.197 197.747 276.845 198.203 276.597C198.659 276.349 199.147 276.225 199.667 276.225C200.243 276.225 200.731 276.345 201.131 276.585C201.531 276.817 201.835 277.141 202.043 277.557C202.259 277.965 202.367 278.445 202.367 278.997C202.367 279.117 202.363 279.237 202.355 279.357C202.347 279.469 202.335 279.565 202.319 279.645H197.495V278.769H201.575L201.311 279.057C201.311 278.425 201.167 277.953 200.879 277.641C200.591 277.321 200.199 277.161 199.703 277.161C199.359 277.161 199.043 277.245 198.755 277.413C198.475 277.573 198.251 277.813 198.083 278.133C197.915 278.445 197.831 278.833 197.831 279.297C197.831 279.777 197.923 280.177 198.107 280.497C198.299 280.809 198.555 281.045 198.875 281.205C199.203 281.365 199.579 281.445 200.003 281.445C200.331 281.445 200.631 281.401 200.903 281.313C201.175 281.217 201.443 281.089 201.707 280.929L202.127 281.685C201.831 281.885 201.491 282.053 201.107 282.189C200.723 282.317 200.303 282.381 199.847 282.381ZM212.054 284.637V276.369H213.026L213.122 277.089H213.158C213.422 276.841 213.726 276.637 214.07 276.477C214.414 276.309 214.762 276.225 215.114 276.225C215.634 276.225 216.07 276.349 216.422 276.597C216.782 276.845 217.054 277.193 217.238 277.641C217.43 278.089 217.526 278.613 217.526 279.213C217.526 279.885 217.402 280.457 217.154 280.929C216.906 281.401 216.582 281.761 216.182 282.009C215.782 282.257 215.35 282.381 214.886 282.381C214.622 282.381 214.338 282.317 214.034 282.189C213.738 282.061 213.466 281.885 213.218 281.661H213.182L213.242 282.717V284.637H212.054ZM214.658 281.397C214.97 281.397 215.25 281.313 215.498 281.145C215.746 280.977 215.942 280.733 216.086 280.413C216.23 280.085 216.302 279.689 216.302 279.225C216.302 278.817 216.246 278.465 216.134 278.169C216.03 277.865 215.87 277.633 215.654 277.473C215.438 277.305 215.15 277.221 214.79 277.221C214.55 277.221 214.298 277.285 214.034 277.413C213.77 277.533 213.506 277.733 213.242 278.013V280.785C213.49 281.001 213.742 281.157 213.998 281.253C214.254 281.349 214.474 281.397 214.658 281.397ZM220.209 282.237V276.369H221.193L221.289 277.737H221.325C221.629 277.257 222.001 276.885 222.441 276.621C222.881 276.357 223.361 276.225 223.881 276.225C224.105 276.225 224.309 276.245 224.493 276.285C224.677 276.325 224.857 276.385 225.033 276.465L224.769 277.485C224.569 277.413 224.397 277.365 224.253 277.341C224.109 277.309 223.925 277.293 223.701 277.293C223.277 277.293 222.869 277.413 222.477 277.653C222.085 277.893 221.725 278.309 221.397 278.901V282.237H220.209ZM229.708 282.381C229.196 282.381 228.716 282.261 228.268 282.021C227.828 281.781 227.468 281.433 227.188 280.977C226.916 280.513 226.78 279.957 226.78 279.309C226.78 278.661 226.916 278.109 227.188 277.653C227.468 277.189 227.828 276.837 228.268 276.597C228.716 276.349 229.196 276.225 229.708 276.225C230.22 276.225 230.696 276.349 231.136 276.597C231.584 276.837 231.944 277.189 232.216 277.653C232.496 278.109 232.636 278.661 232.636 279.309C232.636 279.957 232.496 280.513 232.216 280.977C231.944 281.433 231.584 281.781 231.136 282.021C230.696 282.261 230.22 282.381 229.708 282.381ZM229.708 281.409C230.052 281.409 230.352 281.321 230.608 281.145C230.864 280.969 231.06 280.725 231.196 280.413C231.34 280.101 231.412 279.733 231.412 279.309C231.412 278.893 231.34 278.529 231.196 278.217C231.06 277.897 230.864 277.649 230.608 277.473C230.352 277.297 230.052 277.209 229.708 277.209C229.364 277.209 229.064 277.297 228.808 277.473C228.552 277.649 228.352 277.897 228.208 278.217C228.072 278.529 228.004 278.893 228.004 279.309C228.004 279.733 228.072 280.101 228.208 280.413C228.352 280.725 228.552 280.969 228.808 281.145C229.064 281.321 229.364 281.409 229.708 281.409ZM237.564 282.381C237.276 282.381 236.976 282.313 236.664 282.177C236.352 282.033 236.064 281.837 235.8 281.589H235.764L235.656 282.237H234.72V273.729H235.908V275.985L235.86 277.065H235.896C236.152 276.809 236.444 276.605 236.772 276.453C237.108 276.301 237.44 276.225 237.768 276.225C238.288 276.225 238.728 276.349 239.088 276.597C239.448 276.845 239.72 277.193 239.904 277.641C240.096 278.081 240.192 278.605 240.192 279.213C240.192 279.877 240.068 280.449 239.82 280.929C239.572 281.401 239.248 281.761 238.848 282.009C238.456 282.257 238.028 282.381 237.564 282.381ZM237.336 281.397C237.648 281.397 237.924 281.313 238.164 281.145C238.412 280.977 238.608 280.733 238.752 280.413C238.896 280.085 238.968 279.689 238.968 279.225C238.968 278.817 238.912 278.465 238.8 278.169C238.696 277.865 238.536 277.633 238.32 277.473C238.104 277.305 237.816 277.221 237.456 277.221C237.216 277.221 236.964 277.285 236.7 277.413C236.436 277.533 236.172 277.733 235.908 278.013V280.785C236.156 281.001 236.408 281.157 236.664 281.253C236.92 281.349 237.144 281.397 237.336 281.397ZM245.179 282.381C244.587 282.381 244.047 282.261 243.559 282.021C243.079 281.781 242.699 281.429 242.419 280.965C242.139 280.501 241.999 279.945 241.999 279.297C241.999 278.657 242.139 278.109 242.419 277.653C242.707 277.197 243.079 276.845 243.535 276.597C243.991 276.349 244.479 276.225 244.999 276.225C245.575 276.225 246.063 276.345 246.463 276.585C246.863 276.817 247.167 277.141 247.375 277.557C247.591 277.965 247.699 278.445 247.699 278.997C247.699 279.117 247.695 279.237 247.687 279.357C247.679 279.469 247.667 279.565 247.651 279.645H242.827V278.769H246.907L246.643 279.057C246.643 278.425 246.499 277.953 246.211 277.641C245.923 277.321 245.531 277.161 245.035 277.161C244.691 277.161 244.375 277.245 244.087 277.413C243.807 277.573 243.583 277.813 243.415 278.133C243.247 278.445 243.163 278.833 243.163 279.297C243.163 279.777 243.255 280.177 243.439 280.497C243.631 280.809 243.887 281.045 244.207 281.205C244.535 281.365 244.911 281.445 245.335 281.445C245.663 281.445 245.963 281.401 246.235 281.313C246.507 281.217 246.775 281.089 247.039 280.929L247.459 281.685C247.163 281.885 246.823 282.053 246.439 282.189C246.055 282.317 245.635 282.381 245.179 282.381ZM252.446 282.237V277.329H249.818V276.369H253.634V282.237H252.446ZM252.938 275.229C252.682 275.229 252.47 275.153 252.302 275.001C252.134 274.841 252.05 274.633 252.05 274.377C252.05 274.121 252.134 273.917 252.302 273.765C252.47 273.605 252.682 273.525 252.938 273.525C253.194 273.525 253.406 273.605 253.574 273.765C253.742 273.917 253.826 274.121 253.826 274.377C253.826 274.633 253.742 274.841 253.574 275.001C253.406 275.153 253.194 275.229 252.938 275.229ZM267.557 282.237V277.329H264.929V276.369H268.745V282.237H267.557ZM266.585 275.445L266.105 274.989L267.449 273.345H268.649L269.993 274.989L269.513 275.445L268.073 274.149H268.025L266.585 275.445ZM272.496 282.237V276.369H273.468L273.564 277.317H273.612C273.908 277.013 274.228 276.757 274.572 276.549C274.916 276.333 275.316 276.225 275.772 276.225C276.452 276.225 276.952 276.433 277.272 276.849C277.6 277.257 277.764 277.841 277.764 278.601V282.237H276.576V278.757C276.576 278.245 276.48 277.869 276.288 277.629C276.104 277.381 275.792 277.257 275.352 277.257C275.04 277.257 274.76 277.337 274.512 277.497C274.264 277.649 273.988 277.881 273.684 278.193V282.237H272.496ZM145.952 306.237L143.552 300.369H144.752L145.988 303.561C146.1 303.849 146.208 304.141 146.312 304.437C146.416 304.725 146.516 305.013 146.612 305.301H146.66C146.764 305.013 146.864 304.725 146.96 304.437C147.056 304.141 147.16 303.849 147.272 303.561L148.508 300.369H149.648L147.296 306.237H145.952ZM153.447 306.381C153.071 306.381 152.731 306.313 152.427 306.177C152.131 306.033 151.895 305.837 151.719 305.589C151.551 305.333 151.467 305.033 151.467 304.689C151.467 304.033 151.787 303.533 152.427 303.189C153.075 302.845 154.135 302.617 155.607 302.505C155.599 302.265 155.543 302.045 155.439 301.845C155.343 301.645 155.187 301.489 154.971 301.377C154.763 301.257 154.487 301.197 154.143 301.197C153.903 301.197 153.667 301.229 153.435 301.293C153.203 301.349 152.979 301.429 152.763 301.533C152.547 301.637 152.343 301.745 152.151 301.857L151.707 301.053C151.923 300.925 152.171 300.797 152.451 300.669C152.731 300.533 153.031 300.425 153.351 300.345C153.679 300.265 154.011 300.225 154.347 300.225C154.891 300.225 155.343 300.325 155.703 300.525C156.063 300.725 156.335 301.009 156.519 301.377C156.703 301.745 156.795 302.189 156.795 302.709V306.237H155.823L155.727 305.481H155.691C155.379 305.721 155.027 305.933 154.635 306.117C154.243 306.293 153.847 306.381 153.447 306.381ZM153.783 305.433C154.095 305.433 154.403 305.365 154.707 305.229C155.011 305.093 155.311 304.901 155.607 304.653V303.261C154.839 303.317 154.235 303.405 153.795 303.525C153.363 303.645 153.059 303.797 152.883 303.981C152.707 304.157 152.619 304.365 152.619 304.605C152.619 304.797 152.671 304.957 152.775 305.085C152.887 305.205 153.031 305.293 153.207 305.349C153.383 305.405 153.575 305.433 153.783 305.433ZM162.947 306.381C162.299 306.381 161.803 306.193 161.459 305.817C161.115 305.433 160.943 304.889 160.943 304.185V298.689H158.987V297.729H162.131V304.257C162.131 304.665 162.235 304.961 162.443 305.145C162.651 305.321 162.911 305.409 163.223 305.409C163.383 305.409 163.547 305.389 163.715 305.349C163.891 305.309 164.083 305.245 164.291 305.157L164.579 306.045C164.299 306.141 164.039 306.221 163.799 306.285C163.567 306.349 163.283 306.381 162.947 306.381ZM169.266 306.381C168.754 306.381 168.274 306.261 167.826 306.021C167.386 305.781 167.026 305.433 166.746 304.977C166.474 304.513 166.338 303.957 166.338 303.309C166.338 302.661 166.474 302.109 166.746 301.653C167.026 301.189 167.386 300.837 167.826 300.597C168.274 300.349 168.754 300.225 169.266 300.225C169.778 300.225 170.254 300.349 170.694 300.597C171.142 300.837 171.502 301.189 171.774 301.653C172.054 302.109 172.194 302.661 172.194 303.309C172.194 303.957 172.054 304.513 171.774 304.977C171.502 305.433 171.142 305.781 170.694 306.021C170.254 306.261 169.778 306.381 169.266 306.381ZM169.266 305.409C169.61 305.409 169.91 305.321 170.166 305.145C170.422 304.969 170.618 304.725 170.754 304.413C170.898 304.101 170.97 303.733 170.97 303.309C170.97 302.893 170.898 302.529 170.754 302.217C170.618 301.897 170.422 301.649 170.166 301.473C169.91 301.297 169.61 301.209 169.266 301.209C168.922 301.209 168.622 301.297 168.366 301.473C168.11 301.649 167.91 301.897 167.766 302.217C167.63 302.529 167.562 302.893 167.562 303.309C167.562 303.733 167.63 304.101 167.766 304.413C167.91 304.725 168.11 304.969 168.366 305.145C168.622 305.321 168.922 305.409 169.266 305.409ZM176.113 306.381C175.737 306.381 175.397 306.313 175.093 306.177C174.797 306.033 174.561 305.837 174.385 305.589C174.217 305.333 174.133 305.033 174.133 304.689C174.133 304.033 174.453 303.533 175.093 303.189C175.741 302.845 176.801 302.617 178.273 302.505C178.265 302.265 178.209 302.045 178.105 301.845C178.009 301.645 177.853 301.489 177.637 301.377C177.429 301.257 177.153 301.197 176.809 301.197C176.569 301.197 176.333 301.229 176.101 301.293C175.869 301.349 175.645 301.429 175.429 301.533C175.213 301.637 175.009 301.745 174.817 301.857L174.373 301.053C174.589 300.925 174.837 300.797 175.117 300.669C175.397 300.533 175.697 300.425 176.017 300.345C176.345 300.265 176.677 300.225 177.013 300.225C177.557 300.225 178.009 300.325 178.369 300.525C178.729 300.725 179.001 301.009 179.185 301.377C179.369 301.745 179.461 302.189 179.461 302.709V306.237H178.489L178.393 305.481H178.357C178.045 305.721 177.693 305.933 177.301 306.117C176.909 306.293 176.513 306.381 176.113 306.381ZM176.449 305.433C176.761 305.433 177.069 305.365 177.373 305.229C177.677 305.093 177.977 304.901 178.273 304.653V303.261C177.505 303.317 176.901 303.405 176.461 303.525C176.029 303.645 175.725 303.797 175.549 303.981C175.373 304.157 175.285 304.365 175.285 304.605C175.285 304.797 175.337 304.957 175.441 305.085C175.553 305.205 175.697 305.293 175.873 305.349C176.049 305.405 176.241 305.433 176.449 305.433ZM182.433 306.237V300.369H183.417L183.513 301.737H183.549C183.853 301.257 184.225 300.885 184.665 300.621C185.105 300.357 185.585 300.225 186.105 300.225C186.329 300.225 186.533 300.245 186.717 300.285C186.901 300.325 187.081 300.385 187.257 300.465L186.993 301.485C186.793 301.413 186.621 301.365 186.477 301.341C186.333 301.309 186.149 301.293 185.925 301.293C185.501 301.293 185.093 301.413 184.701 301.653C184.309 301.893 183.949 302.309 183.621 302.901V306.237H182.433ZM192.292 306.381C191.7 306.381 191.16 306.261 190.672 306.021C190.192 305.781 189.812 305.429 189.532 304.965C189.252 304.501 189.112 303.945 189.112 303.297C189.112 302.657 189.252 302.109 189.532 301.653C189.82 301.197 190.192 300.845 190.648 300.597C191.104 300.349 191.592 300.225 192.112 300.225C192.688 300.225 193.176 300.345 193.576 300.585C193.976 300.817 194.28 301.141 194.488 301.557C194.704 301.965 194.812 302.445 194.812 302.997C194.812 303.117 194.808 303.237 194.8 303.357C194.792 303.469 194.78 303.565 194.764 303.645H189.94V302.769H194.02L193.756 303.057C193.756 302.425 193.612 301.953 193.324 301.641C193.036 301.321 192.644 301.161 192.148 301.161C191.804 301.161 191.488 301.245 191.2 301.413C190.92 301.573 190.696 301.813 190.528 302.133C190.36 302.445 190.276 302.833 190.276 303.297C190.276 303.777 190.368 304.177 190.552 304.497C190.744 304.809 191 305.045 191.32 305.205C191.648 305.365 192.024 305.445 192.448 305.445C192.776 305.445 193.076 305.401 193.348 305.313C193.62 305.217 193.888 305.089 194.152 304.929L194.572 305.685C194.276 305.885 193.936 306.053 193.552 306.189C193.168 306.317 192.748 306.381 192.292 306.381ZM206.647 306.381C205.887 306.381 205.275 306.113 204.811 305.577C204.347 305.033 204.115 304.277 204.115 303.309C204.115 302.677 204.239 302.133 204.487 301.677C204.743 301.213 205.071 300.857 205.471 300.609C205.871 300.353 206.295 300.225 206.743 300.225C207.087 300.225 207.395 300.289 207.667 300.417C207.939 300.545 208.191 300.725 208.423 300.957H208.459L208.399 299.913V297.729H209.587V306.237H208.615L208.519 305.517H208.483C208.251 305.749 207.975 305.953 207.655 306.129C207.335 306.297 206.999 306.381 206.647 306.381ZM206.923 305.397C207.187 305.397 207.439 305.333 207.679 305.205C207.927 305.069 208.167 304.869 208.399 304.605V301.821C208.167 301.605 207.935 301.453 207.703 301.365C207.471 301.269 207.239 301.221 207.007 301.221C206.703 301.221 206.423 301.305 206.167 301.473C205.919 301.641 205.719 301.881 205.567 302.193C205.415 302.505 205.339 302.873 205.339 303.297C205.339 303.969 205.479 304.489 205.759 304.857C206.039 305.217 206.427 305.397 206.923 305.397ZM214.958 306.381C214.366 306.381 213.826 306.261 213.338 306.021C212.858 305.781 212.478 305.429 212.198 304.965C211.918 304.501 211.778 303.945 211.778 303.297C211.778 302.657 211.918 302.109 212.198 301.653C212.486 301.197 212.858 300.845 213.314 300.597C213.77 300.349 214.258 300.225 214.778 300.225C215.354 300.225 215.842 300.345 216.242 300.585C216.642 300.817 216.946 301.141 217.154 301.557C217.37 301.965 217.478 302.445 217.478 302.997C217.478 303.117 217.474 303.237 217.466 303.357C217.458 303.469 217.446 303.565 217.43 303.645H212.606V302.769H216.686L216.422 303.057C216.422 302.425 216.278 301.953 215.99 301.641C215.702 301.321 215.31 301.161 214.814 301.161C214.47 301.161 214.154 301.245 213.866 301.413C213.586 301.573 213.362 301.813 213.194 302.133C213.026 302.445 212.942 302.833 212.942 303.297C212.942 303.777 213.034 304.177 213.218 304.497C213.41 304.809 213.666 305.045 213.986 305.205C214.314 305.365 214.69 305.445 215.114 305.445C215.442 305.445 215.742 305.401 216.014 305.313C216.286 305.217 216.554 305.089 216.818 304.929L217.238 305.685C216.942 305.885 216.602 306.053 216.218 306.189C215.834 306.317 215.414 306.381 214.958 306.381ZM233.529 306.453C232.881 306.453 232.287 306.381 231.747 306.237C231.219 306.105 230.745 305.919 230.325 305.679C229.905 305.439 229.551 305.157 229.263 304.833L230.487 303.159C230.871 303.495 231.303 303.771 231.783 303.987C232.263 304.203 232.761 304.311 233.277 304.311C233.685 304.311 234.051 304.263 234.375 304.167C234.699 304.059 234.951 303.903 235.131 303.699C235.323 303.495 235.419 303.249 235.419 302.961C235.419 302.625 235.317 302.337 235.113 302.097C234.909 301.845 234.555 301.653 234.051 301.521C233.559 301.389 232.863 301.323 231.963 301.323V299.451C232.719 299.451 233.319 299.385 233.763 299.253C234.207 299.121 234.531 298.941 234.735 298.713C234.939 298.485 235.041 298.221 235.041 297.921C235.041 297.513 234.891 297.201 234.591 296.985C234.291 296.769 233.877 296.661 233.349 296.661C232.905 296.661 232.485 296.751 232.089 296.931C231.705 297.099 231.315 297.345 230.919 297.669L229.587 296.049C230.151 295.593 230.757 295.239 231.405 294.987C232.053 294.723 232.743 294.591 233.475 294.591C234.303 294.591 235.035 294.717 235.671 294.969C236.307 295.209 236.799 295.563 237.147 296.031C237.507 296.487 237.687 297.051 237.687 297.723C237.687 298.311 237.495 298.815 237.111 299.235C236.727 299.655 236.193 299.997 235.509 300.261V300.333C235.989 300.465 236.421 300.657 236.805 300.909C237.201 301.149 237.507 301.455 237.723 301.827C237.951 302.199 238.065 302.631 238.065 303.123C238.065 303.831 237.855 304.437 237.435 304.941C237.015 305.433 236.463 305.811 235.779 306.075C235.095 306.327 234.345 306.453 233.529 306.453ZM244.754 306.453C244.094 306.453 243.5 306.381 242.972 306.237C242.444 306.093 241.976 305.901 241.568 305.661C241.16 305.421 240.8 305.151 240.488 304.851L241.676 303.177C241.928 303.381 242.192 303.573 242.468 303.753C242.744 303.921 243.038 304.059 243.35 304.167C243.674 304.263 244.016 304.311 244.376 304.311C244.808 304.311 245.192 304.245 245.528 304.113C245.864 303.969 246.122 303.765 246.302 303.501C246.494 303.237 246.59 302.913 246.59 302.529C246.59 301.953 246.392 301.515 245.996 301.215C245.6 300.915 245.102 300.765 244.502 300.765C244.13 300.765 243.812 300.807 243.548 300.891C243.296 300.975 242.972 301.125 242.576 301.341L241.406 300.585L241.712 294.807H248.714V297.039H243.998L243.8 299.181C244.076 299.085 244.322 299.019 244.538 298.983C244.766 298.935 245.024 298.911 245.312 298.911C246.02 298.911 246.668 299.037 247.256 299.289C247.856 299.541 248.336 299.931 248.696 300.459C249.056 300.987 249.236 301.653 249.236 302.457C249.236 303.309 249.026 304.035 248.606 304.635C248.186 305.223 247.634 305.673 246.95 305.985C246.266 306.297 245.534 306.453 244.754 306.453ZM256.213 306.453C255.337 306.453 254.569 306.225 253.909 305.769C253.249 305.301 252.733 304.623 252.361 303.735C252.001 302.847 251.821 301.761 251.821 300.477C251.821 298.521 252.223 297.051 253.027 296.067C253.831 295.083 254.893 294.591 256.213 294.591C257.545 294.591 258.607 295.083 259.399 296.067C260.203 297.051 260.605 298.521 260.605 300.477C260.605 301.761 260.419 302.847 260.047 303.735C259.687 304.623 259.177 305.301 258.517 305.769C257.869 306.225 257.101 306.453 256.213 306.453ZM256.213 304.401C256.597 304.401 256.939 304.281 257.239 304.041C257.551 303.801 257.797 303.393 257.977 302.817C258.157 302.241 258.247 301.461 258.247 300.477C258.247 299.481 258.157 298.707 257.977 298.155C257.797 297.591 257.551 297.201 257.239 296.985C256.939 296.757 256.597 296.643 256.213 296.643C255.841 296.643 255.499 296.757 255.187 296.985C254.875 297.201 254.629 297.591 254.449 298.155C254.269 298.707 254.179 299.481 254.179 300.477C254.179 301.461 254.269 302.241 254.449 302.817C254.629 303.393 254.875 303.801 255.187 304.041C255.499 304.281 255.841 304.401 256.213 304.401ZM256.213 301.809C255.841 301.809 255.523 301.683 255.259 301.431C254.995 301.179 254.863 300.849 254.863 300.441C254.863 300.021 254.995 299.691 255.259 299.451C255.523 299.199 255.841 299.073 256.213 299.073C256.597 299.073 256.915 299.199 257.167 299.451C257.431 299.691 257.563 300.021 257.563 300.441C257.563 300.849 257.431 301.179 257.167 301.431C256.915 301.683 256.597 301.809 256.213 301.809ZM267.366 306.453C266.49 306.453 265.722 306.225 265.062 305.769C264.402 305.301 263.886 304.623 263.514 303.735C263.154 302.847 262.974 301.761 262.974 300.477C262.974 298.521 263.376 297.051 264.18 296.067C264.984 295.083 266.046 294.591 267.366 294.591C268.698 294.591 269.76 295.083 270.552 296.067C271.356 297.051 271.758 298.521 271.758 300.477C271.758 301.761 271.572 302.847 271.2 303.735C270.84 304.623 270.33 305.301 269.67 305.769C269.022 306.225 268.254 306.453 267.366 306.453ZM267.366 304.401C267.75 304.401 268.092 304.281 268.392 304.041C268.704 303.801 268.95 303.393 269.13 302.817C269.31 302.241 269.4 301.461 269.4 300.477C269.4 299.481 269.31 298.707 269.13 298.155C268.95 297.591 268.704 297.201 268.392 296.985C268.092 296.757 267.75 296.643 267.366 296.643C266.994 296.643 266.652 296.757 266.34 296.985C266.028 297.201 265.782 297.591 265.602 298.155C265.422 298.707 265.332 299.481 265.332 300.477C265.332 301.461 265.422 302.241 265.602 302.817C265.782 303.393 266.028 303.801 266.34 304.041C266.652 304.281 266.994 304.401 267.366 304.401ZM267.366 301.809C266.994 301.809 266.676 301.683 266.412 301.431C266.148 301.179 266.016 300.849 266.016 300.441C266.016 300.021 266.148 299.691 266.412 299.451C266.676 299.199 266.994 299.073 267.366 299.073C267.75 299.073 268.068 299.199 268.32 299.451C268.584 299.691 268.716 300.021 268.716 300.441C268.716 300.849 268.584 301.179 268.32 301.431C268.068 301.683 267.75 301.809 267.366 301.809ZM279.977 306.453C279.005 306.453 278.135 306.231 277.367 305.787C276.611 305.343 276.011 304.683 275.567 303.807C275.123 302.931 274.901 301.857 274.901 300.585C274.901 299.325 275.123 298.251 275.567 297.363C276.023 296.463 276.647 295.779 277.439 295.311C278.231 294.831 279.143 294.591 280.175 294.591C280.787 294.591 281.381 294.717 281.957 294.969C282.533 295.209 283.037 295.551 283.469 295.995L282.011 297.417C281.735 297.189 281.441 297.003 281.129 296.859C280.817 296.715 280.469 296.643 280.085 296.643C279.533 296.643 279.071 296.799 278.699 297.111C278.327 297.411 278.039 297.849 277.835 298.425C277.643 299.001 277.547 299.691 277.547 300.495C277.547 301.323 277.649 302.031 277.853 302.619C278.069 303.195 278.369 303.639 278.753 303.951C279.137 304.251 279.599 304.401 280.139 304.401C280.559 304.401 280.931 304.317 281.255 304.149C281.579 303.969 281.879 303.729 282.155 303.429L283.613 304.797C283.133 305.325 282.587 305.733 281.975 306.021C281.375 306.309 280.709 306.453 279.977 306.453ZM273.929 300.063V298.821L275.261 298.731H282.281V300.063H273.929ZM273.929 302.295V301.071L275.261 300.963H281.561V302.295H273.929Z" fill="#091931"/>
</g>
<rect x="346" y="246.237" width="7" height="88" rx="3.5" fill="#FFC947"/>
<defs>
<filter id="filter0_d_144_1994" x="-189" y="0.236572" width="777" height="588" filterUnits="userSpaceOnUse" color-interpolation-filters="sRGB">
<feFlood flood-opacity="0" result="BackgroundImageFix"/>
<feColorMatrix in="SourceAlpha" type="matrix" values="0 0 0 0 0 0 0 0 0 0 0 0 0 0 0 0 0 0 127 0" result="hardAlpha"/>
<feOffset dy="4"/>
<feGaussianBlur stdDeviation="125"/>
<feComposite in2="hardAlpha" operator="out"/>
<feColorMatrix type="matrix" values="0 0 0 0 1 0 0 0 0 1 0 0 0 0 1 0 0 0 0.37 0"/>
<feBlend mode="normal" in2="BackgroundImageFix" result="effect1_dropShadow_144_1994"/>
<feBlend mode="normal" in="SourceGraphic" in2="effect1_dropShadow_144_1994" result="shape"/>
</filter>
<clipPath id="clip0_144_1994">
<rect width="24" height="24" fill="white" transform="translate(93 278.237)"/>
</clipPath>
</defs>
</svg>
