<svg width="393" height="589" viewBox="0 0 393 589" fill="none" xmlns="http://www.w3.org/2000/svg">
<rect x="46" y="246.357" width="7" height="88" rx="3.5" fill="#FFC947"/>
<g filter="url(#filter0_d_144_2005)">
<rect x="61" y="246.357" width="277" height="88" rx="6" fill="white" shape-rendering="crispEdges"/>
<rect x="87" y="272.357" width="36" height="36" rx="6" fill="#091931"/>
<path d="M112.425 289.269C112.425 287.394 111.713 285.669 110.55 284.357V281.394C110.55 280.082 109.5 279.032 108.188 279.032H101.813C100.5 279.032 99.45 280.082 99.45 281.394V284.357C98.2875 285.669 97.575 287.394 97.575 289.269C97.575 291.144 98.2875 292.869 99.45 294.182V300.519C99.45 300.932 99.675 301.307 100.013 301.532C100.2 301.644 100.388 301.682 100.613 301.682C100.8 301.682 100.988 301.644 101.138 301.532L104.925 299.582C104.963 299.544 105 299.544 105.038 299.582L108.825 301.532C109.2 301.719 109.613 301.719 109.95 301.494C110.288 301.269 110.513 300.894 110.513 300.482V294.182C111.713 292.869 112.425 291.144 112.425 289.269ZM101.813 280.719H108.15C108.525 280.719 108.825 281.019 108.825 281.394V282.932C107.7 282.257 106.388 281.844 104.963 281.844C103.538 281.844 102.225 282.257 101.1 282.932V281.394C101.138 281.019 101.438 280.719 101.813 280.719ZM105 283.532C108.15 283.532 110.738 286.119 110.738 289.269C110.738 292.419 108.15 295.007 105 295.007C101.85 295.007 99.2625 292.419 99.2625 289.269C99.2625 286.119 101.85 283.532 105 283.532ZM105.788 298.119C105.263 297.857 104.7 297.857 104.175 298.119L101.138 299.694V295.607C102.263 296.282 103.575 296.694 105 296.694C106.425 296.694 107.738 296.282 108.863 295.607V299.657L105.788 298.119Z" fill="#FFC947"/>
<path d="M105 292.719C106.913 292.719 108.45 291.182 108.45 289.269C108.45 287.357 106.913 285.819 105 285.819C103.088 285.819 101.55 287.357 101.55 289.269C101.55 291.182 103.088 292.719 105 292.719ZM105 287.507C105.975 287.507 106.763 288.294 106.763 289.269C106.763 290.244 105.975 291.032 105 291.032C104.025 291.032 103.238 290.244 103.238 289.269C103.238 288.294 104.025 287.507 105 287.507Z" fill="#FFC947"/>
<path d="M144.14 282.357V274.497H146.624C147.2 274.497 147.708 274.573 148.148 274.725C148.596 274.869 148.944 275.117 149.192 275.469C149.44 275.813 149.564 276.277 149.564 276.861C149.564 277.429 149.436 277.897 149.18 278.265C148.932 278.633 148.584 278.909 148.136 279.093C147.696 279.269 147.192 279.357 146.624 279.357H145.34V282.357H144.14ZM145.34 278.385H146.504C147.144 278.385 147.616 278.261 147.92 278.013C148.224 277.765 148.376 277.381 148.376 276.861C148.376 276.333 148.22 275.969 147.908 275.769C147.596 275.561 147.128 275.457 146.504 275.457H145.34V278.385ZM152.211 282.357V276.489H153.195L153.291 277.857H153.327C153.631 277.377 154.003 277.005 154.443 276.741C154.883 276.477 155.363 276.345 155.883 276.345C156.107 276.345 156.311 276.365 156.495 276.405C156.679 276.445 156.859 276.505 157.035 276.585L156.771 277.605C156.571 277.533 156.399 277.485 156.255 277.461C156.111 277.429 155.927 277.413 155.703 277.413C155.279 277.413 154.871 277.533 154.479 277.773C154.087 278.013 153.727 278.429 153.399 279.021V282.357H152.211ZM162.071 282.501C161.479 282.501 160.939 282.381 160.451 282.141C159.971 281.901 159.591 281.549 159.311 281.085C159.031 280.621 158.891 280.065 158.891 279.417C158.891 278.777 159.031 278.229 159.311 277.773C159.599 277.317 159.971 276.965 160.427 276.717C160.883 276.469 161.371 276.345 161.891 276.345C162.467 276.345 162.955 276.465 163.355 276.705C163.755 276.937 164.059 277.261 164.267 277.677C164.483 278.085 164.591 278.565 164.591 279.117C164.591 279.237 164.587 279.357 164.579 279.477C164.571 279.589 164.559 279.685 164.543 279.765H159.719V278.889H163.799L163.535 279.177C163.535 278.545 163.391 278.073 163.103 277.761C162.815 277.441 162.423 277.281 161.927 277.281C161.583 277.281 161.267 277.365 160.979 277.533C160.699 277.693 160.475 277.933 160.307 278.253C160.139 278.565 160.055 278.953 160.055 279.417C160.055 279.897 160.147 280.297 160.331 280.617C160.523 280.929 160.779 281.165 161.099 281.325C161.427 281.485 161.803 281.565 162.227 281.565C162.555 281.565 162.855 281.521 163.127 281.433C163.399 281.337 163.667 281.209 163.931 281.049L164.351 281.805C164.055 282.005 163.715 282.173 163.331 282.309C162.947 282.437 162.527 282.501 162.071 282.501ZM166.29 282.357V276.489H167.226L167.322 277.257H167.346C167.49 276.993 167.662 276.777 167.862 276.609C168.062 276.433 168.33 276.345 168.666 276.345C168.946 276.345 169.178 276.429 169.362 276.597C169.546 276.765 169.674 277.017 169.746 277.353C169.906 277.049 170.086 276.805 170.286 276.621C170.494 276.437 170.766 276.345 171.102 276.345C171.518 276.345 171.838 276.505 172.062 276.825C172.294 277.145 172.41 277.597 172.41 278.181V282.357H171.246V278.265C171.246 277.665 171.066 277.365 170.706 277.365C170.53 277.365 170.382 277.433 170.262 277.569C170.142 277.705 170.01 277.909 169.866 278.181V282.357H168.834V278.265C168.834 277.969 168.79 277.745 168.702 277.593C168.622 277.441 168.49 277.365 168.306 277.365C168.13 277.365 167.974 277.433 167.838 277.569C167.71 277.705 167.582 277.909 167.454 278.181V282.357H166.29ZM176.893 282.357V277.449H174.265V276.489H178.081V282.357H176.893ZM177.385 275.349C177.129 275.349 176.917 275.273 176.749 275.121C176.581 274.961 176.497 274.753 176.497 274.497C176.497 274.241 176.581 274.037 176.749 273.885C176.917 273.725 177.129 273.645 177.385 273.645C177.641 273.645 177.853 273.725 178.021 273.885C178.189 274.037 178.273 274.241 178.273 274.497C178.273 274.753 178.189 274.961 178.021 275.121C177.853 275.273 177.641 275.349 177.385 275.349ZM184.449 282.357V277.449H181.821V276.489H185.637V282.357H184.449ZM184.941 275.349C184.685 275.349 184.473 275.273 184.305 275.121C184.137 274.961 184.053 274.753 184.053 274.497C184.053 274.241 184.137 274.037 184.305 273.885C184.473 273.725 184.685 273.645 184.941 273.645C185.197 273.645 185.409 273.725 185.577 273.885C185.745 274.037 185.829 274.241 185.829 274.497C185.829 274.753 185.745 274.961 185.577 275.121C185.409 275.273 185.197 275.349 184.941 275.349ZM193.168 282.501C192.52 282.501 192.024 282.313 191.68 281.937C191.336 281.553 191.164 281.009 191.164 280.305V274.809H189.208V273.849H192.352V280.377C192.352 280.785 192.456 281.081 192.664 281.265C192.872 281.441 193.132 281.529 193.444 281.529C193.604 281.529 193.768 281.509 193.936 281.469C194.112 281.429 194.304 281.365 194.512 281.277L194.8 282.165C194.52 282.261 194.26 282.341 194.02 282.405C193.788 282.469 193.504 282.501 193.168 282.501ZM199.847 282.501C199.255 282.501 198.715 282.381 198.227 282.141C197.747 281.901 197.367 281.549 197.087 281.085C196.807 280.621 196.667 280.065 196.667 279.417C196.667 278.777 196.807 278.229 197.087 277.773C197.375 277.317 197.747 276.965 198.203 276.717C198.659 276.469 199.147 276.345 199.667 276.345C200.243 276.345 200.731 276.465 201.131 276.705C201.531 276.937 201.835 277.261 202.043 277.677C202.259 278.085 202.367 278.565 202.367 279.117C202.367 279.237 202.363 279.357 202.355 279.477C202.347 279.589 202.335 279.685 202.319 279.765H197.495V278.889H201.575L201.311 279.177C201.311 278.545 201.167 278.073 200.879 277.761C200.591 277.441 200.199 277.281 199.703 277.281C199.359 277.281 199.043 277.365 198.755 277.533C198.475 277.693 198.251 277.933 198.083 278.253C197.915 278.565 197.831 278.953 197.831 279.417C197.831 279.897 197.923 280.297 198.107 280.617C198.299 280.929 198.555 281.165 198.875 281.325C199.203 281.485 199.579 281.565 200.003 281.565C200.331 281.565 200.631 281.521 200.903 281.433C201.175 281.337 201.443 281.209 201.707 281.049L202.127 281.805C201.831 282.005 201.491 282.173 201.107 282.309C200.723 282.437 200.303 282.501 199.847 282.501ZM212.054 284.757V276.489H213.026L213.122 277.209H213.158C213.422 276.961 213.726 276.757 214.07 276.597C214.414 276.429 214.762 276.345 215.114 276.345C215.634 276.345 216.07 276.469 216.422 276.717C216.782 276.965 217.054 277.313 217.238 277.761C217.43 278.209 217.526 278.733 217.526 279.333C217.526 280.005 217.402 280.577 217.154 281.049C216.906 281.521 216.582 281.881 216.182 282.129C215.782 282.377 215.35 282.501 214.886 282.501C214.622 282.501 214.338 282.437 214.034 282.309C213.738 282.181 213.466 282.005 213.218 281.781H213.182L213.242 282.837V284.757H212.054ZM214.658 281.517C214.97 281.517 215.25 281.433 215.498 281.265C215.746 281.097 215.942 280.853 216.086 280.533C216.23 280.205 216.302 279.809 216.302 279.345C216.302 278.937 216.246 278.585 216.134 278.289C216.03 277.985 215.87 277.753 215.654 277.593C215.438 277.425 215.15 277.341 214.79 277.341C214.55 277.341 214.298 277.405 214.034 277.533C213.77 277.653 213.506 277.853 213.242 278.133V280.905C213.49 281.121 213.742 281.277 213.998 281.373C214.254 281.469 214.474 281.517 214.658 281.517ZM220.209 282.357V276.489H221.193L221.289 277.857H221.325C221.629 277.377 222.001 277.005 222.441 276.741C222.881 276.477 223.361 276.345 223.881 276.345C224.105 276.345 224.309 276.365 224.493 276.405C224.677 276.445 224.857 276.505 225.033 276.585L224.769 277.605C224.569 277.533 224.397 277.485 224.253 277.461C224.109 277.429 223.925 277.413 223.701 277.413C223.277 277.413 222.869 277.533 222.477 277.773C222.085 278.013 221.725 278.429 221.397 279.021V282.357H220.209ZM229.708 282.501C229.196 282.501 228.716 282.381 228.268 282.141C227.828 281.901 227.468 281.553 227.188 281.097C226.916 280.633 226.78 280.077 226.78 279.429C226.78 278.781 226.916 278.229 227.188 277.773C227.468 277.309 227.828 276.957 228.268 276.717C228.716 276.469 229.196 276.345 229.708 276.345C230.22 276.345 230.696 276.469 231.136 276.717C231.584 276.957 231.944 277.309 232.216 277.773C232.496 278.229 232.636 278.781 232.636 279.429C232.636 280.077 232.496 280.633 232.216 281.097C231.944 281.553 231.584 281.901 231.136 282.141C230.696 282.381 230.22 282.501 229.708 282.501ZM229.708 281.529C230.052 281.529 230.352 281.441 230.608 281.265C230.864 281.089 231.06 280.845 231.196 280.533C231.34 280.221 231.412 279.853 231.412 279.429C231.412 279.013 231.34 278.649 231.196 278.337C231.06 278.017 230.864 277.769 230.608 277.593C230.352 277.417 230.052 277.329 229.708 277.329C229.364 277.329 229.064 277.417 228.808 277.593C228.552 277.769 228.352 278.017 228.208 278.337C228.072 278.649 228.004 279.013 228.004 279.429C228.004 279.853 228.072 280.221 228.208 280.533C228.352 280.845 228.552 281.089 228.808 281.265C229.064 281.441 229.364 281.529 229.708 281.529ZM237.564 282.501C237.276 282.501 236.976 282.433 236.664 282.297C236.352 282.153 236.064 281.957 235.8 281.709H235.764L235.656 282.357H234.72V273.849H235.908V276.105L235.86 277.185H235.896C236.152 276.929 236.444 276.725 236.772 276.573C237.108 276.421 237.44 276.345 237.768 276.345C238.288 276.345 238.728 276.469 239.088 276.717C239.448 276.965 239.72 277.313 239.904 277.761C240.096 278.201 240.192 278.725 240.192 279.333C240.192 279.997 240.068 280.569 239.82 281.049C239.572 281.521 239.248 281.881 238.848 282.129C238.456 282.377 238.028 282.501 237.564 282.501ZM237.336 281.517C237.648 281.517 237.924 281.433 238.164 281.265C238.412 281.097 238.608 280.853 238.752 280.533C238.896 280.205 238.968 279.809 238.968 279.345C238.968 278.937 238.912 278.585 238.8 278.289C238.696 277.985 238.536 277.753 238.32 277.593C238.104 277.425 237.816 277.341 237.456 277.341C237.216 277.341 236.964 277.405 236.7 277.533C236.436 277.653 236.172 277.853 235.908 278.133V280.905C236.156 281.121 236.408 281.277 236.664 281.373C236.92 281.469 237.144 281.517 237.336 281.517ZM245.179 282.501C244.587 282.501 244.047 282.381 243.559 282.141C243.079 281.901 242.699 281.549 242.419 281.085C242.139 280.621 241.999 280.065 241.999 279.417C241.999 278.777 242.139 278.229 242.419 277.773C242.707 277.317 243.079 276.965 243.535 276.717C243.991 276.469 244.479 276.345 244.999 276.345C245.575 276.345 246.063 276.465 246.463 276.705C246.863 276.937 247.167 277.261 247.375 277.677C247.591 278.085 247.699 278.565 247.699 279.117C247.699 279.237 247.695 279.357 247.687 279.477C247.679 279.589 247.667 279.685 247.651 279.765H242.827V278.889H246.907L246.643 279.177C246.643 278.545 246.499 278.073 246.211 277.761C245.923 277.441 245.531 277.281 245.035 277.281C244.691 277.281 244.375 277.365 244.087 277.533C243.807 277.693 243.583 277.933 243.415 278.253C243.247 278.565 243.163 278.953 243.163 279.417C243.163 279.897 243.255 280.297 243.439 280.617C243.631 280.929 243.887 281.165 244.207 281.325C244.535 281.485 244.911 281.565 245.335 281.565C245.663 281.565 245.963 281.521 246.235 281.433C246.507 281.337 246.775 281.209 247.039 281.049L247.459 281.805C247.163 282.005 246.823 282.173 246.439 282.309C246.055 282.437 245.635 282.501 245.179 282.501ZM252.446 282.357V277.449H249.818V276.489H253.634V282.357H252.446ZM252.938 275.349C252.682 275.349 252.47 275.273 252.302 275.121C252.134 274.961 252.05 274.753 252.05 274.497C252.05 274.241 252.134 274.037 252.302 273.885C252.47 273.725 252.682 273.645 252.938 273.645C253.194 273.645 253.406 273.725 253.574 273.885C253.742 274.037 253.826 274.241 253.826 274.497C253.826 274.753 253.742 274.961 253.574 275.121C253.406 275.273 253.194 275.349 252.938 275.349ZM267.557 282.357V277.449H264.929V276.489H268.745V282.357H267.557ZM266.585 275.565L266.105 275.109L267.449 273.465H268.649L269.993 275.109L269.513 275.565L268.073 274.269H268.025L266.585 275.565ZM272.496 282.357V276.489H273.468L273.564 277.437H273.612C273.908 277.133 274.228 276.877 274.572 276.669C274.916 276.453 275.316 276.345 275.772 276.345C276.452 276.345 276.952 276.553 277.272 276.969C277.6 277.377 277.764 277.961 277.764 278.721V282.357H276.576V278.877C276.576 278.365 276.48 277.989 276.288 277.749C276.104 277.501 275.792 277.377 275.352 277.377C275.04 277.377 274.76 277.457 274.512 277.617C274.264 277.769 273.988 278.001 273.684 278.313V282.357H272.496ZM145.952 306.357L143.552 300.489H144.752L145.988 303.681C146.1 303.969 146.208 304.261 146.312 304.557C146.416 304.845 146.516 305.133 146.612 305.421H146.66C146.764 305.133 146.864 304.845 146.96 304.557C147.056 304.261 147.16 303.969 147.272 303.681L148.508 300.489H149.648L147.296 306.357H145.952ZM153.447 306.501C153.071 306.501 152.731 306.433 152.427 306.297C152.131 306.153 151.895 305.957 151.719 305.709C151.551 305.453 151.467 305.153 151.467 304.809C151.467 304.153 151.787 303.653 152.427 303.309C153.075 302.965 154.135 302.737 155.607 302.625C155.599 302.385 155.543 302.165 155.439 301.965C155.343 301.765 155.187 301.609 154.971 301.497C154.763 301.377 154.487 301.317 154.143 301.317C153.903 301.317 153.667 301.349 153.435 301.413C153.203 301.469 152.979 301.549 152.763 301.653C152.547 301.757 152.343 301.865 152.151 301.977L151.707 301.173C151.923 301.045 152.171 300.917 152.451 300.789C152.731 300.653 153.031 300.545 153.351 300.465C153.679 300.385 154.011 300.345 154.347 300.345C154.891 300.345 155.343 300.445 155.703 300.645C156.063 300.845 156.335 301.129 156.519 301.497C156.703 301.865 156.795 302.309 156.795 302.829V306.357H155.823L155.727 305.601H155.691C155.379 305.841 155.027 306.053 154.635 306.237C154.243 306.413 153.847 306.501 153.447 306.501ZM153.783 305.553C154.095 305.553 154.403 305.485 154.707 305.349C155.011 305.213 155.311 305.021 155.607 304.773V303.381C154.839 303.437 154.235 303.525 153.795 303.645C153.363 303.765 153.059 303.917 152.883 304.101C152.707 304.277 152.619 304.485 152.619 304.725C152.619 304.917 152.671 305.077 152.775 305.205C152.887 305.325 153.031 305.413 153.207 305.469C153.383 305.525 153.575 305.553 153.783 305.553ZM162.947 306.501C162.299 306.501 161.803 306.313 161.459 305.937C161.115 305.553 160.943 305.009 160.943 304.305V298.809H158.987V297.849H162.131V304.377C162.131 304.785 162.235 305.081 162.443 305.265C162.651 305.441 162.911 305.529 163.223 305.529C163.383 305.529 163.547 305.509 163.715 305.469C163.891 305.429 164.083 305.365 164.291 305.277L164.579 306.165C164.299 306.261 164.039 306.341 163.799 306.405C163.567 306.469 163.283 306.501 162.947 306.501ZM169.266 306.501C168.754 306.501 168.274 306.381 167.826 306.141C167.386 305.901 167.026 305.553 166.746 305.097C166.474 304.633 166.338 304.077 166.338 303.429C166.338 302.781 166.474 302.229 166.746 301.773C167.026 301.309 167.386 300.957 167.826 300.717C168.274 300.469 168.754 300.345 169.266 300.345C169.778 300.345 170.254 300.469 170.694 300.717C171.142 300.957 171.502 301.309 171.774 301.773C172.054 302.229 172.194 302.781 172.194 303.429C172.194 304.077 172.054 304.633 171.774 305.097C171.502 305.553 171.142 305.901 170.694 306.141C170.254 306.381 169.778 306.501 169.266 306.501ZM169.266 305.529C169.61 305.529 169.91 305.441 170.166 305.265C170.422 305.089 170.618 304.845 170.754 304.533C170.898 304.221 170.97 303.853 170.97 303.429C170.97 303.013 170.898 302.649 170.754 302.337C170.618 302.017 170.422 301.769 170.166 301.593C169.91 301.417 169.61 301.329 169.266 301.329C168.922 301.329 168.622 301.417 168.366 301.593C168.11 301.769 167.91 302.017 167.766 302.337C167.63 302.649 167.562 303.013 167.562 303.429C167.562 303.853 167.63 304.221 167.766 304.533C167.91 304.845 168.11 305.089 168.366 305.265C168.622 305.441 168.922 305.529 169.266 305.529ZM176.113 306.501C175.737 306.501 175.397 306.433 175.093 306.297C174.797 306.153 174.561 305.957 174.385 305.709C174.217 305.453 174.133 305.153 174.133 304.809C174.133 304.153 174.453 303.653 175.093 303.309C175.741 302.965 176.801 302.737 178.273 302.625C178.265 302.385 178.209 302.165 178.105 301.965C178.009 301.765 177.853 301.609 177.637 301.497C177.429 301.377 177.153 301.317 176.809 301.317C176.569 301.317 176.333 301.349 176.101 301.413C175.869 301.469 175.645 301.549 175.429 301.653C175.213 301.757 175.009 301.865 174.817 301.977L174.373 301.173C174.589 301.045 174.837 300.917 175.117 300.789C175.397 300.653 175.697 300.545 176.017 300.465C176.345 300.385 176.677 300.345 177.013 300.345C177.557 300.345 178.009 300.445 178.369 300.645C178.729 300.845 179.001 301.129 179.185 301.497C179.369 301.865 179.461 302.309 179.461 302.829V306.357H178.489L178.393 305.601H178.357C178.045 305.841 177.693 306.053 177.301 306.237C176.909 306.413 176.513 306.501 176.113 306.501ZM176.449 305.553C176.761 305.553 177.069 305.485 177.373 305.349C177.677 305.213 177.977 305.021 178.273 304.773V303.381C177.505 303.437 176.901 303.525 176.461 303.645C176.029 303.765 175.725 303.917 175.549 304.101C175.373 304.277 175.285 304.485 175.285 304.725C175.285 304.917 175.337 305.077 175.441 305.205C175.553 305.325 175.697 305.413 175.873 305.469C176.049 305.525 176.241 305.553 176.449 305.553ZM182.433 306.357V300.489H183.417L183.513 301.857H183.549C183.853 301.377 184.225 301.005 184.665 300.741C185.105 300.477 185.585 300.345 186.105 300.345C186.329 300.345 186.533 300.365 186.717 300.405C186.901 300.445 187.081 300.505 187.257 300.585L186.993 301.605C186.793 301.533 186.621 301.485 186.477 301.461C186.333 301.429 186.149 301.413 185.925 301.413C185.501 301.413 185.093 301.533 184.701 301.773C184.309 302.013 183.949 302.429 183.621 303.021V306.357H182.433ZM192.292 306.501C191.7 306.501 191.16 306.381 190.672 306.141C190.192 305.901 189.812 305.549 189.532 305.085C189.252 304.621 189.112 304.065 189.112 303.417C189.112 302.777 189.252 302.229 189.532 301.773C189.82 301.317 190.192 300.965 190.648 300.717C191.104 300.469 191.592 300.345 192.112 300.345C192.688 300.345 193.176 300.465 193.576 300.705C193.976 300.937 194.28 301.261 194.488 301.677C194.704 302.085 194.812 302.565 194.812 303.117C194.812 303.237 194.808 303.357 194.8 303.477C194.792 303.589 194.78 303.685 194.764 303.765H189.94V302.889H194.02L193.756 303.177C193.756 302.545 193.612 302.073 193.324 301.761C193.036 301.441 192.644 301.281 192.148 301.281C191.804 301.281 191.488 301.365 191.2 301.533C190.92 301.693 190.696 301.933 190.528 302.253C190.36 302.565 190.276 302.953 190.276 303.417C190.276 303.897 190.368 304.297 190.552 304.617C190.744 304.929 191 305.165 191.32 305.325C191.648 305.485 192.024 305.565 192.448 305.565C192.776 305.565 193.076 305.521 193.348 305.433C193.62 305.337 193.888 305.209 194.152 305.049L194.572 305.805C194.276 306.005 193.936 306.173 193.552 306.309C193.168 306.437 192.748 306.501 192.292 306.501ZM206.647 306.501C205.887 306.501 205.275 306.233 204.811 305.697C204.347 305.153 204.115 304.397 204.115 303.429C204.115 302.797 204.239 302.253 204.487 301.797C204.743 301.333 205.071 300.977 205.471 300.729C205.871 300.473 206.295 300.345 206.743 300.345C207.087 300.345 207.395 300.409 207.667 300.537C207.939 300.665 208.191 300.845 208.423 301.077H208.459L208.399 300.033V297.849H209.587V306.357H208.615L208.519 305.637H208.483C208.251 305.869 207.975 306.073 207.655 306.249C207.335 306.417 206.999 306.501 206.647 306.501ZM206.923 305.517C207.187 305.517 207.439 305.453 207.679 305.325C207.927 305.189 208.167 304.989 208.399 304.725V301.941C208.167 301.725 207.935 301.573 207.703 301.485C207.471 301.389 207.239 301.341 207.007 301.341C206.703 301.341 206.423 301.425 206.167 301.593C205.919 301.761 205.719 302.001 205.567 302.313C205.415 302.625 205.339 302.993 205.339 303.417C205.339 304.089 205.479 304.609 205.759 304.977C206.039 305.337 206.427 305.517 206.923 305.517ZM214.958 306.501C214.366 306.501 213.826 306.381 213.338 306.141C212.858 305.901 212.478 305.549 212.198 305.085C211.918 304.621 211.778 304.065 211.778 303.417C211.778 302.777 211.918 302.229 212.198 301.773C212.486 301.317 212.858 300.965 213.314 300.717C213.77 300.469 214.258 300.345 214.778 300.345C215.354 300.345 215.842 300.465 216.242 300.705C216.642 300.937 216.946 301.261 217.154 301.677C217.37 302.085 217.478 302.565 217.478 303.117C217.478 303.237 217.474 303.357 217.466 303.477C217.458 303.589 217.446 303.685 217.43 303.765H212.606V302.889H216.686L216.422 303.177C216.422 302.545 216.278 302.073 215.99 301.761C215.702 301.441 215.31 301.281 214.814 301.281C214.47 301.281 214.154 301.365 213.866 301.533C213.586 301.693 213.362 301.933 213.194 302.253C213.026 302.565 212.942 302.953 212.942 303.417C212.942 303.897 213.034 304.297 213.218 304.617C213.41 304.929 213.666 305.165 213.986 305.325C214.314 305.485 214.69 305.565 215.114 305.565C215.442 305.565 215.742 305.521 216.014 305.433C216.286 305.337 216.554 305.209 216.818 305.049L217.238 305.805C216.942 306.005 216.602 306.173 216.218 306.309C215.834 306.437 215.414 306.501 214.958 306.501ZM229.929 306.357V304.215H233.007V297.609H230.469V295.971C230.985 295.887 231.429 295.803 231.801 295.719C232.185 295.623 232.527 295.515 232.827 295.395C233.127 295.263 233.421 295.107 233.709 294.927H235.653V304.215H238.245V306.357H229.929ZM244.754 306.573C244.094 306.573 243.5 306.501 242.972 306.357C242.444 306.213 241.976 306.021 241.568 305.781C241.16 305.541 240.8 305.271 240.488 304.971L241.676 303.297C241.928 303.501 242.192 303.693 242.468 303.873C242.744 304.041 243.038 304.179 243.35 304.287C243.674 304.383 244.016 304.431 244.376 304.431C244.808 304.431 245.192 304.365 245.528 304.233C245.864 304.089 246.122 303.885 246.302 303.621C246.494 303.357 246.59 303.033 246.59 302.649C246.59 302.073 246.392 301.635 245.996 301.335C245.6 301.035 245.102 300.885 244.502 300.885C244.13 300.885 243.812 300.927 243.548 301.011C243.296 301.095 242.972 301.245 242.576 301.461L241.406 300.705L241.712 294.927H248.714V297.159H243.998L243.8 299.301C244.076 299.205 244.322 299.139 244.538 299.103C244.766 299.055 245.024 299.031 245.312 299.031C246.02 299.031 246.668 299.157 247.256 299.409C247.856 299.661 248.336 300.051 248.696 300.579C249.056 301.107 249.236 301.773 249.236 302.577C249.236 303.429 249.026 304.155 248.606 304.755C248.186 305.343 247.634 305.793 246.95 306.105C246.266 306.417 245.534 306.573 244.754 306.573ZM256.213 306.573C255.337 306.573 254.569 306.345 253.909 305.889C253.249 305.421 252.733 304.743 252.361 303.855C252.001 302.967 251.821 301.881 251.821 300.597C251.821 298.641 252.223 297.171 253.027 296.187C253.831 295.203 254.893 294.711 256.213 294.711C257.545 294.711 258.607 295.203 259.399 296.187C260.203 297.171 260.605 298.641 260.605 300.597C260.605 301.881 260.419 302.967 260.047 303.855C259.687 304.743 259.177 305.421 258.517 305.889C257.869 306.345 257.101 306.573 256.213 306.573ZM256.213 304.521C256.597 304.521 256.939 304.401 257.239 304.161C257.551 303.921 257.797 303.513 257.977 302.937C258.157 302.361 258.247 301.581 258.247 300.597C258.247 299.601 258.157 298.827 257.977 298.275C257.797 297.711 257.551 297.321 257.239 297.105C256.939 296.877 256.597 296.763 256.213 296.763C255.841 296.763 255.499 296.877 255.187 297.105C254.875 297.321 254.629 297.711 254.449 298.275C254.269 298.827 254.179 299.601 254.179 300.597C254.179 301.581 254.269 302.361 254.449 302.937C254.629 303.513 254.875 303.921 255.187 304.161C255.499 304.401 255.841 304.521 256.213 304.521ZM256.213 301.929C255.841 301.929 255.523 301.803 255.259 301.551C254.995 301.299 254.863 300.969 254.863 300.561C254.863 300.141 254.995 299.811 255.259 299.571C255.523 299.319 255.841 299.193 256.213 299.193C256.597 299.193 256.915 299.319 257.167 299.571C257.431 299.811 257.563 300.141 257.563 300.561C257.563 300.969 257.431 301.299 257.167 301.551C256.915 301.803 256.597 301.929 256.213 301.929ZM267.366 306.573C266.49 306.573 265.722 306.345 265.062 305.889C264.402 305.421 263.886 304.743 263.514 303.855C263.154 302.967 262.974 301.881 262.974 300.597C262.974 298.641 263.376 297.171 264.18 296.187C264.984 295.203 266.046 294.711 267.366 294.711C268.698 294.711 269.76 295.203 270.552 296.187C271.356 297.171 271.758 298.641 271.758 300.597C271.758 301.881 271.572 302.967 271.2 303.855C270.84 304.743 270.33 305.421 269.67 305.889C269.022 306.345 268.254 306.573 267.366 306.573ZM267.366 304.521C267.75 304.521 268.092 304.401 268.392 304.161C268.704 303.921 268.95 303.513 269.13 302.937C269.31 302.361 269.4 301.581 269.4 300.597C269.4 299.601 269.31 298.827 269.13 298.275C268.95 297.711 268.704 297.321 268.392 297.105C268.092 296.877 267.75 296.763 267.366 296.763C266.994 296.763 266.652 296.877 266.34 297.105C266.028 297.321 265.782 297.711 265.602 298.275C265.422 298.827 265.332 299.601 265.332 300.597C265.332 301.581 265.422 302.361 265.602 302.937C265.782 303.513 266.028 303.921 266.34 304.161C266.652 304.401 266.994 304.521 267.366 304.521ZM267.366 301.929C266.994 301.929 266.676 301.803 266.412 301.551C266.148 301.299 266.016 300.969 266.016 300.561C266.016 300.141 266.148 299.811 266.412 299.571C266.676 299.319 266.994 299.193 267.366 299.193C267.75 299.193 268.068 299.319 268.32 299.571C268.584 299.811 268.716 300.141 268.716 300.561C268.716 300.969 268.584 301.299 268.32 301.551C268.068 301.803 267.75 301.929 267.366 301.929ZM279.977 306.573C279.005 306.573 278.135 306.351 277.367 305.907C276.611 305.463 276.011 304.803 275.567 303.927C275.123 303.051 274.901 301.977 274.901 300.705C274.901 299.445 275.123 298.371 275.567 297.483C276.023 296.583 276.647 295.899 277.439 295.431C278.231 294.951 279.143 294.711 280.175 294.711C280.787 294.711 281.381 294.837 281.957 295.089C282.533 295.329 283.037 295.671 283.469 296.115L282.011 297.537C281.735 297.309 281.441 297.123 281.129 296.979C280.817 296.835 280.469 296.763 280.085 296.763C279.533 296.763 279.071 296.919 278.699 297.231C278.327 297.531 278.039 297.969 277.835 298.545C277.643 299.121 277.547 299.811 277.547 300.615C277.547 301.443 277.649 302.151 277.853 302.739C278.069 303.315 278.369 303.759 278.753 304.071C279.137 304.371 279.599 304.521 280.139 304.521C280.559 304.521 280.931 304.437 281.255 304.269C281.579 304.089 281.879 303.849 282.155 303.549L283.613 304.917C283.133 305.445 282.587 305.853 281.975 306.141C281.375 306.429 280.709 306.573 279.977 306.573ZM273.929 300.183V298.941L275.261 298.851H282.281V300.183H273.929ZM273.929 302.415V301.191L275.261 301.083H281.561V302.415H273.929Z" fill="#091931"/>
</g>
<rect x="346" y="246.357" width="7" height="88" rx="3.5" fill="#FFC947"/>
<defs>
<filter id="filter0_d_144_2005" x="-189" y="0.356567" width="777" height="588" filterUnits="userSpaceOnUse" color-interpolation-filters="sRGB">
<feFlood flood-opacity="0" result="BackgroundImageFix"/>
<feColorMatrix in="SourceAlpha" type="matrix" values="0 0 0 0 0 0 0 0 0 0 0 0 0 0 0 0 0 0 127 0" result="hardAlpha"/>
<feOffset dy="4"/>
<feGaussianBlur stdDeviation="125"/>
<feComposite in2="hardAlpha" operator="out"/>
<feColorMatrix type="matrix" values="0 0 0 0 1 0 0 0 0 1 0 0 0 0 1 0 0 0 0.37 0"/>
<feBlend mode="normal" in2="BackgroundImageFix" result="effect1_dropShadow_144_2005"/>
<feBlend mode="normal" in="SourceGraphic" in2="effect1_dropShadow_144_2005" result="shape"/>
</filter>
</defs>
</svg>
