<svg width="191" height="13" viewBox="0 0 191 13" fill="none" xmlns="http://www.w3.org/2000/svg">
<path d="M4.128 12V2.624H0.672V1.504H8.928V2.624H5.472V12H4.128ZM14.8738 12.192C14.0951 12.192 13.3858 12.032 12.7458 11.712C12.1164 11.392 11.6151 10.928 11.2418 10.32C10.8684 9.70133 10.6818 8.96 10.6818 8.096C10.6818 7.25333 10.8684 6.528 11.2418 5.92C11.6151 5.312 12.1004 4.848 12.6978 4.528C13.3058 4.19733 13.9564 4.032 14.6498 4.032C15.3964 4.032 16.0311 4.18667 16.5538 4.496C17.0871 4.79467 17.4924 5.216 17.7698 5.76C18.0578 6.304 18.2018 6.944 18.2018 7.68C18.2018 7.82933 18.1964 7.97333 18.1858 8.112C18.1751 8.25067 18.1591 8.37333 18.1378 8.48H11.5618V7.456H17.3538L17.0178 7.824C17.0178 6.90667 16.8044 6.21867 16.3778 5.76C15.9618 5.30133 15.3964 5.072 14.6818 5.072C14.2018 5.072 13.7538 5.18933 13.3378 5.424C12.9324 5.65867 12.6071 6 12.3618 6.448C12.1164 6.896 11.9938 7.44533 11.9938 8.096C11.9938 8.768 12.1271 9.328 12.3938 9.776C12.6604 10.224 13.0231 10.5653 13.4818 10.8C13.9404 11.024 14.4578 11.136 15.0338 11.136C15.5031 11.136 15.9244 11.072 16.2978 10.944C16.6818 10.8053 17.0498 10.624 17.4018 10.4L17.8818 11.264C17.4978 11.52 17.0551 11.7387 16.5538 11.92C16.0631 12.1013 15.5031 12.192 14.8738 12.192ZM21.5235 12V4.224H22.6115L22.7235 6.064H22.7715C23.1768 5.43467 23.6782 4.93867 24.2755 4.576C24.8728 4.21333 25.5288 4.032 26.2435 4.032C26.5315 4.032 26.7982 4.05867 27.0435 4.112C27.2995 4.15467 27.5448 4.23467 27.7795 4.352L27.4755 5.488C27.2088 5.392 26.9795 5.32267 26.7875 5.28C26.5955 5.23733 26.3448 5.216 26.0355 5.216C25.4488 5.216 24.8835 5.38667 24.3395 5.728C23.8062 6.05867 23.3048 6.62933 22.8355 7.44V12H21.5235ZM29.7093 12V4.224H30.7653L30.8773 5.248H30.9093C31.1119 4.88533 31.3466 4.592 31.6133 4.368C31.8799 4.144 32.2373 4.032 32.6853 4.032C33.0693 4.032 33.3839 4.144 33.6293 4.368C33.8746 4.592 34.0506 4.928 34.1573 5.376C34.3813 4.96 34.6266 4.63467 34.8933 4.4C35.1706 4.15467 35.5333 4.032 35.9813 4.032C36.5253 4.032 36.9466 4.24 37.2453 4.656C37.5546 5.06133 37.7093 5.65333 37.7093 6.432V12H36.3973V6.528C36.3973 5.62133 36.1199 5.168 35.5653 5.168C35.2986 5.168 35.0746 5.26933 34.8933 5.472C34.7226 5.664 34.5306 5.96267 34.3173 6.368V12H33.1013V6.528C33.1013 6.08 33.0373 5.744 32.9093 5.52C32.7919 5.28533 32.5893 5.168 32.3013 5.168C32.0346 5.168 31.7999 5.26933 31.5973 5.472C31.4053 5.664 31.2133 5.96267 31.0213 6.368V12H29.7093ZM43.335 12.192C42.5777 12.192 41.8683 12.0693 41.207 11.824C40.5457 11.5787 39.9803 11.296 39.511 10.976L40.119 10.112C40.567 10.432 41.063 10.688 41.607 10.88C42.151 11.072 42.7803 11.168 43.495 11.168C44.1563 11.168 44.647 11.0453 44.967 10.8C45.2977 10.5547 45.463 10.272 45.463 9.952C45.463 9.80267 45.431 9.664 45.367 9.536C45.3137 9.408 45.2017 9.28533 45.031 9.168C44.871 9.05067 44.631 8.93867 44.311 8.832C43.991 8.72533 43.5643 8.61867 43.031 8.512C42.0177 8.29867 41.255 8.01067 40.743 7.648C40.2417 7.28533 39.991 6.816 39.991 6.24C39.991 5.61067 40.263 5.088 40.807 4.672C41.351 4.24533 42.1563 4.032 43.223 4.032C43.8203 4.032 44.3963 4.13333 44.951 4.336C45.5057 4.528 45.975 4.75733 46.359 5.024L45.719 5.872C45.367 5.616 44.967 5.41867 44.519 5.28C44.071 5.13067 43.6017 5.056 43.111 5.056C42.663 5.056 42.3057 5.10933 42.039 5.216C41.783 5.312 41.5963 5.44533 41.479 5.616C41.3723 5.78667 41.319 5.97333 41.319 6.176C41.319 6.50667 41.495 6.768 41.847 6.96C42.2097 7.14133 42.7857 7.312 43.575 7.472C44.439 7.65333 45.1003 7.856 45.559 8.08C46.0283 8.304 46.3483 8.56 46.519 8.848C46.7003 9.136 46.791 9.47733 46.791 9.872C46.791 10.2987 46.6577 10.688 46.391 11.04C46.1243 11.3813 45.735 11.6587 45.223 11.872C44.711 12.0853 44.0817 12.192 43.335 12.192ZM61.4985 12.192C61.0185 12.192 60.5758 12.1067 60.1705 11.936C59.7652 11.7547 59.4452 11.4987 59.2105 11.168C58.9758 10.8373 58.8585 10.4427 58.8585 9.984C58.8585 9.10933 59.2958 8.448 60.1705 8C61.0452 7.54133 62.4852 7.232 64.4905 7.072C64.4798 6.72 64.4052 6.39467 64.2665 6.096C64.1385 5.79733 63.9252 5.56267 63.6265 5.392C63.3278 5.21067 62.9278 5.12 62.4265 5.12C62.0958 5.12 61.7652 5.168 61.4345 5.264C61.1145 5.34933 60.8052 5.46667 60.5065 5.616C60.2185 5.75467 59.9518 5.89867 59.7065 6.048L59.1945 5.152C59.4505 4.98133 59.7598 4.81067 60.1225 4.64C60.4958 4.45867 60.8958 4.31467 61.3225 4.208C61.7492 4.09067 62.1918 4.032 62.6505 4.032C63.3652 4.032 63.9518 4.16533 64.4105 4.432C64.8798 4.69867 65.2265 5.072 65.4505 5.552C65.6852 6.02133 65.8025 6.58133 65.8025 7.232V12H64.7305L64.6185 10.944H64.5705C64.1438 11.2853 63.6638 11.5787 63.1305 11.824C62.5972 12.0693 62.0532 12.192 61.4985 12.192ZM61.8505 11.136C62.2985 11.136 62.7412 11.0347 63.1785 10.832C63.6158 10.6293 64.0532 10.3467 64.4905 9.984V7.936C63.3812 8.032 62.5065 8.16533 61.8665 8.336C61.2372 8.50667 60.7892 8.72533 60.5225 8.992C60.2665 9.248 60.1385 9.54667 60.1385 9.888C60.1385 10.176 60.2185 10.416 60.3785 10.608C60.5385 10.7893 60.7465 10.9227 61.0025 11.008C61.2692 11.0933 61.5518 11.136 61.8505 11.136ZM68.6443 12V4.224H69.7323L69.8443 5.552H69.9083C70.3136 5.11467 70.7509 4.752 71.2203 4.464C71.6896 4.176 72.2283 4.032 72.8363 4.032C73.7536 4.032 74.4309 4.29867 74.8683 4.832C75.3056 5.36533 75.5243 6.144 75.5243 7.168V12H74.2123V7.344C74.2123 6.608 74.0736 6.064 73.7963 5.712C73.5189 5.34933 73.0603 5.168 72.4203 5.168C71.9616 5.168 71.5509 5.28533 71.1883 5.52C70.8256 5.75467 70.4149 6.10667 69.9563 6.576V12H68.6443ZM81.086 12.192C80.0727 12.192 79.2567 11.84 78.638 11.136C78.0193 10.4213 77.71 9.41867 77.71 8.128C77.71 7.28533 77.8753 6.56 78.206 5.952C78.5473 5.33333 78.9847 4.85867 79.518 4.528C80.062 4.19733 80.638 4.032 81.246 4.032C81.7047 4.032 82.1207 4.12267 82.494 4.304C82.878 4.47467 83.2353 4.72 83.566 5.04H83.614L83.55 3.6V0.608H84.862V12H83.774L83.662 10.976H83.614C83.3047 11.3067 82.926 11.5947 82.478 11.84C82.0407 12.0747 81.5767 12.192 81.086 12.192ZM81.358 11.088C81.742 11.088 82.1153 10.992 82.478 10.8C82.8407 10.5973 83.198 10.304 83.55 9.92V6.048C83.198 5.71733 82.8513 5.48267 82.51 5.344C82.1793 5.20533 81.8433 5.136 81.502 5.136C81.054 5.136 80.6433 5.264 80.27 5.52C79.9073 5.76533 79.614 6.112 79.39 6.56C79.1767 6.99733 79.07 7.51467 79.07 8.112C79.07 9.04 79.2727 9.77067 79.678 10.304C80.0833 10.8267 80.6433 11.088 81.358 11.088ZM101.554 12.192C100.903 12.192 100.3 12.0693 99.7455 11.824C99.1908 11.5787 98.7055 11.2267 98.2895 10.768C97.8735 10.2987 97.5482 9.728 97.3135 9.056C97.0895 8.37333 96.9775 7.60533 96.9775 6.752C96.9775 5.632 97.1802 4.66667 97.5855 3.856C97.9908 3.03467 98.5455 2.40533 99.2495 1.968C99.9535 1.53067 100.764 1.312 101.682 1.312C102.311 1.312 102.871 1.44533 103.362 1.712C103.852 1.968 104.247 2.26133 104.546 2.592L103.794 3.44C103.527 3.14133 103.218 2.90667 102.866 2.736C102.514 2.56533 102.119 2.48 101.682 2.48C101.01 2.48 100.423 2.656 99.9215 3.008C99.4308 3.34933 99.0468 3.83467 98.7695 4.464C98.4922 5.09333 98.3535 5.84533 98.3535 6.72C98.3535 7.60533 98.4922 8.368 98.7695 9.008C99.0468 9.648 99.4308 10.144 99.9215 10.496C100.423 10.848 101.01 11.024 101.682 11.024C102.162 11.024 102.594 10.9227 102.978 10.72C103.362 10.5173 103.719 10.2293 104.05 9.856L104.802 10.672C104.396 11.152 103.927 11.5253 103.394 11.792C102.86 12.0587 102.247 12.192 101.554 12.192ZM110.331 12.192C109.649 12.192 109.014 12.032 108.427 11.712C107.851 11.392 107.382 10.928 107.019 10.32C106.667 9.712 106.491 8.98133 106.491 8.128C106.491 7.25333 106.667 6.512 107.019 5.904C107.382 5.296 107.851 4.832 108.427 4.512C109.014 4.192 109.649 4.032 110.331 4.032C111.014 4.032 111.643 4.192 112.219 4.512C112.806 4.832 113.275 5.296 113.627 5.904C113.99 6.512 114.171 7.25333 114.171 8.128C114.171 8.98133 113.99 9.712 113.627 10.32C113.275 10.928 112.806 11.392 112.219 11.712C111.643 12.032 111.014 12.192 110.331 12.192ZM110.331 11.104C110.833 11.104 111.27 10.9813 111.643 10.736C112.017 10.48 112.305 10.128 112.507 9.68C112.71 9.232 112.811 8.71467 112.811 8.128C112.811 7.53067 112.71 7.008 112.507 6.56C112.305 6.10133 112.017 5.74933 111.643 5.504C111.27 5.248 110.833 5.12 110.331 5.12C109.83 5.12 109.393 5.248 109.019 5.504C108.657 5.74933 108.369 6.10133 108.155 6.56C107.953 7.008 107.851 7.53067 107.851 8.128C107.851 8.71467 107.953 9.232 108.155 9.68C108.369 10.128 108.657 10.48 109.019 10.736C109.393 10.9813 109.83 11.104 110.331 11.104ZM116.613 12V4.224H117.701L117.813 5.552H117.877C118.282 5.11467 118.72 4.752 119.189 4.464C119.658 4.176 120.197 4.032 120.805 4.032C121.722 4.032 122.4 4.29867 122.837 4.832C123.274 5.36533 123.493 6.144 123.493 7.168V12H122.181V7.344C122.181 6.608 122.042 6.064 121.765 5.712C121.488 5.34933 121.029 5.168 120.389 5.168C119.93 5.168 119.52 5.28533 119.157 5.52C118.794 5.75467 118.384 6.10667 117.925 6.576V12H116.613ZM129.055 12.192C128.041 12.192 127.225 11.84 126.607 11.136C125.988 10.4213 125.679 9.41867 125.679 8.128C125.679 7.28533 125.844 6.56 126.175 5.952C126.516 5.33333 126.953 4.85867 127.487 4.528C128.031 4.19733 128.607 4.032 129.215 4.032C129.673 4.032 130.089 4.12267 130.463 4.304C130.847 4.47467 131.204 4.72 131.535 5.04H131.583L131.519 3.6V0.608H132.831V12H131.743L131.631 10.976H131.583C131.273 11.3067 130.895 11.5947 130.447 11.84C130.009 12.0747 129.545 12.192 129.055 12.192ZM129.327 11.088C129.711 11.088 130.084 10.992 130.447 10.8C130.809 10.5973 131.167 10.304 131.519 9.92V6.048C131.167 5.71733 130.82 5.48267 130.479 5.344C130.148 5.20533 129.812 5.136 129.471 5.136C129.023 5.136 128.612 5.264 128.239 5.52C127.876 5.76533 127.583 6.112 127.359 6.56C127.145 6.99733 127.039 7.51467 127.039 8.112C127.039 9.04 127.241 9.77067 127.647 10.304C128.052 10.8267 128.612 11.088 129.327 11.088ZM139.369 12V5.296H135.753V4.224H140.681V12H139.369ZM139.881 2.592C139.582 2.592 139.331 2.50133 139.129 2.32C138.926 2.128 138.825 1.87733 138.825 1.568C138.825 1.25867 138.926 1.01333 139.129 0.832C139.331 0.64 139.582 0.544 139.881 0.544C140.179 0.544 140.43 0.64 140.633 0.832C140.835 1.01333 140.937 1.25867 140.937 1.568C140.937 1.87733 140.835 2.128 140.633 2.32C140.43 2.50133 140.179 2.592 139.881 2.592ZM150.21 12.192C149.453 12.192 148.856 12.0587 148.418 11.792C147.981 11.5147 147.666 11.136 147.474 10.656C147.293 10.176 147.202 9.616 147.202 8.976V5.296H145.01V4.304L147.25 4.224L147.426 1.728H148.514V4.224H152.338V5.296H148.514V8.992C148.514 9.45067 148.573 9.84 148.69 10.16C148.808 10.48 149.01 10.72 149.298 10.88C149.586 11.04 149.981 11.12 150.482 11.12C150.856 11.12 151.192 11.088 151.49 11.024C151.789 10.96 152.077 10.8747 152.354 10.768L152.642 11.728C152.29 11.856 151.917 11.9627 151.522 12.048C151.138 12.144 150.701 12.192 150.21 12.192ZM158.556 12V5.296H154.94V4.224H159.868V12H158.556ZM159.068 2.592C158.769 2.592 158.519 2.50133 158.316 2.32C158.113 2.128 158.012 1.87733 158.012 1.568C158.012 1.25867 158.113 1.01333 158.316 0.832C158.519 0.64 158.769 0.544 159.068 0.544C159.367 0.544 159.617 0.64 159.82 0.832C160.023 1.01333 160.124 1.25867 160.124 1.568C160.124 1.87733 160.023 2.128 159.82 2.32C159.617 2.50133 159.367 2.592 159.068 2.592ZM167.894 12.192C167.211 12.192 166.576 12.032 165.99 11.712C165.414 11.392 164.944 10.928 164.582 10.32C164.23 9.712 164.054 8.98133 164.054 8.128C164.054 7.25333 164.23 6.512 164.582 5.904C164.944 5.296 165.414 4.832 165.99 4.512C166.576 4.192 167.211 4.032 167.894 4.032C168.576 4.032 169.206 4.192 169.782 4.512C170.368 4.832 170.838 5.296 171.19 5.904C171.552 6.512 171.734 7.25333 171.734 8.128C171.734 8.98133 171.552 9.712 171.19 10.32C170.838 10.928 170.368 11.392 169.782 11.712C169.206 12.032 168.576 12.192 167.894 12.192ZM167.894 11.104C168.395 11.104 168.832 10.9813 169.206 10.736C169.579 10.48 169.867 10.128 170.07 9.68C170.272 9.232 170.374 8.71467 170.374 8.128C170.374 7.53067 170.272 7.008 170.07 6.56C169.867 6.10133 169.579 5.74933 169.206 5.504C168.832 5.248 168.395 5.12 167.894 5.12C167.392 5.12 166.955 5.248 166.582 5.504C166.219 5.74933 165.931 6.10133 165.718 6.56C165.515 7.008 165.414 7.53067 165.414 8.128C165.414 8.71467 165.515 9.232 165.718 9.68C165.931 10.128 166.219 10.48 166.582 10.736C166.955 10.9813 167.392 11.104 167.894 11.104ZM174.176 12V4.224H175.264L175.376 5.552H175.44C175.845 5.11467 176.282 4.752 176.752 4.464C177.221 4.176 177.76 4.032 178.368 4.032C179.285 4.032 179.962 4.29867 180.4 4.832C180.837 5.36533 181.056 6.144 181.056 7.168V12H179.744V7.344C179.744 6.608 179.605 6.064 179.328 5.712C179.05 5.34933 178.592 5.168 177.952 5.168C177.493 5.168 177.082 5.28533 176.72 5.52C176.357 5.75467 175.946 6.10667 175.488 6.576V12H174.176ZM187.241 12.192C186.484 12.192 185.775 12.0693 185.113 11.824C184.452 11.5787 183.887 11.296 183.417 10.976L184.025 10.112C184.473 10.432 184.969 10.688 185.513 10.88C186.057 11.072 186.687 11.168 187.401 11.168C188.063 11.168 188.553 11.0453 188.873 10.8C189.204 10.5547 189.369 10.272 189.369 9.952C189.369 9.80267 189.337 9.664 189.273 9.536C189.22 9.408 189.108 9.28533 188.937 9.168C188.777 9.05067 188.537 8.93867 188.217 8.832C187.897 8.72533 187.471 8.61867 186.937 8.512C185.924 8.29867 185.161 8.01067 184.649 7.648C184.148 7.28533 183.897 6.816 183.897 6.24C183.897 5.61067 184.169 5.088 184.713 4.672C185.257 4.24533 186.063 4.032 187.129 4.032C187.727 4.032 188.303 4.13333 188.857 4.336C189.412 4.528 189.881 4.75733 190.265 5.024L189.625 5.872C189.273 5.616 188.873 5.41867 188.425 5.28C187.977 5.13067 187.508 5.056 187.017 5.056C186.569 5.056 186.212 5.10933 185.945 5.216C185.689 5.312 185.503 5.44533 185.385 5.616C185.279 5.78667 185.225 5.97333 185.225 6.176C185.225 6.50667 185.401 6.768 185.753 6.96C186.116 7.14133 186.692 7.312 187.481 7.472C188.345 7.65333 189.007 7.856 189.465 8.08C189.935 8.304 190.255 8.56 190.425 8.848C190.607 9.136 190.697 9.47733 190.697 9.872C190.697 10.2987 190.564 10.688 190.297 11.04C190.031 11.3813 189.641 11.6587 189.129 11.872C188.617 12.0853 187.988 12.192 187.241 12.192Z" fill="#F2F3FA"/>
</svg>
