<svg width="642" height="147" viewBox="0 0 642 147" fill="none" xmlns="http://www.w3.org/2000/svg">
<g clip-path="url(#clip0_1_273)" filter="url(#filter0_d_1_273)">
<path d="M87.4064 75.2055C87.4064 77.2065 86.2628 78.9325 84.001 80.4333L43.5173 107.823C36.0203 112.901 39.6544 124.432 48.7271 124.457C54.4197 124.457 60.1377 122.931 65.8812 119.88C71.6246 116.828 75.0046 115.302 76.0212 115.302C80.6973 115.302 83.0353 117.228 83.0353 121.08C83.0353 123.306 81.6376 125.633 78.8675 127.984C70.1252 135.613 58.6383 138.99 44.3813 138.114C36.986 137.664 29.794 135.213 23.7964 130.936C10.9626 121.756 4.55835 109.874 4.55835 95.3413C4.55835 83.535 9.36151 73.6296 18.9678 65.6753C28.0659 58.2213 38.7395 54.4693 51.0143 54.4693C65.2967 54.4693 76.6057 59.622 84.9413 69.9526C86.5932 72.0788 87.4064 73.8047 87.4064 75.1804V75.2055ZM55.792 82.7595C62.3741 78.3071 59.1974 68.1516 51.1922 68.1266H50.9889C42.7803 68.1266 35.5628 70.628 29.3874 75.5807C22.7036 80.9335 19.349 87.5121 19.349 95.3663C19.349 100.469 25.1687 103.471 29.4636 100.594L55.792 82.7595Z" fill="white"/>
<path d="M116.197 131.346C116.197 135.948 113.732 138.25 108.802 138.25C103.872 138.25 101.406 135.948 101.406 131.346V6.90372C101.406 2.30124 103.872 0 108.802 0C113.732 0 116.197 2.30124 116.197 6.90372V131.346Z" fill="white"/>
<path d="M213.02 75.2055C213.02 77.2065 211.876 78.9325 209.614 80.4333L168.953 107.948C161.532 112.976 165.115 124.432 174.137 124.457H174.366C180.058 124.457 185.776 122.931 191.52 119.88C197.263 116.828 200.643 115.302 201.66 115.302C206.336 115.302 208.674 117.228 208.674 121.08C208.674 123.306 207.276 125.633 204.506 127.984C195.764 135.613 184.277 138.99 170.02 138.114C162.625 137.664 155.433 135.213 149.435 130.936C136.601 121.756 130.197 109.874 130.197 95.3413C130.197 83.535 135 73.6296 144.607 65.6753C153.705 58.2213 164.378 54.4693 176.653 54.4693C190.935 54.4693 202.244 59.622 210.58 69.9526C212.232 72.0788 213.045 73.8047 213.045 75.1804L213.02 75.2055ZM181.253 82.8596C187.886 78.3572 184.684 68.1266 176.628 68.1016C168.419 68.1016 161.202 70.603 155.026 75.5807C148.342 80.9335 144.988 87.5121 144.988 95.3663C144.988 100.469 150.807 103.471 155.102 100.594L181.278 82.8846L181.253 82.8596Z" fill="white"/>
<path d="M303.974 68.9872C303.974 70.9883 303.288 72.8143 301.89 74.4902C300.493 76.1661 298.79 77.0165 296.782 77.0165C295.512 77.0165 292.538 75.5157 287.862 72.5391C283.186 69.5625 278.383 68.0617 273.453 68.0617C265.244 68.0617 258.027 70.5631 251.851 75.5157C245.142 80.8686 241.813 87.4472 241.813 95.3014C241.813 103.156 244.685 110.109 250.428 115.837C256.172 121.566 263.109 124.417 271.191 124.417C276.375 124.417 281.687 123.091 287.125 120.415C292.564 117.739 295.588 116.413 296.223 116.413C298.231 116.413 300.035 117.038 301.636 118.289C303.212 119.539 304 121.09 304 122.941C304 127.669 299.578 131.596 290.734 134.698C283.644 137.049 277.138 138.25 271.216 138.25C260.06 138.25 250.377 134.723 242.169 127.694C232.842 119.69 227.175 107.983 227.048 95.8017C226.921 83.7702 231.724 73.7398 241.457 65.6604C250.555 58.2064 261.229 54.4544 273.504 54.4544C284.253 54.4544 293.911 58.1313 302.5 65.4603C303.517 66.3358 304.025 67.5114 304.025 69.0122L303.974 68.9872Z" fill="white"/>
<path d="M358.306 138.25C350.554 138.25 344.354 135.448 339.652 129.845C335.205 124.617 332.994 118.164 332.994 110.435V78.1422C332.994 72.4141 329.029 67.4114 323.362 66.0356H323.337C319.804 65.2852 318.025 63.109 318.025 59.5071C318.025 55.9052 319.804 53.729 323.337 52.9786C324.353 52.7284 327.581 52.6034 332.994 52.6034V29.4659C332.994 24.8634 335.459 22.5622 340.389 22.5622C345.319 22.5622 347.784 24.8884 347.784 29.5159V52.8035H366.184C371.114 52.8035 373.579 55.0797 373.579 59.6072C373.579 64.1346 371.114 66.4108 366.184 66.4108H347.784V110.435C347.784 114.412 348.903 117.688 351.139 120.24C353.375 122.791 356.45 124.067 360.39 124.067C361.152 124.067 362.296 123.942 363.82 123.692C365.345 123.442 366.438 123.317 367.073 123.317C368.979 123.317 370.53 123.992 371.749 125.368C372.969 126.743 373.579 128.344 373.579 130.22C373.579 135.573 368.496 138.25 358.331 138.25H358.306Z" fill="white"/>
<path d="M445.802 63.8094C445.802 65.6854 444.988 67.3613 443.336 68.8371C441.685 70.3379 439.931 71.0633 438.025 71.0633C437.39 71.0633 435.585 70.3379 432.612 68.9122C429.639 67.4864 426.691 66.761 423.793 66.761C417.338 66.761 412.154 68.8872 408.24 73.1144C404.327 77.3417 402.37 82.6446 402.37 88.973V131.521C402.37 135.998 399.905 138.25 394.974 138.25C390.044 138.25 387.579 135.998 387.579 131.521V59.5071C389.638 56.0302 392.535 54.2543 396.296 54.2543C397.313 54.2543 398.202 54.3543 398.939 54.5794C402.497 55.605 406.233 56.1803 409.765 54.9797C413.298 53.779 417.77 53.1287 423.031 53.1287C427.453 53.1287 432.002 53.9291 436.678 55.555C442.752 57.6811 445.776 60.4076 445.776 63.7594L445.802 63.8094Z" fill="white"/>
<path d="M550.426 96.8879C550.553 108.919 545.75 118.975 536.017 127.054C527.529 134.008 517.668 137.735 506.435 138.21C494.161 138.71 481.937 134.433 473.093 126.054C464.249 117.674 459.802 107.444 459.802 95.3621C459.802 83.2806 464.605 73.6504 474.211 65.6961C483.309 58.242 493.983 54.49 506.257 54.49C517.414 54.49 527.071 58.0169 535.28 65.0457C544.632 73.05 550.274 84.7313 550.426 96.9129V96.8879ZM535.661 97.3882C535.661 89.4339 532.789 82.5552 527.046 76.777C521.302 70.9989 514.364 68.0974 506.283 68.0974C498.201 68.0974 490.857 70.5987 484.681 75.5514C477.972 80.9043 474.643 87.4828 474.643 95.3371C474.643 103.191 477.515 110.145 483.258 115.873C489.002 121.601 495.914 124.453 504.021 124.453C512.128 124.453 519.447 121.976 525.623 116.999C532.332 111.771 535.661 105.242 535.661 97.4132V97.3882Z" fill="white"/>
<path d="M637.442 131.521C637.442 135.998 634.977 138.25 630.046 138.25C625.116 138.25 622.651 136.023 622.651 131.521V86.7468C622.651 85.246 622.016 83.32 620.745 80.9687C616.958 73.5147 610.503 69.5876 601.405 69.2123H599.118C590.401 68.8371 584.277 73.8649 580.744 84.3205C579.728 87.2971 579.219 89.2231 579.219 90.0986V130.771C579.219 135.248 576.754 137.474 571.824 137.474C566.894 137.474 564.429 135.248 564.429 130.771V63.7844C564.429 61.6583 565.242 59.9073 566.894 58.4565C568.546 57.0308 570.426 56.3054 572.586 56.3054C573.705 56.3054 574.67 56.4305 575.483 56.6806C579.956 58.0563 584.581 58.6066 589.029 57.1809C589.156 57.1308 589.308 57.0808 589.435 57.0558C593.603 55.9302 597.593 55.3799 601.38 55.3799C610.097 55.3799 618.178 58.3565 625.65 64.3347C633.477 70.8132 637.416 78.2672 637.416 86.7218V131.496L637.442 131.521Z" fill="white"/>
</g>
<defs>
<filter id="filter0_d_1_273" x="0.55835" y="0" width="640.883" height="146.25" filterUnits="userSpaceOnUse" color-interpolation-filters="sRGB">
<feFlood flood-opacity="0" result="BackgroundImageFix"/>
<feColorMatrix in="SourceAlpha" type="matrix" values="0 0 0 0 0 0 0 0 0 0 0 0 0 0 0 0 0 0 127 0" result="hardAlpha"/>
<feOffset dy="4"/>
<feGaussianBlur stdDeviation="2"/>
<feComposite in2="hardAlpha" operator="out"/>
<feColorMatrix type="matrix" values="0 0 0 0 0 0 0 0 0 0 0 0 0 0 0 0 0 0 0.25 0"/>
<feBlend mode="normal" in2="BackgroundImageFix" result="effect1_dropShadow_1_273"/>
<feBlend mode="normal" in="SourceGraphic" in2="effect1_dropShadow_1_273" result="shape"/>
</filter>
<clipPath id="clip0_1_273">
<rect width="632.883" height="138.25" fill="white" transform="translate(4.55835)"/>
</clipPath>
</defs>
</svg>
